<svg xmlns="http://www.w3.org/2000/svg" viewBox="0 0 380.72 589.65"><defs><style>.cls-1,.cls-4{fill:#231f20;}.cls-2{fill:#201e21;}.cls-3{fill:#fff;stroke:#000;stroke-width:0.89px;}.cls-4{fill-rule:evenodd;}</style></defs><title>fake-news-new-york-post</title><g id="Layer_2" data-name="Layer 2"><g id="Layer_1-2" data-name="Layer 1"><path id="path16880" class="cls-1" d="M84,535.69c-6.9-7.39-9.36-9.86-17.5-12.08v48.3l-.49.24-9.86-8.87L27.6,589.65l-.5-.25V523.12c-8.62,2-17.74,6.41-26.61,15.28L0,538.15c1.73-19,11.09-33,27.1-38.44v-48H21.93c-7.15,0-11.09,3.69-14.54,10.34H6.65c-.74-2.21-1.23-5.67-1.23-11.33,0-10.35,7.64-21.19,20.21-21.19H27.1V402.88L17,393.76l-4.93,4.93L10.34,397,35.23,370.6l23.16,21.19v22.42l5.42-5.91V380h2.71v25.88L99.29,370.6,127.14,396V503.17ZM27.11,514C17,516,9.87,522.14,5.18,530.27l.25.49c6.9-5.91,13.3-8.62,21.68-10.59ZM35,443.29H21.45c-9.37,0-13.06,5.91-13.31,12.81l.25.25c2.95-4.93,5.91-6.65,11.82-7.39h9.61V583.25L35,578.32Zm0-44.35L22.68,387.6l-3.95,4.19,11.09,9.85v27.85H35Zm28.83,14-5.42,5.67V561.32l5.42,4.93Zm32.28-5.67L81.57,394l-15,16.26V497c12.81,1.24,21.68,4.93,29.32,13.31l.25-.24ZM66.54,514v6.4c8.38,2,11.82,4.44,17.74,11.33L90,527.31C84,519.92,78.12,515.49,66.54,514ZM104,403.37,87.23,387.85,83.29,392l15.53,14.29V520.91L104,517Zm109.16,32.77v69l-41.65,30.8-31.29-23.66-3.7,4.19-2-2,4.43-4.93V442.06l43.62-31.3,29.07,22.67,4.68-4.93,2,2Zm-66.29,71V439.84l-5.17,3.7v66.28l29.57,22.67,4.68-3.45Zm39.67-62.84L165.84,428l-.25.25v73.42l20.94,15.77Zm7.89-4.43L171.5,422.1l-4.68,3.44,22.43,17.25v76.64l5.17-3.94Zm75.89,15.52h25.38v52.73l-39.18,27.6a28.4,28.4,0,0,0-21.68-10.1c-7.39,0-13.31,2.46-21.19,9.11l-1.23-.49,33.51-48.79h-20.7V439.59L266.37,411c4.93,3.94,8.62,6.16,15,6.16,4.93,0,12.07-1,17.49-5.42l1,.49Zm-27.6,63.08A30.11,30.11,0,0,0,225,524.35v.5a27.95,27.95,0,0,1,32,7.39l5.67-4.18C258,522.63,252.32,518.44,242.71,518.44ZM269.08,477h-13.8l-28.82,41.65.24.49c7.14-5.17,14-8.62,22.42-8.62a25.63,25.63,0,0,1,19.71,9.36l.25-.24V477Zm-36,0V437.38l-5.18,3.69v41.4h20l3.94-5.42H233.11Zm51.49-48.29c-5.17,3.7-8.13,5.67-16.76,5.67a22,22,0,0,1-15.52-7.15l-.49.25v36h9.36L284.84,429Zm-11.83-2.22A17.83,17.83,0,0,1,259,419.39l-6.16,4.18c4.68,5.67,9.11,8.14,16,8.14,4.44,0,10.85-1.24,17.5-6.91l.24-.73a37.78,37.78,0,0,1-13.8,2.46ZM277,468.92H261l-3.69,5.17h14.53v47.8L277,518.2Zm59.64,66.77L313.93,518l-4.69,5.17-2-2,5.42-5.91V429H298.4l-.49-.5,8.62-12.81h6.16V399.18l26.12-27.84.49.49v43.86H359l.5.5L350.88,429H339.3v74.66L352.86,514l5.17-5.67,2,2Zm-16-140.7-5.18,5.67v15h5.18Zm0,117.78V429H315.4v86.73l21,16.27,3.69-4Z"/><path class="cls-2" d="M7,240.06l7.17,56.11L.72,347.64H36L57.73,329.3a20.92,20.92,0,0,0,1.83,10.09C65.35,351.19,82.92,353,92.89,353c16.77,0,30-5.8,38.68-13.31l9.61-8.07-4.42,16.06h36.15l15.27-13.1c-1.3,4.5-2.16,7.28-2.17,7.33l-1.79,5.77h74.62l16.33-14,2.73,14h39.29L349,320.92l-13.64-67.05,45.36-57H343.11L321,215.53l5.41-18.68H289.27l-8.87,7.8c-.13-.19-.26-.38-.41-.56-3.79-4.92-10.56-7.22-21.3-7.24h-56l-8.87,7.86h-.38c-5.14-10.55-19.07-12.22-33.79-12.22-10.59,0-19.28,1.61-26.41,4.94l.4-.58h-38L74.14,215.08l-.92-18.23H36.72Z"/><polygon class="cls-3" points="96.36 201.31 69.74 243.44 69.42 243.44 67.28 201.31 40.08 201.31 48.83 269.73 36.6 316.46 62.71 316.46 75.88 270.53 123.47 201.31 96.36 201.31"/><path class="cls-3" d="M189.29,212.78C188.35,201.08,179.2,197,158,197c-17.46,0-29.19,4.49-37,14.49-2.36,3-5,6.12-6.8,10-4.37,9.55-6.81,22-10.36,35.64-2.87,11-6.29,22-9.8,35.58-2,7.71-2.37,13.73-.27,18,4.35,8.88,18.42,11.07,29.32,11.07,22.1,0,39-11.07,44.17-23.15,1.93-4.48,7.12-22.59,12.15-41.32C184.64,237.51,190.24,224.49,189.29,212.78Zm-37.84,44.41c-7.92,29.68-8.81,41.54-21.63,41.54-5.13,0-7.48-1.88-6.91-7.69.6-6.19,4.25-16.87,9.36-33.88,8.92-29.66,7.75-36.91,19.95-36.91C163,220.25,160.16,224.53,151.45,257.19Z"/><path class="cls-3" d="M251.88,260.31,252,260c16-4.42,18.13-13.8,22.65-31.16,4.27-16.35,5.32-27.46-17.63-27.5h-52.6L172.72,316.46h27L213.37,270l10.27,0c8.51,0,8.82,2,3.42,22.72-3.52,13.52-6.69,23.77-6.69,23.77h28.09s10.29-34.84,11.52-38.92C262.7,268.47,263.27,262.05,251.88,260.31Zm-8-23.89c-2.53,10.14-5,13.36-15.88,13.35l-8.35,0L228,221.81h8.19C246.89,221.84,246.38,226.27,243.86,236.42Z"/><polygon class="cls-3" points="343.38 201.31 307.72 240.54 307.4 240.54 318.75 201.31 290.9 201.31 256.79 316.46 285.66 316.46 301.6 264.85 311.68 316.46 341.84 316.46 328.87 252.73 369.77 201.31 343.38 201.31"/><path class="cls-4" d="M48.85,175.72c-11.82-1.48-16.24-7.39-16.24-13.3,0-2.94,4.42-10.33,10.34-10.33,7.37-1.47,13.28,1.49,19.19,8.86l26.57-29.53H87.24l-7.38,7.39C74,131.42,63.62,125.51,53.28,124V36.92l66.44,122.56a6.49,6.49,0,0,0,4.43,1.47,1.44,1.44,0,0,0,1.48-1.47V36.92c5.9-1.48,13.29-4.43,17.72-7.37,13.28-13.3,7.38-28.06,5.9-29.55,0,5.92-5.9,11.82-13.29,13.3-10.33,0-17.71-8.87-17.71-8.87L93.14,34l1.48,1.47L102,26.58c8.86,8.86,14.77,8.86,22.15,10.34v70.87L74,17.73C69.52,10.34,63.62,3,51.8,3S31.13,13.3,29.65,23.64s0,13.28,0,13.28,1.48-11.81,8.87-11.81S48.85,31,51.8,35.44V62c-7.38,0-25.1,0-25.1,19.18,0,5.91,4.43,13.3,7.38,16.24a17.57,17.57,0,0,0,8.87,3s-5.92-3-4.43-8.87,13.28-5.9,13.28-4.43V124c-5.9,0-22.15,0-31,14.78-4.43,8.86-4.43,19.18,1.47,26.58,4.43,5.91,11.81,13.28,26.58,10.33Z"/><path class="cls-4" d="M190.6,53.16S177.31,62,167,67.93L146.3,78.27v57.58l-8.86,5.9,1.48,1.49,8.86-5.9,23.62,22.14,44.3-34L214.22,124,190.6,143.24,171.4,124v-5.9l38.39-29.52L190.6,53.16Zm0,47.26-19.2,14.75V66.46l19.2,34Z"/><path class="cls-4" d="M251.13,159.48,229,141.75l-8.85,7.39-1.48-1.47L229,140.28V91.55c0-20.67-19.19-14.76-17.72-36.91,0-8.86,8.87-16.24,14.77-19.2A39.15,39.15,0,0,1,236.37,34S227.51,38.4,229,47.26c3,11.81,23.63,11.81,25.11,28.05v56.11l14.76,11.82,4.43-3V79.74l-8.86-7.37L285.1,53.16l19.19,17.72-7.38,7.39v53.15l19.19,14.76,2.95-1.47v-65l-8.86-7.37,20.67-19.21L351.53,69.4,358.92,62l1.48,1.46L342.68,79.74v51.68l-45.77,28.06-23.63-17.73-22.15,17.73Z"/></g></g></svg>