<svg id="Layer_1" data-name="Layer 1" xmlns="http://www.w3.org/2000/svg" xmlns:xlink="http://www.w3.org/1999/xlink" viewBox="0 0 280 170"><defs><style>.cls-1{fill:none;}.cls-2{clip-path:url(#clip-path);}.cls-3{fill:url(#linear-gradient);}</style><clipPath id="clip-path"><path class="cls-1" d="M3.6,83.13c1.17-13.57,2.57-27.5,3.63-40C8.28,31.53,9.8,12.46,10.5,5c.12-1.52.94-2.34,2.69-2.34,5.39,0,12.87.12,15.68.12,3.63,0,12.52-.12,16.62-.12,1.28,0,1.87.7,1.75,2A6.76,6.76,0,0,0,47,6a6.54,6.54,0,0,0-.12,1.52,1.86,1.86,0,0,1-2.11,1.88H18.58a1.07,1.07,0,0,0-1.17,1.05l-2.58,29.6c-.12.82.24,1.17.94,1.17H36.71c1.29,0,1.87.7,1.76,2a6.84,6.84,0,0,0-.24,1.4,7.07,7.07,0,0,0-.12,1.64A1.82,1.82,0,0,1,36,48H15.18c-.7,0-1,.35-1.17,1.17L11,83.13c0,1.4-.59,2-1.87,2-.59,0-1.17-.12-1.76-.12s-1.4.12-2,.12C4.07,85.12,3.48,84.53,3.6,83.13Zm47.15-.47c1.4-16.15,2.69-29.6,3.63-40,1.17-13.1,2-24.22,3.16-38.14.11-1.4.7-1.87,2-1.87h3.75c1.29,0,1.87.58,1.75,1.87-1.28,14.86-2.1,22.82-3.39,38.14-.35,3.16-1.75,19.78-2.92,34.52-.12.82.23,1,.93,1H85c1.29,0,2.11.71,1.87,2.11a4.87,4.87,0,0,1-.23,1.29,7.55,7.55,0,0,1-.12,1.64,1.85,1.85,0,0,1-2.1,1.87c-6.09,0-10.3-.12-15.57-.12-6.08,0-11.81.12-15.79.12C51.33,85.12,50.51,84.18,50.75,82.66Zm49.61.47,1.87-19.89A5.22,5.22,0,0,0,102,60.9c-.46-1.87-13.1-49-14.85-56-.36-1.4.23-2.22,1.75-2.22H92.4c1.4,0,2,.47,2.46,2.11l7.25,28.19c1.76,7.26,3.28,13.11,4.45,19,.23.82.23,1.17.47,1.17s.35-.24.7-1.17c2.34-6.09,4.68-11.7,7.84-19,1.4-3.62,11.58-26.56,12.17-28.19s1.4-2.11,2.69-2.11h3.62c1.41,0,2,.82,1.41,2.22-3,7.14-23.87,54.29-24.69,56.16a6.08,6.08,0,0,0-.58,2.23l-1.88,19.89c0,1.4-.58,2-1.87,2-.58,0-1.52-.12-2.1-.12s-1.53.12-2.11.12C100.94,85.12,100.24,84.53,100.36,83.13Zm38.37,0,3.63-39.55c1.4-15.91,2.22-26.56,3.28-39.08.11-1.4.7-1.87,2-1.87h3.87c1.28,0,1.87.58,1.75,1.87l-3.51,39.08c-1.4,15.45-2.22,26.56-3.39,39.55-.12,1.4-.7,2-2,2-.59,0-1.29-.12-1.87-.12s-1.41.12-2,.12C139.2,85.12,138.61,84.42,138.73,83.13Zm23.17,0s2.34-25.39,3.39-38c1.05-10.88,3.28-37.79,3.51-40.48a2,2,0,0,1,2.22-2h6.67c1.17,0,1.88.7,2.34,2C180.74,7,192,36.79,193.49,41.94c.58,1.76,5.38,13.46,6.2,16.27,4.45,11.7,5,14.15,6,18.48.23.59.23.7.47.7s.23-.11.23-.58c.12-6.67.94-16.85,2.92-39.43C210.34,25.21,212,4.5,212,4.5c.23-1.4.81-1.87,2.1-1.87h3.75c1.28,0,1.87.47,1.75,1.87,0,0-2.46,25.62-3.86,40.6C214.55,58.44,212.56,83,212.56,83a2.06,2.06,0,0,1-2.22,2.11h-6.67c-1.29,0-1.87-.7-2.46-2.11L188.57,49.55c-1.52-4.57-6.08-15.92-6.78-18.37a204.38,204.38,0,0,1-6.55-19.78c0-.46-.12-.7-.35-.7s-.24.35-.36.7c-.11,9.13-.58,15.45-3.15,45.05-1.06,11.82-2.23,26.68-2.23,26.68a1.79,1.79,0,0,1-2,2c-.58,0-1-.12-1.64-.12s-1.28.12-1.87.12C162.37,85.12,161.78,84.53,161.9,83.13Zm66.69-15.68,2.22-23.64c.82-9.47,1.17-14.27,1.87-23.51.82-9.72,7.14-17.91,18.37-17.91,1.29,0,3.86.12,5,.12s4-.12,5.27-.12c11.11,0,15.79,8.19,15,18l-.58,7.38c-.23,1.28-.82,1.87-2.11,1.87-.58,0-1.28-.12-1.87-.12s-1.29.12-1.87.12c-1.29,0-1.87-.59-1.64-1.87l.47-6.79c.82-8.31-2.57-11.94-10.77-11.94h-4.68c-8.07,0-12.51,3.51-13.22,11.94l-4,45.86c-.7,8.08,3.4,11.82,11.47,11.82h4.1c8.07,0,13-3.74,13.69-11.82l1.52-18.25c.11-.7-.24-1-.94-1h-11.7c-1.4,0-2-.7-1.75-2a5.61,5.61,0,0,1,.23-1.4,5.6,5.6,0,0,1,.12-1.41,1.84,1.84,0,0,1,2.1-1.87c1.17,0,5.62.12,7.49.12,2.34,0,6.09-.12,7.49-.12,3.39,0,4.8,1.75,4.56,5-.11,1.17-.7,8.07-1.05,11l-.82,10.53c-.94,9.59-7.72,17.9-18.95,17.9-1.41,0-3.51-.12-4.68-.12s-3.51.12-4.8.12C233,85.35,227.65,77.39,228.59,67.45ZM12.46,164.2c-.11-.34-4.32-31.08-4.32-31.08a.46.46,0,0,1,.46-.57h.51c.34,0,.45.17.51.51.23,1.54,3.75,26.42,4.15,30.12.05.34.34.34.4,0,.45-2.56,9.71-28.35,10.34-30.17a.64.64,0,0,1,.68-.51h1c.28,0,.46.17.51.51.29,1.53,4.83,27.67,5.29,30.57.05.28.34.11.39-.12.69-2.78,9.21-29.77,9.44-30.45.11-.29.22-.46.56-.46h.51c.29,0,.52.17.4.57L33.6,164.2c-.17.51-.29.68-.8.68H31.38a.63.63,0,0,1-.68-.51c-.17-.91-4.77-26.42-5.11-29.66,0-.17-.18-.17-.23,0-.85,2.9-10,28.92-10.29,29.66-.11.34-.17.51-.51.51H13.2C12.69,164.88,12.52,164.71,12.46,164.2Zm35.34.68h-.63c-.34,0-.51-.22-.45-.57,0,0,.85-9.26,1.42-15.85L49.5,133a.53.53,0,0,1,.57-.51h.63a.43.43,0,0,1,.45.56s-.68,7.16-1.42,15.4c-.57,6.65-1.36,15.91-1.36,15.91A.53.53,0,0,1,47.8,164.88Zm2.38-39.48c.06-.35.23-.52.57-.52h.63a.43.43,0,0,1,.45.57l-.4,4.32a.51.51,0,0,1-.56.51h-.63a.43.43,0,0,1-.45-.57Zm18.58,38.06a.38.38,0,0,1,.4.51l-.11.46a.52.52,0,0,1-.57.45H64.56c-5.46,0-8-2.5-7.33-9.15.06-.73.57-5.34,1.08-11.47.85-9.72,1.59-18.92,1.59-18.92.06-.34.17-.46.51-.46H61c.34,0,.51.17.45.52l-.62,6.7c-.06.34.05.51.45.51H71.43c.34,0,.51.17.46.45l-.12.57a.44.44,0,0,1-.51.4H61.21c-.4,0-.52.11-.57.51l-1.88,21.37c-.57,6.53,2.16,7.55,5.74,7.55Zm10.51-38.58h.51a.44.44,0,0,1,.46.57l-.57,6.65q-.09.51.51.51l9.83-.06c5.17-.05,7.5,2.5,7.1,7.62,0,0-.4,3.46-1,9.94-.4,4.6-1.2,14.26-1.2,14.26a.51.51,0,0,1-.56.51h-.52c-.34,0-.51-.22-.45-.57l2.16-24.37c.34-4-1.42-5.91-5.4-5.91H80.07a.59.59,0,0,0-.63.51l-2.67,29.83a.52.52,0,0,1-.57.51h-.51c-.34,0-.51-.22-.45-.57,0,0,1.08-12.15,1.7-18.8.46-4.83,1.76-20.11,1.76-20.11C78.76,125.05,78.93,124.88,79.27,124.88Zm35.7,38,3-33.56,2.77-32.17a2,2,0,0,1,2.28-2c4.25,0,9.9.1,12.37.1,2.87,0,4.26-.1,7.43-.1,9.6,0,14.35,6,13.56,15-.49,5.54-.89,9-1.78,19.2L152.89,150c-.9,9.21-6.74,14.95-16.24,14.95-1.88,0-5.94-.1-8.61-.1-2,0-6.44.1-11.19.1C115.46,165,114.77,164.19,115,162.9Zm21.48-3.66c5.84,0,9.7-3.66,10.1-9l3.56-40.29c.5-5.15-2.57-9.31-8.51-9.31h-14c-.69,0-1,.2-1.09,1l-5,56.63c-.1.69.2,1,.89,1Zm26.63-10.4.6-6.23c0-1.19.49-1.59,1.68-1.59h3.07c1.19,0,1.58.4,1.58,1.59l-.59,6.63c-.69,7.82,3.76,10.3,11.09,10.3h2.67c7.32,0,12.57-4.06,13.17-11.29v-.1c.89-9.6-5.55-12.47-14-16.43-9.61-4.36-16-8.72-14.95-20.6.79-9.3,7.13-16.13,16.43-16.13,1,0,2.28.1,3.37.1s2.87-.1,3.86-.1c9.8,0,14.35,6.63,13.56,15.54l-.49,6.14a1.49,1.49,0,0,1-1.69,1.58c-.49,0-1-.1-1.48-.1s-1.09.1-1.59.1a1.37,1.37,0,0,1-1.58-1.58l.5-5.64c.69-7.33-2.88-10.5-10.1-10.5h-2.48c-7.22,0-11.38,3.47-12,10.4v.1c-.69,7.52,2.88,10.69,13,15.54,10.7,5.25,17.23,9.11,16.14,21.09-.79,8.81-7.13,17.52-17.52,17.52-1.19,0-3-.1-4.06-.1s-2.87.1-4,.1C167.74,165.18,162.09,159.63,163.08,148.84Zm49.2,14.06,3-33.56L218,97.17a2,2,0,0,1,2.27-2c4.26,0,9.9.1,12.38.1,2.87,0,4.26-.1,7.42-.1,9.61,0,14.36,6,13.57,15-.5,5.54-.89,9-1.79,19.2L250.2,150C249.31,159.24,243.47,165,234,165c-1.88,0-5.93-.1-8.61-.1-2,0-6.43.1-11.19.1C212.78,165,212.09,164.19,212.28,162.9Zm21.49-3.66c5.84,0,9.7-3.66,10.09-9l3.57-40.29c.49-5.15-2.57-9.31-8.52-9.31H225c-.7,0-1,.2-1.09,1l-5,56.63c-.1.69.19,1,.89,1Z"/></clipPath><linearGradient id="linear-gradient" x1="40.3" y1="-34.82" x2="239.7" y2="202.82" gradientUnits="userSpaceOnUse"><stop offset="0" stop-color="#b4ec51"/><stop offset="0.51" stop-color="#8ecf41"/><stop offset="1" stop-color="#429321"/></linearGradient></defs><title>Artboard 2</title><g class="cls-2"><rect class="cls-3" y="-1" width="280" height="170"/></g></svg>