<svg id="Layer_1" data-name="Layer 1" xmlns="http://www.w3.org/2000/svg" viewBox="0 0 326 128"><defs><style>.cls-1{isolation:isolate;}.cls-2{fill:#122376;}</style></defs><title>Artboard 1</title><g id="Page-1"><g id="iPad-Pro"><g id="Lunch-at-Vinnie_s" data-name="Lunch-at-Vinnie’s" class="cls-1"><g class="cls-1"><path class="cls-2" d="M25.05,38.1c-.35,1.07-.53.12-4.2.45-3.56,0-5.92.5-12.55.15-.05-.2.1-.25.1-.4a7.63,7.63,0,0,0,0-1.85c.19-6.82-.15-5.21-.05-6.7.32-2-.29-3.46-.15-4.45,0-5.46.07-13.65-.1-16.45,0-7.44.35-4.64.35-5.5C9.6,3,11.3,3.15,12.55,3l0,0c0,.05,0,.05.05.1.55.15,1.3-.2,1.65.2-.07.41-.06,10.3-.05,10.4,0,1.25.2,2.5.15,3.85-.23,3.16.1,3.13.1,6.45a15.81,15.81,0,0,1,.3,3.15c0,8.48-2.1,4.38,10,5.55.15.2.1.4.3.55a.82.82,0,0,0,.1.75,5.39,5.39,0,0,0,.1,1.8A14,14,0,0,1,25.05,38.1ZM8.55,8.7c0,.15,0,.25,0,.25A.88.88,0,0,0,8.55,8.7ZM8.9,5.15A2.57,2.57,0,0,0,8.85,6s0,.35,0,.2C8.9,5.35,8.9,5.61,8.9,5.15ZM9.1,20c0-.05,0-.1-.1-.15S9.1,20,9.1,20Zm0-5.5a4.85,4.85,0,0,0,0,1.7C9.1,15.7,9.15,14.9,9.1,14.45Zm.25,13.2c0-.35,0-.8,0-1.2,0,.05-.05.05-.05,0a3.08,3.08,0,0,0,.1,1.2V28C9.35,27.8,9.5,27.8,9.35,27.65ZM9.25,4.8c.35.55.15,1.4.3,2.2A16.26,16.26,0,0,0,9.7,4.8c-.2,0-.2-.2-.35-.2S9.4,4.8,9.25,4.8Zm.4,14.9c-.15-.25-.05-.5-.2-.75,0,.75,0,1.7,0,2.3C9.84,21.25,9.46,20.27,9.65,19.7Zm.1-5.95c0,.2-.1.3-.1.45a15.24,15.24,0,0,0,.1,2.95C9.8,16.65,9.76,13.85,9.75,13.75Zm.1,17.45c0,.05-.15.2,0,.25A.22.22,0,0,0,9.85,31.2Zm.15-9a.11.11,0,0,1,.1-.1c0-.1,0-.15.05-.15-.15,0-.15-.1-.2-.1C10,22.1,10,22.2,10,22.2Zm0-.75a.55.55,0,0,0,0-.4C10,21.2,10,21.4,10,21.45Zm.1,1.95c-.15,0,.05-.25-.1-.25C10,23.3,10,23.55,10.1,23.4Zm.1,14.65h-.15a.11.11,0,0,0,.1.1C10.1,38,10.2,38.1,10.2,38.05ZM10.4,9.9c0-.15.1-.4-.05-.45C10.35,9.6,10.25,9.75,10.4,9.9Zm.15,19.8h-.1a2.25,2.25,0,0,0,0,1.15C10.6,30.45,10.5,30.25,10.55,29.7ZM10.4,9.05V8.8c0-.05,0-.05-.05-.05C10.35,8.9,10.35,9.4,10.4,9.05Zm0,9.1c0,.15-.1.4,0,.4C10.45,18.4,10.55,18.2,10.4,18.15ZM10.8,4.7h-.1c0,.2.05.4.05.55A1.27,1.27,0,0,0,10.8,4.7ZM11.3,27c-.05-.05-.1.05-.1,0a10.37,10.37,0,0,0,0-3.05,15.1,15.1,0,0,0,0,3c0,.15-.1.55,0,.4s0,.1.05.1S11.3,27.1,11.3,27Zm-.1.65c0,.2-.15.55.05.7C11.25,28.1,11.35,27.75,11.2,27.6Zm.05-19c-.05.05-.15.3.05.25C11.25,8.7,11.4,8.55,11.25,8.6Zm0,8a6.05,6.05,0,0,0-.05,1A1.53,1.53,0,0,0,11.25,16.65ZM11.3,4.9c0,.75,0,1.3,0,2.1a12.17,12.17,0,0,0,.3-2.2A.58.58,0,0,1,11.3,4.9Zm0,32c0,.15,0,.35,0,.4S11.35,36.8,11.35,36.85Zm.85,1.45c-.25,0-.5-.15-.7-.1s.05,0,0,.15C11.75,38.3,12,38.35,12.2,38.3Zm-.45-8.5a8.22,8.22,0,0,0,.1,1.95A12.11,12.11,0,0,0,12,29.8Zm0-19.35A20.39,20.39,0,0,0,11.9,6.2,30.73,30.73,0,0,0,11.75,10.45Zm.3,14.8c-.15,0-.1-.05-.15-.05,0,.2-.05.45.1.6C12.05,25.65,12,25.45,12.05,25.25ZM12,12.6c0,.15,0,.45,0,.4s0-.15.05-.15c.05.2-.15.3,0,.35.05-.15.15-.45,0-.6C12,12.75,12,12.6,12,12.6Zm.05.75c-.05.05-.05.15-.05.4S12.06,13.54,12,13.35Zm.3,7.9c.15-.05.1-.55-.05-.5C12.4,20.9,12.25,21.05,12.3,21.25Zm0,14.9c-.05.15,0,.05,0,.2,0-.15.3,0,.35-.1Zm0-31.1a7.49,7.49,0,0,0,.1,1.1c0-.4.15-.75,0-1.1Zm0,32.05c0,.25.6.1.8.1Zm.15-27.65a4.87,4.87,0,0,0,.1-1.3c0-.05-.05-.05-.1-.05Zm.2,5.3A10.19,10.19,0,0,0,13,11.9c0-.15-.15,0-.1-.15,0-1.25.15-1.7.1-3.05A29.56,29.56,0,0,0,12.65,14.75Zm.2-11q.08-.15-.15-.15C12.65,3.75,12.85,3.7,12.85,3.75ZM12.9,5.2s-.1.35,0,.35,0-.2.05-.35Zm.2,15.65c0-.05.05-.2,0-.25,0-.35.15-.55,0-.7,0,.2-.2.55,0,.7C13.1,20.65,13,20.8,13.1,20.85ZM14.25,36.1a.7.7,0,0,0-.7-.05A3.3,3.3,0,0,0,14.25,36.1Zm-.5-26.3a26.38,26.38,0,0,0,0-4.45A33,33,0,0,0,13.75,9.8Zm.1,6.35c0,.35-.3.75.05.8a17.83,17.83,0,0,0-.05-2.35C13.85,15.15,13.9,15.6,13.85,16.15Zm-.1-5.25a19.23,19.23,0,0,0,.05,2.4A6.48,6.48,0,0,0,13.75,10.9Zm2,23.25a4.56,4.56,0,0,0-2,.05A13.36,13.36,0,0,0,15.75,34.15Zm-1.9-1.1c0-.25,0-.4,0-.45C13.85,32.75,13.65,33,13.85,33.05ZM14,22.35a2.16,2.16,0,0,0-.05-.8C14,21.8,13.85,22.2,14,22.35Zm.3,5.1a11,11,0,0,0-.15-2.6A7.38,7.38,0,0,0,14.3,27.45Zm.7,8.6c-.15-.15-.5.1-.5,0s-.1,0-.1,0A.37.37,0,0,0,15,36.05Zm1.6,2.2c-1.2,0-1.48-.24-1.65,0C15.5,38.3,16.05,38.3,16.6,38.25Zm-.85-4.1c.05,0,.05,0,.1,0h0Zm1.15-.9c0-.2-.4,0-.35,0S16.75,33.2,16.9,33.25Zm1.15,1.25c-.25,0-1.05,0-1.2.1A3,3,0,0,0,18.05,34.5Zm.15,0a3.82,3.82,0,0,0,1.3-.1c.05.05,0,.2.15.25.15-.15.7.05.9-.1-.35,0-.5-.15-.9-.1-.15,0,0-.15-.15-.1Zm2.55,3.55-.3-.15v.15a5.28,5.28,0,0,0-1.5.1A11.48,11.48,0,0,0,20.75,38.05Zm-1.15-2.9c-.2.05-.4-.1-.55.05C19.2,35.15,19.55,35.3,19.6,35.15Zm-.55.7c.05,0,.3.1.15-.05C19.2,36,19.05,35.7,19.05,35.85Zm1.9,1.4c-.15-.15-.55-.1-.7,0C20.6,37.25,20.7,37.1,21,37.25ZM20.6,34.6c.15,0,.2.15.25,0C20.7,34.6,20.65,34.45,20.6,34.6Zm.5.7c-.2,0-.25.05-.45,0C20.65,35.45,21.05,35.45,21.1,35.3Zm.25-.25a24,24,0,0,0,2.6.15c0-.25-.4-.25-.6-.2C22.8,35,21.8,35,21.35,35.05ZM22,34.4a12.18,12.18,0,0,0,1.35.05c.15,0,.35.15.4-.05A5.14,5.14,0,0,0,22,34.4Zm1.65,2.5a3.57,3.57,0,0,0-1.45.1,1.67,1.67,0,0,0,.5,0C23.05,37.05,23.65,37.25,23.65,36.9Zm.1-1.2c-.45,0-1.25-.05-1.45.1a4.35,4.35,0,0,0,1.45.1S23.8,35.85,23.75,35.7Zm-1.3-1.9c.4,0,.95.15,1.3,0A2.82,2.82,0,0,0,22.45,33.8ZM24,36.45c-.05-.15-.45-.05-.45,0S23.8,36.5,24,36.45Zm.55,1.7c-.05,0-.35-.15-.4,0S24.5,38.3,24.55,38.15Zm.25-1.45h-.15c.05,0,.05.1.05.2C24.85,36.9,24.75,36.75,24.8,36.7Z"/><path class="cls-2" d="M32.5,37.1a8.51,8.51,0,0,1-.95-1c-.05,0-.15,0-.2,0-.35-.75-1-1.1-1.3-1.75-.15-.25-.15-.5-.35-.7s-.25-.35-.2-.7a5.09,5.09,0,0,1-.4-2.2,9.71,9.71,0,0,1-.2-2.2c0-.05.05-.15.05-.2l-.05-.1c-.07-.28.05-.65.05-1.85,0-.15.1-.1.1-.25a12.46,12.46,0,0,1-.15-2.1c0-.05.05-.1.05-.15s0,0,.05,0c0-.15-.15-.2,0-.25s-.1,0-.1-.1c.15-1.79-.08-3,0-4.6.1-6.16.18-5.43.05-6.85,0-3.25.05-8.23.05-8.3a.23.23,0,0,0,.15-.25c.35-.2.9,0,1.25-.3A8.66,8.66,0,0,0,32,3.05c.55,0,1,.2,1.4.05.25.2.6.15,1,.2.15-.25.65-.3.5.05.25,0,.25.2.4.25.09.94-.26,1.69,0,1.95-.15,0,0,.1-.1.15.14,1.71.13,15,.05,15.05.08,1-.15,6.51,0,9.05a3.15,3.15,0,0,0,1.15,2.35c.2,0,.25.15.4.2a9.33,9.33,0,0,0,2,.3c.15,0,.4-.15.6-.15s.1,0,.25,0,1.52-.42,1.85-1.4v-.35a2.54,2.54,0,0,0,.15-1.25c0-.15-.1-.05-.05-.2a2.48,2.48,0,0,0,0-1.05,3.23,3.23,0,0,1,.1-.5,22.67,22.67,0,0,1-.1-3.95c0-.1.05-11.6.15-11.7a41.2,41.2,0,0,1,.1-6.85s-.1,0-.1,0c.21-.21-.23-.22,0-.5,0-.35,0-.8,0-1.2l.6-.2s0,.05.2.05.2-.1.25-.1a2.27,2.27,0,0,1,.7,0c.35-.05.55-.2.75-.05,0-.1,0-.1.1,0,2.51-.34,2,.17,3.4.3a.84.84,0,0,1,.2.7c-.05.55,0,1.1,0,1.65A76.37,76.37,0,0,0,47.9,14c0,.11-.1,6.1-.1,6.2,0,.61.12,5.57,0,7.4a4.3,4.3,0,0,0,0,1.6,1.77,1.77,0,0,0,.05.3c0,.15-.05.2-.05.35s.1.5,0,.7a5.69,5.69,0,0,1-.7,3.4c.05.35-.2.55-.35.75a2.5,2.5,0,0,1-1,1.2,5.7,5.7,0,0,1-.55.55l-.55.5c-.2.15-.4.15-.6.3l-.55.4a3.73,3.73,0,0,0-1,.5,12.07,12.07,0,0,1-2.3.55C35.09,39.25,34,37.79,32.5,37.1ZM29.35,17.7a19.92,19.92,0,0,0,0,3c0-.85,0-2.15,0-3Zm0-.05c.15,0,0-.25,0-.3C29.25,17.5,29.4,17.5,29.35,17.65Zm0,3.5c0,.15,0,.2,0,.35s-.1.35.05.4C29.45,21.7,29.4,21.3,29.4,21.15Zm.15-9v.5a6,6,0,0,0,0,1.9c0-.35-.05-.7.1-.85C29.65,13.15,29.6,12.7,29.55,12.15Zm.1-8.3H29.5V4.1a.18.18,0,0,1,.15,0Zm.15,20.4a10.87,10.87,0,0,0,.1,1.8A3.7,3.7,0,0,0,29.8,24.25Zm.1,6.85c-.15.15,0,.3.05.45C30,31.4,30.05,31.15,29.9,31.1Zm0-25.45c0,.35-.05.5.1.75-.05-.2.1-.6-.05-.75ZM30.15,28a2.42,2.42,0,0,0,.1,1.1v.1c0,.05,0,.05.05,0A4.93,4.93,0,0,0,30.15,28Zm.45-4.15c-.15-.55-.05-1.2-.2-1.75A3.46,3.46,0,0,0,30.6,23.85ZM30.45,6.5a12.66,12.66,0,0,0,.05-1.45C30.33,5.22,30.42,6.35,30.45,6.5Zm.05,3.35c-.05.05-.1.4.05.4C30.55,10.1,30.5,10,30.5,9.85Zm.4,20.35c-.15-.6,0-1.35-.25-1.9,0,.45.05,1.15.05,1.7C30.85,30.05,30.85,30.15,30.9,30.2Zm0-20c.15-.15.05-.4.05-.55V8.4a.38.38,0,0,1-.2-.1ZM31,5.6c.15-.15.1-.4.15-.6C30.75,4.85,31,5.45,31,5.6Zm0,28.1v.1H31c.05,0,.05.05.1.05s0,.25.25.45a1,1,0,0,0-.25-.45A.13.13,0,0,0,31,33.7Zm.45-2.2c0-.05,0-.15,0-.3-.05,0-.05.1-.2.1A.54.54,0,0,0,31.4,31.5Zm.2-1.95a3.42,3.42,0,0,0-.25-1.35A5.87,5.87,0,0,0,31.6,29.55Zm-.05-11a7.57,7.57,0,0,0-.1-1.5l-.05.05C31.42,17.65,31.33,18.17,31.55,18.5Zm.1,11.35c0-.1,0-.15,0-.2C31.6,29.8,31.65,29.8,31.65,29.85Zm.1-25c.15,0,.1-.15.05-.2s0,0-.05,0Zm.6,29.3a10.58,10.58,0,0,0-.55-1.05c0,.05,0,.1-.05.1C32,33.5,32,33.85,32.35,34.1ZM32,21.65v0Zm0,10a.61.61,0,0,0,.15.45C32.1,32,32.1,31.7,32,31.65Zm.75,5.05c0-.25-.2-.15-.35-.3Zm-.15-5.65c0,.25.05.55.05.7S32.6,31.4,32.55,31.05ZM32.7,3.6c-.05,0-.05,0-.1-.05l.1.2Zm0,5.9c.15-.15,0-.35,0-.5C32.8,9.2,32.6,9.45,32.75,9.5ZM33.25,36a1.42,1.42,0,0,0-.5-.45C32.8,35.7,33.05,35.8,33.25,36Zm-.2-21.4a1.08,1.08,0,0,0,0-.4A.55.55,0,0,0,33.05,14.55Zm.35,18c.15,0,.05-.15,0-.15Zm.1-19.1s0-.25,0-.3.1-.45,0-.6c0,.25-.1.45,0,.6Zm.15-7.65c-.15,0,0,0-.15,0,0,.15,0,.2.1.2C33.6,5.8,33.65,5.85,33.65,5.8Zm.55,30.75a.76.76,0,0,0-.4-.2C34,36.5,34.1,36.6,34.2,36.55ZM33.85,25c0-.15.15-.25,0-.4A1,1,0,0,0,33.85,25ZM34,5.85c.15.05.1-.15,0-.2S34,5.75,34,5.85Zm.25,7.55a2.15,2.15,0,0,0,.15.85c0-.35,0-.5,0-.85Zm.1,19.5s0,0-.1,0S34.25,32.9,34.3,32.9Zm.15-.35c-.05-.15,0-.25-.15-.4,0,.15,0,.1,0,.25S34.4,32.6,34.45,32.55Zm.2-11.85.1,1.35c0-.55,0-.9,0-1.3l0-.05Zm.1-13.9c0-.15,0-.35,0-.4C34.7,6.55,34.6,6.75,34.75,6.8Zm0-2a.81.81,0,0,0,0-.5A1.68,1.68,0,0,0,34.75,4.8Zm0,10.75q.15,0,0-.15Zm.1,1.05c-.05-.4,0-.75-.1-1C34.8,16,34.7,16.4,34.85,16.6Zm-.1,5.75c0-.05,0-.25,0-.25Zm.15,10.2c.1.1.15.15.15.1S34.9,32.6,34.9,32.55Zm1.25,2.1a3.4,3.4,0,0,0-1-.5Zm-.3-1.4c.15,0,.1,0,.15,0S36,33.15,35.85,33.25Zm2.25.9c-.1-.1-.15-.1-.2,0Zm.2,1.7a.65.65,0,0,0,.4.1c0-.15-.05-.15-.05-.2C38.45,35.8,38.35,35.85,38.3,35.85Zm.5,2.35a.41.41,0,0,0,.6,0C39.2,38.2,39.05,38.05,38.8,38.2Zm.05-4.1a.38.38,0,0,0,.25-.1A.38.38,0,0,0,38.85,34.1Zm.45,1.6-.15.15a.38.38,0,0,0,.2-.1Zm.5.4c.15-.05.4,0,.4-.15C40.05,36,40,36,39.8,36.1Zm.8-3.5h.15l-.1-.05c.15-.15.3,0,.35-.2A.62.62,0,0,0,40.6,32.6ZM42.1,5.05,42,4.85l-.15.2Zm-.25,1.1c.17,0,.07-.05.1-.15s-.05,0-.1,0v.15ZM42,24.85a.79.79,0,0,0,0-.6C42,24.45,41.85,24.7,42,24.85Zm0,.45c0,.55,0,1.2,0,1.75A3.43,3.43,0,0,0,42,25.3Zm.2-5.15c0,.05-.15.25,0,.25Zm.1-8.7a6.23,6.23,0,0,0-.1-1.95A14.62,14.62,0,0,0,42.3,11.45Zm-.1,6a2.23,2.23,0,0,0,0-1.15A8.68,8.68,0,0,1,42.2,17.45Zm.2,15.75c-.15,0-.2.1-.2.25a.38.38,0,0,0,.2-.1C42.35,33.3,42.45,33.2,42.4,33.2Zm-.15-17a2.23,2.23,0,0,0,0-1.15Zm0,5.45a3.08,3.08,0,0,0,.1,1.2A3.26,3.26,0,0,0,42.3,21.7Zm.6,12.55c-.2.15-.45.1-.5.3C42.55,34.4,42.9,34.4,42.9,34.25Zm-.45-2.2c.15,0,.2,0,.2-.2C42.5,31.9,42.45,32,42.45,32.05Zm0-14.15a3.27,3.27,0,0,0,0,.7c0,.15-.1.35,0,.5.15-.15.1-.4.1-.65Zm0-10.65c.05.35,0,.5.05.9a2.42,2.42,0,0,1,.15-.9Zm.3,29.65-.3.2a.19.19,0,0,0,.3,0C42.8,37.05,42.9,37.05,42.85,36.9Zm-.25-9.3h.15q-.07-.23,0-.15c-.15-.4,0-.6-.15-.95C42.65,26.9,42.55,27.2,42.6,27.6Zm.1-13a7.08,7.08,0,0,0-.1-1.4C42.65,13.75,42.5,14.1,42.7,14.55Zm.1-5a6.84,6.84,0,0,0-.1-1.45C42.65,8.6,42.55,9.35,42.8,9.6ZM43,35.05c-.05,0-.15,0-.25.1A.38.38,0,0,0,43,35.05Zm.1-3a2.4,2.4,0,0,0-.25,1.15,2.19,2.19,0,0,0,.3-1.15ZM42.8,28.9l.1,1.35A2.27,2.27,0,0,0,43,29.1.39.39,0,0,1,42.8,28.9Zm.2,1.75c0,.05-.1.35,0,.4C43,30.9,43.05,30.8,43,30.65Zm.55,4.9c-.15.15-.45.15-.6.3A1.14,1.14,0,0,0,43.55,35.55ZM43.3,5.65c.05-.05.15-.05.2.1,0-.15.1-.35,0-.4s-.05.05-.15.05A.39.39,0,0,0,43.3,5.65Zm0,16.4a3.13,3.13,0,0,0,.1.8v-.2c.05,0,0,.05.05.05,0-.2.1-.3,0-.35h-.1c0-.15.1-.1.1-.15s0-.2-.1-.25C43.45,22,43.45,22.05,43.3,22.05Zm.1-9.25c.15-.15.1-.5,0-.5C43.5,12.45,43.25,12.65,43.4,12.8Zm.05,20.8s-.15.25,0,.25C43.45,33.8,43.6,33.65,43.45,33.6Zm.15-8.85a2.85,2.85,0,0,0-.05-.65C43.55,24.3,43.45,24.6,43.6,24.75Zm0,.2c0,.15,0,.25,0,.3C43.65,25.05,43.65,25,43.6,25Zm0-21.15s.2-.1.05-.15S43.6,3.8,43.65,3.8Zm.05,28.85c-.1.1-.1.15-.05.2S43.75,32.7,43.7,32.65Zm0-7c0-.15,0-.2-.05-.25C43.65,25.5,43.65,25.6,43.7,25.6ZM44,11.4a22.53,22.53,0,0,0-.25-2.7,6.32,6.32,0,0,0,0,1.4A1.81,1.81,0,0,0,44,11.4Zm-.05.45h-.1c0,.15.05.05.05.2C43.9,12.05,43.9,12,43.9,11.85Zm.3,1.2c-.15-.15-.15-.2-.3-.25a4.67,4.67,0,0,0,.2,1.25A6.78,6.78,0,0,1,44.2,13.05Zm-.15,3.45a1.87,1.87,0,0,0,0-1.05C44.05,15.85,43.9,16.15,44.05,16.5Zm0-4.3c0,.15-.1.2,0,.35,0,0,0,0,.15,0Zm0,17a3.68,3.68,0,0,0,0-.75c0,.65,0,1.1,0,1.55C44.25,29.8,44.1,29.5,44.05,29.15Zm.1,3.15c.2-.15.15-.7.1-.85C44.25,31.8,44.15,32,44.15,32.3Zm.05,1.85s0-.15,0-.15ZM44.75,7.2a3.54,3.54,0,0,0,.1-1.9.13.13,0,0,1-.15.15C44.85,6,44.55,6.8,44.75,7.2Zm.1,23.7c.15-.25,0-.55-.05-.9s.1-.65,0-.7A5.75,5.75,0,0,0,44.85,30.9Zm-.05-1.65c0-.05.1-.15,0-.15S44.75,29.25,44.8,29.25ZM44.9,31a.46.46,0,0,0,.05.65A1.74,1.74,0,0,0,44.9,31Zm0-26c0-.4.05-.65.05-1A1.6,1.6,0,0,0,44.9,5ZM45,24.6c0-.25,0-.35-.05-.4C44.85,24.45,44.85,24.55,45,24.6ZM44.9,3.7c.05,0,0,.1.05.1S45,3.55,44.9,3.7ZM45,35.2c.2,0,.3-.3.3-.35ZM45.35,4a2.85,2.85,0,0,0,0,1.3A11.32,11.32,0,0,0,45.4,4ZM45.3,20.8a1.54,1.54,0,0,0,0-.95Zm0,.05c.05.2.05-.1,0-.05Zm.35,6c.23-.06,0-1.13,0-1.4A3.3,3.3,0,0,0,45.65,26.85Zm.1,3.2c0,.15-.1.4,0,.55C45.75,30.4,45.8,30.2,45.75,30.05Zm.1-19.1.15.2c0-.15,0-.4,0-.45-.15-.55.1-1.15-.25-1.55A7.24,7.24,0,0,0,45.85,11ZM46.1,23.7c0-.05,0-.05,0-.2h-.3c0,.1,0,.15,0,.2ZM46,22.2A1.82,1.82,0,0,0,46,23C46,22.6,46.1,22.4,46,22.2Zm.25-5.55s0-.1-.05-.1S46.15,16.7,46.2,16.65Zm.25,14.05c-.1.05-.2,0-.3-.1V31a1.61,1.61,0,0,0,.3-.1Zm-.15,1.05c0-.1,0-.15,0-.2,0,.15,0,.1,0,.25S46.25,31.75,46.3,31.75ZM46.45,19a1.68,1.68,0,0,0-.05-1.2A1.66,1.66,0,0,0,46.45,19Zm0-14.8a2.82,2.82,0,0,1,.35-.05s-.15,0-.3,0S46.45,4.1,46.45,4.15ZM46.7,27.7h-.05l-.15.1c.15.6,0,1.25.15,1.8C46.7,29.05,46.7,28.25,46.7,27.7ZM46.65,34s0,0-.1,0,0,.1,0,.15,0,0,.15,0Zm.15-16.75c-.15-.15-.1-.25-.25-.4a.92.92,0,0,0,.2.65C46.75,17.35,46.75,17.3,46.8,17.25Zm-.15-12.4a8.05,8.05,0,0,0,0,1.9A4.07,4.07,0,0,0,46.65,4.85Zm0,1.9c0,.1,0,.15,0,.15S46.65,6.75,46.6,6.75Zm0,13.4c0-.15,0-.2,0-.25C46.6,20.05,46.6,20.15,46.65,20.15Zm.05-9h-.05c0,.15,0,.1,0,.25C46.7,11.35,46.7,11.3,46.7,11.15Zm.35,21.05c-.15.25-.3.6-.15.8A5.52,5.52,0,0,0,47.05,32.2Zm.05-18.05a5.1,5.1,0,0,0-.15-2A6.51,6.51,0,0,0,47.1,14.15Zm0,11.9a7.11,7.11,0,0,0,.15,1.75A6.91,6.91,0,0,0,47.1,26.05Zm.1-1.75a2.13,2.13,0,0,0,.2.85,9.63,9.63,0,0,1,.05-1.2C47.4,24.15,47.35,24.15,47.2,24.3Zm0-15.3a5.37,5.37,0,0,0,0-.9A5.4,5.4,0,0,0,47.25,9Zm0-.95c0-.05,0-.3,0-.25S47.25,8.1,47.3,8.05Zm.1,2.9h-.1l.1.6Zm0-6.6c.1,0,.34,0,.15-.15C47.5,4.25,47.4,4.2,47.35,4.35Zm0,15.55c.15,0,.15-.1,0-.1Z"/><path class="cls-2" d="M73.7,38.15c0,.15-.15.15-.15.3a41.75,41.75,0,0,1-4.35,0c-.6,0-1.25-.15-1.85-.15,0-.22-2.87-6.32-4.6-11.5-.92-2.5-2.1-4.17-3.45-7.8-.08,5.56.1,6,.1,12,0,.81.21,1.77.15,2.5a33.77,33.77,0,0,0-.25,4.55c-.15.15-.35,0-.35.2-1.62.15-.84.81-5.7,0a2.08,2.08,0,0,1,0-1.45c-.17-.29-.11-14.63-.05-15.2a11.28,11.28,0,0,0,0-2.25c0-1.65.15-3.15.1-4.6,0-.11-.15-8.8,0-11.2a21.7,21.7,0,0,1,5.45-.25c0,.2.1,0,.25.2.75,1.08,6.18,14.81,8.5,19.55.16-4.32.2,4.18.2-19.65a18.94,18.94,0,0,1,5-.1l.45.2c.15,0,.3-.1.45.05.2,5.93-.32,23.79-.05,27,.05.85.1,1.7.1,2.5C73.75,34.75,73.55,36.5,73.7,38.15ZM53.8,29c0-.05-.15-.05-.3-.05,0,.15-.1.3,0,.3S53.65,29.1,53.8,29Zm-.25,3.5s-.1.4.05.4C53.65,32.6,53.65,32.5,53.55,32.45Zm.2-25.2c-.15-.15,0-.75-.1-.9C53.65,6.54,53.49,7.12,53.75,7.25Zm-.1,14.45a.19.19,0,0,0,0-.35C53.6,21.5,53.65,21.5,53.65,21.7Zm.1-7.25a13,13,0,0,0-.1-2.8Zm.15,10.3c0-.05-.15,0-.15-.05s-.1.2,0,.25.05-.05.1-.05Zm-.2-10.1c0,.15,0,.4,0,.25S53.75,14.6,53.7,14.65Zm.35,20.1a6.7,6.7,0,0,0,0-2C53.8,33,54.05,34.08,54.05,34.75Zm.05,1.8c0,.15-.1.35,0,.5C54.15,36.9,54.15,36.55,54.1,36.55Zm.1-.1c0-.15,0-.7-.05-.55a2,2,0,0,0,0,.55Zm0-21.8c0-.05,0-.25-.05-.55C54.2,14.25,54.05,14.5,54.2,14.65Zm.1,1.7.1,1.25c0-.35.15-.9,0-1.25Zm.15,8c0,.05-.05.05-.1.05a5.73,5.73,0,0,0,0,1.6C54.4,25.5,54.5,25.05,54.45,24.4Zm0-.25c-.05,0,.1-.2-.05-.25C54.4,24.05,54.4,24.15,54.45,24.15Zm0-14.65a6.14,6.14,0,0,0,.1,1.35c.05-.35,0-.95.05-1.35Zm.1,21.55c0,.05,0,.2-.1.25C54.59,31.43,54.53,31.15,54.55,31.05Zm0-2.75a1.2,1.2,0,0,0,0-.6C54.55,27.85,54.4,28.15,54.55,28.3Zm.05,9.35a.72.72,0,0,0-.1-.45C54.5,37.35,54.45,37.65,54.6,37.65Zm.1-1.2c-.15-.35.1-.85-.05-1.4a3.23,3.23,0,0,0-.1.5C54.55,36,54.5,36.5,54.7,36.45Zm-.1-17.3c-.05.6,0,1.15,0,1.75A5.13,5.13,0,0,0,54.6,19.15ZM54.75,4.4q0,.3.15.15s0,0,0-.15ZM55,28.75H54.8A6.46,6.46,0,0,0,55,30.2,4.7,4.7,0,0,0,55,28.75Zm0-4.5h-.1c.05.35-.1.65.05.85C55,24.75,55,24.6,55,24.25Zm0-8.2c0,.15-.05.1,0,.25C55.05,16.2,55.05,16.1,55,16.05Zm.1,11.85c0,.05,0,.3,0,.25S55.1,27.75,55.05,27.9ZM55.2,37c0,.2-.15.5,0,.65A2.82,2.82,0,0,0,55.2,37Zm.15-13.55a4.46,4.46,0,0,0-.1-.55c0,.15-.15.5,0,.55Zm.1.85a8.17,8.17,0,0,0,0,1.55,5.7,5.7,0,0,0,0-1.6Zm.2,11c-.15.65-.35,1,0,1.55A4,4,0,0,0,55.65,35.25Zm0-7.4c0-.25,0-.35,0-.35S55.5,27.8,55.65,27.85Zm.35-5.7a3.17,3.17,0,0,0-.1-1.2,8.68,8.68,0,0,0,0,1.95C56.1,22.85,56,22.4,56,22.15Zm0-12.6c0-.2.1-.4,0-.55C55.85,9.15,55.85,9.55,56.05,9.55Zm0,19c0,.35-.2.6,0,.95C56,29.1,56.2,28.75,56.05,28.5Zm0-12.35a2.4,2.4,0,0,0,0,.6C56.1,16.6,56.2,16.3,56.05,16.15Zm.2-2.15c0-.05,0-.15-.1-.15s0,.05,0,.2C56.15,14.05,56.1,14,56.25,14Zm.2,23.8c-.05,0-.05-.15-.2-.15S56.4,37.85,56.45,37.8Zm0-15.15v0Zm.35-6.75h-.15c0,.1.05,1,.05,1A2.51,2.51,0,0,0,56.8,15.9Zm-.1,15.45c0,.15-.1.5,0,.55A1,1,0,0,0,56.7,31.35ZM56.8,6.9h-.1c0,.15-.05.2.1.25A.22.22,0,0,0,56.8,6.9Zm.3,25.3H57c-.05.15,0,.2,0,.35C57.05,32.5,57.1,32.4,57.1,32.2Zm.35-19.65c-.05-.15,0-.35-.1-.4C57.4,12.3,57.3,12.4,57.45,12.55Zm0,5.5c0-.05,0-.55-.1-.5C57.45,17.6,57.35,17.9,57.5,18.05Zm-.1,20.1c.05.05.15,0,.3,0-.05-.2,0-.5-.05-.75-.15.25,0,.35,0,.7Zm.05-25.5c0,.15,0,.25,0,.3C57.5,12.8,57.5,12.7,57.45,12.65ZM57.7,24c-.15.05-.05-.05-.2,0a7.82,7.82,0,0,0,.1,1.5C57.65,25,57.7,24.55,57.7,24Zm.2-4.9c0,.1,0,.1-.1,0,0,.65,0,1.6,0,2.55A11.11,11.11,0,0,0,57.9,19.1Zm.1,3.6s.1-.25,0-.25C58,22.6,57.85,22.7,58,22.7ZM58.1,36c-.05-.15,0-.55-.05-.6C58.1,35.6,57.9,35.85,58.1,36Zm0-1.45c0,.15,0,.05,0,.2A.1.1,0,1,0,58.15,34.55Zm.3-24.65c-.15-.25-.05-.55-.2-.8A.9.9,0,0,0,58.45,9.9Zm-.2-5.7c.15,0,.2.25.35.1-.05,0,0-.2-.1-.2C58.5,4.25,58.3,4.05,58.25,4.2Zm.1,25.3c0,.15-.15.15,0,.3Q58.43,29.5,58.35,29.5ZM58.3,3.8c0,.14.2.27.2,0Zm.4,1.8c-.2.05-.3.1-.35.1C58.35,5.9,58.65,5.65,58.7,5.6Zm-.2,16a.38.38,0,0,1-.1-.25h.1c0-.2.2-.45-.15-.3,0,.55,0,.9,0,1.45A3.08,3.08,0,0,0,58.5,21.65ZM58.4,37.5c0,.2-.1.3.05.5C58.45,37.85,58.55,37.65,58.4,37.5Zm.1-4.7c0-.15.1-.45,0-.6C58.5,32.55,58.35,32.55,58.5,32.8Zm0,2.15a9.61,9.61,0,0,0,0,1.2A3.23,3.23,0,0,0,58.5,35Zm0-3.6c0,.15,0,.65,0,.4A1,1,0,0,0,58.55,31.35ZM58.8,4c0-.15,0-.35-.2-.2C58.75,3.85,58.65,4,58.8,4Zm.05,22H58.8c0,1.13.11,4,.15,3.85S59,27,58.85,26Zm.2-19.75a.13.13,0,0,0-.15-.15A.13.13,0,0,0,59.05,6.25Zm1.6,1.95c-.2-.55-.5-1-.7-1.55-.15-.05-.1-.25-.25-.4s.15.4.15.6A4.53,4.53,0,0,1,60.4,8c0,.15-.1,0,0,.2S60.5,8.2,60.65,8.2Zm-.5,11.35a.55.55,0,0,1-.25-.5c-.15,0,0-.1-.1-.1a7.53,7.53,0,0,0,.7,1.75C60.7,20.3,60.1,20.1,60.15,19.55Zm2.5,5.2a7.42,7.42,0,0,0-.75-1.55c0-.55-.55-.95-.8-1.5a21.65,21.65,0,0,0,1.5,3.05ZM61.2,12.5c.15.15.15.45.35.5a2.44,2.44,0,0,0-.2-.55C61.25,12.45,61.2,12.45,61.2,12.5Zm.45,5.15a1.47,1.47,0,0,1-.15-.5.9.9,0,0,1-.2-.45c-.15.25.1.65.25.85S61.7,17.9,61.65,17.65Zm1.2,7.6a.7.7,0,0,0-.2-.35C62.7,25.15,62.8,25.25,62.85,25.25Zm0-3.45c0-.05,0-.05-.1-.05a.18.18,0,0,0,.05.15S62.9,21.85,62.9,21.8Zm.2.65c0-.15-.05-.3-.1-.15S63.05,22.4,63.1,22.45Zm0,.1c0-.15.15-.15,0-.15s0,.05,0,.05S63.1,22.55,63.15,22.55Zm.35,4.7c0-.15-.1-.25-.25-.35l-.15-.25c0,.2.2.25.2.6Zm-.25-4.5c0,.15.1.3.15.25S63.4,22.8,63.25,22.75Zm.85,3.45a1.25,1.25,0,0,1-.2-.7c-.35-.15-.25-.5-.6-.65A7.38,7.38,0,0,0,64.1,26.2Zm-.3-2.5c-.15,0-.1-.1-.15-.1s.05.25.1.1Zm.35.95a.38.38,0,0,1-.1-.25C64.1,24.6,64.15,24.7,64.15,24.65Zm1,4.65c-.35-.55-.6-1.2-.85-1.55A4.17,4.17,0,0,0,65.15,29.3Zm-.4-7.9a.38.38,0,0,0,.1.25C64.9,21.6,64.85,21.55,64.75,21.4Zm0,9.8c.15.15.1.35.25.5C65.1,31.55,65,31.4,64.8,31.2ZM65.05,22a.66.66,0,0,1-.15-.35s0,0-.05,0A1,1,0,0,0,65.05,22Zm.45,2.7c0,.15.1.25.25.35,0-.2-.15-.2-.2-.35Zm0-1.3a.38.38,0,0,0,.1.2l0-.05h0c0-.15,0-.25-.1-.25Zm.2,8.25a3.92,3.92,0,0,0,.55.9C66.15,32.15,66.1,31.75,65.75,31.6Zm1.1,4.45a4.19,4.19,0,0,0-.95-2.35ZM66.2,22.8a3.49,3.49,0,0,0,.55,1.05A5.3,5.3,0,0,0,66.2,22.8Zm.7,9.9c0-.15,0-.2-.05-.25A.22.22,0,0,0,66.9,32.7Zm.85-8.9c0-.15,0-.1,0-.15s-.1,0-.1.05S67.6,23.8,67.75,23.8Zm.4-8.25a5.49,5.49,0,0,0-.05-1.05C68.1,14.85,68,15.3,68.15,15.55Zm-.05-9.9A5.66,5.66,0,0,0,68.15,7a3.35,3.35,0,0,0,0-1.25c.1,0,.15,0,.15,0Zm.05,14.15c0,.4-.15.95,0,1.3A2.85,2.85,0,0,0,68.15,19.8Zm.15,17.7h.1c-.05,0-.05,0-.05-.1a.11.11,0,0,0-.1.1Zm.2-22.7c0,.2-.1.6,0,.65C68.5,15.25,68.55,14.8,68.5,14.8Zm0,.75c0,.15-.1.4,0,.4C68.5,15.8,68.55,15.5,68.5,15.55Zm0,.5c0,.15,0,.45,0,.3S68.55,16,68.5,16.05Zm.35,7.4c0,.25-.15.65,0,.85C68.85,24.1,69,23.6,68.85,23.45Zm.4-17.75a1,1,0,0,0-.2-.4c0,.2,0,.25,0,.4S69.1,5.65,69.25,5.7ZM69.1,25.2c0,.25-.15.35,0,.55C69.1,25.6,69.25,25.25,69.1,25.2Zm0-10s0,0,0,0a3.89,3.89,0,0,0,.1,1.4A4.59,4.59,0,0,0,69.1,15.15Zm0,11.45c0,.15.15.35.15.3ZM69.45,13a.65.65,0,0,0-.1-.4C69.4,12.7,69.2,13,69.45,13Zm.2-6.35a1.55,1.55,0,0,0-.05,1A6.72,6.72,0,0,0,69.65,6.6Zm0,16.7a11.7,11.7,0,0,0,0,1.35A2.48,2.48,0,0,0,69.7,23.3ZM70,12.7h0c-.15.2,0,.55,0,.7Zm.6,10.05c0,.25-.1.7,0,.9A1.41,1.41,0,0,0,70.55,22.75Zm0,2.6a4.53,4.53,0,0,0,0-1.6ZM70.8,20c0,.05,0,.05,0,.1a7.77,7.77,0,0,0,.2,1.85c0-.8.2-1.4-.15-1.95Zm.8,17.9c-.25,0-.55,0-.6.2a1.73,1.73,0,0,0,.6,0ZM71.85,7.1A5.34,5.34,0,0,0,72,8.35C72,8,72,7.5,72,7.1Zm.2,22.1c0-.05,0-.2,0-.25S72,29.25,72.05,29.2Zm0,.8c.15-.2,0-.6,0-.75Zm.3-2.95c0,.2,0,.4,0,.6C72.45,27.6,72.45,27.2,72.3,27.05Zm.4-17.5c0,.25,0,.35,0,.5C72.85,9.9,72.85,9.55,72.7,9.55Zm.35-5.65c.15.15,0,.3.15.35s0-.25.1-.3C73.15,4,73.2,3.85,73.05,3.9Zm0,16.7c.15.15-.1.45,0,.5,0-.35.05-.35,0-.5Zm0,4.8a.42.42,0,0,0,.1.3C73.1,25.55,73.2,25.4,73.05,25.4Zm.1-10.85c.15.75-.15,1.2,0,1.8A5.42,5.42,0,0,0,73.15,14.55Zm0-1.5c0,.15-.1.4,0,.4C73.15,13.3,73.3,13.1,73.15,13.05Zm0,1.15c0,.05,0,.05,0,.05s0-.4,0-.25Zm0,15c0-.05,0-.4,0-.35Zm0-22.7c0,.35,0,.5.1.65C73.25,7,73.35,6.65,73.2,6.5Zm0,30.9c0,.15-.1.4,0,.35C73.25,37.6,73.3,37.35,73.25,37.4Z"/><path class="cls-2" d="M97.8,27a37.65,37.65,0,0,1-.1,4.7c0,1.55-1,2.65-1.55,3.9-.65.8-1.7,1.2-2.45,2-.4.15-.7.5-1.1.65-.15.05-.4.05-.65.1l-1.35.4c-.15.05-.2,0-.35.05s-.15,0-.35.1a2.72,2.72,0,0,0-1.1,0c-6.54,0-6-1.72-6.9-1.85a6.22,6.22,0,0,0-1-1.05l-.35-.5c-.35-.4-.5-1-.9-1.45-.54-2-.58-.18-.8-4.4,0-.1.12-6.22,0-6.75,0-.76-.2-2.42-.2-3.6,0-.35.1-.5.1-.85,0-2.74.14-7.5.15-7.6,0-.35.2-.7.25-1.1,1-4.19,1.55-3,1.45-3.7.35-.35.6-.85,1.15-.9a11.67,11.67,0,0,1,2.25-1.3,4.61,4.61,0,0,1,2.75-.7,30.33,30.33,0,0,1,5.4.45,2.89,2.89,0,0,0,1,.35c.35.55.9.55,1.15,1.1A4.23,4.23,0,0,1,95.7,6.2c1.34,1.33,1.67,2.94,1.85,4.85.21,4.92.12,4-1.15,4.2a11.33,11.33,0,0,1-4.65-.15s0-.15-.2-.15c0-1.75.2-3.5-.45-4.75s-3.82-1.95-5.55.05c-.8,1.45-.2,3.7-.35,5.65,0,1.1,0,2.25,0,3.4s-.1,2.55,0,3.7a49.83,49.83,0,0,1,0,6.7c.25.65.2,1.35.6,1.9a3.28,3.28,0,0,0,1.55,1s.3-.05.15.15c.15,0,0-.25.2-.1s0,0,.15,0a3.3,3.3,0,0,0,1.7,0c.55-.55,1.45-.7,1.9-1.3a1.11,1.11,0,0,1,.25-.65c-.15-.95.4-2.4,0-3.55.15-.15.1-.25.15-.4a1.84,1.84,0,0,1,1.3-.4,7.93,7.93,0,0,1,3.9.1C97.6,26.45,98.05,26.4,97.8,27Zm-18.35,1.7a.27.27,0,0,0-.1-.4C79.4,28.4,79.3,28.6,79.45,28.65Zm.25,3.15c0-.15,0-.1,0-.25-.25-.15-.05-.85-.25-1.05a5.58,5.58,0,0,0,.15,1.35C79.55,31.8,79.65,31.85,79.7,31.8Zm.3,1.6c-.15-.25-.15-.45-.3-.6A1.14,1.14,0,0,0,80,33.4Zm.2-23.75c0,.4-.45.75-.25,1.1A4.37,4.37,0,0,0,80.2,9.65Zm0,20.85a13.74,13.74,0,0,0-.2-2.6c0,.25.15.6,0,1Zm.2-4.1c0-.15,0-.1,0-.25s0,.05-.15,0Zm0-19.1c-.15,0-.15,0,0,.15S80.45,7.45,80.45,7.3Zm.2,24.5c-.05-.35.1-.4-.05-.75h0c0,.15,0,.15-.1.1,0,.25,0,.5,0,.65C80.5,31.65,80.6,31.85,80.65,31.8Zm.2-14.45c0-.05.15-.25,0-.25S80.75,17.35,80.85,17.35Zm0,1.85a.54.54,0,0,1,.2.25c0-.35.2-.85,0-1C80.9,18.7,81,19,80.85,19.2Zm.1,5.9c.15-.55.3-1,0-1.35A6.22,6.22,0,0,0,81,25.1Zm0,5.1a1.69,1.69,0,0,0,.25.85,5.05,5.05,0,0,0-.15-.85Zm0,2.5c.15,0,0,.2.15.2S81,32.65,81,32.7Zm.4-3.85c-.15-1,.05-2.2-.15-3.4A7.82,7.82,0,0,0,81.35,28.85Zm0,2.8c.15.25.15.65.3.8A1.42,1.42,0,0,0,81.35,31.65Zm.5,2.6a1,1,0,0,0-.25-.45C81.63,33.93,81.65,34.18,81.85,34.25Zm.2-24.95a.15.15,0,0,1-.25,0c-.15.2-.15.35,0,.45C81.9,9.65,82.2,9.55,82.05,9.3Zm-.2-2.7a1.08,1.08,0,0,1,0,.4c.25,0,.35-.4.3-.55Zm.4,10.8c0,.15-.25.05-.25.2,0,.45.15.55.15.9Zm-.15-6.2c0,.2-.15.6,0,.8C82.05,11.65,82.25,11.45,82.1,11.2Zm.3-5.4c-.05.15-.15.15-.2.2.15,0,0,0,.2,0ZM82.5,34q0,.3.15.15c-.05,0,0-.15-.05-.15Zm0,2.85a.67.67,0,0,0,.35.3C82.8,37,82.65,37,82.5,36.8Zm.4-4.6c-.15-.25-.05-.55-.2-.7,0,.15-.15.2-.1.45ZM82.7,9.8s.1-.1.1-.25C82.55,9.55,82.55,9.65,82.7,9.8ZM83,6.15c-.15,0-.45.1-.3.25Zm-.1.45c0,.15-.25.2-.2.25C82.75,6.7,83.05,6.75,82.9,6.6Zm0,14.5v.2h.15c0-.15.1-.1.05-.25S83.1,21.1,83,21.1Zm0,6.35a.15.15,0,0,0,0-.2Zm0,1.25c0,.15,0,.2.1.2S83.05,28.7,83,28.7ZM83.05,8c.2,0,.7-.3.55-.5A3,3,0,0,0,83.05,8Zm.2,15.75a4.49,4.49,0,0,0,0,2.3,17.2,17.2,0,0,1,.2-2.15ZM83.1,10.85c.05,0,.05,0,0-.1a1.08,1.08,0,0,0,0,.4C83.15,11.8,83.15,10.8,83.1,10.85Zm.35,25.6c0-.15-.15-.2-.3-.35Zm.15-28.1c-.2.05-.2.15-.35.3ZM83.45,29c0,.25,0,.55.15.75a5.87,5.87,0,0,0-.15-1.45,2.08,2.08,0,0,0,0-1.35A4.72,4.72,0,0,0,83.45,29Zm.3,7.6c0-.15,0-.1,0-.15-.15,0-.1.1-.15.1s0,0,.1,0ZM83.6,34.6c.05.25.4.4.55.45ZM84,12.05a1.65,1.65,0,0,0,.1-.8A1.13,1.13,0,0,0,84,12.05Zm0,.1s0,.4,0,.25S84.05,12,84,12.15Zm.1-6.05a.88.88,0,0,0,.4-.25A.62.62,0,0,0,84.1,6.1Zm1.05,27.15a7.87,7.87,0,0,0-1-.75c.15.2.35.25.55.4S85,33.25,85.15,33.25Zm-.75-17.8a4.31,4.31,0,0,0-.1-1.4A2.14,2.14,0,0,0,84.4,15.45Zm-.1,3.05a.85.85,0,0,0,0-.5C84.35,18.15,84.15,18.35,84.3,18.5Zm.5,10.4a.55.55,0,0,1-.4,0c0,.4,0,.8.35,1A5.44,5.44,0,0,0,84.8,28.9Zm-.25-4.2.2.25c0-1.05-.15-2.15,0-3.3,0,0-.1,0-.15-.1C84.65,22.5,84.5,23.75,84.55,24.7Zm.2-7.15a.42.42,0,0,0-.1-.3C84.55,17.35,84.6,17.45,84.75,17.55Zm0,11.1c-.15-.15,0,.1,0,.25Zm0-1.95c0-.4.1-.6,0-.85C84.8,26.05,84.7,26.55,84.85,26.7Zm0,3.65a2.54,2.54,0,0,0,.1.45C84.9,30.6,85,30.5,84.85,30.35ZM85,35.1c.15.15.2.25.4.3A.78.78,0,0,0,85,35.1Zm0-4.05.3,1.4c0-.05.1,0,.15,0a.22.22,0,0,0,0-.25c.15,0,.2,0,.2,0C85.3,32,85.25,31.4,85,31.05Zm0-20.6c0-.2.3-.25.25-.4C85.25,10.2,84.9,10.25,85.05,10.45Zm.55,25.6a.75.75,0,0,0-.55-.2C85.25,35.9,85.4,36.1,85.6,36.05ZM85.1,4.7c.05-.15.35,0,.3-.2C85.15,4.55,85.05,4.65,85.1,4.7Zm1.4.55c-.25.25-1.3.15-1.15.55a5.25,5.25,0,0,1,1.15-.35ZM85.7,33.7s0-.1-.15-.15C85.5,33.7,85.65,33.85,85.7,33.7ZM86,8.5c.15,0,.2-.15,0-.15l0,.05Zm1,.5c-.45,0-.7.1-.8.35Zm-.8,28.5a1.52,1.52,0,0,0,.9.35ZM87,7.8c-.15,0-.2,0-.35,0s-.3.15-.3.3A.88.88,0,0,0,87,7.8Zm-.25-3.4s0,0-.1,0-.05,0-.05,0c.05-.15.45,0,.3-.15A.18.18,0,0,1,86.75,4.4Zm1,2.9c0-.35-.4-.15-.55,0ZM87.3,5.1c.45,0,.65,0,.65-.2C87.75,5.05,87.45,5,87.3,5.1Zm.4,28.15s-.1,0-.25,0,0,.1,0,.25a.37.37,0,0,0,.25,0C87.6,33.45,87.65,33.4,87.7,33.25Zm.5-27.4c0-.15-.25-.1-.4-.15,0,0,0,.1,0,.15C87.9,6,88,5.85,88.2,5.85ZM88,7c.15,0,.2.15.35.15C88.35,7,88,6.85,88,7Zm.1-2.1c0-.05.2,0,.25-.15C88.15,4.75,88,4.85,88.05,4.9Zm.65-1a2.53,2.53,0,0,1-.65-.1,1.31,1.31,0,0,0,1,.1s-.15,0-.25-.1a.78.78,0,0,1,.4-.3c-.2,0-.45-.1-.6,0C88.8,3.55,88.85,3.9,88.7,4Zm.4,30c-.15,0-.4,0-.25.2C88.85,34,89.05,34.1,89.1,34Zm.8,4.35c-.25,0-.85-.15-1,.1A2.14,2.14,0,0,0,89.9,38.3ZM89.8,7.35c.1-.25,0-.35-.25-.35Zm.7,1.75a1.17,1.17,0,0,0-.85-.5A6.38,6.38,0,0,1,90.5,9.1Zm-.8,24.6a1.47,1.47,0,0,0,.8-.2C90.25,33.25,89.9,33.55,89.7,33.7Zm.2-26.15s-.05-.1-.1-.15S89.85,7.55,89.9,7.55Zm.8,26.65a1.5,1.5,0,0,0-.85.35A1.47,1.47,0,0,0,90.7,34.2Zm-.4,3.2c-.15,0-.25,0-.45,0C89.9,37.55,90.3,37.55,90.3,37.4ZM90.05,5.45c.25,0,.45.15.6.15Q90.35,5.23,90.05,5.45Zm.25-1.7c.4,0,.75.35,1.15.3C91.05,3.9,90.75,3.6,90.3,3.75Zm.5.6c-.15,0-.2-.1-.45,0C90.5,4.45,90.75,4.55,90.8,4.35Zm.55,30.5a.9.9,0,0,0-.35.25C91.15,35.05,91.3,35,91.35,34.85Zm.25-3.05c-.15.2-.4.2-.45.4.2,0,.3-.2.45-.25A.09.09,0,0,1,91.6,31.8Zm.15-24.15c-.2,0-.3,0-.35,0,.2.15.25.4.4.6C91.75,8,91.7,7.7,91.75,7.65Zm0,2.8a1.68,1.68,0,0,0,.2.75C92.3,11,91.9,10.6,91.75,10.45Zm.35,4.35h.2c-.1-.1-.15-.15-.1-.15S92.15,14.75,92.1,14.8Zm.2-.55c0-.15.1.05.15.05.15-.15-.1-.45-.15-.8a.93.93,0,0,0-.1-.5C92.2,13.45,92.3,13.9,92.3,14.25Zm0-9.2a1.54,1.54,0,0,0,.7.35C93,5.05,92.5,5.05,92.3,5.05Zm.5,32.45a.62.62,0,0,0-.4.25C92.55,37.7,92.8,37.55,92.8,37.5ZM92.45,8.25c.28.4.6,1.66,1,2A9.39,9.39,0,0,0,92.45,8.25Zm1,5.85a.62.62,0,0,0-.15-.6c0-.05.1,0,0-.05-.2-.55-.2-1.1-.35-1.65,0,0,0-.05-.1-.05a4.19,4.19,0,0,0,.2,1.4c.05.35.05.75.25.95h.1ZM93,27.5a2.82,2.82,0,0,0,0,.65A.53.53,0,0,0,93,27.5Zm.1,3.4c.05.15-.15.2,0,.35C93.15,31.2,93.25,31,93.1,30.9Zm.3-3.8c0-.15-.2-.15-.15,0S93.35,27.05,93.4,27.1Zm.2-16.5c.05.15.1.2.15.2C93.7,10.65,93.65,10.6,93.6,10.6ZM94,5.7s0-.15-.2-.2C93.8,5.45,93.8,5.65,94,5.7Zm-.1,5.9c.05.15,0,.3.15.45C94.15,11.9,94.05,11.45,93.85,11.6Zm.05,22.5c-.05,0-.05,0-.05,0Zm0-3.8a1.2,1.2,0,0,0,.35-.9c0,.05-.1.1-.25.15A7,7,0,0,1,93.9,30.3Zm0,3.8c.15-.15.4-.15.4-.3C94.15,34,94.05,34,93.9,34.1Zm.1-5.2s.2-.35,0-.4C94,28.65,94.05,28.75,94,28.9Zm.15-20.15c.15.25.15.5.3.65,0-.2,0-.5-.1-.7C94.2,8.7,94.3,8.75,94.15,8.75Zm.3,18.65v-.2c-.15,0-.15.05-.2.05s0,.15,0,.2S94.4,27.4,94.45,27.4Zm.35,3.2c0-.15,0-.35,0-.5C94.8,30.25,94.65,30.45,94.8,30.6Zm0-22.75a1.33,1.33,0,0,0,.3.5c-.15.15-.1.25-.25.3.14.14.41.92.65,1.1-.4-.55-.1-1.55-.6-1.95C94.85,7.85,94.8,7.85,94.75,7.85ZM95.4,33.8c-.35.05-.4.3-.6.5A3.17,3.17,0,0,0,95.4,33.8Zm-.55-1.6a.66.66,0,0,0,.15-.75C95,31.65,94.7,32,94.85,32.2Zm.25-19.45c.15.25.1.6.25.8a14.19,14.19,0,0,0-.5-2.2,11.71,11.71,0,0,0,.25,1.5Zm.5,1.4c0-.15-.15-.05-.15-.2,0,.15,0,.05,0,.2Zm.1-2.5c-.15,0-.1-.1-.25-.05a9.37,9.37,0,0,0,.45,2.05c.15-.25-.05-.6-.1-1Zm.9,15.7s0,.2.05.5C96.65,27.65,96.75,27.5,96.6,27.35Z"/><path class="cls-2" d="M121.6,38.75c-.15,0-.25,0-.4,0s-.1,0-.25,0c-1.35-.2-2.9.1-4.15-.1-.15-.15,0-.25-.25-.3-.18-1.88,0-.19,0-14.2-2.4.05-4.55,0-7,0a2,2,0,0,0,0,.95c0,.75-.15,1.45-.2,2.25a4.52,4.52,0,0,1,0,1.4,71.15,71.15,0,0,1,0,7.25c0-.05.1,0,.25,0h-.2a13.38,13.38,0,0,0,.05,2.45c-.15.15-.3.1-.35.25a36.48,36.48,0,0,1-5.7-.05c0-.15-.1-.2-.2-.2a71,71,0,0,1,0-11.1c0-.6-.05-1.2-.05-1.75a6.35,6.35,0,0,0,0-2c0-.1.16-2.07.05-6.1-.2-6.32.1-3.57.1-6.9a10.54,10.54,0,0,1,.1-2.6c.05-.55,0-1,0-1.55a20.26,20.26,0,0,0-.1-2.95,3.11,3.11,0,0,0,.8-.2s.15,0,.2,0l0,0V3.3l0,.05s0,0,.05,0a9.05,9.05,0,0,1,4.85.3c0,.2,0,.5.1.65a2.42,2.42,0,0,0-.15.9c-.65,4.95.45,8.69.15,12.65,2.55,0,5.1,0,7.15.05.11-1.64.3-10.1.3-10.2-.2-5.45,0-3.77.45-4.25a14.11,14.11,0,0,1,5.45.2c.15.25,0,.45,0,.7s0,25.69.2,26.15C122.85,40.46,123.18,38.58,121.6,38.75Zm-18.2-6c0,.25-.1.8.25.65-.15-.6-.1-1.5-.25-2.05Zm.7,5.3c-.2,0-.35,0-.45-.05-.05.05-.1.1-.1.15C103.7,38.15,104.05,38.45,104.1,38.1Zm-.2-14c-.15,0-.15-.05-.2-.05s0,0,0-.05c0,.35-.1.6,0,.85a.11.11,0,0,1,.1-.1Zm-.25-.2c0-.2.15-.65,0-.8A4.27,4.27,0,0,0,103.65,23.85Zm0-5.1c.2-.05,0-.5,0-.7C103.6,18.3,103.7,18.55,103.65,18.75Zm.2-3.6a12.53,12.53,0,0,0-.2-2.85A27.29,27.29,0,0,0,103.85,15.15Zm.35-9.75h0a11.13,11.13,0,0,0,0,1.3A3.63,3.63,0,0,0,104.2,5.4Zm.1,28.65c0-.15,0-.25,0-.3Zm.15-12.25a2,2,0,0,0,0-.55,14,14,0,0,0,0,2.05A3.88,3.88,0,0,0,104.45,21.8Zm0-9a22.14,22.14,0,0,0,.3,2.55,13.33,13.33,0,0,0-.2-2.5C104.5,12.75,104.5,12.75,104.45,12.75Zm.3,17.1c0-.15,0-.2,0-.2v-.1c-.15,0-.15.3,0,.3Zm-.15,2c.05.4,0,1.05.2,1.2C104.65,32.7,104.75,32.25,104.6,31.9Zm.15,3.85a1,1,0,0,0,0-.7C104.75,35.2,104.6,35.6,104.75,35.75Zm0-25.1c.15.35,0,.8.15,1.15.15-.15,0-.4,0-.6S104.85,10.65,104.7,10.65Zm0,26.7c.15,0,.1.1.15.15,0-.25.1-.35,0-.5Zm.1-7a8,8,0,0,0,.3,2.7A7.45,7.45,0,0,0,104.8,30.35Zm.2,7.9s0-.1,0-.1,0,.05,0,.1ZM105,9a9.24,9.24,0,0,0,0,1.2c.25-.15.15-.45.1-.65a6.64,6.64,0,0,0,0-1A.81.81,0,0,1,105,9Zm0,25.45a5.16,5.16,0,0,0,.2,1.5C105.2,35.35,105.35,34.85,105,34.45Zm0-29.15a1.13,1.13,0,0,0,.1-.8A4.38,4.38,0,0,0,105.05,5.3Zm.3,32.05c0-.1,0-.15.05-.2h-.15Zm.05-20.6c0,.15-.05.5.1.65.15-.15,0-.45,0-.65Zm0-.45a3.76,3.76,0,0,0,0-.75A3.75,3.75,0,0,0,105.45,16.3Zm.15,20.2c0-.2.1-.4,0-.55C105.6,36.15,105.45,36.45,105.6,36.5Zm0-24.8c0-.45,0,.15,0,.15Zm.3,26.55c-.05-.15,0-.35-.1-.4,0,.2-.15.25-.2.4C105.75,38.3,105.75,38.2,105.9,38.25Zm-.15-.75a.32.32,0,0,0,0-.3C105.8,37.35,105.6,37.35,105.75,37.5Zm.1-31.3c0-.2.05-.45-.1-.6C105.75,5.8,105.7,6.05,105.85,6.2Zm0,9.75a1.3,1.3,0,0,0-.1-1C105.8,15.15,105.7,15.7,105.85,16ZM106,4.75a1.61,1.61,0,0,1-.1-.3c-.05.15-.1.25-.05.25S105.85,4.8,106,4.75Zm0,3.85c0-.35,0-.6-.15-.8A1.75,1.75,0,0,0,106,8.6Zm0,22.3s0,0-.1,0c.05.15,0,.25.1.25Zm.45,3.3c-.05-.15.1-.35-.05-.2C106.4,34,106.25,34.2,106.4,34.2ZM106.5,6a2.33,2.33,0,0,0,0,.6C106.5,6.45,106.65,6.15,106.5,6Zm.2,29.5c0,.15-.15.5,0,.5C106.8,35.75,106.8,35.6,106.7,35.5Zm0-31.8c0,.15.15.15.15,0Zm.35,15.4c-.15-.55,0-.85-.15-1.3A5.76,5.76,0,0,0,107.1,19.1Zm.2-3.5a14.09,14.09,0,0,1-.25-2.15,18.73,18.73,0,0,0,0,2.9,1.71,1.71,0,0,0,.05-.55C107.15,15.65,107.35,15.75,107.3,15.6Zm0-10.9c0-.15,0,0,0-.2C107.1,4.45,107.1,4.85,107.3,4.7Zm-.1.3a1.42,1.42,0,0,0,0,.65C107.2,5.4,107.35,5.15,107.2,5Zm.1,29.6h-.1c0,.2.1.4,0,.55C107.4,35,107.3,34.8,107.3,34.6Zm.15-9.3c-.26.27,0,.84.1,1.1a7.07,7.07,0,0,0-.1-2C107.3,24.7,107.45,25,107.45,25.3Zm0,3.2a10.08,10.08,0,0,0,.1,2.75A8.42,8.42,0,0,0,107.4,28.5Zm0-20.35a4.33,4.33,0,0,0,0-.9C107.4,7.6,107.3,8,107.45,8.15Zm0,30.1s0-.1,0-.1-.08.15,0,.15S107.55,38.3,107.5,38.25Zm0-29.55a4.13,4.13,0,0,0,.15,1.2,10.75,10.75,0,0,0,.1-1.15C107.55,8.75,107.5,8.75,107.45,8.7Zm.5,28.6c-.15,0-.2.05-.35,0,0,.15.2.05.25.2a1.61,1.61,0,0,1,.1.3A.78.78,0,0,0,108,37.3Zm-.1-2.65a2,2,0,0,0-.2-.9C107.7,34.1,107.5,34.5,107.85,34.65ZM108,8.75a7.78,7.78,0,0,0,0,3.4A12.9,12.9,0,0,0,108,8.75Zm.3,18.6a3.53,3.53,0,0,0-.1-1.25A3.35,3.35,0,0,0,108.3,27.35Zm0-21.2c0,.15,0,.25.1.25S108.45,6.15,108.3,6.15Zm0,.95c0,.2,0,.5.1.65.25-.15,0-.4.15-.65Zm1.15,14.3a3.94,3.94,0,0,0-1.15.2A1.59,1.59,0,0,0,109.45,21.4Zm-.85,2.7c-.15-.05-.1,0-.15,0,0,.4,0,.75.1,1C108.55,24.7,108.6,24.45,108.6,24.1Zm.1,13.1c0-.15-.1-.2-.2-.2a2.41,2.41,0,0,1,0,.6c.15,0,0-.1.2-.1C108.7,37.35,108.55,37.35,108.7,37.2Zm0-5.4a8.08,8.08,0,0,0,0-2.2A8.93,8.93,0,0,0,108.65,31.8Zm.2-15.95a13.56,13.56,0,0,0-.1-2.55A7.3,7.3,0,0,0,108.85,15.85Zm.05,1.65a5.75,5.75,0,0,0-.1-1.6A7.83,7.83,0,0,0,108.9,17.5Zm-.05,16c.05.2-.1.3.05.45C108.9,33.75,108.9,33.6,108.85,33.55Zm1-14.45a2.11,2.11,0,0,0-.95-.15C109.15,19.1,109.6,19,109.85,19.1Zm-.75,4.8c-.15.05-.15.2,0,.35C109.05,24.1,109.15,24,109.1,23.9Zm.5-4.3c0,.15.15.15.15,0Zm2.8,3.3c-.35-.15-.6,0-1.15-.1C111.5,23.05,111.85,22.85,112.4,22.9Zm.95-2.95c-.1,0-.15,0-.1-.05h-.2s0,0,0,.05C112,20,113.14,20.1,113.35,20Zm3,3.7c-.15,0,0-.2-.1-.35H116c0,.4-.35.25-.6.2-.8,0-2,.2-2.7.15A29.63,29.63,0,0,0,116.3,23.65Zm-3-1.8c.15,0,.3.1.35-.05C113.5,21.85,113.35,21.8,113.3,21.85Zm.6-2.7c0,.15.2.05.2,0Zm.6,3.05c.15-.05.3.1.35-.05C114.65,22.2,114.65,22.05,114.5,22.2ZM117,18c0-.15,0-.4,0-.25S116.9,18,117,18Zm.1,19.5H117s0,.3,0,.45C117,37.75,117.05,37.6,117.05,37.45Zm0-8.45c0,2.15-.2,4,0,6.1.15-1.65,0-3.55.15-5.35C117.15,29.4,117.25,29.15,117.05,29Zm0-13.55s.05-.2,0-.25C117.1,15.35,117,15.4,117.1,15.45Zm.25-10.95s-.1.1-.15.1-.1.35,0,.4c0-.15,0-.2.15-.2C117.4,4.65,117.4,4.55,117.35,4.5Zm-.15,5.05c0,.15,0,.4,0,.35S117.25,9.5,117.2,9.55Zm.3,17.5c.15-.15,0-.4.15-.55h-.1c0-.15.15.05.1-.1-.15,0-.05-.2-.1-.35A10,10,0,0,0,117.5,27.05Zm.15,1.2c0,.15-.15,0-.15.15.15,0,.1.1.25.15A.42.42,0,0,0,117.65,28.25Zm-.05-9.8a7,7,0,0,0,.2-2.45A23,23,0,0,0,117.6,18.45Zm.1-5.55s0,0,0,0Zm.15-2.05a8.77,8.77,0,0,0-.15,2A8.56,8.56,0,0,0,117.85,10.85Zm.1,3.8s0,.2,0,.25.1.1.25.1A.59.59,0,0,0,118,14.65Zm0-5.6a4.55,4.55,0,0,0,.1-2A6.73,6.73,0,0,0,118,9.05Zm.15,8.6c-.05.35-.1.55-.1.6C118.25,18.25,118.15,17.7,118.15,17.65Zm.15,7.55a8.08,8.08,0,0,0,0-1.1A2.05,2.05,0,0,0,118.3,25.2Zm0,11.35a2.47,2.47,0,0,0,.05-1.2C118.4,35.75,118.2,36.2,118.35,36.55Zm.1.75c0,.15,0,.2-.1.15a1.61,1.61,0,0,0,.1.3C118.45,37.6,118.6,37.45,118.45,37.3Zm.35-31.2h-.1a1.82,1.82,0,0,0,0,1.15A4.54,4.54,0,0,1,118.8,6.1ZM119,34.7a9.85,9.85,0,0,0,0,1.35v0a.37.37,0,0,1,0-.25Zm.2-24.45c-.15,0-.05.1-.2.05a9.77,9.77,0,0,0,.1,1.45A3.87,3.87,0,0,0,119.15,10.25Zm.3,24.4c0,.15,0,.2,0,.35C119.55,35,119.5,34.65,119.45,34.65Zm0,1.5c0,.05,0,.05,0-.1V35.1l0-.05Zm.45,1.9c0,.05-.15.05-.15.2s0,0,.2,0A.18.18,0,0,0,119.85,38.05Zm0-17.25c.05.55-.1.65.05,1C119.9,21.45,120,21.05,119.85,20.8Zm.05,14.75a7.5,7.5,0,0,0,0,1.5A2.56,2.56,0,0,0,119.9,35.55Zm.4-5.4c0,.15,0,.4,0,.55A1.08,1.08,0,0,0,120.3,30.15Zm.25,1.5c0,.15-.1.15-.1.3s0,0,.1.05A.42.42,0,0,0,120.55,31.65Zm0-10.25c0-.2,0-.3,0-.35C120.55,21.2,120.4,21.35,120.55,21.4Zm.2,14.25a6,6,0,0,0,0-2.3C120.7,34.1,120.7,34.8,120.75,35.65Zm0,2.6c.15,0,0,0,.2,0,0-.1,0-.15,0-.15Zm.1-1c0,.2-.1.25-.05.45C121.05,37.6,121,37.35,120.9,37.2Zm.3-11.4c0-.05,0-.05,0-.1s0-.1,0-.1Zm.15-6.25c0-.25,0,.05,0,.2.15-.05-.1.15,0,0Zm0-13.35h.2V5.9c-.1,0-.15,0-.2,0S121.4,6.05,121.35,6.2Zm.2,6.45c.15-.05.15,0,.3,0,0-.35.1-.8,0-1v.5s-.1,0-.25,0Zm.3-1.05a2,2,0,0,0,0-.55C121.8,11.2,121.7,11.45,121.85,11.6Zm.2,26.65s0-.1-.15-.1,0,.1-.05.1ZM122,27c0-.05,0-.45,0-.4S121.85,26.8,122,27Zm0,7.65a7.75,7.75,0,0,0,0,2.15A7.86,7.86,0,0,0,122,34.6Zm.15-25.1c0-.25.15-.75,0-.9C122.2,9,122,9.25,122.15,9.5Zm.25,23.15c0-.6,0-1.1-.05-1.75a8.5,8.5,0,0,0-.1,2.25C122.5,33.1,122.4,32.8,122.4,32.65Zm-.15-16.5a11.2,11.2,0,0,0,0-2.25A11.25,11.25,0,0,0,122.25,16.15Zm0,5.6a1,1,0,0,1,0,.4l0,0a13.69,13.69,0,0,0,0-2.05C122.4,20.8,122.05,21.2,122.25,21.75Zm0,8.45c0,.15-.15.1-.1.25s0-.05.15,0C122.3,30.4,122.35,30.25,122.3,30.2Z"/><path class="cls-2" d="M167,37.85c.05.2.3.3.15.65-2.15,0-4,.25-6,0,0-.1-.05-.15-.2-.15a9.87,9.87,0,0,0-.5-2.35c-.4-1.35-.65-2.85-1-4.3-2.2-.2-4.55.15-6.75.15-.4,1.75-.75,3.8-1.3,5.6,0,.15.2.15.15.35-.35.15-.3.4-.45.75a33.7,33.7,0,0,1-5.95,0c-.35-.35-.05-.85.1-1.2.13-1.21,1.53-9.66,2-10.4-.15-.4.15-.85.3-1.3.15-1.15.2-2.35.4-3.55l.45-1.75a4.61,4.61,0,0,1,.45-1.4c0-.15-.05-.15-.05-.3.33-.24,1.06-6.38,1.75-7.85,0-.75.25-1.3.3-2.05V8.6c.05,0,.05,0,.05,0s0-.05,0-.1c.13-1.25,0-1.4.3-1.4-.2-.15,0-.45,0-.7.15-.45.15-.9.3-1.45l.4-1.35c.15-.15.1-.15.15-.3a29,29,0,0,1,7.5,0s0,.2.2.2c.06.74,1.19,5.85,5,24.15l.5,1.6c.31.93.13,1.51,1.45,7a7.73,7.73,0,0,1,.15.85C166.9,37.3,166.8,37.6,167,37.85Zm-21.5.4c0-.15,0-.2,0-.25a.38.38,0,0,0-.1.25Zm.35-2.6a.65.65,0,0,1-.1.4,2,2,0,0,1-.1.65C145.66,37,145.85,35.71,145.8,35.65Zm0,2.2c.05-.2.15-.4.2-.65A1.1,1.1,0,0,0,145.85,37.85Zm.55,0c-.15-.05-.2,0-.2.1C146.35,38,146.4,38,146.4,37.85Zm.25-3.5a1.27,1.27,0,0,0-.1.6C146.6,34.75,146.8,34.55,146.65,34.35Zm.35-3.3c.05-.6.35-1.2.2-1.75A5,5,0,0,0,147,31.05Zm.55,3.4c-.15,0-.15-.05-.2-.05a2.62,2.62,0,0,0-.15,1.25C147.35,35.25,147.4,34.85,147.55,34.45Zm0,1.3c-.05,0-.1,0-.1.15S147.6,35.8,147.55,35.75ZM148,25.1c0,.15-.1.15-.15.2s-.15.15,0,.3C147.8,25.35,148.15,25.3,148,25.1Zm.2,10.8c0,.15-.2.25,0,.4C148.15,36.15,148.35,35.9,148.2,35.9Zm.55-15.3a17.8,17.8,0,0,0-.5,2.35A11.69,11.69,0,0,0,148.75,20.6Zm-.25,4.55c0,.05-.15.3,0,.35C148.45,25.35,148.65,25.2,148.5,25.15Zm.15,5.7a4.54,4.54,0,0,0-.2,1.65A10.54,10.54,0,0,0,148.65,30.85Zm.25,4.65c0,.15-.05.15-.05.3C149,35.85,149,35.45,148.9,35.5Zm.25-12.6c0-.2.1-.3.1-.35.34-1-.29.23-.2.7A.58.58,0,0,0,149.15,22.9Zm.5,12a6.26,6.26,0,0,0-.4,1.6A3.3,3.3,0,0,0,149.65,34.85Zm.25-13.3a5.45,5.45,0,0,0,0-.85C150,21.05,149.75,21.35,149.9,21.55Zm0,14.45c-.05,0-.05.2.1.15C150,36.05,150,36,149.9,36Zm.15-3.7c-.15.05-.15.15-.1.4C150,32.55,150.05,32.45,150.05,32.3ZM150,27.85c0,.15-.05.15-.05.3C150,28.1,150.15,27.9,150,27.85Zm.05-3.2c0-.25.3-.5.15-.85C150.2,24.15,150,24.4,150.05,24.65Zm.15-6.1c0-.2.15-.4,0-.6C150.15,18.15,150,18.4,150.2,18.55Zm.1,11.7a.31.31,0,0,0-.1.35C150.35,30.55,150.35,30.45,150.3,30.25Zm.15-8.2c0-.15.15-.25,0-.4C150.45,21.8,150.3,21.9,150.45,22.05Zm.1,14c0-.15,0-.15,0-.3h-.15a.54.54,0,0,0,0,.3Zm.15-23.25c-.2,0-.15.45-.15.6Zm0,7.8c0,.15-.25.45-.1.6C150.75,21.05,150.85,20.75,150.7,20.6Zm0-2.3c.15-.05.2-.5.15-.65Zm.4-4.7c-.15.35-.35.65-.2,1A7.08,7.08,0,0,0,151.1,13.6Zm-.2,13.55a2.43,2.43,0,0,0,.25-1.45h-.05Zm0-19h.15a.11.11,0,0,0-.1-.1C151.05,8.2,150.9,8,151,8.15Zm.15,23.15c0,.25-.2.6,0,.8C151.05,31.85,151.35,31.45,151.1,31.3Zm.45,1.15c-.15.15-.1.4-.25.6s0,.05,0,0A4.17,4.17,0,0,1,151.55,32.45ZM151.5,13.6c.2-.15.15-.45.3-.7.2-.75.75-1.9.6-2.45a6.2,6.2,0,0,1-.7,2.05A5.16,5.16,0,0,0,151.5,13.6Zm.05,1.6a4.63,4.63,0,0,0,.2-1.15A2.65,2.65,0,0,0,151.55,15.2Zm.2,7.65a15.05,15.05,0,0,0,.45-2.05,20.18,20.18,0,0,0-.5,2.05ZM151.9,7a5.14,5.14,0,0,0-.05.85,2.83,2.83,0,0,0,.15-.9c-.15,0-.1-.2-.25-.2C151.6,6.9,151.9,6.8,151.9,7Zm-.1,16.65c.15-.15.2-.7.25-.85-.15.45-.45,1-.3,1.4C151.9,24,151.8,23.85,151.8,23.6Zm0-5.6a4.27,4.27,0,0,0,.25-1.5C152,17,152,17.45,151.85,18Zm.2,8.35c-.05.35-.25.7-.1.9a2.65,2.65,0,0,0,.25-.95A.18.18,0,0,1,152.05,26.35Zm.15-22c0,.05-.15.15,0,.3,0-.15.1-.15.1-.3Zm0,4.85c0-.25.2-.4,0-.6C152.25,8.85,152.1,9.05,152.15,9.2ZM152.4,23a6.59,6.59,0,0,0-.25,1.3A10,10,0,0,0,152.4,23Zm-.2,2.9c0-.05.05-.05.05-.1C152.13,26.21,152.2,26.08,152.2,25.85Zm.85-10.25a13.48,13.48,0,0,0-.85,4l.45-1.7c0-.05-.15.05-.1-.1Zm-.7-7.95c.15-.05.4-.3.25-.35C152.45,7.45,152.3,7.4,152.35,7.65Zm0,21c.15,0,.4-.05.75-.1-.15-.05-.55-.15-.75,0Zm.1-15.2a5.41,5.41,0,0,0,0-.9A1.39,1.39,0,0,0,152.45,13.4Zm.1-7.45c0-.15.15,0,.15-.2S152.4,5.8,152.55,6Zm0-1.15c.15,0,.1,0,.25,0C152.85,4.6,152.6,4.65,152.6,4.8Zm.15,18.25c0,.15-.2.4-.05.45a.61.61,0,0,0,.15-.45Zm0-7.7c.05.05,0,.2.05.2-.05-.15.1-.05,0-.2Zm.2-4.15a.66.66,0,0,0-.1.6C152.85,11.6,153,11.35,153,11.2Zm.15,14.3a11.06,11.06,0,0,0,.3-2.85Zm.3-3.5c0,.15-.1.3,0,.45a10,10,0,0,0,.45-1.85Zm1.15,8.35a1.56,1.56,0,0,0-1.15.1A4.67,4.67,0,0,0,154.55,30.35Zm3.55-4.85c-.65-3.45-1.3-6.6-2.25-10-.39,1.93-1,5.22-2.2,10.1A33.07,33.07,0,0,0,158.1,25.5ZM153.8,7.1c.15,0,.2,0,.25-.1C153.9,7,153.8,7.05,153.8,7.1Zm.2,12.6c0-.05.1,0,.15-.05,0-.25,0-.45,0-.7C154,19.1,154,19.5,154,19.7Zm.15-4.15c.25-.15.3-.75.25-1A4.49,4.49,0,0,0,154.15,15.55Zm.25-6.3a.39.39,0,0,1,.15.05c-.05-.05,0-.1,0-.1S154.35,9.1,154.4,9.25Zm.25,1.65c.15.15.2-.15.15-.2S154.75,10.8,154.65,10.9Zm.45,5.9a5.53,5.53,0,0,0-.35,1.85A17.45,17.45,0,0,0,155.1,16.8Zm-.25-.55c0-.05.15-.2,0-.2Zm.05-6.95h.2c0-.15.05-.1.05-.15-.15,0-.2,0-.25,0Zm.25-1.15h.35c0-.15.05-.05.1-.2C155.4,8,155.2,8,155.15,8.15Zm0-3.4c0,.15.05.15.05.2a.2.2,0,0,1,.25,0c0-.2.2-.1.25-.25A2,2,0,0,0,155.2,4.75Zm.2,2.6a.28.28,0,0,1,.45,0c0-.15.15-.3,0-.35C155.7,7.15,155.55,7.15,155.4,7.35Zm.25,1.85c-.15,0-.2,0-.2.05C155.6,9.25,155.65,9.25,155.65,9.2Zm.45-3.1a.15.15,0,0,0,.2,0C156.25,6.05,156.1,6.05,156.1,6.1Zm.25,5.2c.15.55.35,1,.55,1.55C156.75,12.3,156.55,11.85,156.35,11.3Zm.4-1.1V9.9A.32.32,0,0,0,156.75,10.2Zm0,3.9c.15.25.05.6.2.75C156.9,14.5,156.9,14.15,156.75,14.1Zm.2-9.85c0-.15.25-.15.1-.2S156.8,4.2,157,4.25Zm.1,11.35c.15.35.15.75.3.9C157.2,16.15,157.3,15.8,157.05,15.6Zm.85,15.05c-.15-.15-.4-.1-.75-.1C157.3,30.8,157.7,30.65,157.9,30.65ZM157.5,8.3c0,.1.05.15.1.15S157.55,8.3,157.5,8.3Zm.45,5.8a.76.76,0,0,0-.2-.4C157.75,13.85,157.9,14.1,158,14.1ZM158,28.9c-.05.05-.25,0-.25.1C157.8,29,158,29,158,28.9Zm-.05.9c-.15-.05,0-.1-.2-.1C157.75,29.85,158,30,158,29.8Zm.4-.9s-.1,0-.2,0S158.35,29,158.35,28.9Zm0-15.7c0-.25,0-.5-.15-.65Zm0-3.15a7,7,0,0,0,.45,1.45C158.65,10.9,158.7,10.4,158.35,10.05Zm.2,8.65a.45.45,0,0,0-.1-.45A.72.72,0,0,0,158.55,18.7Zm.1,5.05a1,1,0,0,0,0,.4C158.7,24.39,159,24.74,158.65,23.75Zm.15-7h-.1c.05.15,0,.25.1.3C158.75,16.9,158.85,16.9,158.8,16.75Zm-.05-2.8c0,.1,0,.15.05.2C158.8,14.05,158.8,14,158.75,14Zm.35,1.2a.27.27,0,0,0-.15-.25C159,15.25,159.15,15.4,159.1,15.15Zm.4-8.4c0,.2.1.3.1.45A.4.4,0,0,0,159.5,6.75Zm.1,2.7c.15.25.15.55.3.7,0-.35-.15-.4-.15-.65C159.7,9.5,159.75,9.45,159.6,9.45Zm.05-2.1a.38.38,0,0,0,.1.25C159.75,7.45,159.7,7.35,159.65,7.35Zm.15,20.1c-.05-.15-.1-.2-.1-.25C159.7,27.35,159.75,27.45,159.8,27.45ZM160,10.5c0-.05.05-.25-.1-.25S159.8,10.55,160,10.5ZM160,28.25a.45.45,0,0,0-.15-.35C159.85,28.1,159.9,28.2,160,28.25Zm.45,4.4a1.11,1.11,0,0,1,0-.45c-.15,0,0-.15-.1-.1A.9.9,0,0,0,160.45,32.65Zm.1-13a2.53,2.53,0,0,0,.1.65C160.8,20.15,160.6,19.85,160.55,19.65Zm.35,16c0,.05,0,0,.15,0,0-.15-.05-.15-.05-.2h-.2Zm.4-15.9a4.22,4.22,0,0,0-.3-1.2A4.22,4.22,0,0,0,161.3,19.75Zm.1,14.55c-.05-.2,0-.45-.15-.65C161.3,33.9,161.25,34.15,161.4,34.3Zm.25-19.6c0-.35-.1-.4-.1-.75C161.4,14.1,161.6,14.5,161.65,14.7Zm.15,1.65c0,.35.15.45.15.8.25-.2,0-.55,0-.9A.11.11,0,0,1,161.8,16.35Zm.3,21.8c.05-.15-.2-.1-.25,0S162,38.15,162.1,38.15Zm.35-6A3.66,3.66,0,0,0,162,31C162.58,32.68,162.45,32.74,162.45,32.15Zm0,3.6c0-.15,0-.1,0-.25-.15,0-.2,0-.2.1Zm.2-14.65h-.05a2.54,2.54,0,0,0,.1.45C162.7,21.4,162.65,21.3,162.65,21.1Zm.1,2.6c.15.35,0,.6.15.75A1.21,1.21,0,0,0,162.75,23.7Zm.55.65c-.05-.35,0-.8-.2-1.05C163.15,23.7,163.25,24,163.3,24.35Zm0,6.8c-.05-.15,0-.35-.15-.5C163.2,30.85,163.15,31,163.3,31.15Zm.4,5.3a3.89,3.89,0,0,0-.2-1.05A3,3,0,0,0,163.7,36.45Zm.05-8.6c.15.35.1.7.3.95l-.15-.95Zm.1-2.6c.05.15,0,.4.1.6C164,25.65,164,25.25,163.85,25.25Zm.45,4.6c-.05-.15,0-.35-.15-.4C164.2,29.6,164.15,29.7,164.3,29.85Zm.3,0a2.8,2.8,0,0,0,.15,1.15C165,30.7,164.65,30.3,164.6,29.9Zm.2,2.3c-.05-.2,0-.5-.1-.65C164.55,31.7,164.75,32,164.8,32.2Z"/><path class="cls-2" d="M188.4,9.35c-1-.13-5.67.07-6.15,0-.15,0-.25-.15-.5-.1-.28,2,0,5.29,0,24.55,0,.65-.1,1.25-.1,1.9a15.71,15.71,0,0,1-.15,2.7c-.05.15-.2.3-.2.45a.28.28,0,0,1-.4,0c-2.29.46-2.19,0-2.7.15a.68.68,0,0,0-.45,0,7,7,0,0,1-2.35-.55c.15-2.2-.15-4.55,0-6.7.53-5.74-.21-10.79.15-18.35a8.08,8.08,0,0,1,.1-2.3c0-.55-.05-1.1-.05-1.65-.43,0-6.57-.07-7-.25-.83-2.18-.14-6.29.6-5.95,2.42.07,18.3.38,18.8.25h.4c.35.05.45,1.05.5,1.4A5.91,5.91,0,0,1,188.4,9.35ZM168.75,7.1c.1-.1.15-.15.15-.2-.15,0-.2,0-.2-.05S168.6,7.1,168.75,7.1Zm0,1H169c-.05-.15.05-.1,0-.25-.05,0-.25,0-.3,0S168.7,7.9,168.75,8.05Zm.55-2.15c-.2,0-.35.25-.4.3Zm-.35.95c.05-.15.4-.1.45-.15C169.2,6.65,168.8,6.65,169,6.85Zm.05,1.6c.05,0,.1.05.15.1,0-.15.2-.05.35-.05S169,8.43,169,8.45Zm.15-4.65s.1-.25-.05-.25C169.1,3.7,169.1,3.8,169.15,3.8ZM171,8.05a5.66,5.66,0,0,0-1.6,0A8.14,8.14,0,0,0,171,8.05Zm-1.35-4.5c-.15.05,0,0-.2,0C169.35,3.7,169.6,3.7,169.6,3.55Zm0,2.2c.6,0,.9,0,1.55-.1C171,5.64,169.69,5.55,169.55,5.75Zm2.3,2.8c-.2-.2-.5-.05-.7-.05a10,10,0,0,1-1.25-.05A8.22,8.22,0,0,0,171.85,8.55Zm-.6-3.4c.05.15.3,0,.55,0C171.75,5.05,171.4,5.15,171.25,5.15Zm2.05-.55c-.2,0-.55-.1-.7.05C172.85,4.6,173.1,4.65,173.3,4.6Zm1-.5c.05-.15-.25-.15-.2,0Zm.4,0c-.15,0-.25-.1-.3,0C174.6,4.05,174.7,4.2,174.75,4.05Zm.3,4.05c-.05.15.25.15.2,0Zm.85,30.1c0-.15-.1-.15-.15-.3C175.75,38.05,175.7,38.25,175.9,38.2Zm.4-28.95c-.25.05-.3-.05-.25-.2a.22.22,0,0,0-.25,0c.2,0,.1.25.25.4C176.2,9.45,176.15,9.4,176.3,9.25Zm-.25,20c0,.35,0,.6.1.25A.38.38,0,0,0,176.05,29.25Zm.5,9.1c-.15,0-.2-.15-.25,0S176.5,38.5,176.55,38.35Zm.85-1.7c0-.1-.05-.15-.1-.15s-.05,0-.1,0S177.35,36.5,177.4,36.65Zm0-14.65c0,.15,0,.4,0,.25S177.5,22,177.45,22Zm1,8.35s-.1-.1-.15-.05-.15.7,0,.85C178.45,30.8,178.3,30.7,178.45,30.35ZM179,9.6c-.15.05,0,.25,0,.45C179,10.05,179.1,9.65,179,9.6Zm.15,10.2c0-.05,0-.05,0-.05v.55c0,.05,0,.1,0,.05Zm.2,4.9c-.05,0,0,.7,0,.45A1.11,1.11,0,0,0,179.3,24.7Zm.25-1.2c0-1,0-1.45-.05-2.5A7,7,0,0,0,179.55,23.5ZM180,36.9c-.05,0-.2-.1-.2,0s0,0,0,.15S180,37,180,36.9Zm.05-18.8a1.88,1.88,0,0,0,0-.75s-.05,0-.05-.05C180,17.65,179.9,17.85,180.05,18.1Zm0-.8v-.8h.05c0-.15-.15-.2,0-.4-.15,0,0-.2-.15-.15C180.15,16.5,179.9,16.9,180.1,17.3Zm0-1.6c0-.15.15-.1,0-.15-.15.15.1-.25,0-.2S180,15.55,180.1,15.7Zm.15,18a1,1,0,0,1-.2.4.38.38,0,0,0,.1.25C180.3,34.25,180.25,33.85,180.25,33.65Zm-.1-23.5c0-.15,0-.25-.05-.3C180.15,10,180,10.1,180.15,10.15Zm-.05.15c0,.55.05,1,.05,1.8A5.44,5.44,0,0,0,180.1,10.3Zm.5,8.05c0-.15.05,0,.05-.05a4,4,0,0,1,0-1.55c0-.05,0-.1-.15-.15C180.7,17.15,180.45,17.9,180.6,18.35Zm0,8.1c0,.35,0,.65,0,1A1.37,1.37,0,0,0,180.55,26.45Zm0-10.1c0,.1,0,.15.05.15s0,0,0-.15Zm.15,6.7a2.43,2.43,0,0,0-.1-1.05A2.36,2.36,0,0,0,180.75,23.05Zm.2,9.55c0-.15.1-.25,0-.4C180.9,32.35,180.8,32.55,181,32.6Zm.35-9.35c-.15-1,0-1.65-.15-2.4A12.38,12.38,0,0,0,181.3,23.25Zm0-14.15c-.05-.15,0-.2.25-.2-.15-.15-.15-.35-.35-.2Zm.65-.8a.3.3,0,0,0-.4,0A1.08,1.08,0,0,0,182,8.3Zm2.55-4c-.15,0-.25,0-.4,0s-.55-.1-.7.1A1.38,1.38,0,0,0,184.5,4.3ZM185.05,6a10.43,10.43,0,0,0-1.25,0A2.63,2.63,0,0,0,185.05,6Zm-.25.6c.1,0,.15,0,.2,0S184.75,6.4,184.8,6.55ZM185,8.9c-.05,0-.3,0-.15,0S185.2,9,185,8.9ZM186,5.4h-.7C184.73,5.4,185.72,5.57,186,5.4Zm.2,1.3c-.25,0-.5-.15-.65,0C185.7,6.7,186,6.85,186.15,6.7Zm.7,1.9c-.15,0-.45-.1-.4.05C186.65,8.6,186.7,8.65,186.85,8.6Zm-.4-2.15c.15,0,.4.15.4,0C186.7,6.45,186.5,6.4,186.45,6.45Zm1,.65c-.25,0-.45.05-.65.05a.71.71,0,0,0,.65.1Zm-.05,1.8a1.28,1.28,0,0,0,.6,0C187.9,8.8,187.6,8.9,187.35,8.9Zm.6-4.2s-.15-.15-.2,0Zm0,0h.2a.38.38,0,0,0-.1-.25C188.1,4.55,188.1,4.65,188,4.7Z"/></g><g class="cls-1"><path class="cls-2" d="M44.8,76.6a6.93,6.93,0,0,0-.3,2c-.83,4.73-5.82,26.7-5.8,26.6,0,.3-.2.6-.2.9a2.53,2.53,0,0,0-.1,1.1c-.3,1.7-.8,3.5-1.2,5.1-.3,1.3-.4,2.5-.7,3.7l-.8,3.3-.2,1.5c-.14.52-1,3.52-1.3,4.2,0,.85,1.46.53-5.5.9-.65,0-6.06.83-9.9-.7-.3-.84-1.28-5.8-1.3-5.9-.41-3.18-1.2-4.22-1.8-8.4l-.4-1.7c-.3-1.2-.3-2.4-.6-3.6-.7-3.9-1.8-7.6-2.6-11.3-.73-4.64-1.1-5.54-1.1-6.1l-.6-2.1c-.12-.43-.85-4.67-1.5-7.1a8.28,8.28,0,0,0-.5-3.2v-.3H8.3a19.23,19.23,0,0,0-.5-2c0-.3.1-.3,0-.6a3.22,3.22,0,0,1-.2-.6l-.2-1.7A2.35,2.35,0,0,1,7,69.4c.1-.3-.2-.1-.1-.2-.08-.76-2-8.9-1.9-8.3l-.3-.8c-.4-1.5-.4-2.7-.7-4.2.4-.5,1-.6,1.7-.9-.1,0-.1,0-.1-.1a4.33,4.33,0,0,0,1.9-.4,28.84,28.84,0,0,1,9.2,1c.18,1.12,2.47,10.6,2.5,10.7,1.31,6.66,5.16,27,7.4,34.2,0-.1,2.48-9.83,9.8-43.2.57-1.34-.35-1.87,2.7-2.3,4.68-.94,7.54.47,8.9.6.5.1.7,0,1,.3C49.62,56.62,44.8,74.42,44.8,76.6ZM5.8,56c-.3-.1-.4.3-.1.3C5.8,56.3,5.8,56.2,5.8,56Zm1.8,6.8c-.1-1.1-.5-2-.6-3.1-.3,0-.1.1-.4.1A13.21,13.21,0,0,0,7.6,62.8Zm-.1,4.7A3.87,3.87,0,0,0,8,69.3,2.73,2.73,0,0,0,7.5,67.5Zm1.6,2.8c-.1-.4,0-.7-.3-1-.1.1,0,.5.1,1.1C9,70.3,9,70.3,9.1,70.3Zm1.1-2A18,18,0,0,0,9,63.6,45.79,45.79,0,0,0,10.2,68.3Zm.3-3a24.39,24.39,0,0,0-.7-4.6C9.84,61.27,10,65.3,10.5,65.3Zm-.1,15c-.1-.3.1-.8-.2-.9C9.9,79.7,10.3,80,10.4,80.3Zm-.2-11.7c.1,0,0,.3.1.3S10.3,68.5,10.2,68.6Zm.2-11.9c.1.5.1,1.1.4,1.4A1.9,1.9,0,0,0,10.4,56.7Zm1.2,17.2c-.1-.5,0-1.1-.4-1.4a20,20,0,0,0,.9,3.5A5,5,0,0,0,11.6,73.9Zm0-17.2c.1-.1,0-.2-.1-.3C11.5,56.6,11.5,56.7,11.6,56.7Zm1,25a.76.76,0,0,1-.2-.5C12.4,81.3,12.5,81.4,12.6,81.7Zm.2-22.3c-.1-.3.4-.9.1-1.2A.82.82,0,0,0,12.8,59.4Zm.7,17.5c-.3,0-.1-.1-.4-.1-.1-.3-.1-1-.4-1,.3.4.2,1.1.5,1.5,0-.1.1-.1.3-.1Zm-.7,15.9c.3,0,0-.6-.1-.3C13,92.5,13,92.6,12.8,92.8Zm0,0a3.71,3.71,0,0,0,.4,1.5A4.19,4.19,0,0,0,12.8,92.8Zm.5-2.8c-.3.3,0,.5.1.8h.2Zm.3-7.5c-.1-.4,0-1.1-.4-1.2A8.34,8.34,0,0,0,13.6,82.5ZM14,97.6c-.3-.9-.5-2.4-.8-3.2a16.47,16.47,0,0,0,.6,3.2ZM13.4,61a7.66,7.66,0,0,0,.4,2.7A6.58,6.58,0,0,0,13.4,61Zm.2-3.9c0,.2,0,.3.1.3A.37.37,0,0,0,13.6,57.1Zm1.5,7.7a23.77,23.77,0,0,0-.7-4A22.1,22.1,0,0,0,15.1,64.8Zm1.2,26.5a59.21,59.21,0,0,0-1.4-9.4C15.3,85.1,15.8,88.2,16.3,91.3Zm-1-25.2a5.16,5.16,0,0,0-.2-1.1Zm1.9,12.1c-.3-.7-.4-1.7-.7-2.2,0-.1,0-.2-.1-.2.3.8.5,2,.8,2.9C17.3,78.6,16.9,78.3,17.2,78.2Zm-.4-8.3c.4-.1-.2-.7-.1-1C16.4,69.2,16.8,69.6,16.8,69.9Zm.7,23.8c0-.3,0-.5-.1-.5S17.4,93.7,17.5,93.7Zm.2,22.3c.3,1.1.4,1.9.7,2.8C19,118.59,18.06,117,17.7,116Zm.4-49.2c.1.3-.1.4.2.4C18.2,67.1,18.4,66.9,18.1,66.8Zm1.2,9a.44.44,0,0,1-.1-.5c-.3-.1-.5-.5-.2-.6-.3-.3,0-.6-.3-1-.1,0-.1.1-.2.1l.3,2Zm1.4,47.9c-.1,0-.1-.1-.4,0C20.3,123.8,20.7,123.8,20.7,123.7Zm1.4-20.1c-.1-1.3-.6-2.4-.7-3.9,0-.1.1,0,.1-.3l-.7-1.9A40.75,40.75,0,0,0,22.1,103.6Zm-.7-19.7a10.4,10.4,0,0,0-.5-2.9A4.6,4.6,0,0,0,21.4,83.9Zm-.1,27.5c-.1-.1.1-.7-.2-.6C21.4,110.9,21,111.4,21.3,111.4Zm0,9.6c0,.1.1.1.2.1S21.4,121,21.3,121Zm.9-14.9a14.73,14.73,0,0,0,.7,1.7,5.33,5.33,0,0,0-.4-1.9Zm.9,19a.4.4,0,0,1-.1-.5l-.6-.1c0,.4.2.4.1.7C22.8,125.2,23,125.2,23.1,125.1Zm.5-23.3c-.1.1-.3.1-.4-.2,0,.3.1.2.1.5,0-.1,0-.2.1-.2.3.4.2.9.3,1.3C24,102.9,23.6,102.3,23.6,101.8Zm.9,9.6c.1.4,0,1.4.1,2.1A2.24,2.24,0,0,0,24.5,111.4Zm.7-1a1.21,1.21,0,0,0-.1-1.5c0-.3-.1-.5-.2-.5Zm1.3-7.9a.34.34,0,0,0-.3-.6C26.5,102,26.2,102.2,26.5,102.5Zm.2,22.6a.3.3,0,0,0-.4,0C26.6,125.1,26.6,125.4,26.7,125.1Zm.5-8.4c-.2-.1-.3-.1-.4,0-.3.1,0,0,0,.3.3,0,.4,0,.5-.1S27.2,116.8,27.2,116.7Zm1.5-19.9c-.1-.8.4-1,.5-1.7H29c-.3.5-.2,1.1-.5,1.5Zm1.6,7.9a6.4,6.4,0,0,0-.5,1.7c.3-.1.2-.8.5-1.1C30.3,105.2,30.4,104.8,30.3,104.7Zm-.1,15.5c-.1,0-.1.1-.1.2S30.2,120.3,30.2,120.2Zm.9-21.6c0,.1-.1.2-.1.3C31.3,98.9,31.2,98.6,31.1,98.6Zm.9-4.1c0,.1-.1.2-.1.3C32.2,94.8,32.1,94.5,32,94.5Zm.7,23.1a12.77,12.77,0,0,0,.2-1.7,6.4,6.4,0,0,0-.5,1.7Zm1.5-11.1c-.1.9-.5,1.7-.5,2.5C34,108.3,34.6,107.3,34.2,106.5ZM34,82.3a4.28,4.28,0,0,1,.5-1.3A1.38,1.38,0,0,0,34,82.3Zm.9,36.6h-.3c-.1.1-.1.2.2.2C34.8,119,34.9,119,34.9,118.9Zm0-40.2c-.1.5-.2.9-.2,1C35,79.6,34.9,79,34.9,78.7Zm.5,6.7a2.77,2.77,0,0,0-.3,1.3A6.11,6.11,0,0,0,35.4,85.4Zm1.5-1.3a37.31,37.31,0,0,0-1.4,4A13.58,13.58,0,0,0,36.9,84.1Zm-.2,26.1h-.1a24.68,24.68,0,0,0-.8,4.3,7.79,7.79,0,0,0,.4-2.1A4.66,4.66,0,0,0,36.7,110.2Zm-.8-32.4c.3-.8.4-1.9.7-3C35.9,75.6,36.2,76.7,35.9,77.8Zm.8,23.9c-.1.1-.3.7,0,.6C36.4,102.2,36.8,102,36.7,101.7Zm-.1-40.8c.1-.1,0,.1.3,0,.3-.3.3-.5-.2-.5A2,2,0,0,0,36.6,60.9Zm1,37.7h-.1a11.14,11.14,0,0,0-.8,3Zm-.1-34.8a2.65,2.65,0,0,0-.5,1.4A3.94,3.94,0,0,0,37.5,63.8Zm1,12.7c-.3,1.5-1,2.3-1.1,3.8A11.23,11.23,0,0,0,38.5,76.5Zm-.7-13.2c0-.3.4-.5.1-.8C38,62.9,37.5,63,37.8,63.3Zm.3,40.4c-.1.1,0,.3-.1.4C38.1,104.1,38.1,103.6,38.1,103.7Zm.7-10.1a15.47,15.47,0,0,0-.3,1.7A2.29,2.29,0,0,0,38.8,93.6Zm0-37.7c0,.1-.2.1-.2.2s.1.2.2.2Zm1.3,38.3a.78.78,0,0,0-.1.8C40,94.7,40.2,94.3,40.1,94.2Zm1.1-16.1c.3-.9,1.2-1.8.9-2.7A10.69,10.69,0,0,0,41.2,78.1Zm1.7,3.6a22.74,22.74,0,0,0-1.4,6.7C41.9,86.1,42.5,84,42.9,81.7Zm-1-15.9a13.53,13.53,0,0,0,.9-3.3Zm.5,7.5c0,.3-.4.4-.1.5C42.3,73.5,42.5,73.4,42.4,73.3Zm.5-2.6a3.54,3.54,0,0,0-.3,1.1c.1,0,0,.1.3,0C42.8,71.5,43,71,42.9,70.7Zm1.2.7a18,18,0,0,0,.8-3.9A18,18,0,0,0,44.1,71.4Zm.4-10.8c.3-.3.2-.6.2-.9C44.6,60,44.4,60.3,44.5,60.6Zm1,3.8v.4c-.3,0-.5.2-.5.6.3.1.2.3.5.3C45.5,65.3,45.9,64.7,45.5,64.4Zm1.1-8.2c-.3,0-.9-.4-1,0A3.35,3.35,0,0,0,46.6,56.2Zm.9,3.3c-.1.1-.1.1-.2,0,0,.3-.3.7,0,.8C47.4,59.9,47.5,59.6,47.5,59.5Z"/><path class="cls-2" d="M58.2,55.8c.3,0,.1-.3.4-.6,1.86-.3,10.21-.87,11.7-.2,0,1.6.3,3,.2,4.5V69c0,1.7.3,3.3.2,4.9,0,2.3.1,4.5.2,7.3,0,.9-.4,1.8-.1,2.5.1.3.3.2.3.5-.3,1.7.2,3.9.1,5.9-.26,1.27-.24,16.57-.2,18.1.44,9.27.6-3.1.6,17-.8.7-1.9.4-2.8.5l-3.4.4a17.2,17.2,0,0,1-3.2-.2c-4,0-3.2-.37-3.2-2.8,0-1.5-.3-3.4-.3-4.5-.13-2.62.73-18.13-.4-31.7C58.3,86.8,58.19,55.9,58.2,55.8Zm1.1,21.8c-.1,0-.3.3,0,.3Zm0,3.1c0-.8.2-1.3-.1-1.8C59.3,79.6,59,80.4,59.3,80.7Zm0,.3c0-.1-.1-.1-.1-.2a44.36,44.36,0,0,0,.2,6C60,86.24,59.14,83.77,59.3,81Zm.3,34.9c.3,0,.1-.5,0-.8Zm.3,8.4c0,.1-.3.3,0,.6a3.22,3.22,0,0,1,.2-.6Zm0-.4c0-.7.5-1.6,0-2A6.56,6.56,0,0,0,59.9,123.9Zm.3-68.1c-.2.2-.3.3-.3.2.3-.1.2.1.3,0Zm0,42.4a63.36,63.36,0,0,0,.1,7.6c.5-.4,0-1.4.3-2.1-.3-1.5.1-3.5-.2-5.4C60.3,98.3,60.3,98.2,60.2,98.2Zm.5,12.7c0-.5,0-.7-.1-.6C60.6,110.7,60.6,110.9,60.7,110.9Zm.2-44.4c-.1-1.6.3-2.4,0-3.7C60.9,63.9,60.5,65.2,60.9,66.5Zm.7,15.4a13.07,13.07,0,0,0-.4-3.7A6.57,6.57,0,0,0,61.6,81.9Zm-.2,17.5a2.86,2.86,0,0,0,.1,1.8C61.4,100.7,61.7,99.9,61.4,99.4Zm.3-6.1c.5-.3.1-1.2,0-1.7Zm.1.5c0,.7-.1,1.2.2,1.6C62.5,95.1,61.9,94.3,61.8,93.8Zm0-.1c0-.1.3-.3,0-.3Zm.5-13.9c0-.1,0-.9-.1-.6C62.2,79.3,62.2,80.1,62.3,79.8Zm.5,26a42.25,42.25,0,0,0-.6-7c.1,1.9.3,4.1.3,6.4Zm-.2-43.7c.1-.1.1-.1.2-.1-.1-.7.1-.5-.2-.9A3.35,3.35,0,0,0,62.6,62.1Zm.5,10.5c.4-.3.2-1.6-.1-2C63.1,71.4,62.8,71.9,63.1,72.6Zm0-4c0-.3.1-.9,0-.8C63.1,68.1,63,68.7,63.1,68.6Zm.5,22.7a7.06,7.06,0,0,0,.5,3.8l-.3-3.8Zm.2-29.7a2.79,2.79,0,0,0-.1-1C63.57,61.47,63.8,63.28,63.8,61.6Zm.5,46.2c-.3-.9-.1-2-.4-2.9A8.47,8.47,0,0,0,64.3,107.8Zm.1,9.4c0-1.5.3-3.3-.4-4.5A39.33,39.33,0,0,0,64.4,117.2Zm.2-60.9c.1-.3,0-.3.3-.6-.3.1-.3.3-.6.4C64.3,56.2,64.4,56.3,64.6,56.3Zm.6,6.2c-.1-.8.3-1.9.2-2.6-.3,0-.3-.1-.4-.1A8.61,8.61,0,0,0,65.2,62.5Zm.4,44.7c-.3-.9.1-2.3-.3-3.2-.1,1.5-.1,2.9-.1,3.7,0-.1-.1-.1-.1,0,.3.1,0,1.4.3,1.9.3-.3.1-.9.1-1.3s0-.5-.1-.8S65.7,107.5,65.6,107.2Zm-.4-24.8a22.85,22.85,0,0,0,.2,5.3C65.3,85.6,65.6,84,65.2,82.4Zm.3,14.8a8.92,8.92,0,0,0-.3-2.8A11.43,11.43,0,0,0,65.5,97.2Zm-.1,24.1c0,.3-.1.4-.2.3C65.2,121.8,65.3,121.7,65.4,121.3Zm.1-50a5.14,5.14,0,0,0,.2-2.3c0-.5.2-1.1-.1-1.6C65.5,68.9,65.5,69.8,65.5,71.3Zm.7,46c-.1-.1,0-.5-.1-.6A.32.32,0,0,0,66.2,117.3Zm.4-49.7c0-.2,0-.3-.1-.3S66.3,67.6,66.6,67.6Zm-.1.9c.1,1.5-.2,2.2.1,3.3A12.29,12.29,0,0,0,66.5,68.5Zm.2,34.2c.1.7-.1,1.4.2,1.9a10.89,10.89,0,0,1-.1-1.9C66.8,102.6,66.7,102.6,66.7,102.7Zm0,20.5v.3c.5.1.7,0,.6-.4A3.54,3.54,0,0,0,66.7,123.2Zm.4-2.7c.5,0,.1-1.1.1-1.4A4.55,4.55,0,0,0,67.1,120.5Zm.5-44.4c.1-3.2.7-5.7-.1-8.8C67.5,70.4,67.2,73.3,67.6,76.1ZM68,61.5c0-.7.2-1.2-.1-1.6C67.9,60.6,67.3,61.2,68,61.5ZM68,84c0,.1-.2.1-.2,0,0,.1,0,.2-.1.2.3-.1.2.3.3.4Q68.15,84.15,68,84Zm-.2-.2a6.48,6.48,0,0,0,0-1.4A6.53,6.53,0,0,0,67.8,83.8Zm.1,27.2c.1,1.3-.2,2.6.2,3.8.3-1.1-.2-2.3.1-3.6C68.1,111.2,68,111,67.9,111Zm.5,6.5a8.6,8.6,0,0,0-.1-1.6C68.3,116.3,68.1,117,68.4,117.5Zm.1,2.7c.1.3-.1.4-.1.7C68.7,120.8,68.8,120.3,68.5,120.2Zm.3-45.5c0-.7.3-1.5,0-2A3.39,3.39,0,0,0,68.8,74.7Zm.2,48.7-.1-.1h-.1c0,.3-.3.8.1.8C69,124.1,69,123.9,69,123.4Zm-.1-52.8a21.6,21.6,0,0,0,0-3.6A10.88,10.88,0,0,0,68.9,70.6Zm0-3.7c-.1-.3.1-.2.1-.3s.1-.2-.2-.2C68.9,66.5,68.6,66.8,68.9,66.9Zm.7-11.2h-.7l.7.6Zm-.3,24.5c-.1-1.5.1-2-.3-3.1A14.16,14.16,0,0,0,69.3,80.2Zm.6-5.5c-.1-.3,0-.9-.1-.8C69.8,74.2,69.6,74.8,69.9,74.7Zm.5,46.6h.3c-.1-.3.2-.3-.1-.3C70.7,121.3,70.4,121,70.4,121.3Z"/><path class="cls-2" d="M125.1,124.5c0,.3-.3.3-.3.6-2.9,0-5.6.4-8.7.1-1.2-.1-2.5-.3-3.7-.3,0-.7-.4-1-.7-1.5l-.2-.7c-.1-.3-.3-.3-.4-.6-.3-.7-.3-1.1-.6-1.8-6.6-15.22-6.49-17.1-9.6-23.7a95,95,0,0,1-4.6-10.3c-.17,11.57.2,11.71.2,24,0,1.62.42,3.55.3,5a67.53,67.53,0,0,0-.5,9.1c-.3.3-.7,0-.7.4-3.3.3-1.62,1.63-11.4,0a4.16,4.16,0,0,1-.1-2.9c-.4-.66.34-.31-.4-9.9,0-4,.3,4.86.3-25-.1-3.3.3-6.3.2-9.2V72.9a170.26,170.26,0,0,1,.1-17.5,43.41,43.41,0,0,1,10.9-.5c.1.4.2.1.5.4,1.51,2.2,12.09,29.09,17,39.1.23-6.12.8-4.3.3-14.2,0-27.05.1-19.49.1-25.1a37.89,37.89,0,0,1,10.1-.2l.9.4c.3,0,.6-.2.9.1.39,11.75-.65,47.6-.1,54,.1,1.7.2,3.4.2,5C125.2,117.7,124.8,121.2,125.1,124.5ZM85.3,106.1c-.1-.1-.3-.1-.6-.1.1.3-.2.6.1.6C84.9,106.3,85,106.4,85.3,106.1Zm-.5,7c-.1.1-.2.8.1.8C85,113.4,85,113.2,84.8,113.1Zm.4-50.4c-.3-.3.1-1.5-.2-1.8C85,61.29,84.67,62.43,85.2,62.7ZM85,91.6a.38.38,0,0,0,0-.7C84.9,91.2,85,91.2,85,91.6Zm.2-14.5a26,26,0,0,0-.2-5.6Zm.3,20.6c0-.1-.3,0-.3-.1-.3.1-.2.4.1.5,0-.1.1-.1.2-.1Zm-.4-20.2c0,.3,0,.8.1.5C85.1,77.9,85.2,77.4,85.1,77.5Zm.7,40.2a13.4,13.4,0,0,0,0-4C85.29,114.21,85.8,116.36,85.8,117.7Zm.1,3.6c0,.3-.2.7.1,1C86,122,86,121.3,85.9,121.3Zm.2-.2c.1-.3,0-1.4-.1-1.1a4.05,4.05,0,0,0,0,1.1Zm0-43.6c.1-.1,0-.5-.1-1.1C86.1,76.7,85.8,77.2,86.1,77.5Zm.2,3.4.2,2.5c-.1-.7.3-1.8,0-2.5ZM86.6,97c0,.1-.1.1-.2.1a11.45,11.45,0,0,0,.1,3.2C86.5,99.2,86.7,98.3,86.6,97Zm0-.5c-.1-.1.2-.4-.1-.5C86.5,96.3,86.5,96.5,86.6,96.5Zm0-29.3a12.29,12.29,0,0,0,.2,2.7c.1-.7,0-1.9.1-2.7Zm.2,43.1c-.1.1-.1.4-.2.5C86.87,111.07,86.78,110.4,86.8,110.3Zm0-5.5a2.4,2.4,0,0,0,0-1.2C86.8,103.9,86.5,104.5,86.8,104.8Zm.1,18.7a1.44,1.44,0,0,0-.2-.9C86.7,122.9,86.6,123.5,86.9,123.5Zm.2-2.4c-.3-.7.2-1.7-.1-2.8a6.47,6.47,0,0,0-.2,1C86.8,120.1,86.7,121.2,87.1,121.1Zm-.2-34.6c-.1,1.2.1,2.3,0,3.5A10.26,10.26,0,0,0,86.9,86.5ZM87.2,57q0,.6.3.3c-.1,0-.1-.1-.1-.3Zm.4,48.7h-.3a12.92,12.92,0,0,0,.3,2.9C87.6,107.9,87.9,106.4,87.6,105.7Zm.1-9h-.2c.1.7-.2,1.3.1,1.7C87.6,97.7,87.7,97.4,87.7,96.7Zm-.1-16.4c0,.3-.1.2,0,.5C87.8,80.6,87.8,80.4,87.6,80.3Zm.2,23.7c0,.1-.1.6,0,.5S87.9,103.7,87.8,104Zm.3,18.2c0,.4-.3,1,0,1.3A5.63,5.63,0,0,0,88.1,122.2Zm.3-27.1a8.92,8.92,0,0,0-.2-1.1c-.1.3-.3,1,0,1.1Zm.2,1.7c.1.8-.2,2.2.1,3.1a11.41,11.41,0,0,0,0-3.2Zm.4,21.9c-.3,1.3-.7,2,0,3.1A8,8,0,0,0,89,118.7Zm0-14.8c0-.5,0-.7-.1-.7C89,103.5,88.7,103.8,89,103.9Zm.7-11.4a6.35,6.35,0,0,0-.2-2.4c0,1.5-.4,2.7-.1,3.9C89.9,93.9,89.7,93,89.7,92.5Zm.1-25.2c0-.4.2-.8-.1-1.1C89.4,66.5,89.4,67.3,89.8,67.3Zm0,37.9c-.1.7-.4,1.2-.1,1.9C89.7,106.4,90.1,105.7,89.8,105.2Zm0-24.7a4.8,4.8,0,0,0,0,1.2C89.9,81.4,90.1,80.8,89.8,80.5Zm.4-4.3c-.1-.1.1-.3-.2-.3-.1,0-.1.1-.1.4C90,76.3,89.9,76.2,90.2,76.2Zm.4,47.6c-.1-.1-.1-.3-.4-.3C90.1,123.8,90.5,123.9,90.6,123.8Zm0-30.3v0ZM91.3,80H91c0,.1.1,2,.1,2.1A5,5,0,0,0,91.3,80Zm-.2,30.9c0,.3-.2,1,.1,1.1A2.08,2.08,0,0,0,91.1,110.9ZM91.3,62h-.2c.1.3-.1.4.2.5A.45.45,0,0,0,91.3,62Zm.6,50.6h-.3c-.1.3.1.4,0,.7C91.8,113.2,91.9,113,91.9,112.6Zm.7-39.3c-.1-.3.1-.7-.2-.8C92.5,72.8,92.3,73,92.6,73.3Zm.1,11c0-.1.1-1.1-.2-1C92.6,83.4,92.4,84,92.7,84.3Zm-.2,40.2c.1.1.3,0,.6-.1-.1-.4,0-1-.1-1.5-.3.5-.1.7-.1,1.4Zm.1-51c0,.3,0,.5.1.6C92.7,73.8,92.7,73.6,92.6,73.5Zm.5,22.7c-.3.1-.1-.1-.4,0a15.64,15.64,0,0,0,.2,3C93,98.1,93.1,97.3,93.1,96.2Zm.4-9.8c0,.2-.1.2-.2.1,0,1.3-.1,3.2,0,5.1A22.22,22.22,0,0,0,93.5,86.4Zm.2,7.2c.1,0,.2-.5-.1-.5C93.7,93.4,93.4,93.6,93.7,93.6Zm.2,26.6c-.1-.3,0-1.1-.1-1.2C93.9,119.4,93.5,119.9,93.9,120.2Zm.1-2.9c0,.3-.1.1,0,.4A.2.2,0,1,0,94,117.3ZM94.6,68c-.3-.5-.1-1.1-.4-1.6A1.8,1.8,0,0,0,94.6,68Zm-.4-11.4c.3,0,.4.5.7.2-.1-.1.1-.4-.2-.4C94.7,56.7,94.3,56.3,94.2,56.6Zm.2,50.6c.1.3-.3.3,0,.6Q94.55,107.2,94.4,107.2Zm-.1-51.4a.27.27,0,0,0,.3.3c.1,0,.1-.1.1-.3Zm.8,3.6c-.4.1-.6.2-.7.2C94.4,60,95,59.5,95.1,59.4Zm-.4,32.1a.76.76,0,0,1-.2-.5h.2c0-.4.4-.9-.3-.6,0,1.1.1,1.8.1,2.9A6.17,6.17,0,0,0,94.7,91.5Zm-.2,31.7c0,.4-.2.6.1,1C94.6,123.9,94.8,123.5,94.5,123.2Zm.2-9.4c0-.3.2-.9-.1-1.2C94.7,113.3,94.4,113.3,94.7,113.8Zm0,4.3a19.22,19.22,0,0,0,0,2.4A6.46,6.46,0,0,0,94.7,118.1Zm.1-7.2c-.1.3-.1,1.3,0,.8A2.08,2.08,0,0,0,94.8,110.9Zm.5-54.7c0-.3-.1-.7-.4-.4C95.2,55.9,95,56.1,95.3,56.2Zm.1,44h-.1a58.61,58.61,0,0,0,.3,7.2c0,.1-.1.8,0,.5A57.22,57.22,0,0,0,95.4,100.2Zm.4-39.5a.27.27,0,0,0-.3-.3A.27.27,0,0,0,95.8,60.7ZM99,64.6c-.4-1.1-1-2-1.4-3.1-.3-.1-.2-.5-.5-.8-.1-.1.3.8.3,1.2a9.06,9.06,0,0,1,1.1,2.2c0,.3-.2.1-.1.4C98.5,64.6,98.7,64.6,99,64.6ZM98,87.3a1.1,1.1,0,0,1-.5-1c-.3,0-.1-.2-.2-.2a15.06,15.06,0,0,0,1.4,3.5C99.1,88.8,97.9,88.4,98,87.3Zm5,10.4a14.84,14.84,0,0,0-1.5-3.1c-.1-1.1-1.1-1.9-1.6-3a43.3,43.3,0,0,0,3,6.1Zm-2.9-24.5c.3.3.3.9.7,1a4.87,4.87,0,0,0-.4-1.1C100.2,73.1,100.1,73.1,100.1,73.2Zm.9,10.3a2.93,2.93,0,0,1-.3-1,1.8,1.8,0,0,1-.4-.9c-.3.5.2,1.3.5,1.7S101.1,84,101,83.5Zm2.4,15.2a1.4,1.4,0,0,0-.4-.7C103.1,98.5,103.3,98.7,103.4,98.7Zm-.1-7a.37.37,0,0,0,.1.3C103.4,91.9,103.69,91.7,103.3,91.7Zm.6,1.4c0-.3-.1-.6-.2-.3C103.7,92.9,103.8,93,103.9,93.1Zm.1.2c0-.3.3-.3,0-.3,0,.1,0,.1-.1.1S103.9,93.3,104,93.3Zm.7,9.4c0-.3-.2-.5-.5-.7l-.3-.5c.1.4.4.5.4,1.2Zm-.5-9c0,.3.2.6.3.5C104.4,94.1,104.5,93.8,104.2,93.7Zm1.7,6.9a2.5,2.5,0,0,1-.4-1.4c-.7-.3-.5-1-1.2-1.3A14.76,14.76,0,0,0,105.9,100.6Zm-.6-5c-.3,0-.2-.2-.3-.2s.1.5.2.2Zm.7,1.9a.76.76,0,0,1-.2-.5C105.9,97.4,106,97.6,106,97.5Zm2,9.3c-.7-1.1-1.2-2.4-1.7-3.1A8.34,8.34,0,0,0,108,106.8ZM107.2,91a.76.76,0,0,0,.2.5C107.5,91.4,107.4,91.3,107.2,91Zm.1,19.6c.3.3.2.7.5,1C107.9,111.3,107.7,111,107.3,110.6Zm.5-18.5a1.33,1.33,0,0,1-.3-.7c0,.1,0,.1-.1.1A2.09,2.09,0,0,0,107.8,92.1Zm.9,5.4c0,.3.2.5.5.7-.1-.4-.3-.4-.4-.7Zm.1-2.6a.76.76,0,0,0,.2.4l.1-.1h.1c-.1-.3.1-.5-.2-.5Zm.4,16.5a7.84,7.84,0,0,0,1.1,1.8C110,112.5,109.9,111.7,109.2,111.4Zm2.2,8.9c0-2.3-1.1-3.2-1.9-4.7Zm-1.3-26.5a7,7,0,0,0,1.1,2.1A10.6,10.6,0,0,0,110.1,93.8Zm1.4,19.8c0-.3,0-.4-.1-.5A.44.44,0,0,0,111.5,113.6Zm1.7-17.8c-.1-.3.1-.2,0-.3,0,.1-.2,0-.2.1S112.9,95.8,113.2,95.8Zm.8-16.5a11,11,0,0,0-.1-2.1C113.9,77.9,113.7,78.8,114,79.3Zm-.1-19.8a11.33,11.33,0,0,0,.1,2.6,6.7,6.7,0,0,0,.1-2.5c.2,0,.3,0,.3-.1Zm.1,28.3c.1.8-.3,1.9,0,2.6A5.7,5.7,0,0,0,114,87.8Zm.5,35.4c-.1,0-.1-.1-.1-.2a.22.22,0,0,0-.2.2Zm.2-45.4c0,.4-.2,1.2.1,1.3C114.7,78.7,114.8,77.8,114.7,77.8Zm0,1.5c0,.3-.2.8.1.8C114.7,79.8,114.8,79.2,114.7,79.3Zm0,1c0,.3,0,.9.1.6C114.7,80.8,114.8,80.2,114.7,80.3Zm.7,14.8c0,.5-.3,1.3,0,1.7C115.4,96.4,115.7,95.4,115.4,95.1Zm.8-35.5a2,2,0,0,0-.4-.8c0,.4-.1.5-.1.8C115.8,59.7,115.9,59.5,116.2,59.6Zm-.3,39c0,.5-.3.7,0,1.1C115.9,99.4,116.2,98.7,115.9,98.6Zm0-20.1c0,.1,0,.1-.1.1a7.78,7.78,0,0,0,.2,2.8A9.19,9.19,0,0,0,115.9,78.5Zm-.1,22.9c0,.3.3.7.3.6Zm.8-27.3a1.29,1.29,0,0,0-.2-.8C116.5,73.6,116.1,74.1,116.6,74.1Zm.4-12.7a3.1,3.1,0,0,0-.1,1.9A13.43,13.43,0,0,0,117,61.4Zm.1,33.4a23.4,23.4,0,0,0,0,2.7C117.5,96.8,117.2,95.5,117.1,94.8Zm.5-21.2h-.1c-.3.4,0,1.1.1,1.4Zm1.2,20.1c0,.5-.2,1.4.1,1.8A2.82,2.82,0,0,0,118.8,93.7Zm0,5.2c.3,0,.1-.4.1-.5a22.55,22.55,0,0,0,0-2.6c0-.1,0-.1-.1-.1Zm.5-10.8c0,.1.1.1.1.2a15.53,15.53,0,0,0,.4,3.7c-.1-1.6.4-2.8-.3-3.9Zm1.6,35.8c-.5.1-1.1,0-1.2.4a3.45,3.45,0,0,0,1.2-.1Zm.5-61.5a10.68,10.68,0,0,0,.3,2.5c-.1-.7,0-1.7-.1-2.5Zm.4,44.2c-.1-.1,0-.4-.1-.5C121.6,106.2,121.7,106.7,121.8,106.6Zm-.1,1.6c.3-.4.1-1.2,0-1.5Zm.6-5.9c.1.4-.1.8,0,1.2C122.6,103.4,122.6,102.6,122.3,102.3Zm.8-35c0,.5.1.7,0,1C123.4,68,123.4,67.3,123.1,67.3Zm.7,22.1c.3.3-.2.9.1,1,0-.7.1-.7,0-1Zm0-33.4c.3.3,0,.6.3.7.3-.1.1-.5.2-.6C124,56.1,124.1,55.9,123.8,56Zm0,43a.85.85,0,0,0,.2.6C123.9,99.3,124.1,99,123.8,99Zm.2-21.7c.3,1.5-.3,2.4,0,3.6A10.83,10.83,0,0,0,124,77.3Zm0-3c.1.3-.2.8.1.8C124,74.8,124.3,74.4,124,74.3Zm.1,2.4c0-.1,0-.8-.1-.5C124,76.74,124,76.7,124.1,76.7Zm-.1,29.9c.1-.1.1-.8,0-.7Zm.1-45.4c.1.7-.1,1,.2,1.3C124.2,62.1,124.4,61.5,124.1,61.2Zm.1,61.8c0,.3-.2.8.1.7C124.2,123.4,124.3,122.9,124.2,123Z"/><path class="cls-2" d="M178.6,124.5c0,.3-.3.3-.3.6-2.9,0-5.6.4-8.7.1-1.2-.1-2.5-.3-3.7-.3,0-.7-.4-1-.7-1.5l-.2-.7c-.1-.3-.3-.3-.4-.6-.3-.7-.3-1.1-.6-1.8-1.41-3.26-5.19-11.83-5.3-13.2a17.25,17.25,0,0,1-1-2.4c-1-2.19-.29-1.7-3.3-8.1a95,95,0,0,1-4.6-10.3c-.17,11.57.2,11.71.2,24,0,1.62.42,3.55.3,5a67.53,67.53,0,0,0-.5,9.1c-.3.3-.7,0-.7.4-3.3.3-1.62,1.63-11.4,0a4.16,4.16,0,0,1-.1-2.9c-.4-.66.34-.31-.4-9.9,0-1.6.2-2.9.3-4.6-.28-1,.2-34.4.2-34.5a170.26,170.26,0,0,1,.1-17.5,43.41,43.41,0,0,1,10.9-.5c.1.4.2.1.5.4,1.1,1.6,1.6,3.7,2.4,5.6.88,1.44,6,13.5,6,13.6,1.37,2.54,1.7,5.83,8.6,19.9.22-6.1.79-4.3.3-14.2,0-27.05.1-19.52.1-25.1a37.89,37.89,0,0,1,10.1-.2l.9.4c.3,0,.6-.2.9.1.35,10.56-.62,48-.1,54,.1,1.7.2,3.4.2,5C178.7,117.7,178.3,121.2,178.6,124.5Zm-39.8-18.4c-.1-.1-.3-.1-.6-.1.1.3-.2.6.1.6C138.4,106.3,138.5,106.4,138.8,106.1Zm-.5,7c-.1.1-.2.8.1.8C138.5,113.4,138.5,113.2,138.3,113.1Zm.4-50.4c-.3-.3.1-1.5-.2-1.8C138.5,61.29,138.17,62.43,138.7,62.7Zm-.2,28.9a.38.38,0,0,0,0-.7C138.4,91.2,138.5,91.2,138.5,91.6Zm.2-14.5a26,26,0,0,0-.2-5.6Zm.3,20.6c0-.1-.3,0-.3-.1-.3.1-.2.4.1.5,0-.1.1-.1.2-.1Zm-.4-20.2c0,.3,0,.8.1.5C138.6,77.9,138.7,77.4,138.6,77.5Zm.7,40.2a13.4,13.4,0,0,0,0-4C138.79,114.21,139.3,116.36,139.3,117.7Zm.1,3.6c0,.3-.2.7.1,1C139.5,122,139.5,121.3,139.4,121.3Zm.2-.2c.1-.3,0-1.4-.1-1.1a4.05,4.05,0,0,0,0,1.1Zm0-43.6c.1-.1,0-.5-.1-1.1C139.6,76.7,139.3,77.2,139.6,77.5Zm.2,3.4.2,2.5c-.1-.7.3-1.8,0-2.5Zm.3,16.1c0,.1-.1.1-.2.1a11.45,11.45,0,0,0,.1,3.2C140,99.2,140.2,98.3,140.1,97Zm0-.5c-.1-.1.2-.4-.1-.5C140,96.3,140,96.5,140.1,96.5Zm0-29.3a12.29,12.29,0,0,0,.2,2.7c.1-.7,0-1.9.1-2.7Zm.2,43.1c-.1.1-.1.4-.2.5C140.37,111.07,140.28,110.4,140.3,110.3Zm0-5.5a2.4,2.4,0,0,0,0-1.2C140.3,103.9,140,104.5,140.3,104.8Zm.1,18.7a1.44,1.44,0,0,0-.2-.9C140.2,122.9,140.1,123.5,140.4,123.5Zm.2-2.4c-.3-.7.2-1.7-.1-2.8a6.47,6.47,0,0,0-.2,1C140.3,120.1,140.2,121.2,140.6,121.1Zm-.2-34.6c-.1,1.2.1,2.3,0,3.5A10.26,10.26,0,0,0,140.4,86.5Zm.3-29.5q0,.6.3.3c-.1,0-.1-.1-.1-.3Zm.4,48.7h-.3a12.92,12.92,0,0,0,.3,2.9C141.1,107.9,141.4,106.4,141.1,105.7Zm.1-9H141c.1.7-.2,1.3.1,1.7C141.1,97.7,141.2,97.4,141.2,96.7Zm-.1-16.4c0,.3-.1.2,0,.5C141.3,80.6,141.3,80.4,141.1,80.3Zm.2,23.7c0,.1-.1.6,0,.5S141.4,103.7,141.3,104Zm.3,18.2c0,.4-.3,1,0,1.3A5.63,5.63,0,0,0,141.6,122.2Zm.3-27.1a8.92,8.92,0,0,0-.2-1.1c-.1.3-.3,1,0,1.1Zm.2,1.7c.1.8-.2,2.2.1,3.1a11.41,11.41,0,0,0,0-3.2Zm.4,21.9c-.3,1.3-.7,2,0,3.1A8,8,0,0,0,142.5,118.7Zm0-14.8c0-.5,0-.7-.1-.7C142.5,103.5,142.2,103.8,142.5,103.9Zm.7-11.4a6.35,6.35,0,0,0-.2-2.4c0,1.5-.4,2.7-.1,3.9C143.4,93.9,143.2,93,143.2,92.5Zm.1-25.2c0-.4.2-.8-.1-1.1C142.9,66.5,142.9,67.3,143.3,67.3Zm0,37.9c-.1.7-.4,1.2-.1,1.9C143.2,106.4,143.6,105.7,143.3,105.2Zm0-24.7a4.8,4.8,0,0,0,0,1.2C143.4,81.4,143.6,80.8,143.3,80.5Zm.4-4.3c-.1-.1.1-.3-.2-.3-.1,0-.1.1-.1.4C143.5,76.3,143.4,76.2,143.7,76.2Zm.4,47.6c-.1-.1-.1-.3-.4-.3C143.6,123.8,144,123.9,144.1,123.8Zm0-30.3v0Zm.7-13.5h-.3c0,.1.1,2,.1,2.1A5,5,0,0,0,144.8,80Zm-.2,30.9c0,.3-.2,1,.1,1.1A2.08,2.08,0,0,0,144.6,110.9Zm.2-48.9h-.2c.1.3-.1.4.2.5A.45.45,0,0,0,144.8,62Zm.6,50.6h-.3c-.1.3.1.4,0,.7C145.3,113.2,145.4,113,145.4,112.6Zm.7-39.3c-.1-.3.1-.7-.2-.8C146,72.8,145.8,73,146.1,73.3Zm.1,11c0-.1.1-1.1-.2-1C146.1,83.4,145.9,84,146.2,84.3Zm-.2,40.2c.1.1.3,0,.6-.1-.1-.4,0-1-.1-1.5-.3.5-.1.7-.1,1.4Zm.1-51c0,.3,0,.5.1.6C146.2,73.8,146.2,73.6,146.1,73.5Zm.5,22.7c-.3.1-.1-.1-.4,0a15.64,15.64,0,0,0,.2,3C146.5,98.1,146.6,97.3,146.6,96.2Zm.4-9.8c0,.2-.1.2-.2.1,0,1.3-.1,3.2,0,5.1A22.22,22.22,0,0,0,147,86.4Zm.2,7.2c.1,0,.2-.5-.1-.5C147.2,93.4,146.9,93.6,147.2,93.6Zm.2,26.6c-.1-.3,0-1.1-.1-1.2C147.4,119.4,147,119.9,147.4,120.2Zm.1-2.9c0,.3-.1.1,0,.4A.2.2,0,1,0,147.5,117.3Zm.6-49.3c-.3-.5-.1-1.1-.4-1.6A1.8,1.8,0,0,0,148.1,68Zm-.4-11.4c.3,0,.4.5.7.2-.1-.1.1-.4-.2-.4C148.2,56.7,147.8,56.3,147.7,56.6Zm.2,50.6c.1.3-.3.3,0,.6Q148.05,107.2,147.9,107.2Zm-.1-51.4a.27.27,0,0,0,.3.3c.1,0,.1-.1.1-.3Zm.8,3.6c-.4.1-.6.2-.7.2C147.9,60,148.5,59.5,148.6,59.4Zm-.4,32.1a.76.76,0,0,1-.2-.5h.2c0-.4.4-.9-.3-.6,0,1.1.1,1.8.1,2.9A6.17,6.17,0,0,0,148.2,91.5Zm-.2,31.7c0,.4-.2.6.1,1C148.1,123.9,148.3,123.5,148,123.2Zm.2-9.4c0-.3.2-.9-.1-1.2C148.2,113.3,147.9,113.3,148.2,113.8Zm0,4.3a19.22,19.22,0,0,0,0,2.4A6.46,6.46,0,0,0,148.2,118.1Zm.1-7.2c-.1.3-.1,1.3,0,.8A2.08,2.08,0,0,0,148.3,110.9Zm.5-54.7c0-.3-.1-.7-.4-.4C148.7,55.9,148.5,56.1,148.8,56.2Zm.1,44h-.1a58.61,58.61,0,0,0,.3,7.2c0,.1-.1.8,0,.5A57.22,57.22,0,0,0,148.9,100.2Zm.4-39.5a.27.27,0,0,0-.3-.3A.27.27,0,0,0,149.3,60.7Zm3.2,3.9c-.4-1.1-1-2-1.4-3.1-.3-.1-.2-.5-.5-.8-.1-.1.3.8.3,1.2a9.06,9.06,0,0,1,1.1,2.2c0,.3-.2.1-.1.4C152,64.6,152.2,64.6,152.5,64.6Zm-1,22.7a1.1,1.1,0,0,1-.5-1c-.3,0-.1-.2-.2-.2a15.06,15.06,0,0,0,1.4,3.5C152.6,88.8,151.4,88.4,151.5,87.3Zm5,10.4a14.84,14.84,0,0,0-1.5-3.1c-.1-1.1-1.1-1.9-1.6-3a43.3,43.3,0,0,0,3,6.1Zm-2.9-24.5c.3.3.3.9.7,1a4.87,4.87,0,0,0-.4-1.1C153.7,73.1,153.6,73.1,153.6,73.2Zm.9,10.3a2.93,2.93,0,0,1-.3-1,1.8,1.8,0,0,1-.4-.9c-.3.5.2,1.3.5,1.7S154.6,84,154.5,83.5Zm2.4,15.2a1.4,1.4,0,0,0-.4-.7C156.6,98.5,156.8,98.7,156.9,98.7Zm-.1-7a.37.37,0,0,0,.1.3C156.9,91.9,157.19,91.7,156.8,91.7Zm.6,1.4c0-.3-.1-.6-.2-.3C157.2,92.9,157.3,93,157.4,93.1Zm.1.2c0-.3.3-.3,0-.3,0,.1,0,.1-.1.1S157.4,93.3,157.5,93.3Zm.7,9.4c0-.3-.2-.5-.5-.7l-.3-.5c.1.4.4.5.4,1.2Zm-.5-9c0,.3.2.6.3.5C157.9,94.1,158,93.8,157.7,93.7Zm1.7,6.9a2.5,2.5,0,0,1-.4-1.4c-.7-.3-.5-1-1.2-1.3A14.76,14.76,0,0,0,159.4,100.6Zm-.6-5c-.3,0-.2-.2-.3-.2s.1.5.2.2Zm.7,1.9a.76.76,0,0,1-.2-.5C159.4,97.4,159.5,97.6,159.5,97.5Zm2,9.3c-.7-1.1-1.2-2.4-1.7-3.1A8.34,8.34,0,0,0,161.5,106.8ZM160.7,91a.76.76,0,0,0,.2.5C161,91.4,160.9,91.3,160.7,91Zm.1,19.6c.3.3.2.7.5,1C161.4,111.3,161.2,111,160.8,110.6Zm.5-18.5a1.33,1.33,0,0,1-.3-.7c0,.1,0,.1-.1.1A2.09,2.09,0,0,0,161.3,92.1Zm.9,5.4c0,.3.2.5.5.7-.1-.4-.3-.4-.4-.7Zm.1-2.6a.76.76,0,0,0,.2.4l.1-.1h.1c-.1-.3.1-.5-.2-.5Zm.4,16.5a7.84,7.84,0,0,0,1.1,1.8C163.5,112.5,163.4,111.7,162.7,111.4Zm2.2,8.9c0-2.3-1.1-3.2-1.9-4.7Zm-1.3-26.5a7,7,0,0,0,1.1,2.1A10.6,10.6,0,0,0,163.6,93.8Zm1.4,19.8c0-.3,0-.4-.1-.5A.44.44,0,0,0,165,113.6Zm1.7-17.8c-.1-.3.1-.2,0-.3,0,.1-.2,0-.2.1S166.4,95.8,166.7,95.8Zm.8-16.5a11,11,0,0,0-.1-2.1C167.4,77.9,167.2,78.8,167.5,79.3Zm-.1-19.8a11.33,11.33,0,0,0,.1,2.6,6.7,6.7,0,0,0,.1-2.5c.2,0,.3,0,.3-.1Zm.1,28.3c.1.8-.3,1.9,0,2.6A5.7,5.7,0,0,0,167.5,87.8Zm.5,35.4c-.1,0-.1-.1-.1-.2a.22.22,0,0,0-.2.2Zm.2-45.4c0,.4-.2,1.2.1,1.3C168.2,78.7,168.3,77.8,168.2,77.8Zm0,1.5c0,.3-.2.8.1.8C168.2,79.8,168.3,79.2,168.2,79.3Zm0,1c0,.3,0,.9.1.6C168.2,80.8,168.3,80.2,168.2,80.3Zm.7,14.8c0,.5-.3,1.3,0,1.7C168.9,96.4,169.2,95.4,168.9,95.1Zm.8-35.5a2,2,0,0,0-.4-.8c0,.4-.1.5-.1.8C169.3,59.7,169.4,59.5,169.7,59.6Zm-.3,39c0,.5-.3.7,0,1.1C169.4,99.4,169.7,98.7,169.4,98.6Zm0-20.1c0,.1,0,.1-.1.1a7.78,7.78,0,0,0,.2,2.8A9.19,9.19,0,0,0,169.4,78.5Zm-.1,22.9c0,.3.3.7.3.6Zm.8-27.3a1.29,1.29,0,0,0-.2-.8C170,73.6,169.6,74.1,170.1,74.1Zm.4-12.7a3.1,3.1,0,0,0-.1,1.9A13.43,13.43,0,0,0,170.5,61.4Zm.1,33.4a23.4,23.4,0,0,0,0,2.7C171,96.8,170.7,95.5,170.6,94.8Zm.5-21.2H171c-.3.4,0,1.1.1,1.4Zm1.2,20.1c0,.5-.2,1.4.1,1.8A2.82,2.82,0,0,0,172.3,93.7Zm0,5.2c.3,0,.1-.4.1-.5a22.55,22.55,0,0,0,0-2.6c0-.1,0-.1-.1-.1Zm.5-10.8c0,.1.1.1.1.2a15.53,15.53,0,0,0,.4,3.7c-.1-1.6.4-2.8-.3-3.9Zm1.6,35.8c-.5.1-1.1,0-1.2.4a3.45,3.45,0,0,0,1.2-.1Zm.5-61.5a10.68,10.68,0,0,0,.3,2.5c-.1-.7,0-1.7-.1-2.5Zm.4,44.2c-.1-.1,0-.4-.1-.5C175.1,106.2,175.2,106.7,175.3,106.6Zm-.1,1.6c.3-.4.1-1.2,0-1.5Zm.6-5.9c.1.4-.1.8,0,1.2C176.1,103.4,176.1,102.6,175.8,102.3Zm.8-35c0,.5.1.7,0,1C176.9,68,176.9,67.3,176.6,67.3Zm.7,22.1c.3.3-.2.9.1,1,0-.7.1-.7,0-1Zm0-33.4c.3.3,0,.6.3.7.3-.1.1-.5.2-.6C177.5,56.1,177.6,55.9,177.3,56Zm0,43a.85.85,0,0,0,.2.6C177.4,99.3,177.6,99,177.3,99Zm.2-21.7c.3,1.5-.3,2.4,0,3.6A10.83,10.83,0,0,0,177.5,77.3Zm0-3c.1.3-.2.8.1.8C177.5,74.8,177.8,74.4,177.5,74.3Zm.1,2.4c0-.1,0-.8-.1-.5C177.5,76.74,177.47,76.7,177.6,76.7Zm-.1,29.9c.1-.1.1-.8,0-.7Zm.1-45.4c.1.7-.1,1,.2,1.3C177.7,62.1,177.9,61.5,177.6,61.2Zm.1,61.8c0,.3-.2.8.1.7C177.7,123.4,177.8,122.9,177.7,123Z"/><path class="cls-2" d="M190.8,55.8c.3,0,.1-.3.4-.6,1.83-.3,10.2-.87,11.7-.2,0,1.6.3,3,.2,4.5V69c0,1.7.3,3.3.2,4.9,0,2.3.1,4.5.2,7.3,0,.9-.4,1.8-.1,2.5.1.3.3.2.3.5-.3,1.7.2,3.9.1,5.9-.36,1.78-.21,18-.2,18.1.43,9.24.6-3.06.6,17-.8.7-1.9.4-2.8.5l-3.4.4a17.2,17.2,0,0,1-3.2-.2c-4,0-3.2-.38-3.2-2.8,0-1.5-.3-3.4-.3-4.5-.13-2.53.69-18.49-.4-31.7C190.89,86.8,190.79,55.9,190.8,55.8Zm1.1,21.8c-.1,0-.3.3,0,.3Zm0,3.1c0-.8.2-1.3-.1-1.8C191.9,79.6,191.6,80.4,191.9,80.7Zm0,.3c0-.1-.1-.1-.1-.2a43,43,0,0,0,.2,6C192.56,86.24,191.73,83.77,191.9,81Zm.3,34.9c.3,0,.1-.5,0-.8Zm.3,8.4c0,.1-.3.3,0,.6a3.22,3.22,0,0,1,.2-.6Zm0-.4c0-.7.5-1.6,0-2A6.56,6.56,0,0,0,192.5,123.9Zm.3-68.1c-.2.2-.3.3-.3.2.3-.1.2.1.3,0Zm0,42.4a63.36,63.36,0,0,0,.1,7.6c.5-.4,0-1.4.3-2.1-.3-1.5.1-3.5-.2-5.4C192.9,98.3,192.9,98.2,192.8,98.2Zm.5,12.7c0-.5,0-.7-.1-.6C193.2,110.7,193.2,110.9,193.3,110.9Zm.2-44.4c-.1-1.6.3-2.4,0-3.7C193.5,63.9,193.1,65.2,193.5,66.5Zm.7,15.4a13.07,13.07,0,0,0-.4-3.7A6.57,6.57,0,0,0,194.2,81.9ZM194,99.4a2.86,2.86,0,0,0,.1,1.8C194,100.7,194.3,99.9,194,99.4Zm.3-6.1c.5-.3.1-1.2,0-1.7Zm.1.5c0,.7-.1,1.2.2,1.6C195.1,95.1,194.5,94.3,194.4,93.8Zm0-.1c0-.1.3-.3,0-.3Zm.5-13.9c0-.1,0-.9-.1-.6C194.8,79.3,194.8,80.1,194.9,79.8Zm.5,26a42.25,42.25,0,0,0-.6-7c.1,1.9.3,4.1.3,6.4Zm-.2-43.7c.1-.1.1-.1.2-.1-.1-.7.1-.5-.2-.9A3.35,3.35,0,0,0,195.2,62.1Zm.5,10.5c.4-.3.2-1.6-.1-2C195.7,71.4,195.4,71.9,195.7,72.6Zm0-4c0-.3.1-.9,0-.8C195.7,68.1,195.6,68.7,195.7,68.6Zm.5,22.7a7.06,7.06,0,0,0,.5,3.8l-.3-3.8Zm.2-29.7a2.79,2.79,0,0,0-.1-1C196.17,61.46,196.4,63.28,196.4,61.6Zm.5,46.2c-.3-.9-.1-2-.4-2.9A8.47,8.47,0,0,0,196.9,107.8Zm.1,9.4c0-1.5.3-3.3-.4-4.5A39.33,39.33,0,0,0,197,117.2Zm.2-60.9c.1-.3,0-.3.3-.6-.3.1-.3.3-.6.4C196.9,56.2,197,56.3,197.2,56.3Zm.6,6.2c-.1-.8.3-1.9.2-2.6-.3,0-.3-.1-.4-.1A8.61,8.61,0,0,0,197.8,62.5Zm.4,44.7c-.3-.9.1-2.3-.3-3.2-.1,1.5-.1,2.9-.1,3.7,0-.1-.1-.1-.1,0,.3.1,0,1.4.3,1.9.3-.3.1-.9.1-1.3s0-.5-.1-.8S198.3,107.5,198.2,107.2Zm-.4-24.8a22.85,22.85,0,0,0,.2,5.3C197.9,85.6,198.2,84,197.8,82.4Zm.3,14.8a8.92,8.92,0,0,0-.3-2.8A11.43,11.43,0,0,0,198.1,97.2Zm-.1,24.1c0,.3-.1.4-.2.3C197.8,121.8,197.9,121.7,198,121.3Zm.1-50a5.14,5.14,0,0,0,.2-2.3c0-.5.2-1.1-.1-1.6C198.1,68.9,198.1,69.8,198.1,71.3Zm.7,46c-.1-.1,0-.5-.1-.6A.32.32,0,0,0,198.8,117.3Zm.4-49.7c0-.2,0-.3-.1-.3S198.9,67.6,199.2,67.6Zm-.1.9c.1,1.5-.2,2.2.1,3.3A12.29,12.29,0,0,0,199.1,68.5Zm.2,34.2c.1.7-.1,1.4.2,1.9a10.89,10.89,0,0,1-.1-1.9C199.4,102.6,199.3,102.6,199.3,102.7Zm0,20.5v.3c.5.1.7,0,.6-.4A3.54,3.54,0,0,0,199.3,123.2Zm.4-2.7c.5,0,.1-1.1.1-1.4A4.55,4.55,0,0,0,199.7,120.5Zm.5-44.4c.1-3.2.7-5.7-.1-8.8C200.1,70.4,199.8,73.3,200.2,76.1Zm.4-14.6c0-.7.2-1.2-.1-1.6C200.5,60.6,199.9,61.2,200.6,61.5Zm0,22.5c0,.1-.2.1-.2,0,0,.1,0,.2-.1.2.3-.1.2.3.3.4Q200.75,84.15,200.6,84Zm-.2-.2a6.48,6.48,0,0,0,0-1.4A6.53,6.53,0,0,0,200.4,83.8Zm.1,27.2c.1,1.3-.2,2.6.2,3.8.3-1.1-.2-2.3.1-3.6C200.7,111.2,200.6,111,200.5,111Zm.5,6.5a8.6,8.6,0,0,0-.1-1.6C200.9,116.3,200.7,117,201,117.5Zm.1,2.7c.1.3-.1.4-.1.7C201.3,120.8,201.4,120.3,201.1,120.2Zm.3-45.5c0-.7.3-1.5,0-2A3.39,3.39,0,0,0,201.4,74.7Zm.2,48.7-.1-.1h-.1c0,.3-.3.8.1.8C201.6,124.1,201.6,123.9,201.6,123.4Zm-.1-52.8a21.6,21.6,0,0,0,0-3.6A10.87,10.87,0,0,0,201.5,70.6Zm0-3.7c-.1-.3.1-.2.1-.3s.1-.2-.2-.2C201.5,66.5,201.2,66.8,201.5,66.9Zm.7-11.2h-.7l.7.6Zm-.3,24.5c-.1-1.5.1-2-.3-3.1A14.16,14.16,0,0,0,201.9,80.2Zm.6-5.5c-.1-.3,0-.9-.1-.8C202.4,74.2,202.2,74.8,202.5,74.7Zm.5,46.6h.3c-.1-.3.2-.3-.1-.3C203.3,121.3,203,121,203,121.3Z"/><path class="cls-2" d="M255,61.2c0,.3-.2,1-.2,1.5a2,2,0,0,0,.1.5c0,.7-.3,1.2-.3,1.7-.3,1.1,0,2.6-.7,3.1-.36.27,3.21-.4-24.7-.4l-.3,7.4c-.3,3.5-.6,6.4.5,9.3l9.9-.1c1.3,0,2.8.1,4,.1.72-.11,4.62,0,5.2.3.69,1,.66,7.92.6,9.1-.39,3.07.2,2.5-2.4,2.5-1.6,0-2.7-.2-4.6-.1-.8,0-2.4.1-3.3.1-.3,0-.7-.2-1.2-.2-.7-.1-1.4.3-2.1,0-2.3.3-3.7,0-6.1.1a116.45,116.45,0,0,0-.3,16.8,46.9,46.9,0,0,0,6.5,0c4.49.62,15,.2,15.1.2a10.65,10.65,0,0,1,2.4.1c.4-.3.5-.5,1-.2a17.89,17.89,0,0,1,.2,8.6,24.5,24.5,0,0,1-.4,3.8.76.76,0,0,1-.9-.3c-3.4,0-13.95-.37-15-.3-11.54,1.28-14.39.3-20.6.7-.3-.3-.5-.3-.8-.6,0-4-.2-8.1-.2-12.4-.35-17.52.42-12,0-21.8,0-3.52-.22-4.6,0-6.3,0,.1.1-.1.2-.5,0-11.25-.1-1.62-.1-21,0-1.1.3-2.3-.1-3.2.5-.7.1-3,.2-3.9.1-.3.6-.3.6-.8,11.65-.42,36,0,37.1.2a7.44,7.44,0,0,0,.3,1.7c.1.3,0,.3,0,.6s.3.5.3.8C255,58.43,255,59,255,61.2Zm-37.3,63.4c0-.3-.2-.2-.3-.3v.3Zm-.2-61.1.7-.2c.4-.1-.7,0-.7-.1Zm.1-7.5c.3.1.8.2.9-.1C218.2,55.9,217.7,55.7,217.6,56Zm.4,2.4c0-.2-.1-.3-.4-.4v.4Zm.2,50.9a8.17,8.17,0,0,0,.1,2.7A8.42,8.42,0,0,0,218.2,109.3Zm.2,13.1c0,.1-.3.2,0,.3C218.4,122.6,218.7,122.4,218.4,122.4Zm.4-35.6a28.22,28.22,0,0,0-.1,5.9,25.84,25.84,0,0,0,.1-4.8A2,2,0,0,0,218.8,86.8Zm.6-11.2c0-.3,0-.5-.1-.5C219.3,75.4,219.3,75.5,219.4,75.6Zm-.1,32.7c.3.8-.1,1.2.2,1.9A2.12,2.12,0,0,0,219.3,108.3Zm.4-50.5c.1-.3.5,0,.6-.1l-.8-.1c-.1.1,0,.4,0,.5.5,0,.7-.1.6-.2S219.7,57.9,219.7,57.8Zm-.2,19.1c.1,1.1-.2,1.5.1,2.2C219.5,78.2,219.8,77.4,219.5,76.9Zm.6,45.2h-.2c-.1.3.1.1.2.2Zm.3-65.3a1.15,1.15,0,0,0,1-.1C221.1,56.8,220.7,56.7,220.4,56.8Zm.5,47.2c-.1-.5.1-.9,0-1.6-.3.1-.1-.1-.4,0A4.71,4.71,0,0,0,220.9,104Zm-.1-33c-.1-.3,0-.7-.1-1v-.4c0-.5-.1,0-.1.3.3,1.5-.4,3.2.3,4.1.1-.7-.1-1.5,0-2.2l-.1.1a2.22,2.22,0,0,0,.1-.9Zm-.1,47.2c0,.4,0,.6.1.7C220.8,118.5,220.8,118.3,220.7,118.2Zm.1-8a.85.85,0,0,0,0,.7C220.9,110.6,220.9,110.1,220.8,110.2Zm0,8.7a1.1,1.1,0,0,0,0,.8C220.8,119.4,220.9,119,220.8,118.9Zm.6-61.3c-.1,0-.5-.2-.6.1C220.9,57.7,221.3,57.9,221.4,57.6Zm-.1.4c-.1-.1-.2-.1-.4-.1C220.9,58.2,221.3,58.1,221.3,58Zm0,1.5c0-.2-.1-.3-.2-.3v.3Zm.6,60.2c0,.2.1.3.2.3-.1-.1-.1-.1-.1-.2Zm.1-62a20.1,20.1,0,0,0,4.9.1.55.55,0,0,0-.3-.5C225,57.5,222.59,57.25,222,57.7Zm.7,57.1c0,.3,0,.4.1.4C222.8,115,222.8,114.9,222.7,114.8Zm.5-40.7c0,.3,0,.5.1.6C223.4,74.6,223.5,74.1,223.2,74.1Zm.1,1a7.16,7.16,0,0,0-.1,1.7C223.35,77.27,223.3,75.59,223.3,75.1Zm0-13a.37.37,0,0,0,.1.3c0-.1.1-.1.2-.1C223.7,62,223.4,62,223.3,62.1Zm.6,21c0-.1,0-.1-.1-.1a19.14,19.14,0,0,0,0,2.4C223.9,84.9,223.8,83.9,223.9,83.1Zm1.2,40.7c.19,0,.89-.1-.5-.1-.1,0-.3.1-.2.1Zm-.6-8.8c.5,0,.3-.5.2-.8C224.8,114.6,224.5,114.7,224.5,115Zm.6,4.4c0,.42.77.33.9.2Zm.6-26.1h-.3a9.86,9.86,0,0,0,.3,2.4C226.2,95,225.6,94.1,225.7,93.3Zm.4-19.2c-.3,0-.3.3,0,.3Zm-.2-18.2c.1.1-.1.2.2.2V56c0-.1-.1-.1-.1-.2C226,55.9,226,55.9,225.9,55.9Zm.2,24.7a.85.85,0,0,0-.2-.6C226,80.3,225.8,80.3,226.1,80.6Zm-.1,1.6a9.37,9.37,0,0,0,.4,3.5A6.67,6.67,0,0,0,226,82.2Zm.1-20.8c.3.4.9.2,1.4.3-.1-.3.1,0,0-.3A3.3,3.3,0,0,0,226.1,61.4Zm.5,1.4c.3,0,.5.2.6-.1C226.9,63,226.7,62.5,226.6,62.8Zm4.4,1a6.51,6.51,0,0,0-3.4.2c-.4,0-.9-.2-1,.1A21.72,21.72,0,0,0,231,63.8Zm-3.2,55.1c-.3.1-.5-.2-.6.1C227.5,119,227.8,119.2,227.8,118.9Zm.2-8.2c0-.4.2-.7-.1-1C227.8,109.9,227.9,110.2,228,110.7Zm5-53c-2,0-3.4-.3-5,.2C230.3,57.8,231.1,58.1,233,57.7Zm-4.8,40.6H228c.3.4-.1.8.2,1.1A4,4,0,0,0,228.2,98.3Zm.5,15.6-.1.1v.1a22.38,22.38,0,0,0,2.6,0C230.5,113.8,229.4,114.2,228.7,113.9Zm.4,7.5c-.3,0-.5,0-.4.1C229,121.5,229.1,121.5,229.1,121.4Zm.2-36a20.34,20.34,0,0,0,4.2-.2A19.41,19.41,0,0,0,229.3,85.4Zm3.1,3.6c-1.1-.1-2-.4-2.9-.4A5.26,5.26,0,0,0,232.4,89Zm-.8,3.9a4.15,4.15,0,0,1-1.6-.3c-.1.1,0,.2.1.5C230.5,93,231.3,93,231.6,92.9Zm2.9-31.6c0-.3-.2-.1-.2-.4a8.82,8.82,0,0,0-2.9.2Zm-1.7,56.2a2,2,0,0,0,1.1,0C233.6,117.5,233.1,117.2,232.8,117.5Zm7.6-53.2a22.17,22.17,0,0,0-6.3.1c-.4,0-.8-.1-1.1.2C235.9,64.6,237.9,64.4,240.4,64.3Zm-7.2,30.3a.77.77,0,0,0,.1.3,8.58,8.58,0,0,0,2.3-.2A8.79,8.79,0,0,0,233.2,94.6Zm.5,27c.7.1,1.8-.1,2.5,0A3.58,3.58,0,0,0,233.7,121.6Zm2.9-3.5c-.5-.1-1.1.1-1.5,0a.76.76,0,0,0,.2.4l.6.2Zm-.8-58.4c.1.3-.1.2,0,.3,1.1,0,1.9,0,3-.1.3.1.1-.1-.2,0A8.12,8.12,0,0,0,235.8,59.7Zm.3,55.9c.3,0,.8.3,1.1,0C237.1,115.6,236.1,115.3,236.1,115.6ZM238.6,57c-1.1,0-1.9-.2-2.4.1C236.9,57.8,237.8,57.3,238.6,57Zm-2,33.5c.7,0,1.3.5,1.8,0C237.7,90.6,237,90.2,236.6,90.5Zm.3-5.4a2.72,2.72,0,0,0,.9,0Q237.05,85,236.9,85.1Zm.4,3.3c.1.3-.2.1.1.4.8-.3,1.7,0,2.5-.3A24.4,24.4,0,0,1,237.3,88.4Zm.5,26.3c0,.3.4.1.4,0Zm.4-27.3c1.1,0,2.1.5,3.2.2-.7-.3-1.2,0-1.5-.3C239.5,87.7,238.5,87.1,238.2,87.4Zm.1,27.3c0,.3.7.1.8,0Zm.2-58.4c.3,0,.7.2,1-.1C239.2,56.3,238.8,56.2,238.5,56.3Zm.6,2.4a3.35,3.35,0,0,0,1,0C240,58.8,239.4,58.4,239.1,58.7Zm3.2,33c-.7-.3-1.7,0-2.4-.3,0,.3-.3,0-.3.3.8,0,1.4.2,2.1.2C242,91.9,242.2,92.1,242.3,91.7Zm.3-32.1a17.77,17.77,0,0,1-2.5-.1A3.61,3.61,0,0,0,242.6,59.6ZM240.2,119c0,.1,0,.2.1.2.7,0,1.5.4,1.9.1A13.8,13.8,0,0,0,240.2,119Zm.1-2.9c.3,0,.9.3,1.2,0C241.4,115.8,240.6,116.1,240.3,116.1Zm.3-21.2c0,.3-.2.2-.2.5,1.1-.3,1.8.1,2.7-.2A10.07,10.07,0,0,0,240.6,94.9Zm.5-8.4c.3.1.7.1.6-.2C241.4,86.3,240.4,86.4,241.1,86.5Zm.7,34.2c.8-.1-.3-.1-.7,0C241.5,120.8,241.5,120.7,241.8,120.7Zm-.3,2c.7.3,1.4,0,2.5.1a.76.76,0,0,0-.2-.4A8.52,8.52,0,0,0,241.5,122.7ZM243,65.4c-.3.1-.4-.2-.5.1C242.6,65.5,243,65.7,243,65.4Zm-.4,28.1c.2.2.3.2.4,0S242.6,93.4,242.6,93.5Zm.4,27.3c1.6-.3,4-.1,5.6-.4-1.6-.1-2.7,0-5-.1C243.5,120.6,243.1,120.5,243,120.8Zm.3-57.6c-.3,0-.1.1.2,0Zm3.3-4.6c-1.1-.1-2.2-.6-3.4-.3A6.42,6.42,0,0,0,246.6,58.6Zm-3.1,4.6c.9-.1,2.3.3,2.8-.2A12.74,12.74,0,0,0,243.5,63.2Zm.6,29.1a16.15,16.15,0,0,0,3.1.2A4.77,4.77,0,0,0,244.1,92.3Zm.1-3.2c.3-.1.5,0,.6-.1C244.5,89,244.2,88.8,244.2,89.1Zm.1-1.1c.3.4.7.3,1.4.4,0-.1.1,0,.1-.3C245.3,87.8,244.8,88,244.3,88Zm1.4,1.8c0,.3.8.3.7,0Zm.8.6a.76.76,0,0,1-.2.5c.1.1.2.1.4.1,0-.3,0-.4.1-.5C246.5,90.6,246.8,90.4,246.5,90.4Zm1.3,4a6.53,6.53,0,0,0-1.4,0C246.9,94.4,247.5,94.7,247.8,94.4Zm-1.3,23.5q0,.15.6,0C246.8,117.9,246.8,118,246.5,117.9Zm4.9-61.5c-.4-.3-1-.2-1.3-.5-.9.1-2.3,0-3.1,0,.1.4.8,0,.7.7C249,56.3,250.3,56.7,251.4,56.4Zm-.1,2.5c-1.5-.3-2.5-1-4.1-.7a9.85,9.85,0,0,0,1.7.2c.3.7,1.6.2,1.9.7C251.1,59,251.2,59.2,251.3,58.9ZM248.2,92c-.1,0-.1.1-.4,0,.1.3.3.1.4.4Zm-.3-3.3c0,.3.1.3.2.2S248.2,88.7,247.9,88.7Zm.2-24.4c.9-.1,1.3.1,2-.2a10.93,10.93,0,0,0-2-.1Zm2.8-3.9a17.65,17.65,0,0,0-2.3,0c0,.3-.2.2.1.5C249.6,60.8,250.5,61.1,250.9,60.4Zm-2.2,60.9a6.38,6.38,0,0,0,2.8.3c.1-.3-.2-.2-.2-.5C250.4,121.2,249.2,121,248.7,121.3Zm1.9-63.6a.78.78,0,0,0-.5,0c0,.3.4.2.5.3C250.7,57.7,250.5,57.8,250.6,57.7Zm-.4,60.8c.4.3.5.7,1.2.4,0-.3-.1-.2,0-.5C250.7,118.4,250.3,118.4,250.2,118.5Zm1.2,5.2c-.1.1.1-.3-.2-.2,0,.3-.3.1-.4.2C250.9,123.8,251.3,124,251.4,123.7Zm-.2-60.4c0-.3.2-.6-.1-.6,0,.1.1.5-.2.6Zm.9,51.3c.5,0,.7,0,.8-.1C252.6,114.5,252,114.5,252.1,114.6Zm1.5-58.5c-.1,0,.1-.2-.2-.2,0,.3-.5,0-.5.3a.76.76,0,0,1,.4.2C253.3,56.1,253.5,56.2,253.6,56.1Zm-.1,10.6c-.1-.1-.2-.1-.4-.1.1.3-.1.6.2.6C253.4,67.1,253.4,66.8,253.5,66.7Zm.4-4.7c-.1,0,0,.1-.3,0,.1.3.3.4.2.7C254.1,62.6,253.9,62.3,253.9,62Z"/><path class="cls-2" d="M262,55.6c.1-.3.6-.3.5-.8,3.1-.1,6.4.2,9.5-.1.3.5.5.4,1,.7,0,1.1.2,2.2.2,3.4a2.15,2.15,0,0,0,0,.8c.38,1.66-.55,4.56.2,6.3-1.1,4.1-2.7,7.7-3.5,11.8-1.7.3-3,0-5.1.3a1.59,1.59,0,0,0-1.2-.4c.3-.4.1-.4-.2-.7.4-3.6.8-7,1.5-10.5-.9-.1-2.1.2-2.9-.3Zm.9,9.6c-.1.1-.1.1-.1.2s.3.2.5,0C263.3,65.3,263,65.3,262.9,65.2Zm0-.5.4-.2a1.08,1.08,0,0,1-.4-.5C262.9,64.1,262.8,64.6,262.9,64.7Zm1-5.1c0-.7.4-1,.1-1.7A10.9,10.9,0,0,0,263.9,59.6Zm.2-2.5c.5.1.2-.5.1-.8C264.2,56.6,264,56.8,264.1,57.1ZM265,77c.1-.3-.1-.1-.1-.4a.45.45,0,0,1-.6.2c0,.3.1.2.1.3C264.7,77.1,264.7,77,265,77Zm.2-19.9c0-.3,0-.5-.1-.5C265.2,56.7,264.9,57.1,265.2,57.1Zm.6,8.8c.1-.1.1-.4.2-.5-.4,0-.7,0-.8.1C265.5,65.6,265.5,65.9,265.8,65.9Zm-.3-1.3c.1,0,.2.1.3.2.1-.4-.2-.4-.3-.5C265.6,64.6,265.4,64.5,265.5,64.6Zm.3,11.8c0,.3-.1.3-.1.4a1.93,1.93,0,0,0,1-.3C266.4,76.6,266.2,76.4,265.8,76.4Zm.4-18.5c-.1-.3.1-.8-.2-1.1C266.1,57.2,265.9,57.6,266.2,57.9Zm.1,17.1h-.2c.1.3-.3.6.1.7S266.2,75.3,266.3,75Zm.7-16.6c.1-.1.3-.5,0-.5C267,58,266.9,58.3,267,58.4Zm.6,16.7c-.1.3-.2.1-.2.4h.2Zm-.1-.7c.1,0,0-.1.3-.1a9.74,9.74,0,0,0,.1-1.6A4.26,4.26,0,0,0,267.5,74.4Zm.1-18.6c.1.1-.1.3.2.3,0-.3.6,0,.7-.3A1.39,1.39,0,0,0,267.6,55.8Zm.8,2.6c-.1-.3-.2-.4-.4-.4s-.1.5,0,.5S268.1,58.5,268.4,58.4Zm.4,18.5c-.4,0-.5-.2-.4-.5a.6.6,0,0,0-.3.6C268.4,76.9,268.7,77,268.8,76.9Zm-.3-12.2c0,.3-.2.7-.1.8C268.7,65.4,268.9,64.8,268.5,64.7Zm.3,8.5c-.3.1-.6.6-.3.7.3-.3.1-.5.5-.4a6,6,0,0,0,.2-2.6Zm-.4-12c.3.4,0,1,.3,1.3C268.6,62.1,268.7,61.3,268.4,61.2Zm2.8-5.3c.3-.3.7.1,1,0C272.5,55.6,271.2,55.5,271.2,55.9Zm1,2.1a.76.76,0,0,1-.4-.2v.4c0,.1.3-.1.3.2.1,1.2-.3,2.8.2,3.9C272.3,60.8,272.3,59.2,272.2,58Z"/><path class="cls-2" d="M321.5,73.5l-.3,5.3a10.77,10.77,0,0,1-4.2.5c-2.53.36-6,.37-8.2-.9-.1-1.7.2-3.9.1-5.5-.1-.5-.2-.8-.2-.7a6.28,6.28,0,0,0-.3-1.9,5.62,5.62,0,0,0-2.4-3.2c-.3-.3-.7-.1-1.2-.2-1.57-.18-1.92-1.24-5,.3a6.11,6.11,0,0,0-2,.9,4.35,4.35,0,0,0-1.5,2.2c-.55,6,3.47,8.7,4.7,10.8a53.7,53.7,0,0,0,4.4,3.7c1.44,1,3.16,2.4,4.6,3.6.1.3-.2-.1-.2.2s.1-.1.4-.1c.1.09,4.29,4.06,4.4,4.2.1.3.1-.2.4.1,0,.55,2.61,2.65,4.5,6.8l.8,1.8a5.41,5.41,0,0,1,.3,1.9c0,.1,1.41,5.44-.6,10.3a8,8,0,0,1-1.8,4.4c0,.1-.1.1-.1.4-1.5,1.5-2.4,3.4-4.4,4.5-.3.1-.2-.1-.5-.1,0,.5-.8.4-1.1,1.1a1.94,1.94,0,0,0-1.3.6c-.3-.1,0-.2-.3-.1-1.5.8-2.8.7-4,1.5-.7-.3-.9.5-1.3-.2-1.7.7-3.9.3-6,0a3.08,3.08,0,0,1-1.7-.2l-.6.2c-.5-.3-1.4-.2-1.7-.6a4.16,4.16,0,0,1-2.6-1.1c-1.7-.5-2.7-1.7-4.2-2.6,0-.3-.2-.3-.2-.6l-.6-.3c-1.81-2.84-3.81-5.77-3.81-12,0-.5-.19-.9-.19-1.4,0-.3.1-.5.1-.8a9.75,9.75,0,0,1,.4-4.7c3.9-1.3,7.8-.4,11.7-.1,0,.2.1.3.4.4.1,3.6-.6,7.5,1,10.3.7,1.1,1.5,1.3,2.7,1.7a6.17,6.17,0,0,0,5.3-.4c.3-.3.6-.2.9-.5l.8-.8a5.84,5.84,0,0,0,1.4-1.3,6.81,6.81,0,0,0,.4-2.8,12.58,12.58,0,0,1-.5-2.8c-.5-.9-.6-2.1-1.1-2.9a8.7,8.7,0,0,1-1.3-1.5c-.3.1,0,0-.3,0-.9-1.5-2.5-2-3.7-3.1-.9-.7-1.5-1.5-2.4-2.2a6.37,6.37,0,0,1-1.7-1.6,4,4,0,0,1-1.4-1.1c-.7-.5-1.2-.8-1.5-1.5-.4,0-.3-.4-.7-.4-.38-.6-6.43-5.85-7-6.3-.78-2.06-2.32-.85-3.31-8.4,0-.3-.19-.2-.19-.3.38-1.92-.52-4.28.1-4.9-.3-1.1.2-2.4.5-3.6.09-.3,0-.5.09-.8l.31-.4c.1-.4-.1-.8.3-1.1-.11-.1-.11-.2-.11-.5.4-.4,2.08-6.78,11.51-9.8,3.71-1.24,10.8-1.34,14.4.3.56,1,3,1.09,4,2.8a3.32,3.32,0,0,1,1.6,1.5c.7.1,1,1,1.5,1.7a6.69,6.69,0,0,1,1.2,1.6C320.26,64.78,321.89,70.2,321.5,73.5Zm-36.9-3.3c.3.1.1-.4,0-.4Zm.1,32.6.5-.7c-.3-.1-.2.1-.5.1Zm1.4,10.3a.76.76,0,0,0-.2-.5c-.3.3-.4.2-.7.3a4.58,4.58,0,0,1,.2.6C285.5,113.1,285.7,113,286.1,113.1Zm.19.8c-.29,0-.19-.2-.5-.1,0,.3.11.3.11.6C286.2,114.4,286,114.2,286.29,113.9Zm-.09-4.6a2.08,2.08,0,0,0,.3,1.3A2.5,2.5,0,0,0,286.2,109.3Zm.3-44.3c-.1.2-.1.3.2.3C286.7,65.1,286.6,65,286.5,65Zm1.1,4.3c.1.3-.1.4,0,.5-.1.7-.2,1-.2,1.3a2.74,2.74,0,0,0,.2-1.3C287.6,69.5,287.9,69.4,287.6,69.3Zm.19,9.7c0-.3-.09-.5-.19-.5C287.7,78.6,287.7,78.9,287.79,79Zm1.81,6.6c-.7-.4-1-1.4-1.7-1.5A6.12,6.12,0,0,0,289.6,85.6Zm-.5,32.5c-.1-.6-.31-.9-.6-1C288.6,117.7,288.79,118,289.1,118.1Zm-.5-37.4c.3.1.3.6.6.6C289.1,81,288.9,80.4,288.6,80.7Zm1.1,36.5c0-.7-.5-.9-.8-1.2C289.2,116.4,289.29,116.9,289.7,117.2Zm-.1-52c-.31.4-.6.7-.5,1.1A1.61,1.61,0,0,0,289.6,65.2Zm.4,36.7c-.1-.3-.6-.1-.9,0Zm.2-21.4c-.1-.3,0-.5-.3-.8C289.9,80.2,290,80.5,290.2,80.5Zm.5-11.9c-.1-.3.3-.4,0-.5,0,.3-.1.3-.3.1v.4Zm.5,54c.3-.1.3.2.6.2a.55.55,0,0,0-.6-.4Zm.4-49.7c.3,0,.1.2.2.2,0-.3-.1-.5-.2-.5Zm.2-4c.1,0-.2.6.1.6C291.9,69.2,292.1,68.6,291.8,68.9Zm0-7.3a10.61,10.61,0,0,0,2-1.7A7.88,7.88,0,0,0,291.8,61.6Zm.2,59.6c-.3.3.4.2.1.5a2.39,2.39,0,0,1,.7.3C292.9,121.6,292.3,121.5,292,121.2Zm.5-53.6c-.1.3-.4.5-.5.8C292.4,68.4,292.5,67.9,292.5,67.6Zm-.1,37c.1.1.4.2.4-.1C292.7,104.4,292.4,104.5,292.4,104.6Zm.8-18.9c-.3-.3-.4-.7-.7-.8C292.8,85.2,292.8,85.6,293.2,85.7Zm-.1-13.5c.1-.3.3-.6.2-.9-.5.8-.1,1.1-.2,2.2.3.1.3.2.6.5C294.1,73.5,293.5,72.6,293.1,72.2Zm1,45.4c-.1-.3-.5-.4-.8-.7C293.4,117.3,293.8,117.3,294.1,117.6Zm0-56.6c-.4.1-.7.5,0,.1Zm1.3,48.1a3.93,3.93,0,0,0-.2-.6c0,.1-.1.1-.2,0A1.54,1.54,0,0,0,295.4,109.1Zm-.1-38.9c.1-.1.1-.1.2,0,.1-.1.3-.5,0-.4C295.5,70.1,295.4,69.9,295.3,70.2Zm.4,3.9c-.1.1-.3,0-.4.1.5.5.8,1.5,1.2,1.9A8.36,8.36,0,0,1,295.7,74.1ZM297,58.4a2.46,2.46,0,0,0-1.5.5A2.64,2.64,0,0,0,297,58.4Zm-.6-1.7c.3,0,.5.1.8-.2C296.8,56.5,296,56.7,296.4,56.7Zm2,31.6a16.24,16.24,0,0,1-2-1.8A6.68,6.68,0,0,0,298.4,88.3Zm1.2-25.6a7.88,7.88,0,0,0-2.8,1,8.47,8.47,0,0,0,2.4-.8C299.3,62.9,300,62.7,299.6,62.7Zm-1.5-2.5c-.4.1-.7,0-1,.3Zm-.3,25a.91.91,0,0,1,.3.7c.4-.1.2.5.5.2C298.5,85.8,298.1,85.2,297.8,85.2Zm1.8,31.2c-.7-.3-.9-.6-1.6-.7a.25.25,0,0,0,.1.4C298.6,116.1,299.2,116.4,299.6,116.4ZM298,114c.3,0,.4.4.5.1C298.2,114.1,298.1,113.9,298,114Zm.6-27.5c0-.1.1-.1.1-.2,0,.4.1.5.2.4-.1-.1-.1-.4-.2-.5C298.7,86.3,298.3,86.4,298.6,86.5Zm0-24.6c.3-.1,1.2-.4.9-.4A1.8,1.8,0,0,0,298.6,61.9Zm4.3,53.3c-1.9,0-2.8-.6-4.3-1A6.56,6.56,0,0,0,302.9,115.2Zm-2.4-20.4c.1.1.2.5.5.2C300.7,95,300.6,94.7,300.5,94.8Zm.9-38.5c-.4-.1-.7-.3-.8.2A2.35,2.35,0,0,0,301.4,56.3Zm.7,61.6c-.7-.3-1.1-.4-1.4-.3C301.2,117.6,301.6,118.2,302.1,117.9Zm-.5-53.8c-.3,0-.3-.1-.6,0C301,64.5,301.5,64.2,301.6,64.1Zm.4-3.8h-.3c0,.1,0,.2-.1.2A.76.76,0,0,0,302,60.3Zm-.1,32.4c.4.4.7,1.2,1.4,1.1a11.32,11.32,0,0,1-1-1.3C302.3,92.8,302,92.6,301.9,92.7Zm.4,23.9c-.1,0,0,.1-.3.1C302,117,302.3,116.9,302.3,116.6ZM304,65.8a7,7,0,0,0,1.4.3c-.78,0-1.6-.91-2.2-.3Zm-.5-4.7c0,.3.2.4.7.4C304.3,61.2,303.8,61,303.5,61.1Zm1,53.2c0-.1-.1-.3-.1,0-.3-.1-.1.5,0,.2C304.1,114.4,304.6,114.4,304.5,114.3Zm1.6-52.9c-.3-.1-.7-.4-1-.3C305.4,61.2,305.7,61.7,306.1,61.4Zm2.3-1.4c-1.1-.4-1.7-1-2.8-1.3a5.69,5.69,0,0,0,2.7,1.3C308.3,60.1,308.5,60.1,308.4,60Zm-2.3,62.8c0,.3.3.1.4,0Zm.5-9.2c-.1.1-.4.1-.4.4C306.5,114,306.6,113.9,306.6,113.6Zm.4,5.5c-.3,0-.5.1-.2.2C306.8,119.2,307,119.4,307,119.1Zm-.1-22.4c0-.2,0-.3-.1-.4C306.7,96.4,306.8,96.7,306.9,96.7Zm0-9.5a1.21,1.21,0,0,0,.5.5c.1-.1.3,0,.3-.3C307.4,87.4,307.2,86.9,306.9,87.2Zm1.3-19.4a1.68,1.68,0,0,0-1.2-1Zm-.5,49c.4,0,.3-.3.6-.6C308,116.3,308,116.5,307.7,116.8Zm.8,4.4c-.1-.3-.5-.1-.6,0C308.2,121.3,308.2,120.9,308.5,121.2Zm-.5-23a3,3,0,0,0,.4,1.1c-.1-.4.1.1.2-.2-.1-.1-.5-.3-.2-.6C308.1,98.6,308.3,98.2,308,98.2Zm.4,25.5c2-.65,2.2-.6,1.9-.9C309.9,123.3,308.9,123.2,308.4,123.7Zm.2-23.9c.7.3.4,1,1.1,1.4.1-.3-.3-.2,0-.5-.2,0-.3,0-.3-.1s0-.2.1-.2c-.4.1-.3-.2-.3-.3-.3,0-.3-.1-.2-.3.1,0,.5.1.2,0a.19.19,0,0,0-.3,0c-.1-.3-.2-.4-.2-.5-.3.1.2.2-.1.2Zm1-35.6c-.1-.1-.1-.3-.4-.4-.1-.1-.2-.1-.4-.1C309.2,64.1,309.5,64.3,309.6,64.2Zm-.2,48.7a3,3,0,0,0-.5,1.4A7.84,7.84,0,0,0,309.4,112.9Zm0-55.9c.4.1.7.5,1.2.6C310.5,56.9,309.7,57,309.4,57Zm.5,37.9c.3.3.6,1.4.9,1.1C310.5,95.6,310.2,95,309.9,94.9Zm.4-17.5h-.2c0,.3.1.4.2.4Zm.7-15.7c-.1-.3-.3-.4-.5-.3A.91.91,0,0,0,311,61.7Zm.3,12.5a3.45,3.45,0,0,0,.5,1.8A3.45,3.45,0,0,0,311.3,74.2Zm.5,19.9c0,.3.2.7.5.4Zm.6,20.7c-.1.1-.6.5-.3.8C312.2,115.3,312.5,115.1,312.4,114.8Zm-.3-5.8c.1-.5.8-1,.5-1.5A3.74,3.74,0,0,0,312.1,109Zm.2-44.6c.1,0-.1.2.2.3C312.6,64.6,312.4,64.1,312.3,64.4Zm1.2,14.1c-.3,0-.8-.1-.9,0A1,1,0,0,0,313.5,78.5Zm-.6-1.7c-.1-.4.3-.7,0-1C312.6,76.2,312.6,76.5,312.9,76.8Zm0,36.6c.1-.1.3-.6,0-.6C312.9,113.1,312.6,113.1,312.9,113.4Zm.2,4.6c0,.3-.5.2-.2.5C313,118.2,313.4,118.1,313.1,118Zm.9-57c-.1-.3-.5-.6-.8-.2.3.3.3.4.6.5C313.7,61,314,61.1,314,61Zm-.1,5a5.12,5.12,0,0,0,.8,2.1Zm.9,6.2c-.1-.3-.2-.4-.3-.4s-.2.1-.4.1a2,2,0,0,0,.1.5C314.5,72.3,314.5,72.1,314.8,72.2Zm-.3,49.1c.2,0,.3-.1.3-.2h-.1c-.1,0-.1-.1-.2-.1ZM316.6,64c-.3-1.1-1-1.8-1.1-2.7-.3-.1-.4.2-.5.3A19.82,19.82,0,0,0,316.6,64Zm-.4,11.5c-.3-.5-.2-1.3-.5-1.6A2.35,2.35,0,0,0,316.2,75.5Zm-.5,20.3c.3.1.2.6.5.3C315.9,96,316,95.5,315.7,95.8Zm.8,19.7a2.51,2.51,0,0,0,.1-1C316.5,114.8,316,115.2,316.5,115.5Zm.3-40.7c0,.1.1.4.2.8A.93.93,0,0,0,316.8,74.8Zm.4-5.5a1,1,0,0,0-.2-.7C317.1,68.9,316.9,69,317.2,69.3Zm.2,44.2c0,.3-.1.4,0,.7,0-.1.1-.3.2-.7Zm.9-44c-.3-1.1-.5-1.8-.9-2.9Zm.6,5.7a2,2,0,0,0,.1-.5c-.3-.5-.3-1.2-.6-1.6A3.12,3.12,0,0,0,318.9,75.2Zm-.2,28.3a5.18,5.18,0,0,0,.2,2.2c.3-.1.1-.5.1-.8-.1-.5-.4-.9-.1-1.3C318.8,103.6,318.8,103.5,318.7,103.5Zm.5-34.2c-.3-.3,0-.6-.3-.7C319,68.9,318.9,69.6,319.2,69.3Z"/></g></g></g></g></svg>