<svg xmlns="http://www.w3.org/2000/svg" viewBox="0 0 1066.5 166.52"><defs><style>.cls-1{fill:#fff;}</style></defs><title>plants-logo</title><g id="Layer_2" data-name="Layer 2"><g id="Layer_1-2" data-name="Layer 1"><path class="cls-1" d="M0,2.76H69c40.71,0,66.93,20.93,66.93,56.58v.46c0,38-29.21,58-69.23,58H44.62v46H0Zm65.78,80c15.87,0,25.53-8.28,25.53-20.93v-.46c0-13.8-9.66-21.16-25.76-21.16H44.62V82.8Z"/><path class="cls-1" d="M180.09,2.76h44.62v121.9h78v39.1H180.09Z"/><path class="cls-1" d="M402.73,1.61h43l68.54,162.15H466.43L454.71,135h-62.1l-11.5,28.75H334.19Zm39.1,98.67L423.89,54.51l-18.17,45.77Z"/><path class="cls-1" d="M555.22,2.76h41.63l66.23,85.1V2.76h44.16v161h-39.1L599.38,75.44v88.32H555.22Z"/><path class="cls-1" d="M800.39,41.86h-48.3V2.76H893.31v39.1H845v121.9H800.39Z"/><path class="cls-1" d="M926,139.84l24.84-29.67c15.87,12.65,33.58,19.32,52.21,19.32,12,0,18.4-4.14,18.4-11V118c0-6.67-5.29-10.35-27.14-15.41C960,94.76,933.56,85.1,933.56,52v-.46C933.56,21.62,957.25,0,995.89,0c27.37,0,48.76,7.36,66.24,21.39L1039.82,52.9C1025.1,42.55,1009,37,994.74,37c-10.81,0-16.1,4.6-16.1,10.35v.46c0,7.36,5.52,10.58,27.83,15.64,37,8.05,60,20,60,50.14v.46c0,32.89-26,52.44-65.09,52.44C972.89,166.52,945.75,157.55,926,139.84Z"/></g></g></svg>