<?xml version="1.0" encoding="utf-8"?>
<!-- Generator: Adobe Illustrator 22.1.0, SVG Export Plug-In . SVG Version: 6.00 Build 0)  -->
<svg version="1.1" id="Layer_1" xmlns="http://www.w3.org/2000/svg" xmlns:xlink="http://www.w3.org/1999/xlink" x="0px" y="0px"
	 viewBox="0 0 378 99" style="enable-background:new 0 0 378 99;" xml:space="preserve">
<style type="text/css">
	.st0{enable-background:new    ;}
	.st1{fill:#FFFFFF;}
</style>
<title>The Sounds In My Hea</title>
<desc>Created with Sketch.</desc>
<g id="Page-1">
	<g id="iPad-Pro" transform="translate(-90.000000, -1020.000000)">
		<g class="st0">
			<path class="st1" d="M100.6,1029.8H92c-0.7,0-1.1-0.5-1.1-1.1v-6.5c0-0.6,0.5-1.1,1.1-1.1h26.6c0.7,0,1.1,0.5,1.1,1.1v6.5
				c0,0.6-0.5,1.1-1.1,1.1H110v32c0,0.6-0.5,1.1-1.1,1.1h-7.2c-0.6,0-1.1-0.5-1.1-1.1V1029.8z"/>
			<path class="st1" d="M126.2,1022.1c0-0.6,0.5-1.1,1.1-1.1h7.1c0.7,0,1.1,0.5,1.1,1.1v15.1h17.2v-15.1c0-0.6,0.5-1.1,1.1-1.1h7.1
				c0.6,0,1.1,0.5,1.1,1.1v39.7c0,0.6-0.5,1.1-1.1,1.1H154c-0.7,0-1.1-0.5-1.1-1.1v-15.8h-17.2v15.8c0,0.6-0.5,1.1-1.1,1.1h-7.1
				c-0.6,0-1.1-0.5-1.1-1.1V1022.1z"/>
			<path class="st1" d="M173,1022.1c0-0.6,0.5-1.1,1.1-1.1H199c0.7,0,1.1,0.5,1.1,1.1v6.5c0,0.6-0.5,1.1-1.1,1.1h-16.6v7.4h13.7
				c0.6,0,1.1,0.5,1.1,1.1v6.5c0,0.7-0.5,1.1-1.1,1.1h-13.7v8.1H199c0.7,0,1.1,0.5,1.1,1.1v6.5c0,0.6-0.5,1.1-1.1,1.1h-24.8
				c-0.7,0-1.1-0.5-1.1-1.1V1022.1z"/>
			<path class="st1" d="M220,1057.3l2.8-5c0.5-0.8,1.6-0.7,2-0.4c0.2,0.1,4.6,3.3,8.5,3.3c2.4,0,4.1-1.5,4.1-3.6
				c0-2.5-2.1-4.4-6.2-6.1c-5.2-2-11.6-6.1-11.6-13.3c0-5.9,4.6-11.9,13.9-11.9c6.2,0,11,3.2,12.8,4.5c0.7,0.4,0.6,1.5,0.4,1.9
				l-3.1,4.6c-0.4,0.7-1.5,1.2-2,0.8c-0.5-0.3-4.9-3.6-8.6-3.6c-2.2,0-3.8,1.4-3.8,3.1c0,2.2,1.8,3.9,6.5,5.8
				c4.7,1.9,12.1,5.5,12.1,13.7c0,6.2-5.3,12.4-14.2,12.4c-7.8,0-12.1-3.2-13.5-4.6C219.7,1058.4,219.5,1058.1,220,1057.3z"/>
			<path class="st1" d="M274.3,1020.4c12,0,21.6,9.7,21.6,21.7c0,12-9.6,21.5-21.6,21.5c-12,0-21.5-9.5-21.5-21.5
				C252.7,1030.1,262.3,1020.4,274.3,1020.4z M274.3,1054c6.6,0,12-5.4,12-11.9c0-6.6-5.4-12.1-12-12.1c-6.5,0-11.9,5.5-11.9,12.1
				C262.3,1048.6,267.7,1054,274.3,1054z"/>
			<path class="st1" d="M303,1022.1c0-0.6,0.5-1.1,1.1-1.1h7.4c0.7,0,1.1,0.5,1.1,1.1v24.3c0,4.2,3.1,7.6,7.4,7.6
				c4.3,0,7.5-3.4,7.5-7.6v-24.3c0-0.6,0.5-1.1,1.1-1.1h7.4c0.6,0,1.1,0.5,1.1,1.1v24.8c0,9.1-7.7,16.7-17.2,16.7
				c-9.4,0-17-7.6-17-16.7V1022.1z"/>
			<path class="st1" d="M347.3,1021.5c0-0.6,0.5-1.1,1.1-1.1h1.5l23.9,23h0.1v-21.3c0-0.6,0.5-1.1,1.1-1.1h7.2
				c0.6,0,1.1,0.5,1.1,1.1v40.4c0,0.6-0.5,1.1-1.1,1.1h-1c-0.2,0-0.7-0.2-0.8-0.3l-23.7-23.8h-0.1v22.4c0,0.6-0.5,1.1-1.1,1.1h-7.1
				c-0.6,0-1.1-0.5-1.1-1.1L347.3,1021.5z"/>
			<path class="st1" d="M394.2,1022.1c0-0.6,0.5-1.1,1.1-1.1h14.6c11.6,0,21.1,9.4,21.1,20.9c0,11.6-9.5,21.1-21.1,21.1h-14.6
				c-0.6,0-1.1-0.5-1.1-1.1V1022.1z M409.3,1054.1c6.8,0,11.7-5.3,11.7-12.2c0-6.8-4.9-12.1-11.7-12.1h-5.8v24.3H409.3z"/>
			<path class="st1" d="M436.4,1057.3l2.8-5c0.5-0.8,1.6-0.7,2-0.4c0.2,0.1,4.6,3.3,8.5,3.3c2.4,0,4.1-1.5,4.1-3.6
				c0-2.5-2.1-4.4-6.2-6.1c-5.2-2-11.6-6.1-11.6-13.3c0-5.9,4.6-11.9,13.9-11.9c6.2,0,11,3.2,12.8,4.5c0.7,0.4,0.6,1.5,0.4,1.9
				l-3.1,4.6c-0.4,0.7-1.5,1.2-2,0.8c-0.5-0.3-4.9-3.6-8.6-3.6c-2.2,0-3.8,1.4-3.8,3.1c0,2.2,1.8,3.9,6.5,5.8
				c4.7,1.9,12.1,5.5,12.1,13.7c0,6.2-5.3,12.4-14.2,12.4c-7.8,0-12.1-3.2-13.5-4.6C436.1,1058.4,435.9,1058.1,436.4,1057.3z"/>
		</g>
		<g class="st0">
			<path class="st1" d="M95.2,1077.1c0-0.6,0.5-1.1,1.1-1.1h7.2c0.6,0,1.1,0.5,1.1,1.1v39.7c0,0.6-0.5,1.1-1.1,1.1h-7.2
				c-0.6,0-1.1-0.5-1.1-1.1V1077.1z"/>
			<path class="st1" d="M118.2,1076.5c0-0.6,0.5-1.1,1.1-1.1h1.5l23.9,23h0.1v-21.3c0-0.6,0.5-1.1,1.1-1.1h7.2
				c0.6,0,1.1,0.5,1.1,1.1v40.4c0,0.6-0.5,1.1-1.1,1.1h-1c-0.2,0-0.7-0.2-0.8-0.3l-23.7-23.8h-0.1v22.4c0,0.6-0.5,1.1-1.1,1.1h-7.1
				c-0.6,0-1.1-0.5-1.1-1.1L118.2,1076.5z"/>
			<path class="st1" d="M188.6,1076.4c0.1-0.5,0.6-1,1.1-1h1c0.3,0,0.8,0.2,1,0.6l13.9,25.9h0.1l13.9-25.9c0.2-0.4,0.7-0.6,1-0.6h1
				c0.5,0,1,0.4,1.1,1l6.8,40.3c0.1,0.8-0.4,1.3-1.1,1.3h-7.1c-0.5,0-1.1-0.5-1.1-1l-2.7-18.5h-0.1l-10.1,19.4
				c-0.2,0.4-0.7,0.7-1,0.7h-1.1c-0.4,0-0.8-0.3-1-0.7l-10.1-19.4h-0.1l-2.6,18.5c-0.1,0.5-0.5,1-1.1,1H183c-0.7,0-1.3-0.5-1.1-1.3
				L188.6,1076.4z"/>
			<path class="st1" d="M247.4,1097.8l-13.3-20c-0.5-0.8,0-1.7,1-1.7h7.8c0.5,0,0.8,0.3,1,0.5l8.3,12.3l8.3-12.3
				c0.2-0.2,0.4-0.5,1-0.5h7.8c1,0,1.4,1,1,1.7l-13.4,20v19.1c0,0.6-0.5,1.1-1.1,1.1h-7.1c-0.7,0-1.1-0.5-1.1-1.1V1097.8z"/>
			<path class="st1" d="M294.9,1077.1c0-0.6,0.5-1.1,1.1-1.1h7.1c0.7,0,1.1,0.5,1.1,1.1v15.1h17.2v-15.1c0-0.6,0.5-1.1,1.1-1.1h7.1
				c0.6,0,1.1,0.5,1.1,1.1v39.7c0,0.6-0.5,1.1-1.1,1.1h-7.1c-0.7,0-1.1-0.5-1.1-1.1v-15.8h-17.2v15.8c0,0.6-0.5,1.1-1.1,1.1H296
				c-0.6,0-1.1-0.5-1.1-1.1V1077.1z"/>
			<path class="st1" d="M344.5,1077.1c0-0.6,0.5-1.1,1.1-1.1h24.8c0.7,0,1.1,0.5,1.1,1.1v6.5c0,0.6-0.5,1.1-1.1,1.1h-16.6v7.4h13.7
				c0.6,0,1.1,0.5,1.1,1.1v6.5c0,0.7-0.5,1.1-1.1,1.1h-13.7v8.1h16.6c0.7,0,1.1,0.5,1.1,1.1v6.5c0,0.6-0.5,1.1-1.1,1.1h-24.8
				c-0.7,0-1.1-0.5-1.1-1.1V1077.1z"/>
			<path class="st1" d="M377.6,1116.4l18.8-40.4c0.2-0.4,0.6-0.7,1-0.7h0.6c0.4,0,0.8,0.3,1,0.7l18.8,40.4c0.4,0.8-0.1,1.6-1,1.6
				h-6.7c-1.1,0-1.6-0.4-2.1-1.5l-2.2-4.7h-16.3l-2.2,4.8c-0.3,0.7-1,1.4-2.2,1.4h-6.6C377.7,1118,377.2,1117.2,377.6,1116.4z
				 M402.2,1103.6l-4.6-9.9h-0.1l-4.5,9.9H402.2z"/>
			<path class="st1" d="M426,1077.1c0-0.6,0.5-1.1,1.1-1.1h14.6c11.6,0,21.1,9.4,21.1,20.9c0,11.6-9.5,21.1-21.1,21.1h-14.6
				c-0.6,0-1.1-0.5-1.1-1.1V1077.1z M441.1,1109.1c6.8,0,11.7-5.3,11.7-12.2c0-6.8-4.9-12.1-11.7-12.1h-5.8v24.3H441.1z"/>
		</g>
	</g>
</g>
</svg>
