<svg id="Layer_1" data-name="Layer 1" xmlns="http://www.w3.org/2000/svg" viewBox="0 0 430 130"><defs><style>.cls-1{fill:#3d3941;}</style></defs><title>Artboard 2</title><path class="cls-1" d="M54.54,9.22a6.92,6.92,0,0,0-.44,1.45c-1.05,5.14-.24,5-1.61,7.36L49.66,35.76a2.53,2.53,0,0,0-.24,2.53L47,50.89c-1.09,2,1.79,6.87-5.91,6.63a47.11,47.11,0,0,1-5.5-.48l-1-1.13c-3.7-20.66-2.22-22-5.84-23.84C26.75,33.61,26,37.35,25.73,40c-.27-.27-.47-.41-.58-.41l-.21.07a5.72,5.72,0,0,1-.75.89l.07.2c1.71.21,1.49.94,1.08,2.45-.56,2-.09,1.43-.74,2.13l.31.31-1.5,10.31a5.67,5.67,0,0,1-4.55,1.58A24.42,24.42,0,0,1,13.15,57c-.61-.13-1.23-1-1.84-2.66.44-1.12-.84-3.83-.65-4.58C8.78,38.17,9.25,40.48,8.88,38.92c-.12-.48-.92-2.66-.58-3.5.67.34,1.64-.58,2.22-1.13-.69-.92-1.62,0-2.43,0l-.3-.37C7.24,29.49,3.64,9.81,3.48,9.29A7.86,7.86,0,0,1,3,5.05,2.25,2.25,0,0,1,3,2.39c2.7-1.29,6.33-.84,9.06-.34L14.14,4.4c0,4.48,1.07,10.55,2.12,17.73-1.24.51-.67.83-.12,1.56.21.27.6.8.5,1.11,1,1.71.91,2.75-1.54,4.16.25.46,1,.71,2.29.76q3.56-2.94,3.42-6c.71.29,1.5-.44,2.25-1.13l.07-.2a1.62,1.62,0,0,0-.41-.58c-.16.6-1.08.29-1.3.3C22.94,8.48,22.7,2.7,24.88,2c2.43-.33,6-.76,8.51.1,1.2,1.28,1.69,3.77,1.47,7.49,1,1.27,1,3.68.75,5.32.4.77,1,2,.75,2.67L36,18c-.47-.62-1.16-.35-2-.41l-.72.75c.75,1.33,4.17.19,3.35,2.66A1.71,1.71,0,0,1,36,22.88c1.35,1.65,1.47,1,1.47,3.28,0,1,.4,1.57,1.19,1.64.87,1.52,1.6-1.18,2.57,0,.55-.12.53-.48.24-.94-.61-1,.27-4.77.95-6.64l-.3-.45,2.22-16.6c2.15-2.74,7.08-.89,9.43-1.57C56.83,3.58,54.36,6.71,54.54,9.22ZM4.85,8.44l-.35.37c.58.58.59.37.72.41l.07-.13A2.27,2.27,0,0,0,4.85,8.44Zm7.58,19.75c-.76-.3-1.3.56-1.91.76.28.51.88.34,1.2.37,0-.11.78-.61.78-1Zm-.37,14.43h-.34l.34.34Zm.78,5.3h-.78l.78.37Zm.55-30.15h-.55v.55h.55Zm-.2,7.76.78.78.41-.44C14.07,25.42,13.39,25.55,13.19,25.53Zm1.53,3.79-1.12,1.1c.37.15.54.1,1.5-.69Zm0-5.67-.34.34.72.79.41-.38Zm0,16-.34.34.34.34L15.1,40Zm0-3.45.38.37c.17-.05,0,.18.75-.37C15.78,35.88,14.86,35.62,14.72,36.16Zm1.92,1.91-.38.34.38.41.41-.41ZM17.18,32c-.78,0-.83,1.23-.13,1.58,0,0,.75-.76.75-1.06C17.7,32.37,17.3,32,17.18,32Zm1,3.46c-.51-.21-.73,0-1.54.75.28.52.87.34,1.09.37C18.34,36.25,18.14,35.64,18.18,35.41Zm.2,3.21h-.65v.55h.65Zm.14-7.42v.41l.41-.41Zm.75,11c-.18.07.06-.21-.75.45h.75Zm.24-8.88h-.58v.58h.58Zm.14-3.56-.38.34a4.09,4.09,0,0,0,.58.41l.21-.06C20,30.32,20.16,30.25,19.65,29.73Zm2,6.8-2.36,1.1.38.44c.17-1.06,1.94-.44,1.94-1.26ZM19.27,40c.07.21-.19-.08.38.79A8.38,8.38,0,0,1,23.06,40,5.79,5.79,0,0,0,19.27,40ZM20.6,44.7h-.54v.58h.54Zm-.2-10.08.48.44a1.71,1.71,0,0,0,.71-.44A.64.64,0,0,0,20.4,34.62Zm1.54-6.84c0,.1-.13,0-.64.7-.18.24-.1.3-.12.47h.76c.65-1.45,2.78-.15,3.45-1.54C24,25.3,23.44,28.79,21.94,27.78Zm-.35,15.59-.41.38a6.39,6.39,0,0,0,.55.41h.21V44S21.82,43.78,21.59,43.37Zm1.88-12.95c-.37-.51-1.88-.73-1.88.3a.49.49,0,0,0,.55.55c.66,0,1,0,.92-.07a4.06,4.06,0,0,0,.41-.54Zm0-12.45-.75.69.34.44c.16-.05,0,.19.79-.44C23.8,18.56,24,18.61,23.47,18Zm-.41,16.65a3.5,3.5,0,0,0,3.42,0C26.14,34.07,23.49,33.49,23.06,34.62Zm1.54-3c-1.72.71-.08,2,.79.79Zm-.34,6.8a.64.64,0,0,0,0,1.2l.34-.44C24.56,39.06,24.74,39.19,24.26,38.41ZM25.73,11.1H24.26l1.47.35Zm-.79,14.09c-.59-.6-.53-.36-.68-.41l.68.75Zm2.33-5.75c-.86.07-1.57-.2-1.88.41a5.56,5.56,0,0,0,1.47.72C27.42,20.39,27.23,19.58,27.27,19.44Zm-1.54,6.43.75,1.2c.53-.07,1.72.27,2.33-.76A8.88,8.88,0,0,0,25.73,25.87Zm2,4.72c-.32-.3-.48-.47-.48-.52l-.41.79c.31.45.95.32,1.16.34v-.07A.58.58,0,0,0,27.75,30.59ZM27.27,24l.34.41c.21-.07-.09.2.79-.41C28.33,23.76,27.41,23.51,27.27,24ZM28.6,10.56H28v.54h.58Zm0,7.21H28v.55h.58Zm.34,2.67H28.4V21h.54Zm.21-9L31,13l.44-.34Zm0,17.09c1.29.86,2.72-1.25,3.65-1.13h.14C31.94,26.18,30.17,27.13,29.15,28.54Zm1.33-6.09c-.65,0-.74.83-.2,1.2l.75-.79A4.93,4.93,0,0,0,30.48,22.45ZM31,20.57l-.75.75.41.41c.1,0,0,.13.78-.41C31.44,21.22,31.58,21.17,31,20.57ZM30.69,31.2c-.58.29-.66,1.61.41,1.61a1.49,1.49,0,0,0,1.5-1.2C32.19,31,31.47,31.26,30.69,31.2Zm.58-13.88h-.58V18h.58Zm.89,20.24v.07c.66.61.65.4.78.44a5.5,5.5,0,0,0,.41-.58C33.35,36.66,32.16,36.81,32.16,37.56Zm1.05-12.89a1.38,1.38,0,0,0-.61.11l1.09,1.09c1.4-.56,1.86,1.51,2.67-.34A21,21,0,0,0,33.21,24.67Zm.14-1,.34.34.14.07a1.85,1.85,0,0,0,.65-.41C34.11,23,33.47,23.13,33.35,23.65Zm.55,15.89-.21.07.38.68.41-.34A2.93,2.93,0,0,0,33.9,39.54Zm.58-11,.75.78.38-.37C35.47,28.38,34.76,28.57,34.48,28.54Zm1.54,13c-.1-.1-.71-.85-1-.85l-.21.06c-.43,1.07.84,1.37,1.2,1.13Zm1.47-3.86c-.73-.29-1.44.26-2.31.61a3.27,3.27,0,0,0-.36.17c.46.61,1.11.35,1.88.41.1-.1.86-.65.86-1Zm-2.26-7.21.38.44c.14-.05.08.17.75-.44C36.29,30.19,35.36,30,35.23,30.42ZM37.15,32c0,.93-1.81,1.26-1.92,1.58.86.86,1.31-.21,2.26-.45C37.47,32.62,37.64,32.26,37.15,32ZM35.61,45.28l.41.35c.49.2.86-.18,1.47-.79C37.21,44.44,36.31,45.11,35.61,45.28Zm.75-17.09.79.76a2.23,2.23,0,0,0,.41-.62A.62.62,0,0,0,36.36,28.19ZM37.49,40a.63.63,0,0,0,.34,1.2c.16,0,.56-.29,1.2-.86C38.88,39.79,38.11,40,37.49,40Zm.75,6.87c-.11,0-.78-.29-1.09.34a4.06,4.06,0,0,0,.54.41l.21-.06C38.4,46.86,38.19,47,38.24,46.82ZM41.69,32c-.52,1.34-1.95.42-2.66,1.13l1.12.79-1.47.75c1.07.73,3.82.68,3.9-.89A16.41,16.41,0,0,0,41.69,32ZM39,44.84l.34.79.41-.35C39.11,44.67,39.16,44.89,39,44.84Zm.75-6h-.41l1.19.79ZM40,50.72h-.65v.65H40Zm.54-21v.34l.35-.34Zm.69,12.1h-.34l.34.34Zm.24,3a.53.53,0,0,0-.58.44c.33.49.81.31,1.12.35C42,45.53,42.18,44.84,41.49,44.84Zm-.24-11v-.58h.65v.58Zm1.19,3.07H42l.41.35ZM43,29.12h-.58v.61H43Zm1.1-5.68h-.55V24h.55ZM43.91,35v.41l.45-.41Zm1.34-24.85H44.7v.61h.55Zm.65,27.14c-.28,0-.87-.13-1.2.34.66.62.62.4.75.44a5,5,0,0,0,.45-.58Zm.34-11.76-.34.34.34.44.34-.44Zm.2,6.22H45.9v.65h.54Zm.79,13h-.65v.58h.65Zm3.35-26.18H50v.58h.58Z"/><path class="cls-1" d="M72.45,53.93c.17,6-8.94,2.54-12.44,2.8-1.82-1.32.55-2.94-.78-4.47.61-7.87.86-12.42,1.43-11.66-.88-1.18-1-14.61-1.4-36.74A5.25,5.25,0,0,1,61.45,1.6,52,52,0,0,1,67,1.53a16.17,16.17,0,0,1,4.79.79c1,2,.87,3.63.31,6-.71,4.61.1,6.7,0,10,0,.1.14,8.26-.74,10.23,1.08,31.77.59,19,1.13,25.37ZM62.23,29.32h-.75l.75.41Zm-.13,6h-.62v.55h.62Zm3.21-9a4.89,4.89,0,0,0-1.88.76c.12.5.67.32,1.13.34.36-.37.75-.51.75-1Zm.38-5c.46.08.23,1.31,1.88-.34A3.43,3.43,0,0,0,65.69,21.32Zm1.53,13.74h-.44l.44.35Zm-.44,5.75.79.68.13.07a2.09,2.09,0,0,0,.62-.41C67.66,40.43,67.22,40,66.78,40.81Zm2.53,5.88h-.55v.54h.55Z"/><path class="cls-1" d="M103.59,57.38a15.56,15.56,0,0,1-2.87-.37c-2.69-.6-.76-.21-19,.37-.61-.86-1.29.19-1.81.11-.3,0-1.19-.83-2.87-2.29.84-16.75.17-17.34,1-19.08-.48-9.58-.16-21.07-.75-27.31C77.2,4.43,76.65,3,79.49,1.6c1.59-.29,6.06.27,7.52.29,1.81,0,2.77-.11,3.11,1.39.25.5-.29,2.52.52,3.69-.89,6.4-.69,6.91-.52,9.88l-.54.78.54,20.65c-1,1.32.86,2.52-.34,3.42a2.6,2.6,0,0,1,0,2.76c3,3.27,3.68,2.08,13.74,1.47,1.27,0,3.39,1,3.79,2.29-.91,1.82,0,4.89,0,6.16C107.35,55.38,105.8,57.38,103.59,57.38ZM79.15,32.88a.84.84,0,0,0-.85.41l.44.44c.35-.16,0,.42,1.47-.78C80.47,32.84,80,32.88,79.15,32.88ZM80.62,28l.34.34c.51.2.83,0,1.54-.79A2.44,2.44,0,0,0,80.62,28Zm1.54,13-.41.76.14.06a1.89,1.89,0,0,0,.61-.41Zm-.41,6.16.75.75c.2,0,.93.12,1.2-.41C83,47.44,82.55,46,81.75,47.1ZM84,53.59H83.7L84,54Zm.58-25.46H84v.61h.58Zm0,9.94H84v.62h.58Zm.21-15.48h-.35l.35.41Zm1.74-1.68H86v.55h.62Zm-.21,6.63H86l.41.45Zm.21,18.22H86v.55h.62ZM87.7,33.87h-.58v.61h.58Zm.2,12.44h-.41l.41.38Zm1.4,3.45c-.47,0-.71.21-.71.62l.06.13h1.13C89.73,50.25,90,49.76,89.3,49.76Zm5.47.75-.37.35.37.44.41-.44Zm1.1-3.82V46.1h.65v.59Z"/><path class="cls-1" d="M133.91,57c-2.7-.6-.76-.21-19,.37-.61-.86-1.29.19-1.81.11-.3,0-1.2-.83-2.87-2.29.84-16.75.17-17.34,1-19.08-.49-9.78-.17-21.09-.75-27.31-.11-4.38-.66-5.81,2.18-7.21,1.51-.27,6.31.27,7.52.29,1.81,0,2.77-.11,3.11,1.39.25.5-.29,2.52.52,3.69-.9,6.4-.69,6.91-.52,9.88l-.54.78.54,20.65c-1,1.32.86,2.52-.34,3.42a2.59,2.59,0,0,1,0,2.76c1.12,1.23,2.53,2.38,4.17,2.23,9.5-.64,9.38-1,10.69-.57a4,4,0,0,1,2.68,2.1c-.9,1.8,0,4.87,0,6.16C140.54,56.57,137.13,57.68,133.91,57ZM112.34,32.88a.84.84,0,0,0-.85.41l.44.44c.35-.16,0,.42,1.47-.78C113.66,32.84,113.14,32.88,112.34,32.88ZM113.81,28l.34.34c.51.2.83,0,1.54-.79A2.44,2.44,0,0,0,113.81,28Zm1.54,13-.41.76.14.06a2,2,0,0,0,.61-.41Zm-.41,6.16.75.75c.19,0,.93.12,1.2-.41C116.18,47.44,115.74,46,114.94,47.1Zm2.29,6.49h-.34l.34.38Zm.58-25.46h-.58v.61h.58Zm0,9.94h-.58v.62h.58Zm.2-15.48h-.34L118,23Zm1.75-1.68h-.62v.55h.62Zm-.21,6.63h-.41l.41.45Zm.21,18.22h-.62v.55h.62Zm1.13-11.89h-.59v.61h.59Zm.2,12.44h-.41l.41.38Zm1.4,3.45c-.48,0-.72.21-.72.62l.07.13H123C122.92,50.25,123.17,49.76,122.49,49.76Zm5.47.75-.37.35.37.44.41-.44Zm1.09-3.82V46.1h.65v.59Z"/><path class="cls-1" d="M156.54,53.93c.16,6-8.9,2.53-12.45,2.8-1.82-1.32.55-2.94-.78-4.47.61-7.87.86-12.42,1.43-11.66-1-1.34-1.09-20.5-1.4-36.74a5.25,5.25,0,0,1,2.19-2.26,52.16,52.16,0,0,1,5.54-.07,16.16,16.16,0,0,1,4.78.79,6.19,6.19,0,0,1,.63,4.29c-.42,3.69-.91,1.93-.39,9.21.26,2.7.17,11-.61,12.78,1.06,31.4.63,19.6,1.12,25.37ZM146.32,29.32h-.76l.76.41Zm-.14,6h-.62v.55h.62Zm3.21-9a4.89,4.89,0,0,0-1.88.76c.12.5.67.32,1.13.34.36-.37.75-.51.75-1Zm.38-5c.46.08.23,1.31,1.88-.34A3.43,3.43,0,0,0,149.77,21.32Zm1.54,13.74h-.45l.45.35Zm-.45,5.75.79.68.13.07a2.09,2.09,0,0,0,.62-.41C151.74,40.43,151.3,40,150.86,40.81Zm2.53,5.88h-.55v.54h.55Z"/><path class="cls-1" d="M195.06,56c-1.16,2-4.12,1.37-5.3,1.47-1-1.2-2-.67-3.86,0-3,1-3.42-4.2-4.48-7.48-2.82-.77-6.71-.89-8.07,1.67-1.16,4.34-1,6.21-5.55,5.92-3.46-.22-3.17-.2-3.9-.11-1.39.18-2.55.06-3.74-2.18a8.22,8.22,0,0,0,.68-1.85c3.2-16.63,3.21-15.13,3.21-18.56,1.45-5.49,2-8.95,5.23-27.51,1-6.56,2-5.9,8.45-5.27a5.53,5.53,0,0,0,2.18-.41c-.22-.07,2.4-.07,2.64-.07C184.94,1.53,185,2.67,186,5c0,1.91.93,4.51.38,6.52,1.45,1.54.86,1.44,5.3,27a4.76,4.76,0,0,1,1.19,3.42l-.41.37.65.75a33.69,33.69,0,0,0,1.1,5.91,60.15,60.15,0,0,1,1,6.18Zm-28.48-11-.41.37c.66.53.66.38.76.41l.06-.13A2.92,2.92,0,0,0,166.58,44.91Zm1.34-21.06h-.55v.55h.55Zm.92,23.72.75.79.41-.44C169.69,47.47,169.05,47.6,168.84,47.57ZM170.79,40l-.41.41a3,3,0,0,0,.61.45l.14-.11v-.13A4.65,4.65,0,0,0,170.79,40Zm.55-3.21h-.55v.55h.55Zm.13-3.59-.34.38.79.75.34-.41Zm.65,11.21h-.65v.55h.65Zm.34-27h-.54v.59h.54ZM173,30.48c-.1,0-.78-.3-1.09.38a2.11,2.11,0,0,0,.61.41l.14-.07c.29-.29.44-.48.44-.54Zm.79,6.81c-.37,0-1.27-.29-1.88.78.15.61.87.35,1.53.41C173.9,38.17,173.77,37.51,173.8,37.29Zm0-25.84c-.32-.64-1-.34-1.13-.35,0,.13-.26.79.85.79l.28-.07Zm-1.13,3.79.34.41c.31,0,.92.15,1.2-.41C174.07,15,172.93,14.71,172.67,15.24Zm0,29.67L173.8,46l.78-.76C174.18,44.73,173.45,45,172.67,44.91Zm.78-24.71a.57.57,0,0,0,0,1.12l.35-.34v-.13A6.48,6.48,0,0,0,173.45,20.2Zm.76,28.5c-.25,0-.89-.13-1.2.41a6.62,6.62,0,0,0,.65.45l.14-.11a5.6,5.6,0,0,0,.41-.54Zm6.66-10.94-.65-9.57.79-.78-.86.07a10.6,10.6,0,0,1-.61-5,1.63,1.63,0,0,0-1.95-.79,2.66,2.66,0,0,0-1.13,2.67c-2.37,2.23.45,7.44-3,8.34l-.06.14c0,.61,1.4.72,1.53,1-1.45,2.18,1.69,5.39-1.47,6.49l.35.34c1-1.13,4.1-.63,5.33-.75.2.07.34.32.41.75v-.34c1.07-1.08,1.6-1.37,1.6-2.08C181.14,38.16,181,37.76,180.87,37.76Zm-5-19.61c-.79,1.1-.91,1.72-1.67,1,.27-.82,1.92-.77,2.25-1.19C176.24,17.94,176.14,17.79,175.88,18.15Zm-1.3-4.79.75.75c.55-.78,2.48.31,2.67-1.13C178.11,12.94,175.45,12.65,174.58,13.36Zm.34,33.09-.34.78.34-.41Zm0-37.29.41.41.79-.76C175.76,8.85,175.26,8.68,174.92,9.16Zm3.11,36c-1.1-.69-1.81-1.79-2.7-1.79a.64.64,0,0,0,0,1.2,1.06,1.06,0,0,1,.79-.28c1.38,0,2,3,3,1A1.29,1.29,0,0,1,178,45.16ZM176.46,5.7h-.78l.78.45Zm.41,10,.72.79c.15-.06,0,.17.75-.41C177.86,15.5,177.08,14.82,176.87,15.65ZM178,9.57l-.41.34c.59.55.65.41.75.44l.07-.13C178.41,10.12,178.27,9.91,178,9.57Zm-.41,9.53.75,1.1.41-.41ZM178,41.9v.38l.34-.38Zm2.22-25.46-.13-.07c-.1,0-.28.13-.55.41l.34.34c.27-.27.41-.48.41-.62Zm4.21,27.72c-.73-1.21-2.66-1-3.76-.35l.34.35c1.38-.87,2.11.19,3.42.41Zm-3-21.3H181l.41.34ZM181,48.36v.34l.41-.34Zm.41-18v.13c.29,0,.85.15,1.13-.41A.59.59,0,0,0,181.42,30.35Zm1.47,1.6-.07.11c-.11,0-.32-.15-.62-.45l-.44.34c.3.56,1,.43,1.13.45Zm0-14c-.13,0-.12-.16-.69.41l.35.34A2.09,2.09,0,0,0,183,18Zm-.38,22.42c.29.83,1,1,2.7,1.57C185.05,41.44,184,40.83,182.51,40.33Zm.58-16.13h-.54v.58h.54Zm-.54,13.87c1.25.21,2.29,1.28,3.41.41C185.83,38.46,183.68,37.13,182.55,38.07Zm.78-3.79-.44.34.44.44.34-.44ZM186,47.57l.79.79a2.31,2.31,0,0,0,.41-.65C187.16,47,186.11,47,186,47.57Zm2.33-13.29-.41.34.41.44.34-.44Z"/><path class="cls-1" d="M241.68,4.78c-.63,8.16-1.34,10.8-.52,15.59-.86.4-1.08,1.42.55,2l-.14,29a3.58,3.58,0,0,0-.34,2.15c.73,4.79-3.09,3.54-5.93,3.83a5.36,5.36,0,0,0-.6.1c-1.5-.88-3.12.55-4.23-1.57,1.31-6.13-1.05-11.14.41-16.78.54.06.07-.05.75.37l.78-.78c-.11-.94-1-1.2-2-1.13L232,36c-.18-.05-1.35.38-1.47-1.54S229.14,33,229,33c-.76.58-2.29,3-3.07,3.52.67.51.52.28.78.34l.34-.34c-.51,1.54-.6,3.23-1.53,4.17a5.26,5.26,0,0,1,.23,1.06,13.11,13.11,0,0,1-.32,2,12.14,12.14,0,0,0-.32,2c0,.48.13,1,.13,1.51a4.88,4.88,0,0,1-1.26,3.31c1.27,3.33-2.58,8.3-4.65,6.74-.34-.26-.68-.56-1-.86a.61.61,0,0,0-.58-.19.15.15,0,0,0-.12.12c-1.74-6.55-2.16-10.66-3.18-17.29h.14a6,6,0,0,1,1-.75c-.54-.4-1.09-.79-1-.79h-.14L214,38a7.18,7.18,0,0,0-3-5.78,8.5,8.5,0,0,0-1.88-.07c-.79,0-1.19.32-1.19,1,0-.16.66.86.75,1l1.91,0a11.53,11.53,0,0,0-.37,3.11c-.19,0-.16.18-.75-.41-.53.7-.79,1-.79.95V38l.79.69.23-.28.11,8.34a8.66,8.66,0,0,1,.41,3.42H210c.18,0-.8.65-1,.75,2.16.67.7,3.19,1.16,5L209,57.11c-1.82-.36-2.74.09-5.3.29a7.34,7.34,0,0,1-3.68-.46c-.93-.55-.95-1.4-.7-2.44a2,2,0,0,0-.27-2c.74-.25.34-1-.21-1.51l.62-11.89.2-.62c0-12.36-.68-14.47.35-15.58l-1-19a3.31,3.31,0,0,1,1.43-1.82,5.84,5.84,0,0,1,3.32-.58l3.32.07c1,.1,1.31.08,2.63.28a12,12,0,0,0,2.8.13c1.94,1.66,1.86,4.22,2.94,8.41h-.14c.07,0-.26-.26-1-.79l-.34.41c3.88,2.06,1.7,7.3,3.79,10a9,9,0,0,0-.06,1.85,1.15,1.15,0,0,0,.82,1.16h.2c-.24.12-1.21.15-1.33-.34a.5.5,0,0,0-.41.54.51.51,0,0,0,.41.58,1.49,1.49,0,0,0,.51.67c.8.61,2,.51,2.5.87l1.19-1.12-.75-.72c.08-.85,1.91-1.18,2.29-2-2.2-1.65.76-3,0-5.3h.38c.59.09,1.53-.3,1.53-1,0-.07-.14-.25-.44-.55h-.75a4.24,4.24,0,0,0,.41-1.91c.31.32,1.21-.45,1.57-.75-1.84-2.6-.13-5.93,1.09-9.2a4.77,4.77,0,0,1,1.66-.87c2.53-.75,5.08.26,7.47-.29,2.79.54,5.4.32,5.5,3.15Zm-40.1,16.13H201v.55h.54Zm.24,6.29H201l.78.45Zm.69-9.16-.34-.34.34.75Zm.2,15.9h-.54v.54h.54Zm1.75-20.85-.41.75c.77.48,1.15.72,1.12.72a.41.41,0,0,0,.41-.31Zm0,25.6-.07.13c0,.46,1.05.53,1.19-.13Zm.78-21.78h-.14s-.23.12-.64.35l.37.44C205.45,16.88,205.18,17.1,205.24,16.91Zm3,3.87c-1.43.25-2.24.59-3,0l-.41.34c.49,1.13,1.78.69,2.63.79.1-.11.86-.72.86-1Zm-2.87,22.73h-.55v.58h.55Zm.2-32.75-.34.41a3,3,0,0,1,.38.33c.07.08.12.12.17.12l.2-.11C206,11.41,206.11,11.42,205.58,10.76ZM206,33l-.41.78.41-.37Zm1.92-6.09-.45-.34c-.31-.12-.42-.17-1.47.68l.31.14c.64,0,2-.78,2.36-.48.79-.05,1.51.17,1.91-.34C210.34,26,208.78,25.59,207.91,26.86Zm-1.54,2.67a1.47,1.47,0,0,0,1.54.82l.34-.07a4,4,0,0,0,.41-.55C208.66,28.44,206.81,28.41,206.37,29.53ZM206.92,42h-.55v.58h.55Zm0,3.07h-.55v.59h.55Zm.2-6.35.34.41c.11,0,.23.15.79-.41C208.18,38.46,207.25,38.24,207.12,38.69Zm.34-24.07.45.41.34-.41Zm1.2,1.88-.75.76.34.44c.16-.06,0,.19.79-.44l.06-.07A1.92,1.92,0,0,0,208.66,16.5Zm5,8c-1.87.62-3.87-1.28-4.48-1.1H209c.75.91,2.52,1,2.7,2.29.26-.06,1.79.26,2.25-.75Zm-3.86,6.18-.75.76.41.34.75-.75ZM211,9.63c-.64,0-1-.11-1.19-.34l-.34.34c.15.61.87.35,1.53.41Zm-1.19,1.88-.34.45.34.34.41-.34Zm0,2h-.34l.34.34ZM211.65,18l-1.08.41,1.17,1.13.17.07a2.26,2.26,0,0,0,.61-.41C212.8,18.12,212.27,17.83,211.65,18Zm.87,10.7c-2.39,1.24.77,2.63,1.47,1.54Zm.62-6.49a.6.6,0,0,0-.69.68l.07.07h1.13C213.61,22.82,213.84,22.25,213.14,22.25Zm.07-5.34v.35l.44-.35Zm.23,2.67h-.23l.44.79L214,20A4,4,0,0,0,213.44,19.58Zm4.82,6.94c-1.26-2.46-2.91-.56-4.61.68l.34.45c.13,0,.9.1,1.2-.45.89,0,2-1.41,3.07-.34ZM214,32.47v.13a1.88,1.88,0,0,0,.62.41l.13-.06c.3-.28.45-.46.45-.55C215.19,31.55,214,31.65,214,32.47Zm.75-10.74v.18a2.46,2.46,0,0,0,.65.41l.14-.07C216.75,21,214.74,20.69,214.74,21.73Zm.65,1.47h-.65v.58h.65Zm-.65,7.52.79.76c.85.28,1.53-.49,2.32-.76C217.63,30.15,215.81,29.77,214.74,30.72Zm1.2-11.48-.75.75.34.38c.13-.06-.14.2.79-.38l.06-.14A2.74,2.74,0,0,0,215.94,19.24Zm-.75,15.62c.73,1.69,2.53,2.6,3.45,1.2Zm.75,4.61-.41.41.41.35.38-.35Zm.38-2.25-.38.78c.18.47,1,.32,1.13.35v-.14C217.07,37.84,216.42,37.22,216.32,37.22Zm4.61,3.45a4.33,4.33,0,0,0-2.67-2.32l1.47,1.12-.34.41c.62.56,1.07,1,1.54.76Zm-1.2-13.81-.78.79.44.34c.43,0,.82.17,1.1-.34Zm-.34,10.36.34.34c.58-.15,2.06.39,3.08-1.09C221.94,36.12,220.48,36.78,219.39,37.22Zm.55,5.53h-.55v.55h.55Zm.85-14c-.23,0-.58.26-1.06.79.29.57.86.36,1.2.41a2.09,2.09,0,0,0,.41-.62C221.34,28.93,221.16,28.74,220.79,28.74Zm-1.06,3.52.76.69c.26-.54,1.56-.72,2-1.13C222.4,31.5,220.32,32.26,219.73,32.26Zm.76,11.83.44.34c.3.12.45.18,1.54-.79A8.33,8.33,0,0,0,220.49,44.09Zm.78-17.23c.16,0,.44.7,1.2.79a6.13,6.13,0,0,0,.34-.65C222.81,26.31,221.57,26.26,221.27,26.86Zm1.2,11.83a.72.72,0,0,0-.45.65c0,.69,1.6.87,2.33-.24C224.05,38.5,223.2,38.74,222.47,38.69ZM222,46.38l.45.37c.48-.08,1.24-.31,1.13-.78C223.6,46,222.23,45.77,222,46.38Zm3.11-22.6a1,1,0,0,1-1.06.76c-1,0-1.53.26-1.6.78l.75.75c.28-.06.68.31,1.4-.68a4.36,4.36,0,0,1,.86-1.19Zm-1.91-4.2,1.13.79c.64-.72,2.48-.09,2.66-1.13C227.13,19.19,224,19,223.22,19.58Zm1.13,11.49.78,1.53-1.5.76c1.87.46,4.1,1,4.92-.76C228.35,31.67,225.71,32.43,224.35,31.07Zm.34,12.57-.34.45.34.34.44-.34Zm0-14.11.44.41a7.43,7.43,0,0,0,1.1-2A2,2,0,0,0,224.69,29.53Zm1.2,8.47-1.2-.44,1.2.79Zm-.21-21.29h-.55v.55h.55Zm.48,4.75a.62.62,0,0,0-.27,1.2c.62-.06,1.23.19,1.53-.41A3,3,0,0,0,226.16,21.46Zm-.27-5.3,1.12.75a4.06,4.06,0,0,0,.41-.54C227.42,15.51,226.17,15.54,225.89,16.16Zm0,9.57.78.79c.15,0,.83.12,1.1-.45C227.7,26.05,226.39,24.73,225.89,25.73Zm1.53,1.92-.1.34c0,.78,1.71,1.31,2,2,1.08.43,1.2-1.3,1.92-1.54C231.1,28.35,228.38,29.33,227.42,27.65Zm.72-4.72.07.07c.74.68.51.36.75.44a5.16,5.16,0,0,0,.34-.65C229.3,22,228.14,22.07,228.14,22.93Zm.82,3.59-.41.34.41.34.34-.34Zm.34-16.89c.45.54.66.71,1.7-.56.1-.12.17-.19.22-.19Zm.79,8.41-.41.41.41.34.34-.34Zm.21,3.08a.93.93,0,0,0-.62.34c.55,0,1.41,1.2,1.74,1.2.16,0,.34-.14.55-.41C231.48,22.35,230.66,21.12,230.3,21.12Zm1.19,2.66c-.16,0-.51.26-1.06.76.28.61.9.4,1.2.44a2.31,2.31,0,0,0,.41-.65A.49.49,0,0,0,231.49,23.78Zm-1.06,7.29.45.41c.62-.07,1.13.19,1.53-.41C232.3,30.93,230.81,30.56,230.43,31.07Zm.45-4.21.34.34c.29-.29,2-.32,2.29-1.13C232.63,25.2,231.65,27,230.88,26.86Zm.75-13.77a.61.61,0,0,0,0,1.16l.41-.48A1.71,1.71,0,0,0,231.63,13.09Zm-.41,31c.82.33,2.34.83,3.07.34C234.18,44.43,232.35,43,231.22,44.09Zm.75-3.45-.34.37.34.41.44-.41Zm2-22.19-.78.79.34.34C234.13,19.44,233.91,18.75,234,18.45ZM233.71,47h-.54v.55h.54Zm-.2-37.33a4.61,4.61,0,0,0,1.54-.75A5.28,5.28,0,0,0,233.51,9.63Zm.44,23V33l.34-.35Zm.34,3.42-.34.45.34.34.41-.34Zm.55-2.08h-.55v.54h.55ZM236.17,18c-.61-.61-1.26-1.23-1.47-.34.32.3,1.14,1.09,1.47.75ZM234.7,30.28l.35.44c.14,0,.14.16.78-.44C235.7,30,234.82,29.8,234.7,30.28Zm.72-7.28c-.51.28-.57,1.2.21,1.2a5,5,0,0,0,.54-.42ZM237,40.64l-.38.37.38.41.41-.41Zm.62-20.85H237v.58h.62Zm0,17.56H237V38h.62ZM237.37,10c.55-1.47,2.27-.36,3.08-1.16C240.17,8.59,238.76,8.82,237.37,10Zm3.21,24.31H240v.54h.54Z"/><path class="cls-1" d="M279,43.44c-.53,7-4.27,10.8-7.07,11.48-4,4-12.57,2.86-17.76.86-7.32-2.82-10.39-15-6.85-16.55,2,.51,7.31-1.23,9.77,1.41.22,4.37,4.17,6.87,5.06,6.87s1.88-1,3.08-.07a1.68,1.68,0,0,0,.68-1.81c.29-.08.56.28,1.54-.79-1.41-1-.38-2-.38-3.45.06-2.22-6.41-6.79-8.2-8.1.32-1.29.18-2.19-2.09-2.5-5.53-3.9-10.45-9.2-9.91-15.93C246.71,7,251.55,1.53,262.7,1.74c6.84-.12,12.91,2.18,14.46,8.82.55,2.08,1.07,2.7,1.12,4.17-.09,4.6-6.36,3.29-10.8,2.08l-.78-2.9.34.34.78-.82a18.65,18.65,0,0,0-5.94-2.57,5.94,5.94,0,0,0-2.26,1.92c-2.09-.46-3.13-3.34-4.48-1.09.92.61,4.78,1.88,3.35,3.31.2,2.64,2.89,3.83,5.61,7.45l-.34.41.68.72c.2-.55.89-.32,1.5-.38l7.83,6.74c2,.75,1.58,3.63,3.66,4.82a14.31,14.31,0,0,1,1.23,7.07,4.62,4.62,0,0,1,.27,1.68Zm-27.41-25.6H251v.54h.58Zm1-6.6c.14.61,1.35.59,1.81,0Zm1.67,35.27h-.55v.59h.55Zm.58-27-.44.69.44-.35Zm1.68,29.94h-.58V50h.58Zm1.26,2.46-.37.35.37.44.41-.44Zm.41-29h-.41l.41.34Zm1.13,4.07-1.13,1.13,1.47-1.13Zm-.21-6.49h-.58V21h.58Zm2.57,4.1h-.55v.58h.55Zm2.25-19.38h-.54V5.7h.54Zm.21,46.75.72.79.41-.44C264.89,51.77,264.41,52,264.1,51.91ZM265,27.48h-.58v.58H265Zm1.68,23.31-.35.37.35.41.34-.41ZM267,34.41l.41.35c.61,0,1.32.16,1.47-.35C268.71,34.14,267.41,33.91,267,34.41Zm2.66,10.43a.91.91,0,0,0-1.53,0,.64.64,0,0,0,.61.44c.66,0,1,0,.92-.06Zm-.54-3.9h-.58v.55h.58Zm.54-8.06-.41-.35.41.76Zm.14,18.83h-.55v.55h.55Zm5.47-6.87c-.68,0-1.06-.11-1.13-.34l-.41.34a.65.65,0,0,0,.62.44c.66,0,1,0,.92-.06Z"/><path class="cls-1" d="M315.78,42.11c-.12,10.25-2.66,12.86-9.33,14.62-.31-.46-1.39,0-1.92.18l-12.3-.11c-.36.24-2.84.21-5,.31-1.1,1.1-2.39-.38-3.42-.38-1.25-1-.15-2.28-.38-3.57q0-.18.21.09l-.24-46.76c-.87-1.48.22-2.76.41-4.2l1.5-.86,14.94.45.45.41A2.63,2.63,0,0,1,302.07,2c-.23,0,.85.14,3.63.62,3.73.69,6.08,2.57,7.28,4.75,1.37,2.17,1.44,6.09,1.5,8.68.08,4.2-.83,8.26-3.86,11.14-.24.65-.38,1.06.8,1.83a7.45,7.45,0,0,0,.75.43l.46.2c2.19,3.6,3,8.15,3.11,12.38ZM287.68,23h-.44l.44.37ZM289,9.77h-.59v.58H289Zm-.59,17.09.38.34c.9-.05,1.79.16,2.29-.34A2.56,2.56,0,0,0,288.43,26.86Zm.38-6.66v.06c.33,0,.83.14,1.16-.34A.61.61,0,0,0,288.81,20.2Zm.75,23.89-.34.41.34.34.41-.34Zm.79-11.49-.79.76.41.37c.35,0,.84.16,1.13-.37Zm.2,4.41H290v.55h.58Zm.55,3.22c-.14,0-.94-.16-1.13.41a7.08,7.08,0,0,0,.58.44l.21-.07a6.13,6.13,0,0,0,.34-.65Zm-.55,12.47H290v.62h.58Zm.21-40.81.34.34c.28,0,1,.12,1.13-.34C292.16,11.59,290.91,11.25,290.76,11.89Zm.34,6.9c.87.69,1.06.92,1.54.72C293.92,18.23,291.58,18,291.1,18.79Zm.34,10.33.45.41c.15-.05,0,.17.75-.41C292.5,28.87,291.68,28.68,291.44,29.12Zm.45,18,.34.35.2.06a3.18,3.18,0,0,0,.55-.41A.57.57,0,0,0,291.89,47.16Zm.48-24.23-.14.07.41.78.34-.41C292.66,23.08,292.46,22.93,292.37,22.93Zm-.14,11.55c.63,0,1.39.16,1.54-.34C293.7,33.87,292.84,33.88,292.23,34.48Zm11.11,8.79c1.25-1.4.78-2.77.78-5.33l.41.41.38-.41-.38-.38-.41.34c-1.3-2.13-2.65-4.74-4.95-4.95l.41-.35c-.71-.57-.65-.36-.79-.41l.38,1.17c-1,0-2.39,1.75-3.08,0l-.38.37c1,1.24.73,1.24.83,1.54-1.89,1.88.91,7.91-3.56,7.69l.44.34c.91-1,2.07-1.54,2.67-.34,0,1.19-1.63,1.62-1.91,2.32,2,.18,2.48,2.77,3.86,3.42h.27c2.65.11,3.87-2.89,5.47-4.61l1.13.41v-.21C305,43.78,303.6,43.78,303.34,43.27Zm-9.92,8.1L293,51l.44.75Zm.35-19.18.41.41c.2-.07-.09.21.78-.41C294.83,31.94,294,31.72,293.77,32.19Zm9.67-13.53c-.26-2.72-1.13-6.24-3.52-7.56.91-1.2,1.65.75,2.67.35l.06-.14a2,2,0,0,0-.41-.62c-1.1,0-2.89-1.24-4.17,0-2.25.85-2,3.88-3.52,5,.87.07,1.26.83,1.16,2.29a2.21,2.21,0,0,1-1.57,2.67c1.23,0,2.13.86,2.7,2.66l-1.88.76-.07.2c0,.09.14.29.41.58.69.35,2-.67,2.33-.78l.37,0c3,.1,4.41-2.63,5.78-5.37Zm-8.92,7h-.34l.34.41ZM295,5l.34.41c.32,0,.92.15,1.2-.41C296.36,4.68,295.25,4.37,295,5Zm1.54,23.79c-.27-.55-.95-.38-1.2-.41l1.2,1.2Zm.75,3.08-1.16-.75,1.16,1.12Zm-.07-2,.07.07c.83.62.6.35.79.41a4.65,4.65,0,0,0,.34-.62C298.38,28.84,297.18,29,297.18,29.8Zm3.08,1.13v.14c1.08,1,1.11.25,2-.91a.62.62,0,0,1,.36-.29C302.13,30.32,300.26,29.77,300.26,30.93Zm1-5.81h-.54v.54h.54Zm1-.21c-.26.08,0-.22-.78.41l.34.34C302.42,25,302.2,25.05,302.24,24.91ZM303,49c-.25,0-.89-.13-1.2.41a2.19,2.19,0,0,0,.65.45l.14-.07C303.2,49,302.93,49.23,303,49Zm.78-16.44h-.65c-.66,0-1,.21-.89.62v.14c.26.48.95.35,1.1.37C303.94,33.45,303.75,32.84,303.78,32.6Zm-1-25.9h-.55v.58h.55Zm2.53,5.94c-.95.07-1.36-.18-2,.34.36.67,1,.39,1.57.45C305.48,12.72,305.28,12.78,305.32,12.64Zm-.79-4.2-.2-.07a2.38,2.38,0,0,0-.55.44l.34.41C304.64,8.58,304.5,8.54,304.53,8.44Zm.38-3.08h-.79l.79.34Zm.2,19.31h-.58v.65h.58Zm-.58,2.19.38.34c.86-.05,1.43.18,1.95-.34C306.72,26.68,305,26.2,304.53,26.86Zm1.34,4.41h-.55v.55h.55Zm-.21-15.18.41.41c.15,0,.08.16.79-.41C306.72,15.8,306,15.42,305.66,16.09Zm1.54,21.85a.61.61,0,0,0-1.13,0c.13.52.95.38,1.13.41Zm0,7.34c-.14,0-.09.18-.75-.44l-.38.44c.07.23.33.35.79.35h.34ZM307,9h-.54v.55H307Zm-.54,16.3.41.34H307a4.65,4.65,0,0,0,.62-.34A.61.61,0,0,0,306.45,25.32Zm6.49,12.62h-1.13l1.13.41Z"/><path class="cls-1" d="M352.52,11.34l-.14,25.54c-.65,2,.54,2.86-.34,4.88l.41.31c-1.34,7.54-1.13,6.78-1.33,7.16-1.29,2.41-2.93,5.09-5.88,6.1-2.45,2.12-5.81,1.7-9.3,2.19-5.48-1.17-10.81.52-14.15-8.41-.83-3.73-1.82-32.62-.88-34.31-1.06-2.71.37-6.08-1.17-8.65.43-1.24.54-1.68,1.1-3.49.93-1.44,5.71-1.11,8-.65.76-.76,1.68,0,2.6,0a2.54,2.54,0,0,1,1.09,2.67l-.34.37c1.28,4.27-.82,8,.34,11.93-1,2.8.8,5.56-.34,7.93,1.14,1.42-.57,2.62.34,4.1-.23,1.58.37,3.05-.34,4.52,1.16,1.44-.64,2.71.34,4.47-1.07,1.39.86,2.5-.34,3.8.62,1.75,1.31,3.76,3,4.44,1-1,3.33,2.95,4.13,0-.13-.29-.51-.41-1.12-.34.27-.46,2-.3,2.25-1.13-1.55-1.16,1.06-3.34-.37-4.89,1.43-2.08-2-5.39,1.84-5.6a1.55,1.55,0,0,1-1.4-1.33,8.36,8.36,0,0,0-.41-2,17.2,17.2,0,0,1,.31-5.71,15.43,15.43,0,0,1-.34-5.26c1.14-1.35-.82-2.48.37-4.13a.77.77,0,0,1-.44-.76c0-.79,0-1.17.07-1.12l.71-.69-.71-.78.34-9.71c3.34-1.78,8-1.43,11.65-.51C352.91,8,351.94,10.19,352.52,11.34Zm-29.39,18.8h-.34l.34.34Zm1.33-12.58h-.58v.55h.58Zm.21,9.23-.35.34c.28.28.46.41.55.41l.14-.06.07-.07C325.08,27.27,324.94,27.07,324.67,26.79Zm-.35,7.08c.6.3,1.37,1.26,2.23.41C326.34,34,325.19,33.93,324.32,33.87Zm1.47,6-.37.41.37.35.34-.35Zm.89,6.57h-.55V47h.55Zm.79-27.35h-.58v.55h.58Zm.2,17.06-.13-.07a2.27,2.27,0,0,0-.65.44l.37.35C327.84,36.3,327.63,36.29,327.67,36.16ZM328,26h-.75l.75.37Zm.79,14.63h-.14c-.76,0-.62.68-.65.78h.35C329,40.7,328.74,40.83,328.8,40.64Zm.55,8.4h-.55v.58h.55Zm.2-37.66L331,12.85l.38-.34Zm.93,37.32h-.55v.55h.55Zm-.21,3.21-.34.35.34.37.41-.37Zm.41-29.25h-.41l.41.34Zm-.41,5.26h.41l1.13-1.13Zm.89,2.94c-.63,0-.79.82-.14,1.2l.79-.79A1.85,1.85,0,0,0,331.16,30.86Zm.44,9.23H331v.55h.58Zm2.81,6.6L334,47a5.5,5.5,0,0,0,.58.41l.21-.07C334.78,47.27,334.92,47.2,334.41,46.69ZM337,51.91l.72.72.41-.37C337.83,51.59,337.14,51.92,337,51.91Zm2.39-1.19-.14.07.35.71.41-.34C339.73,50.87,339.52,50.72,339.43,50.72ZM341.55,17l-.38.41c.65.55.57.33.72.38l.07-.14A1.85,1.85,0,0,0,341.55,17Zm.2,23.89h-.58v.55h.58Zm-.58,3.9.38.38c.18,0,.77.12,1.09-.38C342.51,44.5,341.36,44.22,341.17,44.77Zm.72-12.71-.34.68a4,4,0,0,0,.55.41h.2C342.28,33,342.42,32.19,341.89,32.06Zm.55,19.65h-.55v.55h.55ZM344.11,11l.45.34c.14-.06-.08.18.75-.34C345.17,10.76,344.35,10.56,344.11,11Zm1.54,25.84c-.15,0,0-.18-.75.41l.41.34a3.58,3.58,0,0,0,.34-.55ZM346,25.25l-.38.41L346,26l.41-.35Zm.54,13.3H346v.55h.54Zm1.68,6.22c-.4,0-1.36,0-1.47-.41l-.34.41a.74.74,0,0,0,.75.45c.75,0,1.1,0,1.06-.07Zm-.92-3.9h-.55v.55h.55Zm3-22.55h-.58v.58h.58Z"/><path class="cls-1" d="M388.51,57.42c-2.94-.32-3.76-.79-5.26,0l-.41-.34c-.91.91-2.18-.31-3-.48-2.29-2.24-2-8.45-2.07-10.37-.1-4.61,1.18-9.85-4.57-11.84-1.41.83-3.14-.3-4.2.34,3.5,1.22-.21,4.7,1.57,6.59-2.31,1.51,1.4,2.81-.37,4.58.78,5,.27,7.2.34,10-1.46,3-5.15,1.06-7.49,1.06a25.93,25.93,0,0,1-2.56.54c-2,.11-3.81-2.55-2.6-5.47L357,51.4l1.23-31.68a.84.84,0,0,1-.41-.82c0-.8,0-1.15.07-1.06l.21-.07a2.22,2.22,0,0,1,.48.41,5.28,5.28,0,0,1,.85-.92c0-.41-.16-.62-.48-.62-.5,0-.65.43-1.23.31l-.14-13.43c2.81-3.61,10.15-1.11,14.21-1.47,1.93-.18,7.09-.92,11.48.61C387,4,388,6.44,388.87,9.67c2.28,8.36,1.57,11.63-.22,16.2-.66,1.6-3,2.44-2.91,4-.33,1.81,4.75,5.51,3.25,9.09,1.73,2.6.34,7.22.92,10.17A48.35,48.35,0,0,1,391,54.58C391,56.33,390.27,57.32,388.51,57.42ZM360.14,25.53l.45.34h.13a4.65,4.65,0,0,0,.62-.34A.64.64,0,0,0,360.14,25.53Zm.79,12.23.41.45c.86-.07,1.55.22,1.91-.45A1.84,1.84,0,0,0,360.93,37.76Zm.41,2.33h-.41l.41.41Zm.21,5.19h-.62v.62h.62Zm.13-14.42.45.41c.62-.06,1.38.19,1.53-.41A1.58,1.58,0,0,0,361.68,30.86Zm.45-2.67.75.76.37-.41C363,28.06,362.44,28.23,362.13,28.19Zm.75,19.59h-.41l.41.38ZM363.46,15h-.58v.54h.58Zm0,26.86h-.58v.58h.58Zm-.21,8.27h-.37l.37.35Zm.41-15.75,1.54,1.12.34-.34C365.28,34.61,364,34.64,363.66,34.35Zm1.13-7.69H364l.78.34Zm-.37-3.87.37.41c.16-.05,0,.18.75-.41C365.48,22.52,364.55,22.26,364.42,22.79Zm.37,9.61v.41l.41-.41Zm.41-18.83V14l.34-.41Zm1.13,3.82-.79.79.41.41c.15-.05.08.16.79-.41C366.67,18,367,18.27,366.33,17.39Zm.41,22-1.2.75.41.41c0-.07.18-.23.52-.48A.71.71,0,0,0,366.74,39.34ZM366,20.5c.35-.52,2-.25,2.33-.78C368.05,19.49,366.35,19.18,366,20.5Zm.79,26v.18c.61.87,1.15-.2,1.88-.45C368.23,45.73,366.59,45.54,366.74,46.51Zm0-18.32.34.35.79-.76C367.68,27.81,366.87,27.67,366.74,28.19Zm.34,8.82a.7.7,0,0,0,0,1.2l1.2-1.2Zm4.65-7.76a6.28,6.28,0,0,1-4.24,2.36c1.62.66,3.64-1.28,4.65-1.54C372.07,29.86,372.34,30.17,371.73,29.25ZM367.87,7l.41.37c-.26.11.26.07,1.06.07a.82.82,0,0,0,.82-.44A1.78,1.78,0,0,0,367.87,7Zm1.33,8.68h-.58v.58h.58ZM369,24.33a.92.92,0,0,0,0,1.54l.38-.34C369.38,25,369.58,24.57,369,24.33Zm.38,4.62-.38.37.38.41.41-.41Zm.2,8.27H369v.54h.58ZM379,22c-.42.05,0-.05-.76.31a40.67,40.67,0,0,0-.27-7.18c-.71-4.23-6.28-5.19-8.13-1.6,1,5.22-.92,12.76,3.67,11.43,2.22-.65,3.33-1.29,4.39-.22l.41-.45-1.19-.75c-.2-.5.14-.87.78-1.54L379,23.2c.18,0,.2.17.78-.41Zm-8.82,4.27c0,.24-.16,1.1.65,1.1h.13a1.88,1.88,0,0,0,.41-.62C371.35,26,370.26,26.32,370.16,26.31Zm2,6.84.75.75a10.59,10.59,0,0,0,2.33-1.5S373,32.18,372.14,33.15Zm.34-5.37.41.41c1.11-.73,3.13.87,4.21-.78C377,27.13,374.42,27.34,372.48,27.78Zm.41,2.7.79.79.34-.41C373.83,30.34,373.18,30.52,372.89,30.48Zm.93-21.67h-.59v.55h.59Zm2.93-.24h-.44l.44.38Zm.76,20.75c.78.32,1.54-.66,1.91-.78C379.31,28.42,377.62,28.09,377.51,29.32Zm1.33,3.28h-.55v.55h.55Zm-.55,5.95.34.41c.21-.07-.08.2.79-.41C379.35,38.28,378.44,38,378.29,38.55Zm1.47-3.86a1.08,1.08,0,0,0-.65-.41l-.13.07.78.78Zm0-6.91c.76,1,1.48-.17,2.29-.37C381.85,27.13,380.15,26.79,379.76,27.78Zm.75-6.87-.34.35.34.41.45-.41Zm.79-3.86-.34.34c.1.11.59.86,1,.86l.13-.07.07-.07C382.12,17.7,381.4,17.05,381.3,17.05Zm0,13.81-.34.41.34.34.41-.34Zm.75,3.49-.07-.07a1.58,1.58,0,0,0-.68.41l.41.44a2.31,2.31,0,0,0,.41-.65Zm0-25h-.34l.34.79ZM385,13h-.61v.59H385Z"/><path class="cls-1" d="M427.44,53.35a3.26,3.26,0,0,1-2.87,3.49c-3.55,0-7.5-4.44-10,0a15.68,15.68,0,0,1-5.27.62c-6.75.19-10.27-2.63-11.89-8.07-1.69-3.32-1.94-11.45-2-15.17.1-10.69-.47-13.45-.24-13.33q0-1.17.75-1.47C394.1,4.82,406.65-2.19,418.39,3.17c2.26-.17,4.58,2.5,6.11,4.35a44.37,44.37,0,0,1,1.82,6.25c1.52,1.27-.37,2.81.68,4.48l-1.74,1.47-9.75-.34a3.38,3.38,0,0,1-.68-2.94l.68-.79c-1.77-.44-2.25-3.8-4.4-2.94L410,11.62a1.67,1.67,0,0,0-.75,1.88c-2.44,2.43-1.72,5.63-1.85,6.22,1.21.9-.71,1.89.35,2.94l-.35.41c1.18,1.08-.74,1.51.35,2.59-2,1.42,1.26,2.81-.35,4.41,1.19.89-.69,1.57.38,2.64-.33,1.86-.37,8.75-.38,8.85-.62.06-.23-.13-1.12.17,1.64,3,4,5.51,7.41,6.12l.79-.75L413,46c1.87-1,2.29-2.91,2.29-5a2.2,2.2,0,0,0-.07-.58c1.26,0,1.7.77,2.26-.34a1.75,1.75,0,0,0-1.95-.68L412.58,36l.78-.75-.78-.72-.35.34c-1.48-1.48-.22-3-.75-5.16l.41-.34c-.92-.46,0-1,0-1.54l1.68-1.06,10.49.34a1.7,1.7,0,0,1,2.26,0l.88,2.56c-.15,3.36-.58,13.28-.51,13.13q-.24.16.75,10.52ZM396.72,31.54l.34.41c.35-.05.74.18,1.13-.41C398,31.27,396.84,31,396.72,31.54Zm.68-7,.41.71.38-.34C397.32,24.36,397.58,24.59,397.4,24.54Zm.92,16.1h-.51v.58h.51Zm-.13,2.8-.38.37.38.35.34-.35Zm2.35-26.87H400v.55h.54Zm.59-4.27-.38.41.38.38.34-.38Zm0,21.12h-.38l.38.38Zm2.56,5.92c-1-.65-3.07-.77-2.56.75.4.54,1.37.41,2.39.41.23,0,.28,0,.17-.07Zm-2.22-25.16-.34.72,1.46-.72Zm-.34,35.58c.59-.86,2.76.06,2.93-1.13A12.79,12.79,0,0,0,401.13,49.76ZM403,30.86c-.39-.27-1,.28-1.53.68h1.12C403.11,31,403,31,403,30.86Zm-.2-9.81h-.58v.55h.58Zm2.36,3.86c-.14,0-.05-.14-.69.34h.69ZM405,31h-.55v.54H405Zm-.2-2.4,1.47,1.47.34-.34C406.35,29.09,405.09,29,404.82,28.6Zm.34,14.09-.34.34.34.41.44-.41Zm.44-22.63-.44.44a6.48,6.48,0,0,0,.65.35h.13v-.14A6.13,6.13,0,0,0,405.6,20.06Zm.69,15.62c-.13,0-.12.16-.69-.41l-.44.75c.92.58.66.32.78.38a2.19,2.19,0,0,0,.41-.65Zm-.35,14.77-.34.34.34.44.35-.44Zm.93-27.25h-.58v.58h.58Zm.2-8.3h-.44l.44.41Zm0,34.08-.44.34c.82.66.6.38.78.44C407.35,49.55,407.59,49.85,407.07,49Zm1.68-41.64h-.58v.55h.58Zm.13,46,.35.79.41-.38C408.86,53.17,409.07,53.45,408.88,53.38Zm1.88-44-.41.34.41.45.35-.45ZM411.11,49l.78.78.34-.44C411.89,48.83,411.35,49,411.11,49Zm1.26-38.29h-.48v.48h.48Zm1.13,21.06H413v.58h.55Zm2,15.76-.68.71.34.41c.26-.08,0,.23.79-.41v-.06C416,48,415.81,47.78,415.51,47.51ZM416,12h-.45l.79.34Zm.55,15.76H416v.54h.55ZM416,45.63l.34.75.34-.34C416.13,45.52,416.06,45.66,416,45.63Zm1.13-2.19.68.72.14.06c.37,0,.89-.78,1-.78A1.19,1.19,0,0,0,417.09,43.44Zm1-3.69.45-.41c-.44-.6-1-.41-1.13,0l1.47,1.53.34-.44Zm.79-2.6-.34.34.34.38.34-.38Zm.55-29.46h-.55v.54h.55Zm0,40h-.55v.58h.55Zm-.21,4.68h-.34l.34.38Zm1.47-13.7-.34.72h.34Zm2.6,5.19-.34.35.34.34.41-.34Zm1.13-3.72c-.19,0-.07-.16-.72.34l.34.44a2.2,2.2,0,0,0,.44-.64Z"/><path class="cls-1" d="M33,81.35C30.46,85.1,31.68,83.7,24,83.64c-3.07,0-5.32-1.75-8.58,2.33.1,2.33-.65,7.15,3.11,9.19,3.32,0,9.11-2.21,10.7,1.88-.17,3.67.14,4-.37,6.15.86.87-.22,1.51-.41,2.29-1.6.93-3.86.74-5.71.53-3.78-.4-5.51-.8-7.32,2.55a3.48,3.48,0,0,1-.17,3.59c.76,13.33,1.21,9.29.62,13.07-.24,1.48-.12,2.35-1.39,2.94-1.76.83-8.74,0-9.14-.08-3-.43-2.18-3.05-1.47-6.05a3.52,3.52,0,0,1,.41-1L3.14,74.79C4.83,71.3,6,72.94,6.55,72.94c.12,0,.27-.13.45-.41,13.82.3,19.13.62,18.29.38,2.46,0,4.7-1.06,6.93.38.16.88,1.43,1.88.38,2.66A8.69,8.69,0,0,1,33,78.48ZM4.23,98.13v.07c.35.36,1.17-.42,1.54-.75C5.44,97.5,4.23,97.23,4.23,98.13Zm1.91-5.67c.59.46.48.9,2-.41C7.6,91.56,6.7,92.05,6.14,92.46Zm1.54,13.36-.37.79.17.07a2.11,2.11,0,0,0,.61-.41Zm-.37,5.82.78.78c.25,0,1,.15,1.13-.41C8.28,111.7,8.12,110.66,7.31,111.64ZM9,89,8.84,89l.38.69.41-.35A2.26,2.26,0,0,0,9,89Zm-.18,29.54.38.41h.21a5.6,5.6,0,0,0,.54-.41A.59.59,0,0,0,8.84,118.51Zm.79-25.26L9.22,94l.75-.75Zm.21,12.44H9.22v.58h.62ZM10,87.09l-.34.41.79.76.34-.41Zm0,16.1-.34.41L10,104l.45-.35Zm.79-4.2-.34.34.34.41.41-.41Zm0-6.53c.86.87,1.58-.23,2.29-.41A1.51,1.51,0,0,0,10.76,92.46Zm.34-6.29.07.14c.76.6.59.35.79.41A2,2,0,0,0,12.3,86C12.3,85.35,11.1,85.37,11.1,86.17ZM12,101.28l-.45.38.45.41.34-.41Zm.34-5.74a.58.58,0,0,0,0,1.12l.41-.34v-.2C12.71,96,12.62,96,12.3,95.54ZM12.3,82,12,82.1c1,1.07,2,1.18,2.22.79A9.39,9.39,0,0,0,12.3,82Zm.54,16.57c-.63,0-.78.88-.13,1.2l.78-.75A5.43,5.43,0,0,0,12.84,98.54Zm2.33,6.74h-.58v.54h.58Zm1-27-.21.06c-.05,0-.1,0-.17-.11a3,3,0,0,0-.38-.33l.76.79Zm-.42,3.07-.34.34.34.41.42-.41Zm-.34,19.52v.41l.34-.41Zm1.13,2.32-1.13.76.34.41c.11-.1.86-.66.86-1ZM16.5,76v.41l.41-.41Zm0,21.84v.41l.41-.41Zm2.74-16.44h-.45l.45.34Zm.37,16.1c.38.2,1.17,1.34,1.92.34A4.51,4.51,0,0,0,19.61,97.45Z"/><path class="cls-1" d="M62.61,128.38a9.25,9.25,0,0,1-1.2-.08c-4.95-.61,2.31-.9-20.64.08-.61-.86-1.3.19-1.81.11-.3,0-1.2-.84-2.87-2.29.84-16.74.17-17.34,1-19.08-.23-4.55-.23-6.46-.38-18C36.52,75.45,35,74.32,38.51,72.6a32,32,0,0,1,5.27.14c4.85.51,5.43-.81,5.43,3.69A2.64,2.64,0,0,0,49.66,78c-.9,6.4-.69,6.91-.52,9.88l-.54.78.54,20.65c-1,1.33.86,2.52-.34,3.42a2.62,2.62,0,0,1,0,2.76c1.1,1.22,2.52,2.38,4.16,2.23,8.51-.33,9.28-1.48,11.85-.07a3.15,3.15,0,0,1,1.52,1.6c-.91,1.82,0,4.87,0,6.16C66.37,126.38,64.82,128.38,62.61,128.38Zm-24.44-24.5a.84.84,0,0,0-.85.41l.44.44c.35-.16,0,.42,1.47-.78C39.49,103.84,39,103.88,38.17,103.88ZM39.64,99l.34.34c.51.2.83,0,1.54-.79A2.48,2.48,0,0,0,39.64,99Zm1.54,13-.41.76.14.06a2,2,0,0,0,.61-.41Zm-.41,6.16.75.75c.19,0,.93.12,1.2-.41C42,118.44,41.57,117,40.77,118.1Zm2.29,6.49h-.34l.34.38Zm.58-25.46h-.58v.61h.58Zm0,9.94h-.58v.62h.58Zm.2-15.48H43.5l.34.41Zm1.75-1.68H45v.55h.62Zm-.21,6.63H45l.41.45Zm.21,18.22H45v.55h.62Zm1.13-11.89h-.59v.61h.59Zm.2,12.44h-.41l.41.38Zm1.4,3.45c-.48,0-.72.21-.72.62l.07.13H48.8C48.75,121.25,49,120.76,48.32,120.76Zm5.47.75-.37.35.37.44.41-.44Zm1.09-3.82v-.59h.65v.59Z"/><path class="cls-1" d="M103.18,127c-1.16,2-4.11,1.37-5.3,1.47-1-1.18-1.93-.68-3.86,0-3,1-3.41-4.19-4.48-7.48a9.76,9.76,0,0,0-6.32.07c-1.72.75-1.82,1.87-2.26,3.55-.95,3.65-1.31,4.18-6.17,3.9-1.09-.06-1.56-.1-2-.1-1.14,0-2.85.94-4.48-2.12,1.19-2.62.27-1,3.76-17.47a26.19,26.19,0,0,0,.14-2.94c2.22-8.42,5.36-30.25,6.12-31.48C80.15,70.76,84.6,74,88,72.6c-.22-.07,2.4-.07,2.63-.07,2.4,0,2.42,1.13,3.42,3.42,0,1.91.93,4.51.37,6.52,1.45,1.54.87,1.44,5.3,27a4.74,4.74,0,0,1,1.2,3.42l-.41.37.65.75c.09,3,1.77,7.48,2.08,12.1Zm-28.47-11-.41.37c.66.53.65.38.75.41l.07-.13A3.46,3.46,0,0,0,74.71,115.91ZM76,94.85H75.5v.55H76ZM77,118.57l.76.79.41-.44C77.81,118.47,77.17,118.6,77,118.57Zm2-7.62-.41.41a2.94,2.94,0,0,0,.62.45l.13-.11v-.13A4.65,4.65,0,0,0,78.91,111Zm.55-3.21h-.55v.55h.55Zm.14-3.59-.35.38.79.75.34-.41Zm.65,11.21H79.6v.55h.65Zm.34-27H80v.59h.55Zm.54,13.16c-.1,0-.78-.3-1.09.38a2.09,2.09,0,0,0,.62.41l.13-.07c.3-.29.45-.48.45-.54Zm.79,6.81c-.37,0-1.26-.29-1.88.78.15.61.87.35,1.54.41C82,109.17,81.9,108.51,81.92,108.29Zm0-25.84c-.32-.64-1-.34-1.13-.35,0,.13-.26.79.86.79l.27-.07Zm-1.13,3.79.34.41c.32,0,.92.15,1.2-.41C82.19,86,81.06,85.71,80.79,86.24Zm0,29.67L81.92,117l.79-.76C82.3,115.73,81.58,116,80.79,115.91Zm.79-24.71a.57.57,0,0,0,0,1.12l.34-.34v-.13A5.16,5.16,0,0,0,81.58,91.2Zm.75,28.5c-.24,0-.88-.13-1.2.41.42.3.63.45.65.45l.14-.11a5.6,5.6,0,0,0,.41-.54ZM89,108.76l-.65-9.57.78-.78-.85.07a10.5,10.5,0,0,1-.62-5,1.63,1.63,0,0,0-2-.79,2.63,2.63,0,0,0-1.12,2.67c-2.22,2.08.3,7.48-3,8.34l-.07.14c0,.61,1.41.73,1.54,1-1.45,2.18,1.68,5.39-1.47,6.49l.34.34c1-1.12,4.07-.62,5.33-.75.21.07.34.32.41.75v-.34c1.06-1.06,1.61-1.37,1.61-2.08C89.27,109.16,89.16,108.76,89,108.76ZM84,89.15c-.79,1.1-.92,1.72-1.68.95.28-.82,1.92-.77,2.26-1.19C84.36,88.94,84.26,88.79,84,89.15Zm-1.3-4.79.75.75c.55-.78,2.48.31,2.67-1.13C86.24,83.94,83.58,83.65,82.71,84.36Zm.34,33.09-.34.78.34-.41Zm0-37.29.41.41.79-.76C83.88,79.85,83.39,79.68,83.05,80.16Zm3.11,36c-1.12-.7-1.82-1.79-2.7-1.79a.64.64,0,0,0,0,1.2,1,1,0,0,1,.79-.28c1.37,0,2,3,3,1A1.26,1.26,0,0,1,86.16,116.16ZM84.59,76.7H83.8l.79.45Zm.41,10,.71.79c.16-.06,0,.17.76-.41C86,86.5,85.2,85.82,85,86.65Zm1.13-6.08-.42.34c.53.49.66.41.76.44l.07-.13C86.54,81.12,86.4,80.91,86.13,80.57Zm-.42,9.53.76,1.1.41-.41Zm.42,22.8v.38l.34-.38Zm2.22-25.46-.14-.07c-.09,0-.27.13-.55.41l.34.34c.28-.27.42-.48.42-.62Zm4.2,27.72c-.71-1.19-2.61-1-3.76-.35l.34.35c1.35-.84,2.2.21,3.42.41Zm-3-21.3h-.41l.41.34Zm-.41,25.5v.34l.41-.34Zm.41-18v.13c.3,0,.85.15,1.13-.41A.59.59,0,0,0,89.54,101.35ZM91,103l-.07.11c-.11,0-.31-.15-.61-.45l-.45.34c.3.56,1,.43,1.13.45Zm0-14c-.13,0-.11-.16-.68.41l.34.34a2.09,2.09,0,0,0,.41-.62Zm-.37,22.42c.29.83,1,1,2.7,1.57C93.18,112.45,92.14,111.83,90.64,111.33Zm.58-16.13h-.55v.58h.55Zm-.55,13.87c1.27.22,2.29,1.28,3.42.41C94,109.46,91.81,108.13,90.67,109.07Zm.79-3.79-.45.34.45.44.34-.44Zm2.63,13.29.79.79a2.31,2.31,0,0,0,.41-.65C95.29,118,94.23,118,94.09,118.57Zm2.32-13.29-.41.34.41.44.34-.44Z"/><path class="cls-1" d="M139.58,114.44c-.53,7-4.29,10.8-7.07,11.48-4,4-12.71,2.81-17.76.86-7.2-2.78-10.54-14.87-6.85-16.55,2,.52,7.3-1.24,9.77,1.41a7.28,7.28,0,0,0,1,3.53c.72,1.17,2.94,3.34,4,3.34.67,0,1.35-.48,2-.48a1.65,1.65,0,0,1,1.06.41,1.68,1.68,0,0,0,.68-1.81c.29-.08.57.28,1.54-.79-2.28-1.66,1.78-2.66-2.46-6.63a69.54,69.54,0,0,0-6.12-4.92c.32-1.29.18-2.19-2.08-2.5-5.53-3.89-10.46-9.19-9.92-15.93-.14-6.92,3.82-11.33,9.51-12.59,3.91-.87,11.37-1,15.91,1.55a10,10,0,0,1,4.87,6.74c.55,2.08,1.07,2.7,1.12,4.17-.08,4.18-5.27,3.43-9.26,2.48-.52-.13-1-.26-1.54-.4l-.78-2.9.34.34.79-.82a18.93,18.93,0,0,0-6-2.57,5.94,5.94,0,0,0-2.26,1.92c-2.16-.47-3.12-3.35-4.48-1.09,1.1.73,4.79,1.88,3.35,3.31.2,2.65,2.87,3.8,5.61,7.45l-.34.41.68.72c.2-.55.89-.32,1.51-.38l7.82,6.74c2,.74,1.61,3.65,3.66,4.82a14.31,14.31,0,0,1,1.23,7.07,4.62,4.62,0,0,1,.27,1.68Zm-27.41-25.6h-.58v.54h.58Zm1-6.6c.14.62,1.35.59,1.81,0Zm1.67,35.27h-.55v.59h.55Zm.58-27-.44.69.44-.35Zm1.68,29.94h-.58V121h.58Zm1.26,2.46-.37.35.37.44.41-.44Zm.41-29h-.41l.41.34Zm1.13,4.07-1.13,1.13,1.47-1.13Zm-.2-6.49h-.59V92h.59Zm2.56,4.1h-.55v.58h.55Zm2.25-19.38h-.54v.54h.54Zm.21,46.75.72.79.41-.44C125.47,122.77,125,123,124.68,122.91Zm.92-24.43H125v.58h.58Zm1.68,23.31-.34.37.34.41.34-.41Zm.34-16.38.41.35c.6-.05,1.32.16,1.47-.35C129.29,105.14,128,104.91,127.62,105.41Zm2.67,10.43a.92.92,0,0,0-1.54,0,.64.64,0,0,0,.61.44q1,0,.93-.06Zm-.55-3.9h-.58v.55h.58Zm.55-8.06-.41-.35.41.76Zm.13,18.83h-.54v.55h.54Zm5.47-6.87c-.68,0-1.06-.11-1.13-.34l-.41.34a.65.65,0,0,0,.62.44c.66,0,1,0,.92-.06Z"/><path class="cls-1" d="M175.23,127.7a17.82,17.82,0,0,1-5.16.41,4.61,4.61,0,0,0-.73.07c-3,.45-2.73.58-4.81-.55-1-2.81-.92-8.14-.83-11.11a25.33,25.33,0,0,1,.46-4.58,17.88,17.88,0,0,0-.34-4.34c-2.78-3.93-7.22-2.28-8,1.1l.34,1.12c-.63-.41-1.62.94-1.88,1.2.33.11,1.21,1.58,1.88,1.13-.25,1.54.38,3.1-.34,4.54a5.38,5.38,0,0,1,0,4.17,13.65,13.65,0,0,1,0,6.5c-2.31,2.44-6.1-.25-8.79,1.09h-.2c-2.05,0-2.25-1.2-3.22-3,1.21-.9-.69-1.28.35-2.32l-.21-.21c.33-8.24.65-11.92.65-11.82-.24-2.77.12-3.15-.34-7.18,0-5.15-.45-9,.31-15.35-.68-3.11-.31-6.14,0-9.46-1.55-1.76-.26-3.43-.45-4.93,2-2.85,6-1,8.79-1.57l2.29.41,1,1.47.13,9.5c-1,.76-1.45,1-1.53,1.58l.41.34c.18-.47,1-.31,1.12-.34-1.22,1.53,1,2.85-.41,4.13,2.1,3,2.13,3.86,5.92,3.27a5.58,5.58,0,0,1,3.59.15L166.48,92c-1-1.76-2.4,0-3.38,0,.92-1.23,1.2-3.79,1.5-4.89a3.93,3.93,0,0,1-.34-4.17q-.62-4.74-.62-5.4a7.31,7.31,0,0,1,1.3-4.51c2.13-.71,3.42-.35,5-.41a2.58,2.58,0,0,0,.53.26c1.36.46,2.11,0,3.17,0s2.41.92,2.32,2c-.25,14.4-.46,18.79-.27,23.18a27.92,27.92,0,0,1-.31,2.94c-.07.66-.12,1.18-.14,1.57s0,.53,0,.44l.68,22A7.8,7.8,0,0,0,175.23,127.7Zm-30-19h-.44l.44.37Zm1.1-26.6h-.76l.76.41Zm.58,18.43h-.58v.54h.58Zm1.33-18.43c-.15.05-.07-.16-.79.41l.41.38C148.41,82,148.17,82.29,148.23,82.1ZM147.85,114l-.41.34c.82.67.6.38.79.44C148.16,114.58,148.43,114.87,147.85,114Zm2.33-9.44a15.36,15.36,0,0,1-2,.69c1-.09,1.91.2,2.67-.34A1.4,1.4,0,0,0,150.18,104.59Zm-.07-14.49h-.79l.79.34Zm0,17.84h-.34l.34.41Zm0-5.33c1,.74,1.39.61,2.32,0C152.18,102.11,150.49,101.68,150.11,102.61Zm.41,7.62h-.41l.41.38Zm-.07,7.87.07.13c.29,0,.85.15,1.13-.41C151.56,117.57,150.45,117.34,150.45,118.1Zm.86-23.45c-.56.86-.72,1.23-.72,1.13a.4.4,0,0,0,.31.41c.82-.07,1.57.2,1.88-.41C152.52,95.53,151.85,94.65,151.31,94.65Zm-.41-1.54.41.41c.27,0,.75.15,1.12-.41C152.25,92.81,151.16,92.53,150.9,93.11ZM152,112.49h-.68l.34.79a2.46,2.46,0,0,0,.41-.65Zm.2-23.72h-.54v.55h.54Zm-.54,10.39a5,5,0,0,0,3.79,1.23l.41-.44C155.75,99.91,152.68,99,151.65,99.16Zm.34,7.25-.34.75h.78C152.36,107,152.66,107.23,152,106.41Zm-.34,8.4.78.76.35-.41C152.66,114.65,152.15,114.84,151.65,114.81Zm1.13-23.61.75.78.44-.34C153.65,91.05,153,91.23,152.78,91.2Zm.41-3.35.34.34c.18,0-.07.16.78-.34C154.25,87.57,153.33,87.27,153.19,87.85Zm.34,9.09-.34.37c.71.57.64.37.78.41C153.91,97.56,154.16,97.72,153.53,96.94Zm1.54,10.66c-.28-.59-.91-.41-1.1-.44l1.1.78Zm0-12.2c-.19,0-.22-.06-.38.1a2.31,2.31,0,0,1-.38.28l.35.41C155.22,95.48,155,95.54,155.07,95.4Zm-.76,9.54c.85.85,1.6-.24,2.29-.41C156.28,104.23,154.31,103.72,154.31,104.94Zm.48-22h-.13l.41.75.37-.41A6.13,6.13,0,0,0,154.79,82.89Zm4,20.17c-2-1.4-2.61-1.88-3.76-.79.34,2.07,2.67-1.74,3.45,1.13l.34-.34Zm-3.39,17.84h-.37l.37.34Zm0-28.17.41.38.75-.72C156.5,92.4,155.76,92.09,155.44,92.73Zm.75,3.8a.87.87,0,0,0,.86.41,8,8,0,0,0,2.63-1.23,2.68,2.68,0,0,0,1.06-1.4C159.38,93.35,158.24,96.91,156.19,96.53Zm1.88-3-.34.79c.17-.06,0,.19.79-.45Zm-.34,6.43.34.44c1,0,1.9,1.38,3.11.34C160.72,100.58,159.06,98.92,157.73,100Zm5.61-2.64c-.74-.18-2.6-.15-2.6.89a2.27,2.27,0,0,0,.44.65,3,3,0,0,0,2.17-.34,2.34,2.34,0,0,0,.84-1.2Zm-2.16-1.53.35.41c.62-.06,1.38.19,1.53-.41C162.86,95.48,161.63,95.13,161.18,95.78Zm.89,6.29h-.54v.54h.54Zm1.34,1.67c0,.05.37.07,1.26.07a1.26,1.26,0,0,0,1.06-.41A1.6,1.6,0,0,0,163.41,103.74Zm.2-3h-.2l.78,1.13.41-.38C164.43,101.32,163.88,100.73,163.61,100.73Zm1,11c.59.2,1.36,1.31,2.22.45A1.43,1.43,0,0,0,164.6,111.7Zm2.67-5.64c-.71.36-1.59-.66-2.33-.37-1.07,2,1.28-.07,1.88,1.13C167.38,106.22,167.23,106.17,167.27,106.06Zm-1.2,8.31h-.78l.44.79a1.94,1.94,0,0,0,.41-.65Zm.21,5.54h-.55v.54h.55Zm-.21-26,.41.45,1.47-1.2C167.69,92.85,166.84,92.86,166.07,93.86Zm.48-5-.07.06.34.76.45-.41A1.49,1.49,0,0,0,166.55,88.91Zm.27,14.49.45.34.13.07a4,4,0,0,0,.55-.41C167.84,102.9,167.25,102.7,166.82,103.4Zm.45,14.83h-.45l.45.34Zm.34-31.14-.34.35c.51.51.58.37.68.41l.07-.14A2.23,2.23,0,0,0,167.61,87.09Zm.2,10.43h-.54v.55h.54Zm-.2,2.08.34.35.21.06a2.49,2.49,0,0,0,.58-.41A.59.59,0,0,0,167.61,99.6Zm.79-7.21c.88.89,1.44-.21,2.22-.41C170.41,91.71,168.81,91.3,168.4,92.39Zm.75-6.49-.41.41.41.34.34-.34Zm0,24.71-.41.41.41.34.34-.34Zm.78-14.83-.44.41.44.34.35-.34Zm.35,3.07a.57.57,0,0,0,0,1.1l.34-.35.07-.2A4.93,4.93,0,0,0,170.28,98.85Zm.95,11.56h-.61V111h.61Zm1.47,3.82h-.54v.58h.54Z"/><path class="cls-1" d="M213.41,113.11c-.12,10.25-2.65,12.86-9.33,14.62-.31-.46-1.39,0-1.91.18l-12.31-.11c-.36.24-2.84.21-5,.31-1.1,1.1-2.39-.38-3.42-.38a1.6,1.6,0,0,1-.61-1.29,4.55,4.55,0,0,1,.13-.89,4.89,4.89,0,0,0,.14-.89,3.34,3.34,0,0,0,0-.5c0-.12,0-.09.2.09L181,77.49c-.87-1.47.23-2.76.41-4.2l1.51-.86,14.93.45.45.41A2.65,2.65,0,0,1,199.7,73c-.23,0,.85.14,3.63.62,3.73.7,6.09,2.57,7.28,4.75,1.37,2.17,1.44,6.09,1.5,8.68.08,4.2-.83,8.26-3.86,11.14a3,3,0,0,0-.17.65c0,.47.58.92,1,1.18a6.7,6.7,0,0,0,.75.43l.47.2c2.19,3.6,2.95,8.15,3.11,12.38ZM185.31,94h-.44l.44.37Zm1.34-13.23h-.58v.58h.58Zm-.58,17.09.37.34c.92,0,1.79.16,2.29-.34A2.54,2.54,0,0,0,186.07,97.86Zm.37-6.66v.06c.32,0,.83.14,1.16-.34A.61.61,0,0,0,186.44,91.2Zm.75,23.89-.34.41.34.34.41-.34ZM188,103.6l-.79.76.41.37c.35,0,.84.16,1.13-.37Zm.21,4.41h-.59v.55h.59Zm.54,3.22c-.14,0-.94-.16-1.13.41a4.91,4.91,0,0,0,.59.44l.2-.07a5.16,5.16,0,0,0,.34-.65Zm-.54,12.47h-.59v.62h.59Zm.2-40.81.34.34c.28,0,1,.12,1.13-.34C189.79,82.59,188.54,82.25,188.39,82.89Zm.34,6.9c.87.69,1.06.92,1.54.72.27-.27.41-.45.41-.54C190.68,89.12,189.12,89.11,188.73,89.79Zm.34,10.33.45.41c.15,0,0,.17.75-.41C190.13,99.87,189.31,99.68,189.07,100.12Zm.45,18,.34.35.21.06a4.06,4.06,0,0,0,.54-.41A.57.57,0,0,0,189.52,118.16ZM190,93.93l-.14.07.41.78.34-.41C190.29,94.08,190.09,93.93,190,93.93Zm-.14,11.55c.63,0,1.39.16,1.54-.34C191.33,104.87,190.47,104.88,189.86,105.48ZM202.37,115a4.2,4.2,0,0,0-.5-.21l-.54-.21a.64.64,0,0,1-.36-.3c1.25-1.4.78-2.77.78-5.33l.42.41.37-.41-.37-.38-.42.34c-.31-.52-.64-1-1-1.54s-.66-1-.95-1.54a6,6,0,0,0-1.47-1.33,3.53,3.53,0,0,0-1.54-.54l.41-.35c-.71-.57-.65-.36-.79-.41l.38,1.17c-1,0-2.39,1.75-3.08,0l-.37.37c1,1.25.72,1.24.82,1.54-1.89,1.88.91,7.91-3.56,7.69l.45.34c.9-1,2.06-1.55,2.66-.34,0,1.19-1.63,1.62-1.91,2.32,2,.18,2.56,2.81,3.86,3.42h.27a3.88,3.88,0,0,0,3.15-1.64l2.32-3,1.13.41v-.21A.26.26,0,0,0,202.37,115Zm-11.31,7.38-.45-.34.45.75Zm.34-19.18.41.41c.2-.07-.09.21.78-.41C192.46,102.94,191.66,102.72,191.4,103.19Zm9.67-13.53c-.26-2.72-1.12-6.24-3.52-7.56.9-1.2,1.66.75,2.67.35l.07-.14a2.23,2.23,0,0,0-.41-.62,2.39,2.39,0,0,1-.54-.08l-.75-.19-.78-.19a3.75,3.75,0,0,0-.67-.08,1.91,1.91,0,0,0-1.43.58c-2.26.85-2,3.88-3.53,5,.87.07,1.26.83,1.17,2.29a2.22,2.22,0,0,1-1.58,2.67c1.23,0,2.13.86,2.7,2.66l-1.88.76-.06.2c0,.09.13.29.41.58.68.35,2-.66,2.32-.78l.38,0a4.45,4.45,0,0,0,3.59-1.67,24.44,24.44,0,0,0,2.18-3.7Zm-8.92,7h-.34l.34.41ZM192.59,76l.35.41c.31,0,.91.15,1.19-.41C194,75.68,192.88,75.37,192.59,76Zm1.54,23.79c-.27-.55-.95-.38-1.19-.41l1.19,1.2Zm.75,3.08-1.16-.75,1.16,1.12Zm-.06-2,.06.07c.83.62.6.35.79.41a4.65,4.65,0,0,0,.34-.62C196,99.84,194.82,100,194.82,100.8Zm4,.34c-.62.07-.93.33-.93.79v.14a1.48,1.48,0,0,0,.79.47c.31,0,.63-.53.8-.82s.25-.39.38-.56a.62.62,0,0,1,.36-.29A5,5,0,0,1,198.82,101.14Zm.06-5h-.54v.54h.54Zm1-.21c-.27.08,0-.22-.79.41l.34.34C200.05,96,199.83,96.05,199.88,95.91Zm.75,24.13c-.24,0-.88-.13-1.2.41a2.33,2.33,0,0,0,.65.45l.14-.07a2.31,2.31,0,0,0,.41-.65Zm.78-16.44h-.65c-.66,0-.95.21-.88.62v.14c.26.48.94.35,1.09.37a.73.73,0,0,0,.44-.72Zm-1-25.9h-.54v.58h.54ZM203,83.64c-.95.07-1.35-.18-2,.34.36.67,1,.39,1.57.45C203.11,83.72,202.91,83.78,203,83.64Zm-.78-4.2-.21-.07a2.38,2.38,0,0,0-.55.44l.34.41C202.27,79.58,202.13,79.54,202.17,79.44Zm.37-3.08h-.79l.79.34Zm.21,19.31h-.58v.65h.58Zm-.58,2.19.37.34c.86,0,1.44.17,2-.34C204.35,97.68,202.58,97.2,202.17,97.86Zm1.33,4.41H203v.55h.55Zm-.21-15.18.41.41c.15,0,.08.16.79-.41C204.35,86.8,203.6,86.42,203.29,87.09Zm1.54,21.85a.61.61,0,0,0-1.13,0c.13.52,1,.38,1.13.41Zm0,7.34c-.14,0-.09.18-.75-.44l-.38.44c.07.23.33.35.79.35h.34ZM204.63,80h-.55v.55h.55Zm-.55,16.3.41.34h.14a6.13,6.13,0,0,0,.61-.34A.61.61,0,0,0,204.08,96.32Zm6.49,12.62h-1.12l1.12.41Z"/><path class="cls-1" d="M251.55,127c-1.15,2-4.11,1.37-5.29,1.47-2.24-2.61-5.25,3.44-7.15-3.11-.51-2-.72-2.93-1.19-4.41a9.79,9.79,0,0,0-6.33.07c-3.86,1.7-.55,7.55-6.42,7.55-.72,0-3.27-.2-4-.2-1.13,0-2.85.94-4.47-2.12.11-.25.22-.51.34-.77.46-1.06.44-1.89,3.42-16.7a26.19,26.19,0,0,0,.13-2.94c2.23-8.42,5.37-30.25,6.12-31.48,1.81-3.48,6.42-.34,9.74-1.71-.22-.07,2.4-.07,2.64-.07,2.39,0,2.41,1.13,3.41,3.42,0,1.91.93,4.51.38,6.52,1.44,1.54.86,1.44,5.3,27a4.76,4.76,0,0,1,1.19,3.42l-.41.37.65.75c.09,3,1.78,7.48,2.09,12.1Zm-28.47-11-.41.37c.66.53.65.38.75.41l.07-.13A2.92,2.92,0,0,0,223.08,115.91Zm1.34-21.06h-.55v.55h.55Zm.92,23.72.75.79.41-.44C226.19,118.47,225.55,118.6,225.34,118.57Zm1.95-7.62-.41.41a3,3,0,0,0,.61.45l.14-.11v-.13A6.74,6.74,0,0,0,227.29,111Zm.54-3.21h-.54v.55h.54Zm.14-3.59-.34.38.79.75.34-.41Zm.65,11.21H228v.55h.65Zm.34-27h-.54v.59H229Zm.55,13.16c-.1,0-.78-.3-1.09.38a2.11,2.11,0,0,0,.61.41l.14-.07c.29-.29.44-.48.44-.54Zm.79,6.81c-.37,0-1.27-.29-1.88.78.15.61.87.35,1.53.41C230.4,109.17,230.27,108.51,230.3,108.29Zm0-25.84c-.32-.64-1-.34-1.13-.35,0,.13-.26.79.85.79l.28-.07Zm-1.13,3.79.34.41c.31,0,.92.15,1.2-.41C230.57,86,229.43,85.71,229.17,86.24Zm0,29.67L230.3,117l.78-.76C230.67,115.73,230,116,229.17,115.91ZM230,91.2a.57.57,0,0,0,0,1.12l.35-.34v-.13A6.48,6.48,0,0,0,230,91.2Zm.76,28.5c-.25,0-.89-.13-1.2.41a5.43,5.43,0,0,0,.65.45l.14-.11a5.6,5.6,0,0,0,.41-.54Zm6.66-10.94-.65-9.57.79-.78-.86.07a10.6,10.6,0,0,1-.61-5,1.63,1.63,0,0,0-1.95-.79A2.64,2.64,0,0,0,233,95.4c-2.21,2.08.3,7.48-3,8.34l-.07.14c0,.61,1.41.73,1.54,1-1.45,2.18,1.68,5.39-1.47,6.49l.35.34c1-1.12,4.07-.62,5.33-.75.2.07.34.32.41.75v-.34c1.06-1.06,1.6-1.37,1.6-2.08C237.64,109.16,237.54,108.76,237.37,108.76Zm-5-19.61c-.79,1.1-.91,1.72-1.67.95.27-.82,1.91-.77,2.25-1.19C232.73,88.94,232.64,88.79,232.38,89.15Zm-1.3-4.79.75.75c.55-.78,2.48.31,2.67-1.13C234.61,83.94,232,83.65,231.08,84.36Zm.34,33.09-.34.78.34-.41Zm0-37.29.41.41.79-.76C232.26,79.85,231.76,79.68,231.42,80.16Zm3.11,36c-1.11-.7-1.81-1.79-2.7-1.79a.64.64,0,0,0,0,1.2,1,1,0,0,1,.79-.28c1.38,0,2,3,3,1A1.29,1.29,0,0,1,234.53,116.16ZM233,76.7h-.79l.79.45Zm.41,10,.72.79c.15-.06,0,.17.75-.41C234.36,86.5,233.58,85.82,233.37,86.65Zm1.13-6.08-.41.34c.53.49.65.41.75.44l.07-.13C234.91,81.12,234.77,80.91,234.5,80.57Zm-.41,9.53.75,1.1.41-.41Zm.41,22.8v.38l.34-.38Zm2.22-25.46-.14-.07c-.09,0-.27.13-.54.41l.34.34c.27-.27.41-.48.41-.62Zm4.2,27.72c-.71-1.2-2.63-1-3.75-.35l.34.35c1.38-.87,2.11.19,3.41.41Zm-3-21.3h-.41l.41.34Zm-.41,25.5v.34l.41-.34Zm.41-18v.13c.29,0,.85.15,1.13-.41A.59.59,0,0,0,237.92,101.35Zm1.47,1.6-.07.11c-.12,0-.32-.15-.62-.45l-.44.34c.3.56,1,.43,1.13.45Zm0-14c-.13,0-.12-.16-.69.41l.35.34a2.09,2.09,0,0,0,.41-.62ZM239,111.33c.29.83,1,1,2.7,1.57C241.55,112.45,240.51,111.83,239,111.33Zm.58-16.13h-.54v.58h.54Zm-.54,13.87c1.26.22,2.28,1.28,3.41.41C242.33,109.46,240.18,108.13,239.05,109.07Zm.78-3.79-.44.34.44.44.34-.44Zm2.63,13.29.79.79a2.31,2.31,0,0,0,.41-.65C243.66,118,242.61,118,242.46,118.57Zm2.33-13.29-.41.34.41.44.34-.44Z"/><path class="cls-1" d="M285.67,108c-.48,6.19-.67,9.61-3.35,14.62a9.81,9.81,0,0,1-2.57,3.2c-2,1.77-2.21,1.48-7.52,2.8a22.36,22.36,0,0,0-2.44-.27c-8.89-.77-6,0-9.62-2.09a11.75,11.75,0,0,1-3.54-2.78,5.52,5.52,0,0,1-1.35-2.76c-.12-.55-.13-.5-.8-3.06-.9-3.4-.9-23.2-1.32-23a1.31,1.31,0,0,1,1.09-1.34c.61-.46.79-1.26-.61-1.12a35.53,35.53,0,0,1,.55-8c.9-4.76,2.83-6.8,6-8.76,2.27-1.34,3.74-3.22,6.39-2.12,2.91-1.46,4.86-.27,9.6,0v.28c0-.2.69.58.82.75,3.07.11,3.61,3.84,6,5.61,2.36,7.54,3.13,11,1.71,15.56-3.89,0-10.32,2.1-11.93-1.81,1.21-1.81-.77-3.86.41-5.54-.2-1.17-1.28-2.28-.41-3.32-1.53-.26-3.34-1.64-4.81-2-1.32,1.89-2.75,4.55-2.19,6.78-1.13,2.26.75,5-.41,7,.53.26.48.54.2,1-.44.66,0,3.32.09,6.61.1,6,.2,5.7,0,7.59-.1.91-.2,2-.31,3.35,1.17.93,1.57,1.55,3.69,3.38,1-2.19,5.57-1,3.38-4.44,1.78-3.27-1.24-7.15,1.71-10l9.78,0a5,5,0,0,1,1.54,3.9ZM255,111.43h-.79l.79.44Zm4.48-18.9c-.46-.66-1-.25-1.54.38h1.54ZM259,86h-.58v.55H259Zm.69,9.64h-.55v.58h.55Zm0,22.63h-.55v.55h.55Zm.41-36h-.55v.58h.55Zm0,16.41h-.55v.47h.55ZM261.33,114l-.34.78h.68l.07-.17A2.11,2.11,0,0,0,261.33,114Zm1.33-35.41h-.54v.54h.54Zm-.54,3.89v.38l.34-.38Zm.54,20.24h-.54v.58h.54Zm0,5.54h-.54v.58h.54Zm1.27-22.05H262.8l.79.79a2.46,2.46,0,0,0,.41-.65Zm.75,8.2h-.41l.41.34Zm1.13-12.27c-.31.06-.94-.23-1.13.34.3.3.49.45.58.45l.14-.07C266,82.32,265.77,82.31,265.81,82.17Zm-.75,37.12h-.38l.38.34Zm2.42,3.83h-.54v.58h.54Zm.38-5.5h-.58v.54h.58Zm2.8,4.24a1.19,1.19,0,0,0-1.13-.41l-.07.2c0,.39.3.58.89.58h.31Zm.34-46,1.47,1.47.34-.34Zm3.63,42.22c-.76,0-1.1,0-1,.06.32.13,1.19,1.24,1.81.35A.78.78,0,0,0,274.63,118.1Zm1.19-35.93.34.34c.18-.05-.06.16.79-.34C276.81,81.9,276,81.68,275.82,82.17Zm1.81,0,1.13,1.13.34-.41Zm.79,26.32c-.52.06-.07-.07-.79.38l.38.41C278.58,108.57,278.38,108.63,278.42,108.49Zm.34-22.25-.34.34.34.45.34-.45Zm-.34,29.33.68.71.45-.37C279.23,115.28,278.52,115.57,278.42,115.57Zm1.13,3.72h-.45l.45.34Zm.54-9.53h-.54v.58h.54Zm1.13-25.54h-.58v.55h.58Zm.34,29.67H281v.55h.54Z"/><path class="cls-1" d="M324.43,127.53c-1.57,1.49-3.25-.21-5.23.79-1.24-.62-3.3-.28-3.76-.28-4.35,0-3.93-1.59-5.3-6.07-1.42-5.16-1.37-4.54-2.91-7.31-.68-1.11-1.21-2.62-.58-3.75,0,0-1.32-.78-2-1.2a4.32,4.32,0,0,0-2.19-.68l-1.13,1.09c2.45,1.37-.2,4.33,1.13,5.67-1.09,1.8.58,3.22,0,5h-.14q.13,0-1,.75c1.67.59,1.14,2.79,1.18,4.68,0,.52,0,.74-.05.65L301.29,128c-3.1,0-7.91,1.75-10.94-1.16a13.2,13.2,0,0,1,.1-5.73c.52-5.72.54,2,.31-14.32,0-2.62-.18-14.41-.45-13.78-.17-.78.52-4.92.31-4.61-.31-10.16-1.7-13.87.82-15.36,3.31,0,8.22-1.65,11,1.13.59,2.39-1.15,4.06,0,6.07h-.14c.09,0-.24.26-1,.76.53.52.78.87,1.13.78.52,1-.76,1.1-1.13,1.47l.79.75-.79.79c1.42.58,1.13,3.08,2.67,3.41v.37c-.47,0-.94.16-1.13-.37-.52.26-.39,1-.41,1.13a6.43,6.43,0,0,0,1.88,1.53,1.5,1.5,0,0,0,.78-1.88l-.34-.41c.31.32,1.08-.42,1.47-.78-.55-1.37,1.2-3.05,1.2-4.54a1.57,1.57,0,0,0,1.88-.72l-.82-.71c1.18-1.65,1.57-5.77,2.87-7.41a3.75,3.75,0,0,1,3.83-1.71c1.3.44,6.72-1.21,8.44,1.57C321,81.93,313.41,93.62,313,98.89l4.3,10.14c1.08,1.79,1.12,3.6,2.26,4.54a2.6,2.6,0,0,0,1.06,2.66c.6,2.92,3.76,6,4,10A4.36,4.36,0,0,1,324.43,127.53ZM293.77,92l-.41.41.41.34.34-.34Zm-.41,6.87c.85-.07,1.57.22,1.88-.44A1.36,1.36,0,0,0,293.36,98.85ZM295.68,89l-1.2-.41,1.2.76Zm-1.2,13.23v.41l.41-.41Zm.76,3.08-.07-.07a1.72,1.72,0,0,0-.69.41l.41.44a2.06,2.06,0,0,0,.41-.65Zm1.53,6.8h-.34l.34.41Zm0-27.31c.39.25.77.48,1.13.68a.48.48,0,0,0,.41-.27C297.67,84.54,297.24,84.1,296.77,84.77Zm.59,10.43h-.59v.58h.59Zm0,25h-.59v.58h.59Zm.54-32.47c-.15,0,0-.18-.75.41l.41.37A4.49,4.49,0,0,0,298,88ZM297.56,100h-.41l.41.37Zm1.47,6.11c-.7.32-1.78.61-1.88,1.47.18-1.08,2.07-.45,1.88-1.26Zm-1.88,3.35c0,.2-.12.93.41,1.2.64-1.56,2.08-.73,3-1.2A4.64,4.64,0,0,0,297.15,109.41Zm3.42-17.77c-.66.55-2.79.13-3,.34.4,1,1.84.71,2.22.75.17-.17.79-.64.79-1Zm-2.46,22.93h-.55v.59h.55Zm.2-32.47-.41.41c.71.45.2.32.79.38C298.62,82.67,298.89,83,298.31,82.1Zm-.41,22,.41.45c.1,0,.17.11.72-.45A.68.68,0,0,0,297.9,104.08Zm1.54-6.42c-1.06,1-.66,1-.75,1.19,1.9-.56,3.43-.66,4.17-1.54C301.71,94.92,301,98.66,299.44,97.66ZM299,113.28l-.34.34a4,4,0,0,0,.55.41l.2-.07C299.41,113.86,299.54,113.79,299,113.28Zm.62-17.67H299v.58h.62Zm1.33,4.71c-.55-.59-2-.71-2,.28,0,.69.91.41,1.54.47a5.6,5.6,0,0,0,.41-.54Zm-1.54-6,.34.34c.18-.05-.06.16.79-.34C300.5,94,299.59,93.68,299.44,94.31Zm.55,7.76h-.55v.54H300Zm0,13.63h-.55v.58H300Zm.78-28.26a.57.57,0,0,0-.2,1.12c.34,0,1,.19,1.13-.37C301.7,88.09,301,87.44,300.77,87.44Zm-.54-1.88v.34l.34-.34Zm0,20.06v.44l.34-.44Zm3.35-2.22c.28-.1-.41-.07-1.88-.07-.69,0-1.06.25-1.13.75a3.08,3.08,0,0,0,3.42,0C304,104,304.09,103.91,303.58,103.4Zm-2.67,5.16c0,.67.94.47,1.2.51a2.31,2.31,0,0,0,.41-.65C302.52,107.73,300.91,107.58,300.91,108.56Zm.79-14.7L301.32,95c1.23.48,2.32.67,2.67,2,.26-.06,1.79.25,2.25-.75C306.24,96.19,302.67,95.81,301.7,93.86Zm.61,7.56c-.59,0-.92.4-1,1.19.5.21.77-.06,1.54-.75C302.58,101.53,302.53,101.42,302.31,101.42Zm1.27,5c.33.48.86.3,1.19.34a1.63,1.63,0,0,0,.34-.55C305.11,105.57,304.64,105.24,303.58,106.41Zm.41-6.87c.53.28.66.89,0,1.19.63.42,1.34.77,1.91.34A8,8,0,0,0,304,99.54Zm.71-5.81.07.13c.16,0,.78.1,1.13-.34C305.79,93.25,304.7,93,304.7,93.73Zm.82-3.29.38.76.34-.35C305.67,90.28,305.66,90.48,305.52,90.44ZM307,102.61l-.75.79.41.34.79-.79Zm-.75,6.46.48.41a2.12,2.12,0,0,0,.72-.41C307.08,108.41,306.49,108.54,306.24,109.07Zm.41-10.66c1.19.84,2.33-1.1,3.22-1.1h.2C308.79,96.74,306.88,96.85,306.65,98.41Zm.79-6.43c-.92.43-.33,2,1,.53.06-.08.11-.12.13-.12C308.28,91.88,307.55,92,307.44,92Zm2.22,9.09c.23-.09-.31-.06-1.54-.06-.45,0-.68.28-.68.85,0,.27.18.41.55.41.63,0,1,.06,1.12-.15s.55-.5.55-.84Zm-2.22,5,1.09.69c.3-.28.45-.46.45-.55C309,105.4,307.59,105.3,307.44,106.06Zm.68-18.62h-.34l.34.34Zm.41,2.66-.75.75c.14-.06.39.05.75.35l.38-.35.07-.13C309,90.63,308.83,90.42,308.53,90.1Zm0,20.51-.41.34.41.34.38-.34Zm.79-1.91-.41-.41.41.78Zm.34-2,.41.41c.1,0,.22.09.72-.41A.68.68,0,0,0,309.66,106.75Zm2.12-12.31h-.58V95h.58Zm-.24-6.66.44.41c.1,0,.1.12.76-.41A.69.69,0,0,0,311.54,87.78Zm1.2,22.83-.41.34a4.06,4.06,0,0,0,.54.41l.21-.07C313.05,111.19,313.17,111.18,312.74,110.61Zm1.91,4.14c-.67.06-1.37-.2-1.57.41.38.48.79.3,1.13.34C314.86,114.69,314.58,114.92,314.65,114.75Zm0-26.19-.44-.37.44.78Zm.48,21.2A.6.6,0,0,0,315,111l.75-.78A1.89,1.89,0,0,0,315.13,109.76Zm.2,6.87c-.1,0-.17-.11-.68.41l.34.34a3.72,3.72,0,0,0,.41-.55Zm-.13,4.75h-.55v.54h.55Zm2.08-38.49h-.41l.41.34Z"/></svg>