<svg xmlns="http://www.w3.org/2000/svg" viewBox="0 0 424.89 127.24"><defs><style>.cls-1{fill:#3d3941;}</style></defs><title>wbflashback-logo-mobile</title><g id="Layer_2" data-name="Layer 2"><g id="Layer_1-2" data-name="Layer 1"><path class="cls-1" d="M52,7.84a6.91,6.91,0,0,0-.44,1.45c-1,5.14-.24,5-1.61,7.36L47.1,34.38a2.53,2.53,0,0,0-.24,2.53l-2.42,12.6c-1.09,2,1.79,6.87-5.91,6.63a45.85,45.85,0,0,1-5.5-.48l-1-1.13c-3.7-20.66-2.22-22-5.84-23.84-2,1.54-2.75,5.28-3,7.93-.27-.27-.47-.41-.58-.41l-.21.07a5.89,5.89,0,0,1-.75.89l.07.2c1.71.21,1.49.94,1.08,2.45-.56,2-.09,1.43-.74,2.13l.31.31-1.5,10.31a5.66,5.66,0,0,1-4.55,1.58,24.3,24.3,0,0,1-5.71-.53c-.61-.13-1.23-1-1.84-2.66.44-1.12-.84-3.83-.65-4.58C6.22,36.79,6.69,39.1,6.32,37.54c-.12-.48-.92-2.66-.58-3.5.67.34,1.64-.58,2.22-1.13-.69-.92-1.62,0-2.43,0l-.3-.37C4.68,28.11,1.08,8.43.92,7.91A7.78,7.78,0,0,1,.44,3.67,2.22,2.22,0,0,1,.44,1C3.14-.28,6.77.17,9.5.67L11.58,3c0,4.48,1.07,10.55,2.12,17.73-1.24.51-.67.83-.12,1.56.21.27.6.8.5,1.11,1,1.71.91,2.75-1.54,4.16.25.46,1,.71,2.29.76q3.55-2.94,3.42-6c.71.29,1.5-.44,2.25-1.13l.07-.2a1.85,1.85,0,0,0-.41-.58c-.16.6-1.08.29-1.3.3C20.38,7.1,20.14,1.32,22.32.62c2.43-.33,6-.76,8.51.1C32,2,32.52,4.49,32.3,8.21c1,1.27,1,3.68.75,5.32.4.77,1,2,.75,2.67l-.36.42c-.47-.62-1.16-.35-2-.41l-.72.75c.75,1.33,4.17.19,3.35,2.66a1.72,1.72,0,0,1-.63,1.88c1.35,1.65,1.47,1,1.47,3.28,0,1,.4,1.57,1.19,1.64.87,1.52,1.6-1.18,2.57,0,.55-.12.53-.48.24-.94-.61-1,.27-4.77,1-6.64l-.3-.45,2.22-16.6C43.93-.95,48.86.9,51.21.22,54.27,2.2,51.8,5.33,52,7.84ZM2.29,7.06l-.35.37c.58.58.59.37.72.41l.07-.13A2.4,2.4,0,0,0,2.29,7.06ZM9.87,26.81c-.76-.3-1.3.56-1.91.76.28.51.88.34,1.2.37,0-.11.78-.61.78-1ZM9.5,41.24H9.16l.34.34Zm.78,5.3H9.5l.78.37Zm.55-30.15h-.55v.55h.55Zm-.2,7.76.78.78.41-.44C11.51,24,10.83,24.17,10.63,24.15Zm1.53,3.79L11,29c.37.15.54.1,1.5-.69Zm0-5.67-.34.34.72.79L13,23Zm0,16-.34.34.34.34.38-.33Zm0-3.45.38.37c.17,0,0,.18.75-.37-.07-.32-1-.58-1.13,0Zm1.92,1.91-.38.34.38.41.41-.41Zm.54-6.11c-.78,0-.83,1.23-.13,1.58,0,0,.75-.76.75-1.06S14.74,30.62,14.62,30.62Zm1,3.46c-.51-.21-.73,0-1.54.75.28.52.87.34,1.09.37.61-.33.41-.94.45-1.17Zm.2,3.21h-.65v.55h.65ZM16,29.87v.41l.41-.41Zm.75,11c-.18.07.06-.21-.75.45h.75ZM17,32h-.58v.58H17Zm.14-3.56-.38.34a3.37,3.37,0,0,0,.58.41l.21-.06c-.06-.18.1-.25-.41-.77Zm2,6.8-2.36,1.1.38.44c.17-1.06,1.94-.44,1.94-1.26Zm-2.38,3.39c.07.21-.19-.08.38.79a8.35,8.35,0,0,1,3.41-.79A5.86,5.86,0,0,0,16.71,38.62ZM18,43.32H17.5v.58H18Zm-.2-10.08.48.44a1.66,1.66,0,0,0,.71-.44.66.66,0,0,0-.84-.36A.65.65,0,0,0,17.84,33.24Zm1.54-6.84c0,.1-.13,0-.64.7-.18.24-.1.3-.12.47h.76c.65-1.45,2.78-.15,3.45-1.54C21.44,23.92,20.88,27.41,19.38,26.4ZM19,42l-.41.38a3.74,3.74,0,0,0,.55.41h.21v-.16Zm1.88-13c-.37-.51-1.88-.73-1.88.3a.48.48,0,0,0,.42.55h.13c.66,0,1,0,.92-.07a4.5,4.5,0,0,0,.41-.54Zm0-12.45-.75.69.34.44c.16,0,0,.19.79-.44-.05-.1.15-.05-.38-.66ZM20.5,33.24a3.47,3.47,0,0,0,3.42,0C23.58,32.69,20.93,32.11,20.5,33.24Zm1.54-3c-1.72.71-.08,2,.79.79ZM21.7,37a.64.64,0,0,0-.38.83.61.61,0,0,0,.38.37L22,37.8c0-.12.14,0-.34-.77ZM23.17,9.72H21.7l1.47.35Zm-.79,14.09c-.59-.6-.53-.36-.68-.41l.68.75Zm2.33-5.75c-.86.07-1.57-.2-1.88.41a5,5,0,0,0,1.47.72C24.86,19,24.67,18.2,24.71,18.06Zm-1.54,6.43.75,1.2c.53-.07,1.72.27,2.33-.76A9.23,9.23,0,0,0,23.17,24.49Zm2,4.72c-.32-.3-.48-.47-.48-.52l-.41.79c.31.45.95.32,1.16.34v-.07a.6.6,0,0,0-.25-.54Zm-.46-6.59.34.41c.21-.07-.09.2.79-.41C25.77,22.38,24.85,22.13,24.71,22.62ZM26,9.18h-.6v.54H26Zm0,7.21h-.6v.55H26Zm.34,2.67h-.54v.56h.54Zm.21-9,1.85,1.56.44-.34Zm0,17.09c1.29.86,2.72-1.25,3.65-1.13h.14c-1-1.22-2.77-.27-3.79,1.14Zm1.33-6.09c-.65,0-.74.83-.2,1.2l.75-.79c-.18-.14-.36-.28-.55-.4Zm.52-1.87-.75.75.41.41c.1,0,0,.13.78-.41C28.88,19.84,29,19.79,28.44,19.19Zm-.31,10.63c-.58.29-.66,1.61.41,1.61a1.49,1.49,0,0,0,1.5-1.2C29.63,29.62,28.91,29.88,28.13,29.82Zm.58-13.88h-.58v.68h.58Zm.89,20.24v.07c.66.61.65.4.78.44a6.6,6.6,0,0,0,.41-.58C30.79,35.28,29.6,35.43,29.6,36.18Zm1-12.89a1.41,1.41,0,0,0-.61.11l1.09,1.09c1.4-.56,1.86,1.51,2.67-.34A22.92,22.92,0,0,0,30.65,23.29Zm.14-1,.34.34.14.07a1.93,1.93,0,0,0,.65-.41c-.37-.67-1-.54-1.13,0Zm.55,15.89-.21.07.38.68.41-.34a3.48,3.48,0,0,0-.58-.43Zm.58-11,.75.78.38-.37c-.14-.59-.85-.4-1.13-.43Zm1.54,13c-.1-.1-.71-.85-1-.85l-.21.06c-.43,1.07.84,1.37,1.2,1.13Zm1.47-3.86c-.73-.29-1.44.26-2.31.61a3,3,0,0,0-.36.17c.46.61,1.11.35,1.88.41.1-.1.86-.65.86-1Zm-2.26-7.21.38.44c.14-.05.08.17.75-.44-.07-.3-1-.49-1.13-.07Zm1.92,1.51c0,.93-1.81,1.26-1.92,1.58.86.86,1.31-.21,2.26-.45C34.91,31.24,35.08,30.88,34.59,30.62ZM33.05,43.9l.41.35c.49.2.86-.18,1.47-.79C34.65,43.06,33.75,43.73,33.05,43.9Zm.75-17.09.79.76A2.39,2.39,0,0,0,35,27a.62.62,0,0,0-.69-.54A.58.58,0,0,0,33.8,26.81Zm1.13,11.81a.63.63,0,0,0-.32.84.62.62,0,0,0,.66.36c.16,0,.56-.29,1.2-.86C36.32,38.41,35.55,38.62,34.93,38.62Zm.75,6.87c-.11,0-.78-.29-1.09.34a2.74,2.74,0,0,0,.54.41l.21-.06c.5-.7.29-.56.34-.74Zm3.45-14.87c-.52,1.34-2,.42-2.66,1.13l1.12.79-1.47.75c1.07.73,3.82.68,3.9-.89A19.69,19.69,0,0,0,39.13,30.62ZM36.44,43.46l.34.79.41-.35C36.55,43.29,36.6,43.51,36.44,43.46Zm.75-6h-.41l1.19.79Zm.25,11.88h-.65V50h.65Zm.54-21v.34l.35-.34Zm.69,12.1h-.34l.34.34Zm.24,3a.53.53,0,0,0-.58.44c.33.49.81.31,1.12.35,0-.08.17-.77-.52-.77Zm-.24-11v-.58h.65v.58Zm1.19,3.07h-.42l.41.35Zm.58-7.77h-.58v.61h.58Zm1.1-5.68H41v.56h.55Zm-.19,11.56V34l.45-.41ZM42.69,8.77h-.55v.61h.55Zm.65,27.14c-.28,0-.87-.13-1.2.34.66.62.62.4.75.44a5.26,5.26,0,0,0,.45-.58Zm.34-11.76-.34.34.34.44.34-.44Zm.2,6.22h-.54V31h.54Zm.79,13H44V44h.65ZM48,17.19h-.58v.58H48Z"/><path class="cls-1" d="M69.89,52.55c.17,6-8.94,2.54-12.44,2.8-1.82-1.32.55-2.94-.78-4.47.61-7.87.86-12.42,1.43-11.66-.88-1.18-1-14.61-1.4-36.74A5.25,5.25,0,0,1,58.89.22,54.05,54.05,0,0,1,64.44.15a16.29,16.29,0,0,1,4.79.79c1,2,.87,3.63.31,6-.71,4.61.1,6.7,0,10,0,.1.14,8.26-.74,10.23,1.08,31.77.59,19,1.13,25.37ZM59.67,27.94h-.75l.75.41Zm-.13,6h-.62v.55h.62Zm3.21-9a4.85,4.85,0,0,0-1.88.76c.12.5.67.32,1.13.34.36-.37.75-.51.75-1Zm.38-5c.46.08.23,1.31,1.88-.34A3.48,3.48,0,0,0,63.13,19.94Zm1.53,13.74h-.44l.44.35Zm-.44,5.75.79.68.13.07a2,2,0,0,0,.62-.41C65.1,39.05,64.66,38.62,64.22,39.43Zm2.53,5.88H66.2v.54h.55Z"/><path class="cls-1" d="M101,56a14.55,14.55,0,0,1-2.87-.37c-2.69-.6-.76-.21-19,.37-.61-.86-1.29.19-1.81.11-.3,0-1.19-.83-2.87-2.29.84-16.75.17-17.34,1-19.08-.48-9.58-.16-21.07-.75-27.31-.09-4.38-.64-5.81,2.2-7.21,1.59-.29,6.06.27,7.52.29,1.81,0,2.77-.11,3.11,1.39.25.5-.29,2.52.52,3.69-.89,6.4-.69,6.91-.52,9.88l-.54.78.54,20.65c-1,1.32.86,2.52-.34,3.42a2.64,2.64,0,0,1,0,2.76c3,3.27,3.68,2.08,13.74,1.47,1.27,0,3.39,1,3.79,2.29-.91,1.82,0,4.89,0,6.16C104.79,54,103.24,56,101,56ZM76.59,31.5a.84.84,0,0,0-.85.41l.44.44c.35-.16,0,.42,1.47-.78C77.91,31.46,77.44,31.5,76.59,31.5Zm1.47-4.88.34.34c.51.2.83,0,1.54-.79A2.46,2.46,0,0,0,78.06,26.62Zm1.54,13-.41.76.14.06a1.87,1.87,0,0,0,.61-.41Zm-.41,6.16.75.75c.2,0,.93.12,1.2-.41-.7-.06-1.15-1.5-2-.4Zm2.25,6.43h-.3l.3.41ZM82,26.75h-.58v.61H82Zm0,9.94h-.58v.62H82Zm.21-15.48h-.35l.35.41ZM84,19.53h-.53v.55h.62Zm-.21,6.63h-.32l.41.45ZM84,44.38h-.53v.55h.62Zm1.17-11.89h-.58v.61h.58Zm.2,12.44h-.41l.41.38Zm1.4,3.45c-.47,0-.71.21-.71.62l.06.13h1.13C87.17,48.87,87.44,48.38,86.74,48.38Zm5.47.75-.37.35.37.44.41-.44Zm1.1-3.82v-.59H94v.59Z"/><path class="cls-1" d="M131.35,55.62c-2.7-.6-.76-.21-19,.37-.61-.86-1.29.19-1.81.11-.3,0-1.2-.83-2.87-2.29.84-16.75.17-17.34,1-19.08-.49-9.78-.17-21.09-.75-27.31-.11-4.38-.66-5.81,2.18-7.21,1.51-.27,6.31.27,7.52.29,1.81,0,2.77-.11,3.11,1.39.25.5-.29,2.52.52,3.69-.9,6.4-.69,6.91-.52,9.88l-.54.78.54,20.65c-1,1.32.86,2.52-.34,3.42a2.59,2.59,0,0,1,0,2.76c1.12,1.23,2.53,2.38,4.17,2.23,9.5-.64,9.38-1,10.69-.57a4,4,0,0,1,2.68,2.1c-.9,1.8,0,4.87,0,6.16C138,55.19,134.57,56.3,131.35,55.62ZM109.78,31.5a.84.84,0,0,0-.85.41l.44.44c.35-.16,0,.42,1.47-.78C111.1,31.46,110.58,31.5,109.78,31.5Zm1.47-4.88.34.34c.51.2.83,0,1.54-.79A2.46,2.46,0,0,0,111.25,26.62Zm1.54,13-.41.76.14.06a1.87,1.87,0,0,0,.61-.41Zm-.41,6.16.75.75c.19,0,.93.12,1.2-.41-.71-.06-1.15-1.5-2-.4Zm2.29,6.49h-.34l.34.38Zm.58-25.46h-.58v.61h.58Zm0,9.94h-.58v.62h.58Zm.2-15.48h-.34l.33.35Zm1.75-1.68h-.62v.55h.62ZM117,26.22h-.41l.41.45Zm.21,18.22h-.62V45h.62Zm1.13-11.89h-.59v.61h.59Zm.2,12.44h-.41l.41.38Zm1.4,3.45c-.48,0-.72.21-.72.62l.07.13h1.16c-.08-.32.17-.81-.51-.81Zm5.47.75-.37.35.37.44.41-.44Zm1.09-3.82v-.65h.65v.59Z"/><path class="cls-1" d="M154,52.55c.16,6-8.9,2.53-12.45,2.8-1.82-1.32.55-2.94-.78-4.47.61-7.87.86-12.42,1.43-11.66-1-1.34-1.09-20.5-1.4-36.74A5.25,5.25,0,0,1,143,.22a53.86,53.86,0,0,1,5.54-.07,16.56,16.56,0,0,1,4.78.79,6.22,6.22,0,0,1,.63,4.29c-.42,3.69-.91,1.93-.39,9.21.26,2.7.17,11-.61,12.78,1.06,31.4.63,19.6,1.12,25.37ZM143.76,27.94H143l.76.41Zm-.14,6H143v.55h.62Zm3.21-9a4.85,4.85,0,0,0-1.88.76c.12.5.67.32,1.13.34.36-.37.75-.51.75-1Zm.38-5c.46.08.23,1.31,1.88-.34a3.48,3.48,0,0,0-1.88.34Zm1.54,13.74h-.45l.45.35Zm-.45,5.75.79.68.13.07a2,2,0,0,0,.62-.41c-.66-.72-1.1-1.15-1.54-.34Zm2.53,5.88h-.55v.54h.55Z"/><path class="cls-1" d="M192.5,54.62c-1.16,2-4.12,1.37-5.3,1.47-1-1.2-2-.67-3.86,0-3,1-3.42-4.2-4.48-7.48-2.82-.77-6.71-.89-8.07,1.67-1.16,4.34-1,6.21-5.55,5.92-3.46-.22-3.17-.2-3.9-.11-1.39.18-2.55.06-3.74-2.18a8.35,8.35,0,0,0,.68-1.85c3.2-16.63,3.21-15.13,3.21-18.56,1.45-5.49,2-8.95,5.23-27.51,1-6.56,2-5.9,8.45-5.27a5.31,5.31,0,0,0,2.18-.41c-.22-.07,2.4-.07,2.64-.07,2.39-.09,2.45,1.05,3.45,3.38,0,1.91.93,4.51.38,6.52,1.45,1.54.86,1.44,5.3,27a4.81,4.81,0,0,1,1.19,3.42l-.41.37.65.75a32.06,32.06,0,0,0,1.1,5.91,62.1,62.1,0,0,1,1,6.18ZM164,43.62l-.41.37c.66.53.66.38.76.41l.06-.13a3.16,3.16,0,0,0-.41-.74Zm1.34-21.06h-.55v.55h.55Zm.92,23.72.75.79.41-.44c-.31-.54-.95-.41-1.16-.44Zm1.95-7.66-.41.41a2.47,2.47,0,0,0,.61.45l.14-.11v-.13C168.47,39,168.35,38.82,168.23,38.62Zm.55-3.21h-.55V36h.55Zm.13-3.59-.34.38.79.75.34-.41ZM169.56,43h-.65v.55h.65Zm.34-27h-.54v.59h.54Zm.54,13.07c-.1,0-.78-.3-1.09.38a1.82,1.82,0,0,0,.61.41l.14-.07c.29-.29.44-.48.44-.54Zm.79,6.81a1.64,1.64,0,0,0-1.88.78c.15.61.87.35,1.53.41.46-.31.33-1,.36-1.19Zm0-25.84c-.32-.64-1-.34-1.13-.35s-.26.79.85.79l.28-.07Zm-1.13,3.79.34.41c.31,0,.92.15,1.2-.41-.13-.24-1.27-.53-1.53,0Zm0,29.67,1.14,1.09.78-.76c-.4-.51-1.13-.24-1.91-.33Zm.78-24.71a.57.57,0,0,0,0,1.12l.35-.34v-.13c-.11-.22-.22-.44-.34-.65Zm.76,28.5c-.25,0-.89-.13-1.2.41a4.18,4.18,0,0,0,.65.45l.14-.11c.14-.17.28-.35.41-.54Zm6.66-10.94-.65-9.57.79-.78-.86.07a10.38,10.38,0,0,1-.61-5,1.65,1.65,0,0,0-1.95-.79A2.64,2.64,0,0,0,173.89,23c-2.37,2.23.45,7.44-3,8.34l-.06.14c0,.61,1.4.72,1.53,1-1.45,2.18,1.69,5.39-1.47,6.49l.35.34c1-1.13,4.1-.63,5.33-.75.2.07.34.32.41.75V39c1.07-1.08,1.6-1.37,1.6-2.08,0-.09-.14-.49-.27-.49Zm-5-19.61c-.79,1.1-.91,1.72-1.67,1,.27-.82,1.92-.77,2.25-1.19-.2,0-.3-.17-.56.19ZM172,12l.75.75c.55-.78,2.48.31,2.67-1.13.13,0-2.53-.33-3.4.38Zm.34,33.09-.34.78.34-.41Zm0-37.29.41.41.79-.76c-.34,0-.84-.13-1.18.35Zm3.11,36c-1.1-.69-1.81-1.79-2.7-1.79a.64.64,0,0,0-.38.83.61.61,0,0,0,.38.37,1.07,1.07,0,0,1,.79-.28c1.38,0,2,3,3,1a1.25,1.25,0,0,1-1.1-.13ZM173.9,4.32h-.78l.78.45Zm.41,10,.72.79c.15-.06,0,.17.75-.41-.48-.58-1.26-1.26-1.47-.43Zm1.13-6.13-.41.34c.59.55.65.41.75.44l.07-.13C175.85,8.74,175.71,8.53,175.44,8.19ZM175,17.72l.75,1.1.41-.41Zm.41,22.8v.38l.34-.38Zm2.22-25.46-.13-.07c-.1,0-.28.13-.55.41l.34.34c.27-.27.41-.48.41-.62Zm4.21,27.72c-.73-1.21-2.66-1-3.76-.35l.34.35c1.38-.87,2.11.19,3.42.41Zm-3-21.3h-.43l.41.34ZM178.44,47v.34l.41-.34Zm.41-18v.13c.29,0,.85.15,1.13-.41a.6.6,0,0,0-.79-.27.57.57,0,0,0-.33.54Zm1.47,1.6-.07.11c-.11,0-.32-.15-.62-.45l-.44.34c.3.56,1,.43,1.13.45Zm0-14c-.13,0-.12-.16-.69.41l.35.34a2.12,2.12,0,0,0,.46-.71ZM179.94,39c.29.83,1,1,2.7,1.57-.15-.51-1.2-1.12-2.69-1.62Zm.58-16.13H180v.58h.54ZM180,36.74c1.25.21,2.29,1.28,3.41.41-.12-.07-2.27-1.4-3.4-.46Zm.78-3.79-.44.34.44.44.34-.44Zm2.68,13.24.79.79a2.31,2.31,0,0,0,.41-.65A.62.62,0,0,0,183.44,46.19Zm2.33-13.29-.41.34.41.44.34-.44Z"/><path class="cls-1" d="M239.12,3.4c-.63,8.16-1.34,10.8-.52,15.59-.86.4-1.08,1.42.55,2L239,50a3.49,3.49,0,0,0-.34,2.15c.73,4.79-3.09,3.54-5.93,3.83l-.6.1c-1.5-.88-3.12.55-4.23-1.57,1.31-6.13-1-11.14.41-16.78.54.06.07,0,.75.37l.78-.78c-.11-.94-1-1.2-2-1.13l1.59-1.56c-.18,0-1.35.38-1.47-1.54s-1.39-1.46-1.53-1.46c-.76.58-2.29,3-3.07,3.52.67.51.52.28.78.34l.34-.34c-.51,1.54-.6,3.23-1.53,4.17a5.57,5.57,0,0,1,.23,1.06,14.63,14.63,0,0,1-.32,2,11.41,11.41,0,0,0-.32,2c0,.48.13,1,.13,1.51a5,5,0,0,1-1.26,3.31c1.27,3.33-2.58,8.3-4.65,6.74-.34-.26-.68-.56-1-.86a.63.63,0,0,0-.58-.19.15.15,0,0,0-.12.12c-1.74-6.55-2.16-10.66-3.18-17.29H212a6.22,6.22,0,0,1,1-.75,5.74,5.74,0,0,1-1-.79h-.14l-.45.45a7.21,7.21,0,0,0-3-5.78,9.13,9.13,0,0,0-1.88-.07c-.79,0-1.19.32-1.19,1,0-.16.66.86.75,1H208a11.32,11.32,0,0,0-.37,3.11c-.19,0-.16.18-.75-.41a4.91,4.91,0,0,1-.79,1v.2l.79.69.23-.28.11,8.34a8.82,8.82,0,0,1,.41,3.42h-.22c.18,0-.8.65-1,.75,2.16.67.7,3.19,1.16,5l-1.16,1.19c-1.82-.36-2.74.09-5.3.29a7.22,7.22,0,0,1-3.68-.46c-.93-.55-1-1.4-.7-2.44a2,2,0,0,0-.27-2c.74-.25.34-1-.21-1.51l.62-11.89.2-.62c0-12.36-.68-14.47.35-15.58l-1-19A3.27,3.27,0,0,1,197.88.7,5.94,5.94,0,0,1,201.2.12l3.32.07c1,.1,1.31.08,2.63.28A11.4,11.4,0,0,0,210,.6c1.94,1.66,1.86,4.22,2.94,8.41h-.14c.07,0-.26-.26-1-.79l-.34.41c3.88,2.06,1.7,7.3,3.79,10a8.21,8.21,0,0,0-.06,1.85,1.14,1.14,0,0,0,.82,1.16h.2c-.24.12-1.21.15-1.33-.34a.59.59,0,0,0,0,1.12,1.41,1.41,0,0,0,.51.67c.8.61,2,.51,2.5.87L219,22.84l-.75-.72c.08-.85,1.91-1.18,2.29-2-2.2-1.65.76-3,0-5.3H221c.59.09,1.53-.3,1.53-1,0-.07-.14-.25-.44-.55h-.75a4.32,4.32,0,0,0,.41-1.91c.31.32,1.21-.45,1.57-.75-1.84-2.6-.13-5.93,1.09-9.2A4.89,4.89,0,0,1,226,.54c2.53-.75,5.08.26,7.47-.29,2.79.54,5.4.32,5.5,3.15ZM199,19.53h-.58v.55H199Zm.24,6.29h-.82l.78.45Zm.69-9.16-.34-.34.34.75Zm.2,15.9h-.54v.54h.54Zm1.75-20.85-.41.75c.77.48,1.15.72,1.12.72a.41.41,0,0,0,.41-.31Zm0,25.6-.07.13c0,.46,1,.53,1.19-.13Zm.78-21.78h-.14l-.64.35.37.44c.62-.82.35-.6.41-.79Zm3,3.87c-1.43.25-2.24.59-3,0l-.41.34c.49,1.13,1.78.69,2.63.79.1-.11.86-.72.86-1Zm-2.87,22.73h-.55v.58h.55ZM203,9.38l-.34.41a3.9,3.9,0,0,1,.38.33c.07.08.12.12.17.12l.2-.11c0-.1.13-.09-.4-.75Zm.43,22.24-.41.78.41-.37Zm1.92-6.09-.45-.34c-.31-.12-.42-.17-1.47.68l.31.14c.64,0,2-.78,2.36-.48.79-.05,1.51.17,1.91-.34a1.65,1.65,0,0,0-2.67.29Zm-1.54,2.67a1.44,1.44,0,0,0,1.54.82l.34-.07a4.62,4.62,0,0,0,.41-.55c0-1.34-1.86-1.37-2.3-.25Zm.54,12.42h-.55v.58h.55Zm0,3.07h-.55v.59h.55Zm.2-6.35.34.41c.11,0,.23.15.79-.41-.07-.26-1-.48-1.13,0Zm.34-24.07.45.41.34-.41Zm1.2,1.88-.75.76.34.44c.16-.06,0,.19.79-.44l.06-.07a2.22,2.22,0,0,0-.44-.72Zm5,8c-1.87.62-3.87-1.28-4.48-1.1h-.18c.75.91,2.52,1,2.7,2.29.26-.06,1.79.26,2.25-.75Zm-3.86,6.18-.75.76.41.34.75-.75Zm1.2-21.08c-.64,0-1-.11-1.19-.34l-.34.34c.15.61.87.35,1.53.41Zm-1.19,1.88-.34.45.34.34.41-.34Zm0,2h-.34l.34.34Zm1.84,4.49L208,17l1.17,1.13.17.07a2.25,2.25,0,0,0,.61-.41C210.24,16.74,209.71,16.45,209.09,16.62Zm.87,10.7c-2.39,1.24.77,2.63,1.47,1.54Zm.62-6.49a.6.6,0,0,0-.69.5.54.54,0,0,0,0,.18l.07.07h1.13c0-.14.19-.71-.51-.71Zm.07-5.34v.35l.44-.35Zm.23,2.67h-.23l.44.79.35-.33c-.18-.15-.37-.29-.56-.42Zm4.82,6.94c-1.26-2.46-2.91-.56-4.61.68l.34.45c.13,0,.9.1,1.2-.45.89,0,2-1.41,3.07-.34Zm-4.26,6v.13a1.64,1.64,0,0,0,.62.41l.13-.06c.3-.28.45-.46.45-.55A.6.6,0,1,0,211.44,31.09Zm.75-10.74v.18a2.31,2.31,0,0,0,.65.41l.14-.07c1.21-1.25-.8-1.56-.8-.52Zm.65,1.47h-.65v.58h.65Zm-.65,7.52.79.76c.85.28,1.53-.49,2.32-.76-.23-.57-2.05-.95-3.12,0Zm1.2-11.48-.75.75L213,19c.13-.06-.14.2.79-.38l.06-.14a3.84,3.84,0,0,0-.45-.61Zm-.75,15.62c.73,1.69,2.53,2.6,3.45,1.2Zm.75,4.61-.41.41.41.35.38-.35Zm.38-2.25-.38.78c.18.47,1,.32,1.13.35v-.14a1.77,1.77,0,0,0-.76-1Zm4.61,3.45A4.39,4.39,0,0,0,215.71,37l1.47,1.12-.34.41c.62.56,1.07,1,1.54.76Zm-1.2-13.81-.78.79.44.34c.43,0,.82.17,1.1-.34Zm-.34,10.36.34.34c.58-.15,2.06.39,3.08-1.09-.88-.35-2.34.31-3.43.75Zm.55,5.53h-.55v.55h.55Zm.85-14c-.23,0-.58.26-1.06.79.29.57.86.36,1.2.41a2.16,2.16,0,0,0,.41-.62c0-.4-.19-.59-.56-.59Zm-1.06,3.52.76.69c.26-.54,1.56-.72,2-1.13-.1-.33-2.18.43-2.77.43Zm.76,11.83.44.34c.3.12.45.18,1.54-.79a9,9,0,0,0-2,.44Zm.78-17.23c.16,0,.44.7,1.2.79.12-.21.23-.42.34-.65,0-.7-1.25-.75-1.55-.15Zm1.2,11.83a.71.71,0,0,0-.45.65c0,.69,1.6.87,2.33-.24-.31-.61-1.16-.37-1.89-.42ZM219.44,45l.45.37c.48-.08,1.24-.31,1.13-.78C221,44.62,219.67,44.39,219.44,45Zm3.11-22.6a1,1,0,0,1-1.06.76c-1,0-1.53.26-1.6.78l.75.75c.28-.06.68.31,1.4-.68a4.16,4.16,0,0,1,.86-1.19Zm-1.91-4.2,1.13.79c.64-.72,2.48-.09,2.66-1.13.14-.05-3-.24-3.77.34Zm1.13,11.49.78,1.53-1.5.76c1.87.46,4.1,1,4.92-.76-.18-.93-2.82-.17-4.18-1.53Zm.34,12.57-.34.45.34.34.44-.34Zm0-14.11.44.41a7.78,7.78,0,0,0,1.1-2,2,2,0,0,0-1.52,1.59Zm1.2,8.47-1.2-.44,1.2.79Zm-.21-21.29h-.55v.55h.55Zm.48,4.75a.62.62,0,0,0-.68.56.61.61,0,0,0,.41.64c.62-.06,1.23.19,1.53-.41a3.13,3.13,0,0,0-1.24-.79Zm-.27-5.3,1.12.75a4.5,4.5,0,0,0,.41-.54c0-.86-1.23-.83-1.51-.21Zm0,9.57.78.79c.15,0,.83.12,1.1-.45-.05,0-1.36-1.34-1.86-.34Zm1.53,1.92-.1.34c0,.78,1.71,1.31,2,2,1.08.43,1.2-1.3,1.92-1.54-.12-.1-2.84.88-3.8-.8Zm.72-4.72.07.07c.74.68.51.36.75.44a5.68,5.68,0,0,0,.34-.65c0-.79-1.14-.72-1.14.14Zm.82,3.59-.41.34.41.34.34-.34Zm.34-16.89c.45.54.66.71,1.7-.56.1-.12.17-.19.22-.19Zm.79,8.41-.41.41.41.34.34-.34Zm.21,3.08a.92.92,0,0,0-.62.34c.55,0,1.41,1.2,1.74,1.2.16,0,.34-.14.55-.41-.47.1-1.29-1.13-1.65-1.13Zm1.19,2.66c-.16,0-.51.26-1.06.76.28.61.9.4,1.2.44a2.31,2.31,0,0,0,.41-.65.49.49,0,0,0-.43-.54h-.12Zm-1.06,7.29.45.41c.62-.07,1.13.19,1.53-.41-.09-.14-1.58-.51-2,0Zm.45-4.21.34.34c.29-.29,2-.32,2.29-1.13-.86-.87-1.84.93-2.61.79Zm.75-13.77a.61.61,0,0,0-.4.77.6.6,0,0,0,.4.39l.41-.48a1.86,1.86,0,0,0-.39-.68Zm-.41,31c.82.33,2.34.83,3.07.34-.09,0-1.92-1.43-3.05-.34Zm.75-3.45-.34.37.34.41.44-.41Zm2-22.19-.78.79.34.34c.62-.14.4-.83.49-1.13Zm-.24,28.55h-.54v.55h.54ZM231,8.29a4.59,4.59,0,0,0,1.54-.75,5.68,5.68,0,0,0-1.54.71Zm.44,23v.33l.34-.35Zm.34,3.42-.34.45.34.34.41-.34Zm.55-2.08h-.55v.54h.55Zm1.33-16c-.61-.61-1.26-1.23-1.47-.34.32.3,1.14,1.09,1.47.75ZM232.14,28.9l.35.44c.14,0,.14.16.78-.44C233.14,28.62,232.26,28.42,232.14,28.9Zm.72-7.28c-.51.28-.57,1.2.21,1.2a4.94,4.94,0,0,0,.54-.42Zm1.58,17.64-.38.37.38.41.41-.41Zm.62-20.85h-.62V19h.62Zm0,17.56h-.62v.65h.62Zm-.25-27.35c.55-1.47,2.27-.36,3.08-1.16C237.61,7.21,236.2,7.44,234.81,8.62ZM238,32.93h-.58v.54H238Z"/><path class="cls-1" d="M276.44,42.06c-.53,7-4.27,10.8-7.07,11.48-4,4-12.57,2.86-17.76.86-7.32-2.82-10.39-15-6.85-16.55,2,.51,7.31-1.23,9.77,1.41.22,4.37,4.17,6.87,5.06,6.87s1.88-1,3.08-.07a1.7,1.7,0,0,0,.68-1.81c.29-.08.56.28,1.54-.79-1.41-1-.38-2-.38-3.45.06-2.22-6.41-6.79-8.2-8.1.32-1.29.18-2.19-2.09-2.5-5.53-3.9-10.45-9.2-9.91-15.93C244.15,5.62,249,.15,260.14.36,267,.24,273.05,2.54,274.6,9.18c.55,2.08,1.07,2.7,1.12,4.17-.09,4.6-6.36,3.29-10.8,2.08l-.78-2.9.34.34.78-.82a19,19,0,0,0-5.94-2.57,5.85,5.85,0,0,0-2.26,1.92c-2.09-.46-3.13-3.34-4.48-1.09.92.61,4.78,1.88,3.35,3.31.2,2.64,2.89,3.83,5.61,7.45l-.34.41.68.72c.2-.55.89-.32,1.5-.38l7.83,6.74c2,.75,1.58,3.63,3.66,4.82a14.45,14.45,0,0,1,1.23,7.07,4.81,4.81,0,0,1,.27,1.68ZM249,16.46h-.59V17H249Zm1-6.6c.14.61,1.35.59,1.81,0Zm1.67,35.27h-.55v.59h.55Zm.58-27-.44.69.44-.35ZM254,48.07h-.58v.55H254Zm1.26,2.46-.37.35.37.44.41-.44Zm.41-29h-.41l.41.34Zm1.13,4.07-1.13,1.13,1.47-1.13Zm-.21-6.49H256v.51h.58Zm2.57,4.1h-.55v.58h.55Zm2.25-19.38h-.54v.49h.54Zm.21,46.75.72.79.41-.44c-.38-.54-.86-.31-1.17-.4Zm.86-24.48h-.58v.58h.58Zm1.68,23.31-.35.37.35.41.34-.41ZM264.44,33l.41.35c.61,0,1.32.16,1.47-.35A1.66,1.66,0,0,0,264.44,33Zm2.66,10.43a.92.92,0,0,0-1.26-.27.87.87,0,0,0-.27.27.62.62,0,0,0,.61.44c.66,0,1,0,.92-.06Zm-.54-3.9H266v.55h.58Zm.54-8.06-.41-.35.41.76Zm.14,18.83h-.55v.55h.55Zm5.47-6.87c-.68,0-1.06-.11-1.13-.34l-.41.34a.63.63,0,0,0,.62.44c.66,0,1,0,.92-.06Z"/><path class="cls-1" d="M313.22,40.73c-.12,10.25-2.66,12.86-9.33,14.62-.31-.46-1.39,0-1.92.18l-12.3-.11c-.36.24-2.84.21-5,.31-1.1,1.1-2.39-.38-3.42-.38-1.25-1-.15-2.28-.38-3.57q0-.18.21.09l-.24-46.76c-.87-1.48.22-2.76.41-4.2l1.5-.86L297.69.5l.45.41a2.69,2.69,0,0,1,1.37-.29c-.23,0,.85.14,3.63.62,3.73.69,6.08,2.57,7.28,4.75,1.37,2.17,1.44,6.09,1.5,8.68.08,4.2-.83,8.26-3.86,11.14-.24.65-.38,1.06.8,1.83a5.59,5.59,0,0,0,.75.43l.46.2c2.19,3.6,3,8.15,3.11,12.38Zm-28.1-19.11h-.44l.44.37Zm1.32-13.23h-.59V9h.59Zm-.59,17.09.38.34c.9-.05,1.79.16,2.29-.34a2.57,2.57,0,0,0-2.65,0Zm.38-6.66v.06c.33,0,.83.14,1.16-.34a.63.63,0,0,0-.84-.23.61.61,0,0,0-.3.51ZM287,42.71l-.34.41.34.34.41-.34Zm.79-11.49L287,32l.41.37c.35,0,.84.16,1.13-.37Zm.2,4.41h-.53v.55H288Zm.55,3.22c-.14,0-.94-.16-1.13.41a4.21,4.21,0,0,0,.58.44l.21-.07c.12-.21.23-.42.34-.65ZM288,51.32h-.53v.62H288Zm.21-40.81.34.34c.28,0,1,.12,1.13-.34,0-.3-1.3-.64-1.45,0Zm.34,6.9c.87.69,1.06.92,1.54.72,1.3-1.28-1-1.51-1.52-.72Zm.34,10.33.45.41c.15,0,0,.17.75-.41-.12-.25-.94-.44-1.18,0Zm.45,18,.34.35.2.06a3,3,0,0,0,.55-.41.57.57,0,0,0-1.07,0Zm.48-24.23-.14.07.41.78.34-.41c-.3-.25-.5-.4-.59-.4Zm-.14,11.55c.63,0,1.39.16,1.54-.34-.05-.23-.91-.22-1.52.38Zm11.11,8.79c1.25-1.4.78-2.77.78-5.33l.41.41.38-.41-.38-.38-.41.34c-1.3-2.13-2.65-4.74-5-4.95l.41-.35c-.71-.57-.65-.36-.79-.41l.38,1.17c-1,0-2.39,1.75-3.08,0l-.38.37c1,1.24.73,1.24.83,1.54-1.89,1.88.91,7.91-3.56,7.69l.44.34c.91-1,2.07-1.54,2.67-.34,0,1.19-1.63,1.62-1.91,2.32,2,.18,2.48,2.77,3.86,3.42h.27c2.65.11,3.87-2.89,5.47-4.61l1.13.41v-.21c.11-.47-1.29-.47-1.55-1ZM290.84,50l-.4-.33.44.75Zm.35-19.18.41.41c.2-.07-.09.21.78-.41-.11-.21-.94-.43-1.17,0Zm9.67-13.53c-.26-2.72-1.13-6.24-3.52-7.56.91-1.2,1.65.75,2.67.35l.06-.14a2.16,2.16,0,0,0-.41-.62c-1.1,0-2.89-1.24-4.17,0-2.25.85-2,3.88-3.52,5,.87.07,1.26.83,1.16,2.29a2.21,2.21,0,0,1-1.57,2.67c1.23,0,2.13.86,2.7,2.66l-1.88.76-.07.2c0,.09.14.29.41.58.69.35,2-.67,2.33-.78h.37c3,.1,4.41-2.63,5.78-5.37Zm-8.92,7h-.34l.34.41Zm.5-20.62.34.41c.32,0,.92.15,1.2-.41C293.8,3.3,292.69,3,292.44,3.62ZM294,27.41c-.27-.55-1-.38-1.2-.41l1.2,1.2Zm.75,3.08-1.16-.75,1.16,1.12Zm-.07-2,.07.07c.83.62.6.35.79.41a5.22,5.22,0,0,0,.34-.62.62.62,0,1,0-1.24.07Zm3.08,1.13v.14c1.08,1,1.11.25,2-.91a.59.59,0,0,1,.36-.29c-.53.38-2.4-.17-2.4,1Zm1-5.81h-.54v.54h.54Zm1-.21c-.26.08,0-.22-.78.41l.34.34c.56-.73.34-.68.38-.82Zm.7,24c-.25,0-.89-.13-1.2.41a2,2,0,0,0,.65.45l.14-.07C300.64,47.62,300.37,47.85,300.44,47.62Zm.78-16.44h-.65c-.66,0-1,.21-.89.62v.14c.26.48.95.35,1.1.37.6-.24.41-.85.44-1.09Zm-1-25.9h-.55v.58h.55Zm2.53,5.94c-.95.07-1.36-.18-2,.34.36.67,1,.39,1.57.45.6-.67.4-.61.44-.75ZM302,7l-.2-.07a2.37,2.37,0,0,0-.55.44l.34.41c.53-.6.39-.64.42-.74Zm.38-3.08h-.79l.79.34Zm.2,19.31H302v.65h.58ZM302,25.44l.38.34c.86-.05,1.43.18,2-.34-.13-.14-1.85-.62-2.32,0Zm1.34,4.41h-.55v.55h.55Zm-.21-15.18.41.41c.15,0,.08.16.79-.41a.68.68,0,0,0-1.19,0Zm1.54,21.85a.61.61,0,0,0-.8-.33.59.59,0,0,0-.33.33c.13.52.95.38,1.13.41Zm0,7.34c-.14,0-.09.18-.75-.44l-.38.44c.07.23.33.35.79.35h.34Zm-.19-36.24h-.54v.55h.54Zm-.54,16.3.41.34h.13a4.19,4.19,0,0,0,.62-.34.62.62,0,0,0-.77-.4.6.6,0,0,0-.4.42Zm6.49,12.62h-1.13l1.13.41Z"/><path class="cls-1" d="M350,10l-.14,25.54c-.65,2,.54,2.86-.34,4.88l.41.31c-1.34,7.54-1.13,6.78-1.33,7.16-1.29,2.41-2.93,5.09-5.88,6.1-2.45,2.12-5.81,1.7-9.3,2.19-5.48-1.17-10.81.52-14.15-8.41-.83-3.73-1.82-32.62-.88-34.31-1.06-2.71.37-6.08-1.17-8.65.43-1.24.54-1.68,1.1-3.49.93-1.44,5.71-1.11,8-.65.76-.76,1.68,0,2.6,0A2.56,2.56,0,0,1,330,3.3l-.34.37c1.28,4.27-.82,8,.34,11.93-1,2.8.8,5.56-.34,7.93,1.14,1.42-.57,2.62.34,4.1-.23,1.58.37,3.05-.34,4.52,1.16,1.44-.64,2.71.34,4.47-1.07,1.39.86,2.5-.34,3.8.62,1.75,1.31,3.76,3,4.44,1-1,3.33,3,4.13,0-.13-.29-.51-.41-1.12-.34.27-.46,2-.3,2.25-1.13-1.55-1.16,1.06-3.34-.37-4.89,1.43-2.08-2-5.39,1.84-5.6a1.53,1.53,0,0,1-1.4-1.33,9.11,9.11,0,0,0-.41-2,16.89,16.89,0,0,1,.31-5.71,15.26,15.26,0,0,1-.34-5.26c1.14-1.35-.82-2.48.37-4.13a.75.75,0,0,1-.44-.76c0-.79,0-1.17.07-1.12l.71-.69-.71-.78.34-9.71c3.34-1.78,8-1.43,11.65-.51C350.35,6.62,349.38,8.81,350,10Zm-29.39,18.8h-.34l.34.34Zm1.33-12.58h-.58v.55h.58Zm.21,9.23-.35.34c.28.28.46.41.55.41l.14-.06.07-.07c0-.14-.14-.34-.41-.62Zm-.35,7.08c.6.3,1.37,1.26,2.23.41-.21-.28-1.36-.35-2.23-.41Zm1.47,6-.37.41.37.35.34-.35Zm.89,6.57h-.55v.56h.55Zm.79-27.35h-.58v.55h.58Zm.2,17.06L325,34.7a2.13,2.13,0,0,0-.65.44l.37.35c.58-.57.37-.58.41-.71Zm.33-10.15h-.75l.75.37Zm.79,14.63h-.14c-.76,0-.62.68-.65.78h.35c.65-.71.39-.58.45-.77Zm.55,8.4h-.55v.58h.55ZM327,10l1.46,1.48.38-.34Zm.93,37.32h-.55v.55h.55Zm-.21,3.21-.34.35.34.37.41-.37Zm.41-29.25h-.41l.41.34Zm-.41,5.26h.41l1.13-1.13Zm.89,2.94c-.63,0-.79.82-.14,1.2l.79-.79a2.15,2.15,0,0,0-.64-.4ZM329,38.7h-.59v.55H329Zm2.81,6.6-.4.32A4,4,0,0,0,332,46l.21-.07c0-.07.13-.14-.38-.65Zm2.6,5.23.72.72.41-.37C335.27,50.21,334.58,50.54,334.44,50.53Zm2.39-1.19-.14.07.35.71.41-.34c-.28-.29-.49-.44-.58-.44ZM339,15.62l-.38.41c.65.55.57.33.72.38l.07-.14A1.93,1.93,0,0,0,339,15.62Zm.2,23.89h-.58v.55h.58Zm-.58,3.9.38.38a1.09,1.09,0,0,0,1.09-.38c-.13-.29-1.28-.57-1.47,0Zm.72-12.71-.34.68a3.15,3.15,0,0,0,.55.41h.2c0-.17.12-1-.41-1.11Zm.55,19.65h-.55v.55h.55Zm1.67-40.73L342,10c.14-.06-.08.18.75-.34C342.61,9.38,341.79,9.18,341.55,9.62Zm1.54,25.84c-.15,0,0-.18-.75.41l.41.34a4.26,4.26,0,0,0,.34-.55Zm.35-11.59-.38.41.38.34.41-.35Zm.54,13.3h-.54v.55H344Zm1.68,6.22c-.4,0-1.36,0-1.47-.41l-.34.41a.73.73,0,0,0,.75.45c.75,0,1.1,0,1.06-.07Zm-.92-3.9h-.55V40h.55Zm3-22.55h-.58v.58h.58Z"/><path class="cls-1" d="M386,56c-2.94-.32-3.76-.79-5.26,0l-.41-.34c-.91.91-2.18-.31-3-.48-2.29-2.24-2-8.45-2.07-10.37-.1-4.61,1.18-9.85-4.57-11.84-1.41.83-3.14-.3-4.2.34,3.5,1.22-.21,4.7,1.57,6.59-2.31,1.51,1.4,2.81-.37,4.58.78,5,.27,7.2.34,10-1.46,3-5.15,1.06-7.49,1.06a22.86,22.86,0,0,1-2.56.54c-2,.11-3.81-2.55-2.6-5.47l-.89-.63,1.23-31.68a.82.82,0,0,1-.41-.82c0-.8,0-1.15.07-1.06l.21-.07a3.15,3.15,0,0,1,.48.41,5.28,5.28,0,0,1,.85-.92c0-.41-.16-.62-.48-.62-.5,0-.65.43-1.23.31L355,2.14C357.83-1.47,365.17,1,369.23.67c1.93-.18,7.09-.92,11.48.61,3.73,1.34,4.73,3.78,5.6,7,2.28,8.36,1.57,11.63-.22,16.2-.66,1.6-3,2.44-2.91,4-.33,1.81,4.75,5.51,3.25,9.09,1.73,2.6.34,7.22.92,10.17a51,51,0,0,1,1.09,5.45C388.44,55,387.71,55.94,386,56ZM357.58,24.15l.45.34h.13a4.19,4.19,0,0,0,.62-.34.64.64,0,0,0-.83-.37A.62.62,0,0,0,357.58,24.15Zm.79,12.23.41.45c.86-.07,1.55.22,1.91-.45a1.84,1.84,0,0,0-2.32,0Zm.41,2.33h-.41l.41.41ZM359,43.9h-.62v.62H359Zm.13-14.42.45.41c.62-.06,1.38.19,1.53-.41a1.59,1.59,0,0,0-2,0Zm.45-2.67.75.76.37-.41c-.25-.48-.81-.31-1.12-.35Zm.75,19.59h-.41l.41.38Zm.58-32.78h-.58v.54h.58Zm0,26.86h-.58v.58h.58Zm-.21,8.27h-.37l.37.35ZM361.1,33l1.54,1.12.34-.34c-.26-.55-1.54-.52-1.88-.81Zm1.13-7.69h-.79l.78.34Zm-.37-3.87.37.41c.16-.05,0,.18.75-.41-.06-.3-1-.56-1.12,0Zm.37,9.61v.41l.41-.41Zm.41-18.83v.4l.34-.41ZM363.77,16l-.79.79.41.41c.15,0,.08.16.79-.41-.07-.21.26.06-.41-.82Zm.41,22-1.2.75.41.41c0-.07.18-.23.52-.48a.73.73,0,0,0,.27-.76Zm-.74-18.92c.35-.52,2-.25,2.33-.78C365.49,18.11,363.79,17.8,363.44,19.12Zm.79,26v.18c.61.87,1.15-.2,1.88-.45-.44-.5-2.08-.69-1.93.28Zm0-18.32.34.35.79-.76c-.24,0-1.05-.1-1.18.42Zm.34,8.82a.69.69,0,0,0-.24,1,.62.62,0,0,0,.24.24l1.2-1.2Zm4.65-7.76A6.23,6.23,0,0,1,365,30.22c1.62.66,3.64-1.28,4.65-1.54-.12-.2.15.11-.46-.81ZM365.31,5.62l.41.37c-.26.11.26.07,1.06.07a.82.82,0,0,0,.82-.44A1.8,1.8,0,0,0,365.31,5.62Zm1.33,8.68h-.58v.58h.58Zm-.2,8.65a.92.92,0,0,0-.27,1.28,1,1,0,0,0,.27.26l.38-.34C366.82,23.62,367,23.19,366.44,23Zm.38,4.62-.38.37.38.41.41-.41Zm.2,8.27h-.58v.54H367Zm9.42-15.22c-.42.05,0-.05-.76.31a41,41,0,0,0-.27-7.18c-.71-4.23-6.28-5.19-8.13-1.6,1,5.22-.92,12.76,3.67,11.43,2.22-.65,3.33-1.29,4.39-.22l.41-.45-1.19-.75c-.2-.5.14-.87.78-1.54l1.1,1.2c.18,0,.2.17.78-.41Zm-8.82,4.27c0,.24-.16,1.1.65,1.1h.13a1.92,1.92,0,0,0,.41-.62c0-.75-1.11-.43-1.21-.44Zm2,6.84.75.75A10.64,10.64,0,0,0,372.7,31s-2.26-.18-3.12.79Zm.34-5.37.41.41c1.11-.73,3.13.87,4.21-.78-.14-.24-2.72,0-4.66.41Zm.41,2.7.79.79.34-.41c-.23-.48-.88-.3-1.17-.34Zm.93-21.67h-.59v.55h.59Zm2.93-.24h-.44l.44.38ZM375,27.9c.78.32,1.54-.66,1.91-.78-.15-.08-1.84-.41-1.95.82Zm1.33,3.28h-.55v.55h.55Zm-.55,6,.34.41c.21-.07-.08.2.79-.41-.11-.23-1-.51-1.17,0Zm1.47-3.86a1.16,1.16,0,0,0-.65-.41l-.13.07.78.78Zm0-6.91c.76,1,1.48-.17,2.29-.37-.24-.24-1.94-.58-2.33.41Zm.75-6.87-.34.35.34.41.45-.41Zm.79-3.86-.34.34c.1.11.59.86,1,.86l.13-.07.07-.07a2.37,2.37,0,0,0-.9-1Zm0,13.81-.34.41.34.34.41-.34Zm.75,3.49-.07-.07a1.58,1.58,0,0,0-.68.41l.41.44a2.31,2.31,0,0,0,.41-.65Zm0-25h-.34l.34.79Zm2.91,3.69h-.61v.59h.61Z"/><path class="cls-1" d="M424.88,52A3.26,3.26,0,0,1,422,55.46c-3.55,0-7.5-4.44-10,0a15.43,15.43,0,0,1-5.27.62c-6.75.19-10.27-2.63-11.89-8.07-1.69-3.32-1.94-11.45-2-15.17.1-10.69-.47-13.45-.24-13.33q0-1.17.75-1.47c-1.82-14.6,10.73-21.61,22.47-16.25,2.26-.17,4.58,2.5,6.11,4.35a47,47,0,0,1,1.82,6.25c1.52,1.27-.37,2.81.68,4.48l-1.74,1.47L413,18a3.35,3.35,0,0,1-.68-2.94l.68-.79c-1.77-.44-2.25-3.8-4.4-2.94l-1.11-1.09a1.66,1.66,0,0,0-.75,1.88c-2.44,2.43-1.72,5.63-1.85,6.22,1.21.9-.71,1.89.35,2.94l-.35.41c1.18,1.08-.74,1.51.35,2.59-2,1.42,1.26,2.81-.35,4.41,1.19.89-.69,1.57.38,2.64-.33,1.86-.37,8.75-.38,8.85-.62.06-.23-.13-1.12.17,1.64,3,4,5.51,7.41,6.12l.79-.75-1.48-1.1c1.87-1,2.29-2.91,2.29-5a2.87,2.87,0,0,0-.07-.58c1.26,0,1.7.77,2.26-.34A1.77,1.77,0,0,0,413,38l-3-3.4.78-.75-.78-.72-.35.34c-1.48-1.48-.22-3-.75-5.16l.41-.34c-.92-.46,0-1,0-1.54L411,25.39l10.49.34a1.71,1.71,0,0,1,2.26,0l.88,2.56c-.15,3.36-.58,13.28-.51,13.13q-.24.16.75,10.52ZM394.16,30.16l.34.41c.35-.05.74.18,1.13-.41C395.44,29.89,394.28,29.62,394.16,30.16Zm.68-7,.41.71.38-.34C394.76,23,395,23.21,394.84,23.16Zm.92,16.1h-.51v.58h.51Zm-.13,2.8-.38.37.38.35.34-.35ZM398,15.19h-.54v.55H398Zm.59-4.27-.38.41.38.38.34-.38Zm0,21.12h-.38l.38.38ZM401.13,38c-1-.65-3.07-.77-2.56.75.4.54,1.37.41,2.39.41.23,0,.28,0,.17-.07ZM398.91,12.8l-.34.72L400,12.8Zm-.34,35.58c.59-.86,2.76.06,2.93-1.13A13.17,13.17,0,0,0,398.57,48.38Zm1.87-18.9c-.39-.27-1,.28-1.53.68H400C400.55,29.62,400.44,29.62,400.44,29.48Zm-.2-9.81h-.58v.55h.58Zm2.36,3.86c-.14,0-.05-.14-.69.34h.69Zm-.16,6.09h-.55v.54h.55Zm-.2-2.4,1.47,1.47.34-.34c-.26-.64-1.52-.73-1.79-1.13Zm.34,14.09-.34.34.34.41.44-.41ZM403,18.68l-.44.44a4.48,4.48,0,0,0,.65.35h.13v-.14c-.1-.22-.21-.44-.32-.65Zm.69,15.62c-.13,0-.12.16-.69-.41l-.44.75c.92.58.66.32.78.38a2.31,2.31,0,0,0,.41-.65Zm-.35,14.77-.34.34.34.44.35-.44Zm.93-27.25h-.58v.58h.58Zm.2-8.3h-.44l.44.41Zm0,34.08-.44.34c.82.66.6.38.78.44,0-.21.2.09-.32-.76ZM406.17,6h-.58v.55h.58Zm.13,46,.35.79.41-.38c-.76-.58-.55-.3-.74-.37Zm1.88-44-.41.34.41.45.35-.45Zm.37,39.66.78.78.34-.44C409.33,47.45,408.79,47.62,408.55,47.62Zm1.26-38.29h-.48v.48h.48Zm1.13,21.06h-.5V31H411Zm2,15.76-.68.71.34.41c.26-.08,0,.23.79-.41V46.8c.05-.18-.14-.4-.44-.67Zm.5-35.53H413l.79.34ZM414,26.38h-.55v.54H414Zm-.55,17.87.34.75.34-.34C413.57,44.14,413.5,44.28,413.44,44.25Zm1.13-2.19.68.72.14.06c.37,0,.89-.78,1-.78a1.2,1.2,0,0,0-1.68-.18.77.77,0,0,0-.18.18Zm1-3.69L416,38c-.44-.6-1-.41-1.13,0l1.47,1.53.34-.44Zm.79-2.6-.34.34.34.38.34-.38Zm.55-29.46h-.55v.54h.55Zm0,40h-.55v.58h.55ZM416.7,51h-.34l.34.38Zm1.47-13.7-.34.72h.34Zm2.6,5.19-.34.35.34.34.41-.34Zm1.13-3.72c-.19,0-.07-.16-.72.34l.34.44a2.21,2.21,0,0,0,.44-.64Z"/><path class="cls-1" d="M81.56,80c-2.54,3.75-1.32,2.35-9,2.29-3.07,0-5.32-1.75-8.58,2.33.1,2.33-.65,7.15,3.11,9.19,3.32,0,9.11-2.21,10.7,1.88-.17,3.67.14,4-.37,6.15.86.87-.22,1.51-.41,2.29-1.6.93-3.86.74-5.71.53-3.78-.4-5.51-.8-7.32,2.55a3.46,3.46,0,0,1-.17,3.59c.76,13.33,1.21,9.29.62,13.07-.24,1.48-.12,2.35-1.39,2.94-1.76.83-8.74,0-9.14-.08-3-.43-2.18-3-1.47-6a4,4,0,0,1,.41-1L51.7,73.41c1.69-3.49,2.86-1.85,3.41-1.85.12,0,.27-.13.45-.41,13.82.3,19.13.62,18.29.38,2.46,0,4.7-1.06,6.93.38.16.88,1.43,1.88.38,2.66a8.74,8.74,0,0,1,.4,2.53ZM52.79,96.75v.07c.35.36,1.17-.42,1.54-.75C54,96.12,52.79,95.85,52.79,96.75Zm1.91-5.67c.59.46.48.9,2-.41C56.16,90.18,55.26,90.67,54.7,91.08Zm1.54,13.36-.37.79.17.07a1.93,1.93,0,0,0,.61-.41Zm-.37,5.82.78.78c.25,0,1,.15,1.13-.41C56.84,110.32,56.68,109.28,55.87,110.26Zm1.69-22.64H57.4l.38.69.41-.35A2.39,2.39,0,0,0,57.56,87.62Zm-.18,29.54.38.41H58a4.26,4.26,0,0,0,.54-.41.58.58,0,0,0-.74-.37.59.59,0,0,0-.37.34Zm.79-25.26-.39.72.75-.75Zm.21,12.44h-.6v.58h.62Zm.18-18.63-.34.41.79.76.34-.41Zm0,16.1-.34.41.34.4.45-.35Zm.79-4.2L59,98l.34.41.41-.41Zm0-6.53c.86.87,1.58-.23,2.29-.41a1.52,1.52,0,0,0-2.13.14l-.19.27Zm.34-6.29.07.14c.76.6.59.35.79.41a1.86,1.86,0,0,0,.31-.72c0-.65-1.2-.63-1.2.17Zm.87,15.11-.45.38.45.41.34-.41Zm.34-5.74a.58.58,0,0,0,0,1.12l.41-.34v-.2c0-.12-.13-.12-.45-.58Zm0-13.54-.3.1c1,1.07,2,1.18,2.22.79A10.16,10.16,0,0,0,60.86,80.62Zm.54,16.57c-.63,0-.78.88-.13,1.2l.78-.75a6.42,6.42,0,0,0-.65-.48Zm2.33,6.74h-.58v.54h.58Zm1-27-.21.06s-.1,0-.17-.11a2.43,2.43,0,0,0-.38-.33l.76.79ZM64.31,80l-.34.34.34.41.42-.41ZM64,99.52v.41l.34-.41Zm1.13,2.32L64,102.6l.34.41c.11-.1.86-.66.86-1Zm0-27.22V75l.41-.41Zm0,21.84v.41l.41-.41ZM67.8,80h-.45l.45.34Zm.37,16.1c.38.2,1.17,1.34,1.92.34a4.52,4.52,0,0,0-1.92-.39Z"/><path class="cls-1" d="M111.17,127a8.06,8.06,0,0,1-1.2-.08c-5-.61,2.31-.9-20.64.08-.61-.86-1.3.19-1.81.11-.3,0-1.2-.84-2.87-2.29.84-16.74.17-17.34,1-19.08-.23-4.55-.23-6.46-.38-18-.19-13.67-1.71-14.8,1.8-16.52a33.12,33.12,0,0,1,5.27.14c4.85.51,5.43-.81,5.43,3.69a2.64,2.64,0,0,0,.45,1.57c-.9,6.4-.69,6.91-.52,9.88l-.54.78.54,20.65c-1,1.33.86,2.52-.34,3.42a2.59,2.59,0,0,1,0,2.76c1.1,1.22,2.52,2.38,4.16,2.23,8.51-.33,9.28-1.48,11.85-.07a3.12,3.12,0,0,1,1.52,1.6c-.91,1.82,0,4.87,0,6.16C114.93,125,113.38,127,111.17,127ZM86.73,102.5a.86.86,0,0,0-.85.41l.44.44c.35-.16,0,.42,1.47-.78C88.05,102.46,87.56,102.5,86.73,102.5Zm1.47-4.88.34.34c.51.2.83,0,1.54-.79A2.52,2.52,0,0,0,88.2,97.62Zm1.54,13-.41.76.14.06a1.69,1.69,0,0,0,.61-.41Zm-.41,6.16.75.75c.19,0,.93.12,1.2-.41-.72-.06-1.15-1.5-2-.4Zm2.29,6.49h-.34l.34.38Zm.58-25.46h-.58v.61h.58Zm0,9.94h-.58v.62h.58Zm.2-15.48h-.34l.34.41Zm1.75-1.68h-.59v.55h.62Zm-.21,6.63h-.38l.41.45Zm.21,18.22h-.59V116h.62Zm1.13-11.89h-.59v.61h.59Zm.2,12.44h-.41l.41.38Zm1.4,3.45c-.48,0-.72.21-.72.62l.07.13h1.13c0-.32.2-.81-.48-.81Zm5.47.75-.37.35.37.44.41-.44Zm1.09-3.82v-.59h.65v.59Z"/><path class="cls-1" d="M151.74,125.62c-1.16,2-4.11,1.37-5.3,1.47-1-1.18-1.93-.68-3.86,0-3,1-3.41-4.19-4.48-7.48a9.84,9.84,0,0,0-6.32.07c-1.72.75-1.82,1.87-2.26,3.55-1,3.65-1.31,4.18-6.17,3.9-1.09-.06-1.56-.1-2-.1-1.14,0-2.85.94-4.48-2.12,1.19-2.62.27-1,3.76-17.47a26.08,26.08,0,0,0,.14-2.94c2.22-8.42,5.36-30.25,6.12-31.48,1.82-3.64,6.27-.4,9.67-1.8-.22-.07,2.4-.07,2.63-.07,2.4,0,2.42,1.13,3.42,3.42,0,1.91.93,4.51.37,6.52,1.45,1.54.87,1.44,5.3,27a4.74,4.74,0,0,1,1.2,3.42l-.41.37.65.75c.09,3,1.77,7.48,2.08,12.1Zm-28.47-11-.41.37c.66.53.65.38.75.41l.07-.13a3.16,3.16,0,0,0-.41-.74Zm1.29-21.15h-.5V94h.5Zm1,23.72.76.79.41-.44C126.37,117.09,125.73,117.22,125.56,117.19Zm2-7.62-.41.41a3,3,0,0,0,.62.45l.13-.11v-.13a4.73,4.73,0,0,0-.43-.57Zm.55-3.21h-.55v.55h.55Zm.14-3.59-.35.38.79.75.34-.41ZM128.9,114h-.74v.55h.65Zm.34-27h-.68v.59h.55Zm.54,13.16c-.1,0-.78-.3-1.09.38a1.81,1.81,0,0,0,.62.41l.13-.07c.3-.29.45-.48.45-.54Zm.79,6.81a1.65,1.65,0,0,0-1.88.78c.15.61.87.35,1.54.41.33-.35.23-1,.25-1.23Zm0-25.84c-.32-.64-1-.34-1.13-.35s-.26.79.86.79l.27-.07Zm-1.13,3.79.34.41c.32,0,.92.15,1.2-.41-.23-.28-1.36-.57-1.63,0Zm0,29.67,1,1.05.79-.76c-.41-.51-1.13-.24-1.92-.33Zm.79-24.71a.57.57,0,0,0-.45.67.55.55,0,0,0,.45.45l.34-.34v-.13a5,5,0,0,0-.43-.69Zm.75,28.5c-.24,0-.88-.13-1.2.41.42.3.63.45.65.45l.14-.11a4.26,4.26,0,0,0,.41-.54Zm6.58-11-.65-9.57.78-.78-.85.07a10.51,10.51,0,0,1-.62-5,1.64,1.64,0,0,0-2-.79A2.65,2.65,0,0,0,133.1,94c-2.22,2.08.3,7.48-3,8.34l-.07.14c0,.61,1.41.73,1.54,1-1.45,2.18,1.68,5.39-1.47,6.49l.34.34c1-1.12,4.07-.62,5.33-.75.21.07.34.32.41.75V110c1.06-1.06,1.61-1.37,1.61-2.08C137.83,107.78,137.72,107.38,137.56,107.38Zm-5-19.61c-.79,1.1-.92,1.72-1.68,1,.28-.82,1.92-.77,2.26-1.19C132.92,87.56,132.82,87.41,132.56,87.77ZM131.26,83l.75.75c.55-.78,2.48.31,2.67-1.13.12,0-2.54-.33-3.41.38Zm.34,33.09-.34.78.34-.41Zm0-37.29.41.41.79-.76c-.36,0-.85-.13-1.19.35Zm3.11,36c-1.12-.7-1.82-1.79-2.7-1.79a.64.64,0,0,0-.37.83.62.62,0,0,0,.37.37,1,1,0,0,1,.79-.28c1.37,0,2,3,3,1a1.22,1.22,0,0,1-1.08-.13Zm-1.56-39.46h-.79l.79.45Zm.41,10,.71.79c.16-.06,0,.17.76-.41-.47-.58-1.27-1.26-1.47-.43Zm1.13-6.08-.42.34c.53.49.66.41.76.44l.07-.13c0-.15-.14-.36-.41-.7Zm-.42,9.53.76,1.1.41-.41Zm.42,22.8V112l.34-.38Zm2.22-25.46-.14-.07c-.09,0-.27.13-.55.41l.34.34c.28-.27.42-.48.42-.62Zm4.2,27.72c-.71-1.19-2.61-1-3.76-.35l.34.35c1.35-.84,2.2.21,3.42.41Zm-3-21.3h-.41l.41.34ZM137.7,118v.34l.41-.34Zm.41-18v.13c.3,0,.85.15,1.13-.41a.59.59,0,0,0-.76-.33.59.59,0,0,0-.38.55Zm1.45,1.59-.07.11c-.11,0-.31-.15-.61-.45l-.45.34c.3.56,1,.43,1.13.45Zm0-14c-.13,0-.11-.16-.68.41l.34.34a2,2,0,0,0,.41-.62ZM139.19,110c.29.83,1,1,2.7,1.57-.15-.54-1.19-1.16-2.69-1.66Zm.58-16.13h-.55v.58h.55Zm-.55,13.87c1.27.22,2.29,1.28,3.42.41-.08-.11-2.27-1.44-3.41-.5ZM140,104l-.45.34.45.44.34-.44Zm2.63,13.29.79.79a2.31,2.31,0,0,0,.41-.65.61.61,0,0,0-1.19-.23ZM145,104l-.41.34.41.44.34-.44Z"/><path class="cls-1" d="M188.14,113.06c-.53,7-4.29,10.8-7.07,11.48-4,4-12.71,2.81-17.76.86-7.2-2.78-10.54-14.87-6.85-16.55,2,.52,7.3-1.24,9.77,1.41a7.28,7.28,0,0,0,1,3.53c.72,1.17,2.94,3.34,4,3.34.67,0,1.35-.48,2-.48a1.71,1.71,0,0,1,1.06.41,1.67,1.67,0,0,0,.68-1.81c.29-.08.57.28,1.54-.79-2.28-1.66,1.78-2.66-2.46-6.63a70.8,70.8,0,0,0-6.12-4.92c.32-1.29.18-2.19-2.08-2.5-5.53-3.89-10.46-9.19-9.92-15.93-.14-6.92,3.82-11.33,9.51-12.59,3.91-.87,11.37-1,15.91,1.55a10,10,0,0,1,4.87,6.74c.55,2.08,1.07,2.7,1.12,4.17-.08,4.18-5.27,3.43-9.26,2.48l-1.54-.4-.78-2.9.34.34.79-.82a19.15,19.15,0,0,0-6-2.57,6,6,0,0,0-2.26,1.92c-2.16-.47-3.12-3.35-4.48-1.09,1.1.73,4.79,1.88,3.35,3.31.2,2.65,2.87,3.8,5.61,7.45l-.34.41.68.72c.2-.55.89-.32,1.51-.38l7.82,6.74c2,.74,1.61,3.65,3.66,4.82a14.23,14.23,0,0,1,1.23,7.07,4.39,4.39,0,0,1,.27,1.68Zm-27.41-25.6h-.58V88h.58Zm1-6.6c.14.62,1.35.59,1.81,0Zm1.67,35.27h-.55v.59h.55Zm.58-27-.44.69.44-.35Zm1.68,29.94h-.58v.55h.58Zm1.26,2.46-.37.35.37.44.41-.44Zm.41-29h-.41l.41.34Zm1.13,4.07-1.13,1.13,1.47-1.13Zm-.2-6.49h-.59v.51h.59Zm2.56,4.1h-.55v.58h.55Zm2.25-19.38h-.54v.54h.54Zm.21,46.75.72.79.41-.44c-.38-.54-.85-.31-1.17-.4Zm.92-24.43h-.64v.58h.58Zm1.68,23.31-.34.37.34.41.34-.41Zm.34-16.38.41.35c.6-.05,1.32.16,1.47-.35-.25-.32-1.54-.55-1.92,0Zm2.67,10.43a.92.92,0,0,0-1.27-.26,1,1,0,0,0-.27.26.64.64,0,0,0,.61.44q1,0,.93-.06Zm-.55-3.9h-.58v.55h.58Zm.55-8.06-.41-.35.41.76Zm.13,18.83h-.54v.55H179Zm5.47-6.87c-.68,0-1.06-.11-1.13-.34l-.41.34a.63.63,0,0,0,.62.44c.66,0,1,0,.92-.06Z"/><path class="cls-1" d="M223.79,126.32a17.55,17.55,0,0,1-5.16.41,6,6,0,0,0-.73.07c-3,.45-2.73.58-4.81-.55-1-2.81-.92-8.14-.83-11.11a26.15,26.15,0,0,1,.46-4.58,17.59,17.59,0,0,0-.34-4.34c-2.78-3.93-7.22-2.28-8,1.1l.34,1.12c-.63-.41-1.62.94-1.88,1.2.33.11,1.21,1.58,1.88,1.13-.25,1.54.38,3.1-.34,4.54a5.39,5.39,0,0,1,0,4.17,13.48,13.48,0,0,1,0,6.5c-2.31,2.44-6.1-.25-8.79,1.09h-.2c-2,0-2.25-1.2-3.22-3,1.21-.9-.69-1.28.35-2.32l-.21-.21c.33-8.24.65-11.92.65-11.82-.24-2.77.12-3.15-.34-7.18,0-5.15-.45-9,.31-15.35-.68-3.11-.31-6.14,0-9.46-1.55-1.76-.26-3.43-.45-4.93,2-2.85,6-1,8.79-1.57l2.29.41,1,1.47.13,9.5c-1,.76-1.45,1-1.53,1.58l.41.34c.18-.47,1-.31,1.12-.34-1.22,1.53,1,2.85-.41,4.13,2.1,3,2.13,3.86,5.92,3.27a5.66,5.66,0,0,1,3.59.15L215,90.62c-1-1.76-2.4,0-3.38,0,.92-1.23,1.2-3.79,1.5-4.89a4,4,0,0,1-.34-4.17q-.62-4.74-.62-5.4a7.4,7.4,0,0,1,1.3-4.51c2.13-.71,3.42-.35,5-.41a2.37,2.37,0,0,0,.53.26c1.36.46,2.11,0,3.17,0s2.41.92,2.32,2c-.25,14.4-.46,18.79-.27,23.18a26.15,26.15,0,0,1-.31,2.94c-.07.66-.12,1.18-.14,1.57s0,.53,0,.44l.68,22A7.86,7.86,0,0,0,223.79,126.32Zm-30-19h-.44l.44.37Zm1.1-26.6h-.76l.76.41Zm.58,18.43h-.58v.54h.58Zm1.33-18.43c-.15,0-.07-.16-.79.41l.41.38c.55-.89.31-.6.37-.79Zm-.39,31.9L196,113c.82.67.6.38.79.44C196.72,113.2,197,113.49,196.41,112.62Zm2.33-9.44a14.32,14.32,0,0,1-2,.69c1-.09,1.91.2,2.67-.34a1.49,1.49,0,0,0-.67-.32Zm-.07-14.49h-.79l.79.34Zm0,17.84h-.34l.34.41Zm0-5.33c1,.74,1.39.61,2.32,0-.25-.47-1.94-.9-2.32,0Zm.41,7.62h-.41l.41.38Zm-.07,7.87.07.13c.29,0,.85.15,1.13-.41-.09-.22-1.2-.45-1.2.31Zm.86-23.45c-.56.86-.72,1.23-.72,1.13a.39.39,0,0,0,.31.41c.82-.07,1.57.2,1.88-.41-.26-.22-.93-1.1-1.47-1.1Zm-.41-1.54.41.41A1,1,0,0,0,201,91.7c-.18-.27-1.27-.55-1.53,0Zm1.1,19.41h-.68l.34.79a2.31,2.31,0,0,0,.41-.65Zm.2-23.72h-.54v.55h.54Zm-.54,10.39A5,5,0,0,0,204,99l.41-.44a16.39,16.39,0,0,0-4.21-.79Zm.34,7.25-.34.75H201C200.92,105.62,201.22,105.85,200.56,105Zm-.34,8.4.78.76.35-.41c-.13-.51-.64-.32-1.14-.35Zm1.13-23.61.75.78.44-.34c-.33-.59-1-.41-1.2-.44Zm.41-3.35.34.34c.18,0-.07.16.78-.34-.07-.28-1-.58-1.13,0Zm.34,9.09-.34.37c.71.57.64.37.78.41-.07-.16.18,0-.45-.78Zm1.54,10.66c-.28-.59-.91-.41-1.1-.44l1.1.78Zm0-12.2c-.19,0-.22-.06-.38.1a1.78,1.78,0,0,1-.38.28l.35.41c.55-.71.33-.65.4-.79Zm-.76,9.54c.85.85,1.6-.24,2.29-.41-.33-.3-2.3-.81-2.3.41Zm.48-22h-.13l.41.75.37-.41a7.16,7.16,0,0,0-.66-.39Zm4,20.17c-2-1.4-2.61-1.88-3.76-.79.34,2.07,2.67-1.74,3.45,1.13l.34-.34ZM204,119.57h-.37l.37.34Zm0-28.17.41.38.75-.72c-.07,0-.81-.35-1.13.29Zm.75,3.8a.86.86,0,0,0,.86.41,7.73,7.73,0,0,0,2.63-1.23,2.61,2.61,0,0,0,1.06-1.4c-1.33-1-2.47,2.55-4.52,2.17Zm1.88-3-.34.79c.17-.06,0,.19.79-.45Zm-.34,6.43.34.44c1,0,1.9,1.38,3.11.34-.43-.21-2.09-1.87-3.42-.79ZM211.87,96c-.74-.18-2.6-.15-2.6.89a2.4,2.4,0,0,0,.44.65,2.94,2.94,0,0,0,2.17-.34,2.32,2.32,0,0,0,.84-1.2Zm-2.16-1.53.35.41c.62-.06,1.38.19,1.53-.41-.17-.36-1.4-.71-1.85-.06Zm.89,6.29h-.54v.54h.54Zm1.34,1.67a3.9,3.9,0,0,0,1.26.07,1.25,1.25,0,0,0,1.06-.41,1.61,1.61,0,0,0-2.25.23.1.1,0,0,1,0,0Zm.2-3h-.2l.78,1.13.41-.38c-.14-.23-.69-.82-1-.82Zm1,11c.59.2,1.36,1.31,2.22.45a1.43,1.43,0,0,0-1.88-.74,2.07,2.07,0,0,0-.32.19Zm2.67-5.64c-.71.36-1.59-.66-2.33-.37-1.07,2,1.28-.07,1.88,1.13.58-.7.43-.75.47-.86Zm-1.2,8.31h-.78l.44.79a1.76,1.76,0,0,0,.41-.65Zm.21,5.54h-.55v.54h.55Zm-.21-26,.41.45,1.47-1.2c-.24-.41-1.09-.4-1.86.6Zm.48-5-.07.06.34.76.45-.41a1.56,1.56,0,0,0-.7-.51Zm.27,14.49.45.34.13.07a3.15,3.15,0,0,0,.55-.41c-.09-.6-.68-.8-1.11-.1Zm.45,14.83h-.45l.45.34Zm.34-31.14-.34.35c.51.51.58.37.68.41l.07-.14a2.11,2.11,0,0,0-.39-.72Zm.2,10.43h-.54v.55h.54Zm-.2,2.08.34.35.21.06a2.11,2.11,0,0,0,.58-.41.6.6,0,0,0-.71-.43.63.63,0,0,0-.4.33Zm.79-7.21c.88.89,1.44-.21,2.22-.41-.19-.37-1.79-.78-2.2.31Zm.75-6.49-.41.41.41.34L218,85Zm0,24.71-.41.41.41.34.34-.34Zm.78-14.83-.44.41.44.34.35-.34Zm.35,3.07a.57.57,0,0,0,0,1.1l.34-.35.07-.2a4.86,4.86,0,0,0-.39-.65Zm1,11.56h-.61v.49h.61Zm1.47,3.82h-.54v.58h.54Z"/><path class="cls-1" d="M262,111.73c-.12,10.25-2.65,12.86-9.33,14.62-.31-.46-1.39,0-1.91.18l-12.31-.11c-.36.24-2.84.21-5,.31-1.1,1.1-2.39-.38-3.42-.38a1.6,1.6,0,0,1-.61-1.29,5.46,5.46,0,0,1,.13-.89,4.46,4.46,0,0,0,.14-.89,2.09,2.09,0,0,0,0-.5c0-.12,0-.09.2.09l-.3-46.76c-.87-1.47.23-2.76.41-4.2l1.51-.86,14.93.45.45.41a2.72,2.72,0,0,1,1.4-.29c-.23,0,.85.14,3.63.62,3.73.7,6.09,2.57,7.28,4.75,1.37,2.17,1.44,6.09,1.5,8.68.08,4.2-.83,8.26-3.86,11.14a3,3,0,0,0-.17.65c0,.47.58.92,1,1.18a5.59,5.59,0,0,0,.75.43l.47.2c2.19,3.6,2.95,8.15,3.11,12.38Zm-28.1-19.11h-.44l.44.37Zm1.34-13.23h-.58V80h.58Zm-.58,17.09.37.34c.92,0,1.79.16,2.29-.34a2.55,2.55,0,0,0-2.66,0Zm.37-6.66v.06c.32,0,.83.14,1.16-.34a.61.61,0,0,0-1.16.28Zm.75,23.89-.34.41.34.34.41-.34Zm.81-11.49-.79.76.41.37c.35,0,.84.16,1.13-.37Zm.21,4.41h-.59v.55h.59Zm.54,3.22c-.14,0-.94-.16-1.13.41a4.75,4.75,0,0,0,.59.44l.2-.07a4.44,4.44,0,0,0,.34-.65Zm-.54,12.47h-.59v.62h.59Zm.2-40.81.34.34c.28,0,1,.12,1.13-.34-.09-.3-1.34-.64-1.49,0Zm.34,6.9c.87.69,1.06.92,1.54.72.27-.27.41-.45.41-.54,0-.85-1.58-.86-2-.18Zm.34,10.33.45.41c.15,0,0,.17.75-.41-.16-.25-1-.44-1.22,0Zm.45,18,.34.35.21.06a3.49,3.49,0,0,0,.54-.41.57.57,0,0,0-1.11,0Zm.46-24.19-.14.07.41.78.34-.41C238.85,92.7,238.65,92.55,238.56,92.55Zm-.14,11.55c.63,0,1.39.16,1.54-.34C239.89,103.49,239,103.5,238.42,104.1Zm12.51,9.52a4.4,4.4,0,0,0-.5-.21l-.54-.21a.62.62,0,0,1-.36-.3c1.25-1.4.78-2.77.78-5.33l.42.41.37-.41-.37-.38-.42.34c-.31-.52-.64-1-1-1.54s-.66-1-.95-1.54a6,6,0,0,0-1.47-1.33,3.64,3.64,0,0,0-1.54-.54l.41-.35c-.71-.57-.65-.36-.79-.41l.38,1.17c-1,0-2.39,1.75-3.08,0l-.37.37c1,1.25.72,1.24.82,1.54-1.89,1.88.91,7.91-3.56,7.69l.45.34c.9-1,2.06-1.55,2.66-.34,0,1.19-1.63,1.62-1.91,2.32,2,.18,2.56,2.81,3.86,3.42h.27a3.83,3.83,0,0,0,3.15-1.64l2.32-3,1.13.41v-.21A.26.26,0,0,0,250.93,113.62ZM239.62,121l-.45-.34.45.75Zm.34-19.18.41.41c.2-.07-.09.21.78-.41-.13-.26-.93-.48-1.19,0Zm9.67-13.53c-.26-2.72-1.12-6.24-3.52-7.56.9-1.2,1.66.75,2.67.35l.07-.14a2.47,2.47,0,0,0-.41-.62,2,2,0,0,1-.54-.08l-.75-.19-.78-.19a4.91,4.91,0,0,0-.67-.08,2,2,0,0,0-1.43.58c-2.26.85-2,3.88-3.53,5,.87.07,1.26.83,1.17,2.29a2.21,2.21,0,0,1-1.58,2.67c1.23,0,2.13.86,2.7,2.66l-1.88.76-.06.2c0,.09.13.29.41.58.68.35,2-.66,2.32-.78h.38a4.43,4.43,0,0,0,3.59-1.67,22.88,22.88,0,0,0,2.18-3.7Zm-8.92,7h-.34l.34.41Zm.44-20.67.35.41c.31,0,.91.15,1.19-.41C242.56,74.3,241.44,74,241.15,74.62Zm1.54,23.79c-.27-.55-.95-.38-1.19-.41l1.19,1.2Zm.75,3.08-1.16-.75,1.16,1.12Zm-.06-2,.06.07c.83.62.6.35.79.41a3.38,3.38,0,0,0,.34-.62c0-.89-1.19-.73-1.19.07Zm4,.34c-.62.07-.93.33-.93.79v.14a1.5,1.5,0,0,0,.79.47c.31,0,.63-.53.8-.82a4.38,4.38,0,0,1,.38-.56.65.65,0,0,1,.36-.29,4.69,4.69,0,0,1-1.4.2Zm.06-5h-.54v.54h.54Zm1-.21c-.27.08,0-.22-.79.41l.34.34c.62-.75.4-.7.45-.84Zm.75,24.13c-.24,0-.88-.13-1.2.41a2.23,2.23,0,0,0,.65.45l.14-.07a2.31,2.31,0,0,0,.41-.65Zm.78-16.44h-.65c-.66,0-.95.21-.88.62v.14c.26.48.94.35,1.09.37a.72.72,0,0,0,.44-.72Zm-1-25.9h-.54V77H249Zm2.59,5.85c-.95.07-1.35-.18-2,.34.36.67,1,.39,1.57.45C251.67,82.34,251.47,82.4,251.56,82.26Zm-.78-4.2-.21-.07a2.59,2.59,0,0,0-.55.44l.34.41c.47-.64.33-.68.37-.78Zm.37-3.08h-.79l.79.34Zm.21,19.31h-.58v.65h.58Zm-.58,2.19.37.34c.86,0,1.44.17,2-.34-.24-.18-2-.66-2.42,0Zm1.33,4.41h-.55v.55h.55Zm-.21-15.18.41.41c.15,0,.08.16.79-.41-.19-.29-.94-.67-1.25,0Zm1.54,21.85a.6.6,0,0,0-.79-.33.61.61,0,0,0-.34.33c.13.52,1,.38,1.13.41Zm0,7.34c-.14,0-.09.18-.75-.44l-.38.44c.07.23.33.35.79.35h.34Zm-.25-36.28h-.55v.55h.55Zm-.55,16.3.41.34h.14a4.53,4.53,0,0,0,.61-.34.61.61,0,0,0-1.16,0Zm6.49,12.62H258l1.12.41Z"/><path class="cls-1" d="M300.11,125.62c-1.15,2-4.11,1.37-5.29,1.47-2.24-2.61-5.25,3.44-7.15-3.11-.51-2-.72-2.93-1.19-4.41a9.87,9.87,0,0,0-6.33.07c-3.86,1.7-.55,7.55-6.42,7.55-.72,0-3.27-.2-4-.2-1.13,0-2.85.94-4.47-2.12.11-.25.22-.51.34-.77.46-1.06.44-1.89,3.42-16.7a26.08,26.08,0,0,0,.13-2.94c2.23-8.42,5.37-30.25,6.12-31.48,1.81-3.48,6.42-.34,9.74-1.71-.22-.07,2.4-.07,2.64-.07,2.39,0,2.41,1.13,3.41,3.42,0,1.91.93,4.51.38,6.52,1.44,1.54.86,1.44,5.3,27a4.77,4.77,0,0,1,1.19,3.42l-.41.37.65.75c.09,3,1.78,7.48,2.09,12.1Zm-28.47-11-.41.37c.66.53.65.38.75.41l.07-.13a3.16,3.16,0,0,0-.41-.74ZM273,93.56h-.55v.55H273Zm.92,23.72.75.79.41-.44c-.31-.54-.95-.41-1.16-.44Zm2-7.62-.41.41a2.91,2.91,0,0,0,.61.45l.14-.11v-.13a6.89,6.89,0,0,0-.34-.66Zm.54-3.21h-.54V107h.54Zm.14-3.59-.34.38.79.75.34-.41Zm.65,11.21h-.62v.55h.65Zm.34-27H277v.59h.58Zm.55,13.16c-.1,0-.78-.3-1.09.38a2,2,0,0,0,.61.41l.14-.07c.29-.29.44-.48.44-.54Zm.79,6.81a1.64,1.64,0,0,0-1.88.78c.15.61.87.35,1.53.41a1.79,1.79,0,0,0,.35-1.32Zm0-25.84c-.32-.64-1-.34-1.13-.35s-.26.79.85.79l.28-.07ZM277.73,85l.34.41c.31,0,.92.15,1.2-.41-.14-.37-1.28-.66-1.54-.13Zm0,29.67,1.13,1,.78-.76c-.41-.51-1.08-.24-1.91-.33Zm.83-24.84a.57.57,0,0,0-.45.67.55.55,0,0,0,.45.45l.35-.34v-.13A5.84,5.84,0,0,0,278.56,89.82Zm.76,28.5c-.25,0-.89-.13-1.2.41a5.41,5.41,0,0,0,.65.45l.14-.11a4.26,4.26,0,0,0,.41-.54ZM286,107.38l-.65-9.57.79-.78-.86.07a10.63,10.63,0,0,1-.61-5,1.64,1.64,0,0,0-1.95-.79A2.66,2.66,0,0,0,281.56,94c-2.21,2.08.3,7.48-3,8.34l-.07.14c0,.61,1.41.73,1.54,1-1.45,2.18,1.68,5.39-1.47,6.49l.35.34c1-1.12,4.07-.62,5.33-.75.2.07.34.32.41.75V110c1.06-1.06,1.6-1.37,1.6-2.08-.05-.13-.15-.53-.32-.53Zm-5-19.61c-.79,1.1-.91,1.72-1.67,1,.27-.82,1.91-.77,2.25-1.19-.27,0-.36-.12-.62.24ZM279.68,83l.75.75c.55-.78,2.48.31,2.67-1.13.07,0-2.54-.33-3.46.38Zm.34,33.09-.34.78.34-.41Zm0-37.29.41.41.79-.76c-.4,0-.9-.13-1.24.35Zm3.11,36c-1.11-.7-1.81-1.79-2.7-1.79a.64.64,0,0,0-.37.83.62.62,0,0,0,.37.37,1,1,0,0,1,.79-.28c1.38,0,2,3,3,1a1.26,1.26,0,0,1-1.13-.13Zm-1.57-39.46h-.79l.79.45Zm.41,10,.72.79c.15-.06,0,.17.75-.41-.52-.58-1.3-1.26-1.51-.43Zm1.13-6.08-.41.34c.53.49.65.41.75.44l.07-.13a2.4,2.4,0,0,0-.45-.7Zm-.41,9.53.75,1.1.41-.41Zm.41,22.8V112l.34-.38Zm2.22-25.46-.14-.07c-.09,0-.27.13-.54.41l.34.34c.27-.27.41-.48.41-.62Zm4.2,27.72c-.71-1.2-2.63-1-3.75-.35l.34.35c1.38-.87,2.11.19,3.41.41Zm-3-21.3h-.41l.41.34Zm-.41,25.5v.34l.41-.34Zm.41-18v.13c.29,0,.85.15,1.13-.41a.6.6,0,0,0-1.17.22Zm1.47,1.6-.07.11c-.12,0-.32-.15-.62-.45l-.44.34c.3.56,1,.43,1.13.45Zm0-14c-.13,0-.12-.16-.69.41l.35.34a2,2,0,0,0,.41-.62ZM287.56,110c.29.83,1,1,2.7,1.57C290.11,111.07,289.07,110.45,287.56,110Zm.58-16.13h-.54v.58h.54Zm-.54,13.87c1.26.22,2.28,1.28,3.41.41-.12,0-2.27-1.35-3.4-.41Zm.78-3.79-.44.34.44.44.34-.44ZM291,117.19l.79.79a2.31,2.31,0,0,0,.41-.65c0-.71-1-.71-1.19-.14Zm2.33-13.29-.41.34.41.44.34-.44Z"/><path class="cls-1" d="M334.23,106.62c-.48,6.19-.67,9.61-3.35,14.62a9.62,9.62,0,0,1-2.57,3.2c-2,1.77-2.21,1.48-7.52,2.8-.81-.13-1.62-.22-2.44-.27-8.89-.77-6,0-9.62-2.09a11.67,11.67,0,0,1-3.54-2.78,5.52,5.52,0,0,1-1.35-2.76c-.12-.55-.13-.5-.8-3.06-.9-3.4-.9-23.2-1.32-23a1.32,1.32,0,0,1,1.09-1.34c.61-.46.79-1.26-.61-1.12a35.76,35.76,0,0,1,.55-8c.9-4.76,2.83-6.8,6-8.76,2.27-1.34,3.74-3.22,6.39-2.12,2.91-1.46,4.86-.27,9.6,0v.28c0-.2.69.58.82.75,3.07.11,3.61,3.84,6,5.61,2.36,7.54,3.13,11,1.71,15.56-3.89,0-10.32,2.1-11.93-1.81,1.21-1.81-.77-3.86.41-5.54-.2-1.17-1.28-2.28-.41-3.32-1.53-.26-3.34-1.64-4.81-2-1.32,1.89-2.75,4.55-2.19,6.78-1.13,2.26.75,5-.41,7,.53.26.48.54.2,1-.44.66,0,3.32.09,6.61.1,6,.2,5.7,0,7.59-.1.91-.2,2-.31,3.35,1.17.93,1.57,1.55,3.69,3.38,1-2.19,5.57-1,3.38-4.44,1.78-3.27-1.24-7.15,1.71-10h9.78a5,5,0,0,1,1.54,3.9Zm-30.67,3.43h-.79l.79.44ZM308,91.15c-.46-.66-1-.25-1.54.38H308Zm-.48-6.53H307v.55h.58Zm.69,9.64h-.55v.58h.55Zm0,22.63h-.55v.55h.55Zm.41-36h-.55v.58h.55Zm0,16.41h-.55v.47h.55Zm1.23,15.32-.34.78h.68l.07-.17A2.25,2.25,0,0,0,309.89,112.62Zm1.33-35.41h-.54v.54h.54Zm-.54,3.89v.38l.34-.38Zm.54,20.24h-.54v.58h.54Zm0,5.54h-.54v.58h.54Zm1.27-22h-1.13l.79.79a2.31,2.31,0,0,0,.41-.65Zm.75,8.2h-.41l.41.34Zm1.13-12.27c-.31.06-.94-.23-1.13.34.3.3.49.45.58.45l.14-.07c.6-.54.37-.55.41-.69Zm-.75,37.12h-.38l.38.34Zm2.42,3.83h-.54v.58H316Zm.38-5.5h-.58v.54h.58Zm2.8,4.24a1.2,1.2,0,0,0-1.13-.41l-.07.2c0,.39.3.58.89.58h.31Zm.34-46L321,75.92l.34-.34Zm3.63,42.22c-.76,0-1.1,0-1,.06.32.13,1.19,1.24,1.81.35a.79.79,0,0,0-.81-.36Zm1.19-35.93.34.34c.18,0-.06.16.79-.34-.14-.22-.95-.44-1.13.05Zm1.81,0,1.13,1.13.34-.41Zm.79,26.32c-.52.06-.07-.07-.79.38l.38.41c.57-.66.37-.6.41-.74Zm.34-22.25-.34.34.34.45.34-.45ZM327,114.14l.68.71.45-.37c-.32-.58-1-.29-1.13-.29Zm1.13,3.72h-.45l.45.34Zm.54-9.53h-.54v.58h.54Zm1.13-25.54h-.58v.55h.58Zm.34,29.67h-.56V113h.54Z"/><path class="cls-1" d="M373,126.15c-1.57,1.49-3.25-.21-5.23.79-1.24-.62-3.3-.28-3.76-.28-4.35,0-3.93-1.59-5.3-6.07-1.42-5.16-1.37-4.54-2.91-7.31-.68-1.11-1.21-2.62-.58-3.75,0,0-1.32-.78-2-1.2a4.34,4.34,0,0,0-2.19-.68l-1.13,1.09c2.45,1.37-.2,4.33,1.13,5.67-1.09,1.8.58,3.22,0,5h-.14c.09,0-.24.25-1,.75,1.67.59,1.14,2.79,1.18,4.68,0,.52,0,.74-.05.65l-1.16,1.13c-3.1,0-7.91,1.75-10.94-1.16a13.34,13.34,0,0,1,.1-5.73c.52-5.72.54,2,.31-14.32,0-2.62-.18-14.41-.45-13.78-.17-.78.52-4.92.31-4.61-.31-10.16-1.7-13.87.82-15.36,3.31,0,8.22-1.65,11,1.13.59,2.39-1.15,4.06,0,6.07h-.14c.09,0-.24.26-1,.76.53.52.78.87,1.13.78.52,1-.76,1.1-1.13,1.47l.79.75-.79.79c1.42.58,1.13,3.08,2.67,3.41v.37c-.47,0-.94.16-1.13-.37-.52.26-.39,1-.41,1.13a6.3,6.3,0,0,0,1.88,1.53,1.5,1.5,0,0,0,.78-1.88l-.34-.41c.31.32,1.08-.42,1.47-.78-.55-1.37,1.2-3,1.2-4.54a1.56,1.56,0,0,0,1.88-.72l-.82-.71c1.18-1.65,1.57-5.77,2.87-7.41a3.77,3.77,0,0,1,3.83-1.71c1.3.44,6.72-1.21,8.44,1.57-2.62,7.66-10.21,19.35-10.62,24.62l4.3,10.14c1.08,1.79,1.12,3.6,2.26,4.54a2.6,2.6,0,0,0,1.06,2.66c.6,2.92,3.76,6,4,10A4.09,4.09,0,0,1,373,126.15ZM342.33,90.62l-.41.41.41.34.34-.34Zm-.41,6.87c.85-.07,1.57.22,1.88-.44a1.37,1.37,0,0,0-1.88.42h0Zm2.32-9.87-1.2-.41,1.2.76ZM343,100.85v.41l.41-.41Zm.76,3.08-.07-.07a1.74,1.74,0,0,0-.69.41l.41.44a1.93,1.93,0,0,0,.41-.65Zm1.53,6.8H345l.34.41Zm0-27.31c.39.25.77.48,1.13.68a.45.45,0,0,0,.41-.27c-.64-.67-1.07-1.11-1.54-.44Zm.59,10.43h-.59v.58h.59Zm0,25h-.59v.58h.59Zm.54-32.47c-.15,0,0-.18-.75.41l.41.37a3.84,3.84,0,0,0,.44-.54Zm-.34,12.24h-.41l.41.37Zm1.47,6.11c-.7.32-1.78.61-1.88,1.47.18-1.08,2.07-.45,1.88-1.26Zm-1.88,3.35c0,.2-.12.93.41,1.2.64-1.56,2.08-.73,3-1.2a4.67,4.67,0,0,0-3.41,0Zm3.42-17.77c-.66.55-2.79.13-3,.34.4,1,1.84.71,2.22.75.17-.17.79-.64.79-1Zm-2.46,22.93h-.55v.59h.55Zm.2-32.47-.41.41c.71.45.2.32.79.38-.07-.27.2.06-.38-.84Zm-.41,22,.41.45c.1,0,.17.11.72-.45a.68.68,0,0,0-.93-.24.79.79,0,0,0-.2.17ZM348,96.35c-1.06,1-.66,1-.75,1.19,1.9-.56,3.43-.66,4.17-1.54-1.15-2.46-1.86,1.28-3.42.28Zm-.44,15.55-.34.34a3.57,3.57,0,0,0,.55.41l.2-.07C348,112.48,348.1,112.41,347.56,111.9Zm.62-17.67h-.62v.58h.62Zm1.33,4.71c-.55-.59-2-.71-2,.28,0,.69.91.41,1.54.47a4.26,4.26,0,0,0,.41-.54Zm-1.54-6,.34.34c.18,0-.06.16.79-.34,0-.32-1-.64-1.1,0Zm.55,7.76H348v.54h.59Zm0,13.63H348v.58h.59Zm.78-28.26a.58.58,0,0,0-.63.51.56.56,0,0,0,.43.61c.34,0,1,.19,1.13-.37a1.87,1.87,0,0,0-.9-.76Zm-.54-1.88v.34l.34-.34Zm0,20.06v.44l.34-.44Zm3.35-2.22c.28-.1-.41-.07-1.88-.07-.69,0-1.06.25-1.13.75a3.08,3.08,0,0,0,3.42,0c0-.09.13-.18-.38-.69Zm-2.67,5.16c0,.67.94.47,1.2.51a2.31,2.31,0,0,0,.41-.65c0-.7-1.58-.85-1.58.13Zm.79-14.7-.35,1.13c1.23.48,2.32.67,2.67,2,.26-.06,1.79.25,2.25-.75,0-.06-3.57-.44-4.54-2.39Zm.61,7.56c-.59,0-.92.4-1,1.19.5.21.77-.06,1.54-.75-.24-.34-.29-.45-.51-.45Zm1.27,5c.33.48.86.3,1.19.34a1.42,1.42,0,0,0,.34-.55c0-.65-.44-1-1.5.19Zm.41-6.87c.53.28.66.89,0,1.19.63.42,1.34.77,1.91.34a8.22,8.22,0,0,0-1.87-1.55Zm.71-5.81.07.13a1.29,1.29,0,0,0,1.13-.34c-.08-.29-1.17-.54-1.17.19Zm.82-3.29.38.76.34-.35c-.54-.59-.55-.39-.69-.43Zm1.51,12.15-.75.79.41.34.79-.79Zm-.75,6.46.48.41a1.85,1.85,0,0,0,.72-.41c-.37-.66-1-.53-1.21,0ZM355.22,97c1.19.84,2.33-1.1,3.22-1.1h.2c-1.29-.57-3.2-.46-3.43,1.1ZM356,90.6c-.92.43-.33,2,1,.53.06-.08.11-.12.13-.12-.3-.51-1-.39-1.14-.39Zm2.22,9.09c.23-.09-.31-.06-1.54-.06-.45,0-.68.28-.68.85,0,.27.18.41.55.41.63,0,1,.06,1.12-.15s.55-.5.55-.84Zm-2.22,5,1.09.69c.3-.28.45-.46.45-.55,0-.81-1.4-.91-1.55-.15Zm.68-18.62h-.34l.34.34Zm.41,2.66-.75.75c.14-.06.39,0,.75.35l.38-.35.07-.13c0-.1-.16-.31-.46-.63Zm0,20.51-.41.34.41.34.38-.34Zm.79-1.91-.41-.41.41.78Zm.34-2,.41.41c.1,0,.22.09.72-.41a.67.67,0,0,0-.94-.16.64.64,0,0,0-.2.2ZM360.35,93h-.58v.6h.58Zm-.24-6.66.44.41c.1,0,.1.12.76-.41a.69.69,0,0,0-.94-.24.72.72,0,0,0-.27.28Zm1.2,22.83-.41.34a3.49,3.49,0,0,0,.54.41l.21-.07c0-.06.08-.07-.35-.64Zm1.91,4.14c-.67.06-1.37-.2-1.57.41.38.48.79.3,1.13.34.64-.77.36-.54.43-.71Zm0-26.19-.44-.37.44.78Zm.48,21.2a.66.66,0,0,0-.71.57.64.64,0,0,0,.57.71l.75-.78a1.89,1.89,0,0,0-.62-.46Zm.2,6.87c-.1,0-.17-.11-.68.41l.34.34a3.15,3.15,0,0,0,.41-.55Zm-.13,4.75h-.55v.54h.55Zm2.08-38.49h-.41l.41.34Z"/></g></g></svg>